ISO-10303-21;
HEADER;
/* Generated by software containing ST-Developer
 * from STEP Tools, Inc. (www.steptools.com) 
 */

FILE_DESCRIPTION(
/* description */ (''),
/* implementation_level */ '2;1');

FILE_NAME(
/* name */ 'V6_Funnel-Lid.step',
/* time_stamp */ '2026-04-16T22:28:52-04:00',
/* author */ (''),
/* organization */ (''),
/* preprocessor_version */ 'ST-DEVELOPER v20.1',
/* originating_system */ 'Autodesk Translation Framework v14.24.0.0',
/* authorisation */ '');

FILE_SCHEMA (('AUTOMOTIVE_DESIGN { 1 0 10303 214 3 1 1 }'));
ENDSEC;

DATA;
#10=MECHANICAL_DESIGN_GEOMETRIC_PRESENTATION_REPRESENTATION('',(#20,#21),
#241);
#11=CONTEXT_DEPENDENT_OVER_RIDING_STYLED_ITEM('',(#266),#252,#21,(#15));
#12=MAPPED_ITEM('',#13,#153);
#13=REPRESENTATION_MAP(#153,#251);
#14=ITEM_DEFINED_TRANSFORMATION($,$,#132,#152);
#15=(
REPRESENTATION_RELATIONSHIP($,$,#252,#251)
REPRESENTATION_RELATIONSHIP_WITH_TRANSFORMATION(#14)
SHAPE_REPRESENTATION_RELATIONSHIP()
);
#16=CONTEXT_DEPENDENT_SHAPE_REPRESENTATION(#15,#250);
#17=NEXT_ASSEMBLY_USAGE_OCCURRENCE('Funnel Lid:1','Funnel Lid:1',
'Funnel Lid:1',#254,#255,'Funnel Lid:1');
#18=SHAPE_REPRESENTATION_RELATIONSHIP('SRR','None',#252,#19);
#19=ADVANCED_BREP_SHAPE_REPRESENTATION('',(#22),#240);
#20=STYLED_ITEM('',(#266),#22);
#21=STYLED_ITEM('',(#267),#12);
#22=MANIFOLD_SOLID_BREP('Body1',#118);
#23=PLANE('',#150);
#24=PLANE('',#151);
#25=LINE('',#216,#27);
#26=LINE('',#224,#28);
#27=VECTOR('',#172,13.4781530775826);
#28=VECTOR('',#183,14.7281530775826);
#29=CYLINDRICAL_SURFACE('',#139,13.4781530775826);
#30=CYLINDRICAL_SURFACE('',#144,14.7281530775826);
#31=FACE_OUTER_BOUND('',#38,.T.);
#32=FACE_OUTER_BOUND('',#39,.T.);
#33=FACE_OUTER_BOUND('',#40,.T.);
#34=FACE_OUTER_BOUND('',#41,.T.);
#35=FACE_OUTER_BOUND('',#42,.T.);
#36=FACE_OUTER_BOUND('',#43,.T.);
#37=FACE_OUTER_BOUND('',#44,.T.);
#38=EDGE_LOOP('',(#80,#81,#82,#83,#84,#85));
#39=EDGE_LOOP('',(#86,#87,#88,#89,#90));
#40=EDGE_LOOP('',(#91,#92,#93,#94,#95));
#41=EDGE_LOOP('',(#96,#97,#98,#99,#100));
#42=EDGE_LOOP('',(#101,#102,#103,#104,#105));
#43=EDGE_LOOP('',(#106));
#44=EDGE_LOOP('',(#107));
#45=CIRCLE('',#134,13.4781530775826);
#46=CIRCLE('',#135,13.4781530775826);
#47=CIRCLE('',#136,1.);
#48=CIRCLE('',#137,13.7281530775826);
#49=CIRCLE('',#138,13.7281530775826);
#50=CIRCLE('',#140,13.4781530775826);
#51=CIRCLE('',#142,1.);
#52=CIRCLE('',#143,14.7281530775826);
#53=CIRCLE('',#145,14.7281530775826);
#54=CIRCLE('',#146,14.7281530775826);
#55=CIRCLE('',#148,13.7281530775826);
#56=CIRCLE('',#149,1.);
#57=VERTEX_POINT('',#205);
#58=VERTEX_POINT('',#206);
#59=VERTEX_POINT('',#209);
#60=VERTEX_POINT('',#211);
#61=VERTEX_POINT('',#215);
#62=VERTEX_POINT('',#219);
#63=VERTEX_POINT('',#223);
#64=VERTEX_POINT('',#225);
#65=VERTEX_POINT('',#229);
#66=EDGE_CURVE('',#57,#58,#45,.T.);
#67=EDGE_CURVE('',#58,#57,#46,.T.);
#68=EDGE_CURVE('',#57,#59,#47,.T.);
#69=EDGE_CURVE('',#60,#59,#48,.T.);
#70=EDGE_CURVE('',#59,#60,#49,.T.);
#71=EDGE_CURVE('',#58,#61,#25,.T.);
#72=EDGE_CURVE('',#61,#61,#50,.T.);
#73=EDGE_CURVE('',#60,#62,#51,.T.);
#74=EDGE_CURVE('',#62,#62,#52,.T.);
#75=EDGE_CURVE('',#62,#63,#26,.T.);
#76=EDGE_CURVE('',#64,#63,#53,.T.);
#77=EDGE_CURVE('',#63,#64,#54,.T.);
#78=EDGE_CURVE('',#65,#65,#55,.T.);
#79=EDGE_CURVE('',#65,#64,#56,.T.);
#80=ORIENTED_EDGE('',*,*,#66,.T.);
#81=ORIENTED_EDGE('',*,*,#67,.T.);
#82=ORIENTED_EDGE('',*,*,#68,.T.);
#83=ORIENTED_EDGE('',*,*,#69,.F.);
#84=ORIENTED_EDGE('',*,*,#70,.F.);
#85=ORIENTED_EDGE('',*,*,#68,.F.);
#86=ORIENTED_EDGE('',*,*,#66,.F.);
#87=ORIENTED_EDGE('',*,*,#67,.F.);
#88=ORIENTED_EDGE('',*,*,#71,.T.);
#89=ORIENTED_EDGE('',*,*,#72,.F.);
#90=ORIENTED_EDGE('',*,*,#71,.F.);
#91=ORIENTED_EDGE('',*,*,#69,.T.);
#92=ORIENTED_EDGE('',*,*,#70,.T.);
#93=ORIENTED_EDGE('',*,*,#73,.T.);
#94=ORIENTED_EDGE('',*,*,#74,.T.);
#95=ORIENTED_EDGE('',*,*,#73,.F.);
#96=ORIENTED_EDGE('',*,*,#74,.F.);
#97=ORIENTED_EDGE('',*,*,#75,.T.);
#98=ORIENTED_EDGE('',*,*,#76,.F.);
#99=ORIENTED_EDGE('',*,*,#77,.F.);
#100=ORIENTED_EDGE('',*,*,#75,.F.);
#101=ORIENTED_EDGE('',*,*,#78,.T.);
#102=ORIENTED_EDGE('',*,*,#79,.T.);
#103=ORIENTED_EDGE('',*,*,#76,.T.);
#104=ORIENTED_EDGE('',*,*,#77,.T.);
#105=ORIENTED_EDGE('',*,*,#79,.F.);
#106=ORIENTED_EDGE('',*,*,#78,.F.);
#107=ORIENTED_EDGE('',*,*,#72,.T.);
#108=TOROIDAL_SURFACE('',#133,14.4781530775826,1.);
#109=TOROIDAL_SURFACE('',#141,13.7281530775826,1.);
#110=TOROIDAL_SURFACE('',#147,13.7281530775826,1.);
#111=ADVANCED_FACE('',(#31),#108,.T.);
#112=ADVANCED_FACE('',(#32),#29,.F.);
#113=ADVANCED_FACE('',(#33),#109,.T.);
#114=ADVANCED_FACE('',(#34),#30,.T.);
#115=ADVANCED_FACE('',(#35),#110,.T.);
#116=ADVANCED_FACE('',(#36),#23,.T.);
#117=ADVANCED_FACE('',(#37),#24,.F.);
#118=CLOSED_SHELL('',(#111,#112,#113,#114,#115,#116,#117));
#119=DERIVED_UNIT_ELEMENT(#121,1.);
#120=DERIVED_UNIT_ELEMENT(#243,-3.);
#121=(
MASS_UNIT()
NAMED_UNIT(*)
SI_UNIT(.KILO.,.GRAM.)
);
#122=DERIVED_UNIT((#119,#120));
#123=MEASURE_REPRESENTATION_ITEM('density measure',
POSITIVE_RATIO_MEASURE(7850.),#122);
#124=PROPERTY_DEFINITION_REPRESENTATION(#129,#126);
#125=PROPERTY_DEFINITION_REPRESENTATION(#130,#127);
#126=REPRESENTATION('material name',(#128),#240);
#127=REPRESENTATION('density',(#123),#240);
#128=DESCRIPTIVE_REPRESENTATION_ITEM('Steel','Steel');
#129=PROPERTY_DEFINITION('material property','material name',#255);
#130=PROPERTY_DEFINITION('material property','density of part',#255);
#131=AXIS2_PLACEMENT_3D('',#202,#154,#155);
#132=AXIS2_PLACEMENT_3D('',#203,#156,#157);
#133=AXIS2_PLACEMENT_3D('',#204,#158,#159);
#134=AXIS2_PLACEMENT_3D('',#207,#160,#161);
#135=AXIS2_PLACEMENT_3D('',#208,#162,#163);
#136=AXIS2_PLACEMENT_3D('',#210,#164,#165);
#137=AXIS2_PLACEMENT_3D('',#212,#166,#167);
#138=AXIS2_PLACEMENT_3D('',#213,#168,#169);
#139=AXIS2_PLACEMENT_3D('',#214,#170,#171);
#140=AXIS2_PLACEMENT_3D('',#217,#173,#174);
#141=AXIS2_PLACEMENT_3D('',#218,#175,#176);
#142=AXIS2_PLACEMENT_3D('',#220,#177,#178);
#143=AXIS2_PLACEMENT_3D('',#221,#179,#180);
#144=AXIS2_PLACEMENT_3D('',#222,#181,#182);
#145=AXIS2_PLACEMENT_3D('',#226,#184,#185);
#146=AXIS2_PLACEMENT_3D('',#227,#186,#187);
#147=AXIS2_PLACEMENT_3D('',#228,#188,#189);
#148=AXIS2_PLACEMENT_3D('',#230,#190,#191);
#149=AXIS2_PLACEMENT_3D('',#231,#192,#193);
#150=AXIS2_PLACEMENT_3D('',#232,#194,#195);
#151=AXIS2_PLACEMENT_3D('',#233,#196,#197);
#152=AXIS2_PLACEMENT_3D('',#234,#198,#199);
#153=AXIS2_PLACEMENT_3D('',#235,#200,#201);
#154=DIRECTION('axis',(0.,0.,1.));
#155=DIRECTION('refdir',(1.,0.,0.));
#156=DIRECTION('axis',(0.,0.,1.));
#157=DIRECTION('refdir',(1.,0.,0.));
#158=DIRECTION('center_axis',(0.,0.,-1.));
#159=DIRECTION('ref_axis',(1.,0.,0.));
#160=DIRECTION('center_axis',(0.,0.,1.));
#161=DIRECTION('ref_axis',(1.,0.,0.));
#162=DIRECTION('center_axis',(0.,0.,1.));
#163=DIRECTION('ref_axis',(1.,0.,0.));
#164=DIRECTION('center_axis',(0.,1.,0.));
#165=DIRECTION('ref_axis',(-1.,0.,0.));
#166=DIRECTION('center_axis',(0.,0.,1.));
#167=DIRECTION('ref_axis',(-1.,0.,0.));
#168=DIRECTION('center_axis',(0.,0.,1.));
#169=DIRECTION('ref_axis',(-1.,0.,0.));
#170=DIRECTION('center_axis',(0.,0.,-1.));
#171=DIRECTION('ref_axis',(-1.,0.,0.));
#172=DIRECTION('',(0.,0.,1.));
#173=DIRECTION('center_axis',(0.,0.,-1.));
#174=DIRECTION('ref_axis',(-1.,0.,0.));
#175=DIRECTION('center_axis',(0.,0.,-1.));
#176=DIRECTION('ref_axis',(-1.,0.,0.));
#177=DIRECTION('center_axis',(0.,-1.,0.));
#178=DIRECTION('ref_axis',(1.,0.,0.));
#179=DIRECTION('center_axis',(0.,0.,-1.));
#180=DIRECTION('ref_axis',(-1.,0.,0.));
#181=DIRECTION('center_axis',(0.,0.,-1.));
#182=DIRECTION('ref_axis',(-1.,0.,0.));
#183=DIRECTION('',(0.,0.,1.));
#184=DIRECTION('center_axis',(0.,0.,1.));
#185=DIRECTION('ref_axis',(-1.,0.,0.));
#186=DIRECTION('center_axis',(0.,0.,1.));
#187=DIRECTION('ref_axis',(-1.,0.,0.));
#188=DIRECTION('center_axis',(0.,0.,1.));
#189=DIRECTION('ref_axis',(1.,0.,0.));
#190=DIRECTION('center_axis',(0.,0.,-1.));
#191=DIRECTION('ref_axis',(-1.,0.,0.));
#192=DIRECTION('center_axis',(0.,-1.,0.));
#193=DIRECTION('ref_axis',(-1.,0.,0.));
#194=DIRECTION('center_axis',(0.,0.,1.));
#195=DIRECTION('ref_axis',(-1.,0.,0.));
#196=DIRECTION('center_axis',(0.,0.,1.));
#197=DIRECTION('ref_axis',(-1.,0.,0.));
#198=DIRECTION('',(0.,0.,1.));
#199=DIRECTION('',(1.,0.,0.));
#200=DIRECTION('center_axis',(0.,0.,1.));
#201=DIRECTION('ref_axis',(1.,0.,0.));
#202=CARTESIAN_POINT('',(0.,0.,0.));
#203=CARTESIAN_POINT('',(0.,0.,0.));
#204=CARTESIAN_POINT('Origin',(0.,-32.2713973643593,74.5426871181338));
#205=CARTESIAN_POINT('',(-13.4781530775826,-32.2713973643593,74.5426871181338));
#206=CARTESIAN_POINT('',(13.4781530775826,-32.2713973643593,74.5426871181338));
#207=CARTESIAN_POINT('Origin',(0.,-32.2713973643593,74.5426871181338));
#208=CARTESIAN_POINT('Origin',(0.,-32.2713973643593,74.5426871181338));
#209=CARTESIAN_POINT('',(-13.7281530775826,-32.2713973643593,73.8812492903677));
#210=CARTESIAN_POINT('Origin',(-14.4781530775826,-32.2713973643593,74.5426871181338));
#211=CARTESIAN_POINT('',(13.7281530775826,-32.2713973643593,73.8812492903677));
#212=CARTESIAN_POINT('Origin',(0.,-32.2713973643593,73.8812492903677));
#213=CARTESIAN_POINT('Origin',(0.,-32.2713973643593,73.8812492903677));
#214=CARTESIAN_POINT('Origin',(0.,-32.2713973643593,76.8812492903677));
#215=CARTESIAN_POINT('',(13.4781530775826,-32.2713973643593,76.8812492903677));
#216=CARTESIAN_POINT('',(13.4781530775826,-32.2713973643593,76.8812492903677));
#217=CARTESIAN_POINT('Origin',(0.,-32.2713973643593,76.8812492903677));
#218=CARTESIAN_POINT('Origin',(0.,-32.2713973643593,74.8812492903677));
#219=CARTESIAN_POINT('',(14.7281530775826,-32.2713973643593,74.8812492903677));
#220=CARTESIAN_POINT('Origin',(13.7281530775826,-32.2713973643593,74.8812492903677));
#221=CARTESIAN_POINT('Origin',(0.,-32.2713973643593,74.8812492903677));
#222=CARTESIAN_POINT('Origin',(0.,-32.2713973643593,76.8812492903677));
#223=CARTESIAN_POINT('',(14.7281530775826,-32.2713973643593,77.8812492903677));
#224=CARTESIAN_POINT('',(14.7281530775826,-32.2713973643593,76.8812492903677));
#225=CARTESIAN_POINT('',(-14.7281530775826,-32.2713973643593,77.8812492903677));
#226=CARTESIAN_POINT('Origin',(0.,-32.2713973643593,77.8812492903677));
#227=CARTESIAN_POINT('Origin',(0.,-32.2713973643593,77.8812492903677));
#228=CARTESIAN_POINT('Origin',(0.,-32.2713973643593,77.8812492903677));
#229=CARTESIAN_POINT('',(-13.7281530775826,-32.2713973643593,78.8812492903677));
#230=CARTESIAN_POINT('Origin',(0.,-32.2713973643593,78.8812492903677));
#231=CARTESIAN_POINT('Origin',(-13.7281530775826,-32.2713973643593,77.8812492903677));
#232=CARTESIAN_POINT('Origin',(0.,-32.2713973643593,78.8812492903677));
#233=CARTESIAN_POINT('Origin',(0.,-32.2713973643593,76.8812492903677));
#234=CARTESIAN_POINT('',(0.,0.,0.));
#235=CARTESIAN_POINT('Origin',(0.,0.,0.));
#236=UNCERTAINTY_MEASURE_WITH_UNIT(LENGTH_MEASURE(0.01),#242,
'DISTANCE_ACCURACY_VALUE',
'Maximum model space distance between geometric entities at asserted c
onnectivities');
#237=UNCERTAINTY_MEASURE_WITH_UNIT(LENGTH_MEASURE(0.01),#242,
'DISTANCE_ACCURACY_VALUE',
'Maximum model space distance between geometric entities at asserted c
onnectivities');
#238=UNCERTAINTY_MEASURE_WITH_UNIT(LENGTH_MEASURE(0.01),#242,
'DISTANCE_ACCURACY_VALUE',
'Maximum model space distance between geometric entities at asserted c
onnectivities');
#239=(
GEOMETRIC_REPRESENTATION_CONTEXT(3)
GLOBAL_UNCERTAINTY_ASSIGNED_CONTEXT((#236))
GLOBAL_UNIT_ASSIGNED_CONTEXT((#242,#244,#245))
REPRESENTATION_CONTEXT('','3D')
);
#240=(
GEOMETRIC_REPRESENTATION_CONTEXT(3)
GLOBAL_UNCERTAINTY_ASSIGNED_CONTEXT((#237))
GLOBAL_UNIT_ASSIGNED_CONTEXT((#242,#244,#245))
REPRESENTATION_CONTEXT('','3D')
);
#241=(
GEOMETRIC_REPRESENTATION_CONTEXT(3)
GLOBAL_UNCERTAINTY_ASSIGNED_CONTEXT((#238))
GLOBAL_UNIT_ASSIGNED_CONTEXT((#242,#244,#245))
REPRESENTATION_CONTEXT('','3D')
);
#242=(
LENGTH_UNIT()
NAMED_UNIT(*)
SI_UNIT(.MILLI.,.METRE.)
);
#243=(
LENGTH_UNIT()
NAMED_UNIT(*)
SI_UNIT($,.METRE.)
);
#244=(
NAMED_UNIT(*)
PLANE_ANGLE_UNIT()
SI_UNIT($,.RADIAN.)
);
#245=(
NAMED_UNIT(*)
SI_UNIT($,.STERADIAN.)
SOLID_ANGLE_UNIT()
);
#246=SHAPE_DEFINITION_REPRESENTATION(#248,#251);
#247=SHAPE_DEFINITION_REPRESENTATION(#249,#252);
#248=PRODUCT_DEFINITION_SHAPE('',$,#254);
#249=PRODUCT_DEFINITION_SHAPE('',$,#255);
#250=PRODUCT_DEFINITION_SHAPE($,$,#17);
#251=SHAPE_REPRESENTATION('',(#131,#152),#239);
#252=SHAPE_REPRESENTATION('',(#132),#240);
#253=PRODUCT_DEFINITION_CONTEXT('part definition',#261,'design');
#254=PRODUCT_DEFINITION('Particle Launcher V6',
'Particle Launcher V6 v11',#256,#253);
#255=PRODUCT_DEFINITION('Funnel Lid','Funnel Lid',#257,#253);
#256=PRODUCT_DEFINITION_FORMATION('',$,#263);
#257=PRODUCT_DEFINITION_FORMATION('',$,#264);
#258=PRODUCT_RELATED_PRODUCT_CATEGORY('Particle Launcher V6 v11',
'Particle Launcher V6 v11',(#263));
#259=PRODUCT_RELATED_PRODUCT_CATEGORY('Funnel Lid','Funnel Lid',(#264));
#260=APPLICATION_PROTOCOL_DEFINITION('international standard',
'automotive_design',2009,#261);
#261=APPLICATION_CONTEXT(
'Core Data for Automotive Mechanical Design Process');
#262=PRODUCT_CONTEXT('part definition',#261,'mechanical');
#263=PRODUCT('Particle Launcher V6','Particle Launcher V6 v11',$,(#262));
#264=PRODUCT('Funnel Lid','Funnel Lid',$,(#262));
#265=PRESENTATION_STYLE_ASSIGNMENT((#268));
#266=PRESENTATION_STYLE_ASSIGNMENT((#269));
#267=PRESENTATION_STYLE_ASSIGNMENT((NULL_STYLE(.NULL.)));
#268=SURFACE_STYLE_USAGE(.BOTH.,#270);
#269=SURFACE_STYLE_USAGE(.BOTH.,#271);
#270=SURFACE_SIDE_STYLE('',(#272));
#271=SURFACE_SIDE_STYLE('',(#273));
#272=SURFACE_STYLE_FILL_AREA(#274);
#273=SURFACE_STYLE_FILL_AREA(#275);
#274=FILL_AREA_STYLE('Steel - Satin',(#276));
#275=FILL_AREA_STYLE('Steel - Satin (1) (4)',(#277));
#276=FILL_AREA_STYLE_COLOUR('Steel - Satin',#278);
#277=FILL_AREA_STYLE_COLOUR('Steel - Satin (1) (4)',#279);
#278=COLOUR_RGB('Steel - Satin',0.627450980392157,0.627450980392157,0.627450980392157);
#279=COLOUR_RGB('Steel - Satin (1) (4)',0.427450980392157,0.517647058823529,
0.913725490196078);
ENDSEC;
END-ISO-10303-21;
