ISO-10303-21;
HEADER;
/* Generated by software containing ST-Developer
 * from STEP Tools, Inc. (www.steptools.com) 
 */

FILE_DESCRIPTION(
/* description */ (''),
/* implementation_level */ '2;1');

FILE_NAME(
/* name */ 'V6_Magazine.step',
/* time_stamp */ '2026-04-16T22:28:36-04:00',
/* author */ (''),
/* organization */ (''),
/* preprocessor_version */ 'ST-DEVELOPER v20.1',
/* originating_system */ 'Autodesk Translation Framework v14.24.0.0',
/* authorisation */ '');

FILE_SCHEMA (('AUTOMOTIVE_DESIGN { 1 0 10303 214 3 1 1 }'));
ENDSEC;

DATA;
#10=MECHANICAL_DESIGN_GEOMETRIC_PRESENTATION_REPRESENTATION('',(#17),#139);
#11=ITEM_DEFINED_TRANSFORMATION($,$,#83,#92);
#12=(
REPRESENTATION_RELATIONSHIP($,$,#150,#149)
REPRESENTATION_RELATIONSHIP_WITH_TRANSFORMATION(#11)
SHAPE_REPRESENTATION_RELATIONSHIP()
);
#13=CONTEXT_DEPENDENT_SHAPE_REPRESENTATION(#12,#148);
#14=NEXT_ASSEMBLY_USAGE_OCCURRENCE('Magazine:1','Magazine:1',
'Magazine:1',#152,#153,'Magazine:1');
#15=SHAPE_REPRESENTATION_RELATIONSHIP('SRR','None',#150,#16);
#16=ADVANCED_BREP_SHAPE_REPRESENTATION('',(#18),#138);
#17=STYLED_ITEM('',(#165),#18);
#18=MANIFOLD_SOLID_BREP('Body1',#69);
#19=LINE('',#130,#21);
#20=LINE('',#132,#22);
#21=VECTOR('',#111,0.8001);
#22=VECTOR('',#114,1.0541);
#23=CYLINDRICAL_SURFACE('',#90,0.8001);
#24=CYLINDRICAL_SURFACE('',#91,1.0541);
#25=CIRCLE('',#88,1.0541);
#26=CIRCLE('',#89,0.8001);
#27=FACE_BOUND('',#34,.T.);
#28=FACE_BOUND('',#36,.T.);
#29=FACE_OUTER_BOUND('',#33,.T.);
#30=FACE_OUTER_BOUND('',#35,.T.);
#31=FACE_OUTER_BOUND('',#37,.T.);
#32=FACE_OUTER_BOUND('',#38,.T.);
#33=EDGE_LOOP('',(#51));
#34=EDGE_LOOP('',(#52));
#35=EDGE_LOOP('',(#53));
#36=EDGE_LOOP('',(#54));
#37=EDGE_LOOP('',(#55,#56,#57,#58));
#38=EDGE_LOOP('',(#59,#60,#61,#62));
#39=ELLIPSE('',#85,1.7315485997798,1.0541);
#40=ELLIPSE('',#86,1.31430797332684,0.8001);
#41=VERTEX_POINT('',#120);
#42=VERTEX_POINT('',#122);
#43=VERTEX_POINT('',#125);
#44=VERTEX_POINT('',#127);
#45=EDGE_CURVE('',#41,#41,#39,.T.);
#46=EDGE_CURVE('',#42,#42,#40,.T.);
#47=EDGE_CURVE('',#43,#43,#25,.T.);
#48=EDGE_CURVE('',#44,#44,#26,.T.);
#49=EDGE_CURVE('',#44,#42,#19,.T.);
#50=EDGE_CURVE('',#43,#41,#20,.T.);
#51=ORIENTED_EDGE('',*,*,#45,.F.);
#52=ORIENTED_EDGE('',*,*,#46,.F.);
#53=ORIENTED_EDGE('',*,*,#47,.T.);
#54=ORIENTED_EDGE('',*,*,#48,.T.);
#55=ORIENTED_EDGE('',*,*,#48,.F.);
#56=ORIENTED_EDGE('',*,*,#49,.T.);
#57=ORIENTED_EDGE('',*,*,#46,.T.);
#58=ORIENTED_EDGE('',*,*,#49,.F.);
#59=ORIENTED_EDGE('',*,*,#47,.F.);
#60=ORIENTED_EDGE('',*,*,#50,.T.);
#61=ORIENTED_EDGE('',*,*,#45,.T.);
#62=ORIENTED_EDGE('',*,*,#50,.F.);
#63=PLANE('',#84);
#64=PLANE('',#87);
#65=ADVANCED_FACE('',(#29,#27),#63,.F.);
#66=ADVANCED_FACE('',(#30,#28),#64,.T.);
#67=ADVANCED_FACE('',(#31),#23,.F.);
#68=ADVANCED_FACE('',(#32),#24,.T.);
#69=CLOSED_SHELL('',(#65,#66,#67,#68));
#70=DERIVED_UNIT_ELEMENT(#72,1.);
#71=DERIVED_UNIT_ELEMENT(#141,-3.);
#72=(
MASS_UNIT()
NAMED_UNIT(*)
SI_UNIT(.KILO.,.GRAM.)
);
#73=DERIVED_UNIT((#70,#71));
#74=MEASURE_REPRESENTATION_ITEM('density measure',
POSITIVE_RATIO_MEASURE(7850.),#73);
#75=PROPERTY_DEFINITION_REPRESENTATION(#80,#77);
#76=PROPERTY_DEFINITION_REPRESENTATION(#81,#78);
#77=REPRESENTATION('material name',(#79),#138);
#78=REPRESENTATION('density',(#74),#138);
#79=DESCRIPTIVE_REPRESENTATION_ITEM('Steel','Steel');
#80=PROPERTY_DEFINITION('material property','material name',#153);
#81=PROPERTY_DEFINITION('material property','density of part',#153);
#82=AXIS2_PLACEMENT_3D('',#117,#93,#94);
#83=AXIS2_PLACEMENT_3D('',#118,#95,#96);
#84=AXIS2_PLACEMENT_3D('',#119,#97,#98);
#85=AXIS2_PLACEMENT_3D('',#121,#99,#100);
#86=AXIS2_PLACEMENT_3D('',#123,#101,#102);
#87=AXIS2_PLACEMENT_3D('',#124,#103,#104);
#88=AXIS2_PLACEMENT_3D('',#126,#105,#106);
#89=AXIS2_PLACEMENT_3D('',#128,#107,#108);
#90=AXIS2_PLACEMENT_3D('',#129,#109,#110);
#91=AXIS2_PLACEMENT_3D('',#131,#112,#113);
#92=AXIS2_PLACEMENT_3D('',#133,#115,#116);
#93=DIRECTION('axis',(0.,0.,1.));
#94=DIRECTION('refdir',(1.,0.,0.));
#95=DIRECTION('axis',(0.,0.,1.));
#96=DIRECTION('refdir',(1.,0.,0.));
#97=DIRECTION('center_axis',(0.,-0.793353340291235,0.60876142900872));
#98=DIRECTION('ref_axis',(-9.8674149248875E-52,-0.60876142900872,-0.793353340291235));
#99=DIRECTION('center_axis',(0.,-0.793353340291235,0.60876142900872));
#100=DIRECTION('ref_axis',(0.,0.608761429008721,0.793353340291235));
#101=DIRECTION('center_axis',(0.,0.793353340291235,-0.60876142900872));
#102=DIRECTION('ref_axis',(0.,0.60876142900872,0.793353340291235));
#103=DIRECTION('center_axis',(0.,0.,1.));
#104=DIRECTION('ref_axis',(1.,0.,0.));
#105=DIRECTION('center_axis',(0.,0.,1.));
#106=DIRECTION('ref_axis',(1.,0.,0.));
#107=DIRECTION('center_axis',(0.,0.,-1.));
#108=DIRECTION('ref_axis',(1.,0.,0.));
#109=DIRECTION('center_axis',(0.,0.,1.));
#110=DIRECTION('ref_axis',(1.,0.,0.));
#111=DIRECTION('',(0.,0.,-1.));
#112=DIRECTION('center_axis',(0.,0.,1.));
#113=DIRECTION('ref_axis',(1.,0.,0.));
#114=DIRECTION('',(0.,0.,-1.));
#115=DIRECTION('',(4.4379861335688E-35,-0.608761429008721,0.793353340291235));
#116=DIRECTION('',(1.,-5.41667796858792E-35,2.35775954910531E-33));
#117=CARTESIAN_POINT('',(0.,0.,0.));
#118=CARTESIAN_POINT('',(0.,0.,0.));
#119=CARTESIAN_POINT('Origin',(9.05190426114342E-51,1.0541,2.74745973102383));
#120=CARTESIAN_POINT('',(-1.0541,-9.02598895972125E-17,1.37372986551192));
#121=CARTESIAN_POINT('Origin',(0.,0.,1.37372986551192));
#122=CARTESIAN_POINT('',(-0.8001,-4.89919951998899E-17,1.37372986551192));
#123=CARTESIAN_POINT('Origin',(0.,0.,1.37372986551192));
#124=CARTESIAN_POINT('Origin',(0.,0.,49.5));
#125=CARTESIAN_POINT('',(-1.0541,-1.29090019098123E-16,49.5));
#126=CARTESIAN_POINT('Origin',(0.,0.,49.5));
#127=CARTESIAN_POINT('',(-0.8001,-9.79839903997797E-17,49.5));
#128=CARTESIAN_POINT('Origin',(0.,0.,49.5));
#129=CARTESIAN_POINT('Origin',(0.,0.,0.));
#130=CARTESIAN_POINT('',(-0.8001,-9.79839903997797E-17,0.));
#131=CARTESIAN_POINT('Origin',(0.,0.,0.));
#132=CARTESIAN_POINT('',(-1.0541,-1.29090019098123E-16,0.));
#133=CARTESIAN_POINT('',(4.33334237487128E-33,-0.577002542441958,15.5763097815981));
#134=UNCERTAINTY_MEASURE_WITH_UNIT(LENGTH_MEASURE(0.01),#140,
'DISTANCE_ACCURACY_VALUE',
'Maximum model space distance between geometric entities at asserted c
onnectivities');
#135=UNCERTAINTY_MEASURE_WITH_UNIT(LENGTH_MEASURE(0.01),#140,
'DISTANCE_ACCURACY_VALUE',
'Maximum model space distance between geometric entities at asserted c
onnectivities');
#136=UNCERTAINTY_MEASURE_WITH_UNIT(LENGTH_MEASURE(0.01),#140,
'DISTANCE_ACCURACY_VALUE',
'Maximum model space distance between geometric entities at asserted c
onnectivities');
#137=(
GEOMETRIC_REPRESENTATION_CONTEXT(3)
GLOBAL_UNCERTAINTY_ASSIGNED_CONTEXT((#134))
GLOBAL_UNIT_ASSIGNED_CONTEXT((#140,#142,#143))
REPRESENTATION_CONTEXT('','3D')
);
#138=(
GEOMETRIC_REPRESENTATION_CONTEXT(3)
GLOBAL_UNCERTAINTY_ASSIGNED_CONTEXT((#135))
GLOBAL_UNIT_ASSIGNED_CONTEXT((#140,#142,#143))
REPRESENTATION_CONTEXT('','3D')
);
#139=(
GEOMETRIC_REPRESENTATION_CONTEXT(3)
GLOBAL_UNCERTAINTY_ASSIGNED_CONTEXT((#136))
GLOBAL_UNIT_ASSIGNED_CONTEXT((#140,#142,#143))
REPRESENTATION_CONTEXT('','3D')
);
#140=(
LENGTH_UNIT()
NAMED_UNIT(*)
SI_UNIT(.MILLI.,.METRE.)
);
#141=(
LENGTH_UNIT()
NAMED_UNIT(*)
SI_UNIT($,.METRE.)
);
#142=(
NAMED_UNIT(*)
PLANE_ANGLE_UNIT()
SI_UNIT($,.RADIAN.)
);
#143=(
NAMED_UNIT(*)
SI_UNIT($,.STERADIAN.)
SOLID_ANGLE_UNIT()
);
#144=SHAPE_DEFINITION_REPRESENTATION(#146,#149);
#145=SHAPE_DEFINITION_REPRESENTATION(#147,#150);
#146=PRODUCT_DEFINITION_SHAPE('',$,#152);
#147=PRODUCT_DEFINITION_SHAPE('',$,#153);
#148=PRODUCT_DEFINITION_SHAPE($,$,#14);
#149=SHAPE_REPRESENTATION('',(#82,#92),#137);
#150=SHAPE_REPRESENTATION('',(#83),#138);
#151=PRODUCT_DEFINITION_CONTEXT('part definition',#159,'design');
#152=PRODUCT_DEFINITION('Particle Launcher V6',
'Particle Launcher V6 v11',#154,#151);
#153=PRODUCT_DEFINITION('Magazine','Magazine',#155,#151);
#154=PRODUCT_DEFINITION_FORMATION('',$,#161);
#155=PRODUCT_DEFINITION_FORMATION('',$,#162);
#156=PRODUCT_RELATED_PRODUCT_CATEGORY('Particle Launcher V6 v11',
'Particle Launcher V6 v11',(#161));
#157=PRODUCT_RELATED_PRODUCT_CATEGORY('Magazine','Magazine',(#162));
#158=APPLICATION_PROTOCOL_DEFINITION('international standard',
'automotive_design',2009,#159);
#159=APPLICATION_CONTEXT(
'Core Data for Automotive Mechanical Design Process');
#160=PRODUCT_CONTEXT('part definition',#159,'mechanical');
#161=PRODUCT('Particle Launcher V6','Particle Launcher V6 v11',$,(#160));
#162=PRODUCT('Magazine','Magazine',$,(#160));
#163=PRESENTATION_STYLE_ASSIGNMENT((#166));
#164=PRESENTATION_STYLE_ASSIGNMENT((#167));
#165=PRESENTATION_STYLE_ASSIGNMENT((#168));
#166=SURFACE_STYLE_USAGE(.BOTH.,#169);
#167=SURFACE_STYLE_USAGE(.BOTH.,#170);
#168=SURFACE_STYLE_USAGE(.BOTH.,#171);
#169=SURFACE_SIDE_STYLE('',(#172));
#170=SURFACE_SIDE_STYLE('',(#173));
#171=SURFACE_SIDE_STYLE('',(#174));
#172=SURFACE_STYLE_FILL_AREA(#175);
#173=SURFACE_STYLE_FILL_AREA(#176);
#174=SURFACE_STYLE_FILL_AREA(#177);
#175=FILL_AREA_STYLE('Steel - Satin',(#178));
#176=FILL_AREA_STYLE('Steel - Satin (1) (4)',(#179));
#177=FILL_AREA_STYLE('Stainless Steel - Polished',(#180));
#178=FILL_AREA_STYLE_COLOUR('Steel - Satin',#181);
#179=FILL_AREA_STYLE_COLOUR('Steel - Satin (1) (4)',#182);
#180=FILL_AREA_STYLE_COLOUR('Stainless Steel - Polished',#183);
#181=COLOUR_RGB('Steel - Satin',0.627450980392157,0.627450980392157,0.627450980392157);
#182=COLOUR_RGB('Steel - Satin (1) (4)',0.427450980392157,0.517647058823529,
0.913725490196078);
#183=COLOUR_RGB('Stainless Steel - Polished',0.796078431372549,0.796078431372549,
0.796078431372549);
ENDSEC;
END-ISO-10303-21;
