ISO-10303-21;
HEADER;
/* Generated by software containing ST-Developer
 * from STEP Tools, Inc. (www.steptools.com) 
 */

FILE_DESCRIPTION(
/* description */ (''),
/* implementation_level */ '2;1');

FILE_NAME(
/* name */ 'V6_Scale.step',
/* time_stamp */ '2026-04-16T22:27:43-04:00',
/* author */ (''),
/* organization */ (''),
/* preprocessor_version */ 'ST-DEVELOPER v20.1',
/* originating_system */ 'Autodesk Translation Framework v14.24.0.0',
/* authorisation */ '');

FILE_SCHEMA (('AUTOMOTIVE_DESIGN { 1 0 10303 214 3 1 1 }'));
ENDSEC;

DATA;
#10=MECHANICAL_DESIGN_GEOMETRIC_PRESENTATION_REPRESENTATION('',(#17),#197);
#11=ITEM_DEFINED_TRANSFORMATION($,$,#125,#132);
#12=(
REPRESENTATION_RELATIONSHIP($,$,#208,#207)
REPRESENTATION_RELATIONSHIP_WITH_TRANSFORMATION(#11)
SHAPE_REPRESENTATION_RELATIONSHIP()
);
#13=CONTEXT_DEPENDENT_SHAPE_REPRESENTATION(#12,#206);
#14=NEXT_ASSEMBLY_USAGE_OCCURRENCE('Scale:1','Scale:1','Scale:1',#210,#211,
'Scale:1');
#15=SHAPE_REPRESENTATION_RELATIONSHIP('SRR','None',#208,#16);
#16=ADVANCED_BREP_SHAPE_REPRESENTATION('',(#18),#196);
#17=STYLED_ITEM('',(#223),#18);
#18=MANIFOLD_SOLID_BREP('Body2',#111);
#19=FACE_OUTER_BOUND('',#25,.T.);
#20=FACE_OUTER_BOUND('',#26,.T.);
#21=FACE_OUTER_BOUND('',#27,.T.);
#22=FACE_OUTER_BOUND('',#28,.T.);
#23=FACE_OUTER_BOUND('',#29,.T.);
#24=FACE_OUTER_BOUND('',#30,.T.);
#25=EDGE_LOOP('',(#75,#76,#77,#78));
#26=EDGE_LOOP('',(#79,#80,#81,#82));
#27=EDGE_LOOP('',(#83,#84,#85,#86));
#28=EDGE_LOOP('',(#87,#88,#89,#90));
#29=EDGE_LOOP('',(#91,#92,#93,#94));
#30=EDGE_LOOP('',(#95,#96,#97,#98));
#31=LINE('',#168,#43);
#32=LINE('',#170,#44);
#33=LINE('',#172,#45);
#34=LINE('',#173,#46);
#35=LINE('',#176,#47);
#36=LINE('',#178,#48);
#37=LINE('',#179,#49);
#38=LINE('',#182,#50);
#39=LINE('',#184,#51);
#40=LINE('',#185,#52);
#41=LINE('',#187,#53);
#42=LINE('',#188,#54);
#43=VECTOR('',#139,10.);
#44=VECTOR('',#140,10.);
#45=VECTOR('',#141,10.);
#46=VECTOR('',#142,10.);
#47=VECTOR('',#145,10.);
#48=VECTOR('',#146,10.);
#49=VECTOR('',#147,10.);
#50=VECTOR('',#150,10.);
#51=VECTOR('',#151,10.);
#52=VECTOR('',#152,10.);
#53=VECTOR('',#155,10.);
#54=VECTOR('',#156,10.);
#55=VERTEX_POINT('',#166);
#56=VERTEX_POINT('',#167);
#57=VERTEX_POINT('',#169);
#58=VERTEX_POINT('',#171);
#59=VERTEX_POINT('',#175);
#60=VERTEX_POINT('',#177);
#61=VERTEX_POINT('',#181);
#62=VERTEX_POINT('',#183);
#63=EDGE_CURVE('',#55,#56,#31,.T.);
#64=EDGE_CURVE('',#55,#57,#32,.T.);
#65=EDGE_CURVE('',#58,#57,#33,.T.);
#66=EDGE_CURVE('',#56,#58,#34,.T.);
#67=EDGE_CURVE('',#56,#59,#35,.T.);
#68=EDGE_CURVE('',#60,#58,#36,.T.);
#69=EDGE_CURVE('',#59,#60,#37,.T.);
#70=EDGE_CURVE('',#59,#61,#38,.T.);
#71=EDGE_CURVE('',#62,#60,#39,.T.);
#72=EDGE_CURVE('',#61,#62,#40,.T.);
#73=EDGE_CURVE('',#61,#55,#41,.T.);
#74=EDGE_CURVE('',#57,#62,#42,.T.);
#75=ORIENTED_EDGE('',*,*,#63,.F.);
#76=ORIENTED_EDGE('',*,*,#64,.T.);
#77=ORIENTED_EDGE('',*,*,#65,.F.);
#78=ORIENTED_EDGE('',*,*,#66,.F.);
#79=ORIENTED_EDGE('',*,*,#67,.F.);
#80=ORIENTED_EDGE('',*,*,#66,.T.);
#81=ORIENTED_EDGE('',*,*,#68,.F.);
#82=ORIENTED_EDGE('',*,*,#69,.F.);
#83=ORIENTED_EDGE('',*,*,#70,.F.);
#84=ORIENTED_EDGE('',*,*,#69,.T.);
#85=ORIENTED_EDGE('',*,*,#71,.F.);
#86=ORIENTED_EDGE('',*,*,#72,.F.);
#87=ORIENTED_EDGE('',*,*,#73,.F.);
#88=ORIENTED_EDGE('',*,*,#72,.T.);
#89=ORIENTED_EDGE('',*,*,#74,.F.);
#90=ORIENTED_EDGE('',*,*,#64,.F.);
#91=ORIENTED_EDGE('',*,*,#74,.T.);
#92=ORIENTED_EDGE('',*,*,#71,.T.);
#93=ORIENTED_EDGE('',*,*,#68,.T.);
#94=ORIENTED_EDGE('',*,*,#65,.T.);
#95=ORIENTED_EDGE('',*,*,#73,.T.);
#96=ORIENTED_EDGE('',*,*,#63,.T.);
#97=ORIENTED_EDGE('',*,*,#67,.T.);
#98=ORIENTED_EDGE('',*,*,#70,.T.);
#99=PLANE('',#126);
#100=PLANE('',#127);
#101=PLANE('',#128);
#102=PLANE('',#129);
#103=PLANE('',#130);
#104=PLANE('',#131);
#105=ADVANCED_FACE('',(#19),#99,.T.);
#106=ADVANCED_FACE('',(#20),#100,.T.);
#107=ADVANCED_FACE('',(#21),#101,.T.);
#108=ADVANCED_FACE('',(#22),#102,.T.);
#109=ADVANCED_FACE('',(#23),#103,.T.);
#110=ADVANCED_FACE('',(#24),#104,.F.);
#111=CLOSED_SHELL('',(#105,#106,#107,#108,#109,#110));
#112=DERIVED_UNIT_ELEMENT(#114,1.);
#113=DERIVED_UNIT_ELEMENT(#199,-3.);
#114=(
MASS_UNIT()
NAMED_UNIT(*)
SI_UNIT(.KILO.,.GRAM.)
);
#115=DERIVED_UNIT((#112,#113));
#116=MEASURE_REPRESENTATION_ITEM('density measure',
POSITIVE_RATIO_MEASURE(7850.),#115);
#117=PROPERTY_DEFINITION_REPRESENTATION(#122,#119);
#118=PROPERTY_DEFINITION_REPRESENTATION(#123,#120);
#119=REPRESENTATION('material name',(#121),#196);
#120=REPRESENTATION('density',(#116),#196);
#121=DESCRIPTIVE_REPRESENTATION_ITEM('Steel','Steel');
#122=PROPERTY_DEFINITION('material property','material name',#211);
#123=PROPERTY_DEFINITION('material property','density of part',#211);
#124=AXIS2_PLACEMENT_3D('',#163,#133,#134);
#125=AXIS2_PLACEMENT_3D('',#164,#135,#136);
#126=AXIS2_PLACEMENT_3D('',#165,#137,#138);
#127=AXIS2_PLACEMENT_3D('',#174,#143,#144);
#128=AXIS2_PLACEMENT_3D('',#180,#148,#149);
#129=AXIS2_PLACEMENT_3D('',#186,#153,#154);
#130=AXIS2_PLACEMENT_3D('',#189,#157,#158);
#131=AXIS2_PLACEMENT_3D('',#190,#159,#160);
#132=AXIS2_PLACEMENT_3D('',#191,#161,#162);
#133=DIRECTION('axis',(0.,0.,1.));
#134=DIRECTION('refdir',(1.,0.,0.));
#135=DIRECTION('axis',(0.,0.,1.));
#136=DIRECTION('refdir',(1.,0.,0.));
#137=DIRECTION('center_axis',(1.,-3.41607084500048E-16,-9.68780998800311E-17));
#138=DIRECTION('ref_axis',(3.41607084500048E-16,1.,-2.84445037940269E-32));
#139=DIRECTION('',(-3.41607084500048E-16,-1.,2.84445037940269E-32));
#140=DIRECTION('',(9.68780998800311E-17,1.08987862365035E-16,1.));
#141=DIRECTION('',(3.41607084500048E-16,1.,-2.84445037940269E-32));
#142=DIRECTION('',(9.68780998800311E-17,1.08987862365035E-16,1.));
#143=DIRECTION('center_axis',(9.07506256517546E-33,-1.,1.08987862365035E-16));
#144=DIRECTION('ref_axis',(1.,0.,-8.32667268468867E-17));
#145=DIRECTION('',(-1.,0.,8.32667268468867E-17));
#146=DIRECTION('',(1.,0.,-8.32667268468867E-17));
#147=DIRECTION('',(9.68780998800311E-17,1.08987862365035E-16,1.));
#148=DIRECTION('center_axis',(-1.,1.47001998028348E-33,9.68780998800311E-17));
#149=DIRECTION('ref_axis',(8.99275568009715E-33,-1.,1.07999389679785E-16));
#150=DIRECTION('',(-8.99275568009715E-33,1.,-1.07999389679785E-16));
#151=DIRECTION('',(8.99275568009715E-33,-1.,1.07999389679785E-16));
#152=DIRECTION('',(9.68780998800311E-17,1.08987862365035E-16,1.));
#153=DIRECTION('center_axis',(8.74191357972564E-17,1.,-1.08987862365035E-16));
#154=DIRECTION('ref_axis',(-1.,8.74191357972563E-17,-3.5893549861365E-16));
#155=DIRECTION('',(1.,-8.74191357972563E-17,3.5893549861365E-16));
#156=DIRECTION('',(-1.,8.74191357972563E-17,-3.5893549861365E-16));
#157=DIRECTION('center_axis',(9.68780998800311E-17,1.08987862365035E-16,
1.));
#158=DIRECTION('ref_axis',(1.,0.,-9.68780998800311E-17));
#159=DIRECTION('center_axis',(8.32667268468867E-17,1.07999389679785E-16,
1.));
#160=DIRECTION('ref_axis',(-1.,0.,8.32667268468867E-17));
#161=DIRECTION('',(1.3926706752488E-16,1.04430016663461E-17,1.));
#162=DIRECTION('',(1.,4.33334237487128E-34,8.32667268468867E-17));
#163=CARTESIAN_POINT('',(0.,0.,0.));
#164=CARTESIAN_POINT('',(0.,0.,0.));
#165=CARTESIAN_POINT('Origin',(-10.673919930467,-5.25110760503981,51.6244563065387));
#166=CARTESIAN_POINT('',(-10.673919930467,1.24889239496019,51.6244563065387));
#167=CARTESIAN_POINT('',(-10.673919930467,-5.25110760503981,51.6244563065387));
#168=CARTESIAN_POINT('',(-10.673919930467,1.24889239496019,51.6244563065387));
#169=CARTESIAN_POINT('',(-10.673919930467,1.24889239496019,120.384456306539));
#170=CARTESIAN_POINT('',(-10.673919930467,1.24889239496019,51.6244563065387));
#171=CARTESIAN_POINT('',(-10.673919930467,-5.2511076050398,120.384456306539));
#172=CARTESIAN_POINT('',(-10.673919930467,1.24889239496019,120.384456306539));
#173=CARTESIAN_POINT('',(-10.673919930467,-5.25110760503981,51.6244563065387));
#174=CARTESIAN_POINT('Origin',(-12.261419930467,-5.25110760503981,51.6244563065387));
#175=CARTESIAN_POINT('',(-12.261419930467,-5.25110760503981,51.6244563065387));
#176=CARTESIAN_POINT('',(-10.673919930467,-5.25110760503981,51.6244563065387));
#177=CARTESIAN_POINT('',(-12.261419930467,-5.2511076050398,120.384456306539));
#178=CARTESIAN_POINT('',(-10.673919930467,-5.2511076050398,120.384456306539));
#179=CARTESIAN_POINT('',(-12.261419930467,-5.25110760503981,51.6244563065387));
#180=CARTESIAN_POINT('Origin',(-12.261419930467,1.24889239496019,51.6244563065387));
#181=CARTESIAN_POINT('',(-12.261419930467,1.24889239496019,51.6244563065387));
#182=CARTESIAN_POINT('',(-12.261419930467,-5.25110760503981,51.6244563065387));
#183=CARTESIAN_POINT('',(-12.261419930467,1.24889239496019,120.384456306539));
#184=CARTESIAN_POINT('',(-12.261419930467,-5.2511076050398,120.384456306539));
#185=CARTESIAN_POINT('',(-12.261419930467,1.24889239496019,51.6244563065387));
#186=CARTESIAN_POINT('Origin',(-10.673919930467,1.24889239496019,51.6244563065387));
#187=CARTESIAN_POINT('',(-12.261419930467,1.24889239496019,51.6244563065387));
#188=CARTESIAN_POINT('',(-12.261419930467,1.24889239496019,120.384456306539));
#189=CARTESIAN_POINT('Origin',(-11.467669930467,-2.00110760503981,120.384456306539));
#190=CARTESIAN_POINT('Origin',(-11.467669930467,-2.00110760503981,51.6244563065387));
#191=CARTESIAN_POINT('',(-0.907330069532353,-0.498892394963065,-0.124456306538736));
#192=UNCERTAINTY_MEASURE_WITH_UNIT(LENGTH_MEASURE(0.01),#198,
'DISTANCE_ACCURACY_VALUE',
'Maximum model space distance between geometric entities at asserted c
onnectivities');
#193=UNCERTAINTY_MEASURE_WITH_UNIT(LENGTH_MEASURE(0.01),#198,
'DISTANCE_ACCURACY_VALUE',
'Maximum model space distance between geometric entities at asserted c
onnectivities');
#194=UNCERTAINTY_MEASURE_WITH_UNIT(LENGTH_MEASURE(0.01),#198,
'DISTANCE_ACCURACY_VALUE',
'Maximum model space distance between geometric entities at asserted c
onnectivities');
#195=(
GEOMETRIC_REPRESENTATION_CONTEXT(3)
GLOBAL_UNCERTAINTY_ASSIGNED_CONTEXT((#192))
GLOBAL_UNIT_ASSIGNED_CONTEXT((#198,#200,#201))
REPRESENTATION_CONTEXT('','3D')
);
#196=(
GEOMETRIC_REPRESENTATION_CONTEXT(3)
GLOBAL_UNCERTAINTY_ASSIGNED_CONTEXT((#193))
GLOBAL_UNIT_ASSIGNED_CONTEXT((#198,#200,#201))
REPRESENTATION_CONTEXT('','3D')
);
#197=(
GEOMETRIC_REPRESENTATION_CONTEXT(3)
GLOBAL_UNCERTAINTY_ASSIGNED_CONTEXT((#194))
GLOBAL_UNIT_ASSIGNED_CONTEXT((#198,#200,#201))
REPRESENTATION_CONTEXT('','3D')
);
#198=(
LENGTH_UNIT()
NAMED_UNIT(*)
SI_UNIT(.MILLI.,.METRE.)
);
#199=(
LENGTH_UNIT()
NAMED_UNIT(*)
SI_UNIT($,.METRE.)
);
#200=(
NAMED_UNIT(*)
PLANE_ANGLE_UNIT()
SI_UNIT($,.RADIAN.)
);
#201=(
NAMED_UNIT(*)
SI_UNIT($,.STERADIAN.)
SOLID_ANGLE_UNIT()
);
#202=SHAPE_DEFINITION_REPRESENTATION(#204,#207);
#203=SHAPE_DEFINITION_REPRESENTATION(#205,#208);
#204=PRODUCT_DEFINITION_SHAPE('',$,#210);
#205=PRODUCT_DEFINITION_SHAPE('',$,#211);
#206=PRODUCT_DEFINITION_SHAPE($,$,#14);
#207=SHAPE_REPRESENTATION('',(#124,#132),#195);
#208=SHAPE_REPRESENTATION('',(#125),#196);
#209=PRODUCT_DEFINITION_CONTEXT('part definition',#217,'design');
#210=PRODUCT_DEFINITION('Particle Launcher V6',
'Particle Launcher V6 v11',#212,#209);
#211=PRODUCT_DEFINITION('Scale','Scale',#213,#209);
#212=PRODUCT_DEFINITION_FORMATION('',$,#219);
#213=PRODUCT_DEFINITION_FORMATION('',$,#220);
#214=PRODUCT_RELATED_PRODUCT_CATEGORY('Particle Launcher V6 v11',
'Particle Launcher V6 v11',(#219));
#215=PRODUCT_RELATED_PRODUCT_CATEGORY('Scale','Scale',(#220));
#216=APPLICATION_PROTOCOL_DEFINITION('international standard',
'automotive_design',2009,#217);
#217=APPLICATION_CONTEXT(
'Core Data for Automotive Mechanical Design Process');
#218=PRODUCT_CONTEXT('part definition',#217,'mechanical');
#219=PRODUCT('Particle Launcher V6','Particle Launcher V6 v11',$,(#218));
#220=PRODUCT('Scale','Scale',$,(#218));
#221=PRESENTATION_STYLE_ASSIGNMENT((#224));
#222=PRESENTATION_STYLE_ASSIGNMENT((#225));
#223=PRESENTATION_STYLE_ASSIGNMENT((#226));
#224=SURFACE_STYLE_USAGE(.BOTH.,#227);
#225=SURFACE_STYLE_USAGE(.BOTH.,#228);
#226=SURFACE_STYLE_USAGE(.BOTH.,#229);
#227=SURFACE_SIDE_STYLE('',(#230));
#228=SURFACE_SIDE_STYLE('',(#231));
#229=SURFACE_SIDE_STYLE('',(#232));
#230=SURFACE_STYLE_FILL_AREA(#233);
#231=SURFACE_STYLE_FILL_AREA(#234);
#232=SURFACE_STYLE_FILL_AREA(#235);
#233=FILL_AREA_STYLE('Steel - Satin',(#236));
#234=FILL_AREA_STYLE('Steel - Satin (1) (4)',(#237));
#235=FILL_AREA_STYLE('Steel - Satin (1) (3)',(#238));
#236=FILL_AREA_STYLE_COLOUR('Steel - Satin',#239);
#237=FILL_AREA_STYLE_COLOUR('Steel - Satin (1) (4)',#240);
#238=FILL_AREA_STYLE_COLOUR('Steel - Satin (1) (3)',#241);
#239=COLOUR_RGB('Steel - Satin',0.627450980392157,0.627450980392157,0.627450980392157);
#240=COLOUR_RGB('Steel - Satin (1) (4)',0.427450980392157,0.517647058823529,
0.913725490196078);
#241=COLOUR_RGB('Steel - Satin (1) (3)',0.0784313725490196,0.850980392156863,
0.592156862745098);
ENDSEC;
END-ISO-10303-21;
