ISO-10303-21;
HEADER;
/* Generated by software containing ST-Developer
 * from STEP Tools, Inc. (www.steptools.com) 
 */

FILE_DESCRIPTION(
/* description */ (''),
/* implementation_level */ '2;1');

FILE_NAME(
/* name */ 'V6_End-Tube-Section.step',
/* time_stamp */ '2026-04-16T22:25:44-04:00',
/* author */ (''),
/* organization */ (''),
/* preprocessor_version */ 'ST-DEVELOPER v20.1',
/* originating_system */ 'Autodesk Translation Framework v14.24.0.0',
/* authorisation */ '');

FILE_SCHEMA (('AUTOMOTIVE_DESIGN { 1 0 10303 214 3 1 1 }'));
ENDSEC;

DATA;
#10=MECHANICAL_DESIGN_GEOMETRIC_PRESENTATION_REPRESENTATION('',(#17),#377);
#11=ITEM_DEFINED_TRANSFORMATION($,$,#218,#247);
#12=(
REPRESENTATION_RELATIONSHIP($,$,#388,#387)
REPRESENTATION_RELATIONSHIP_WITH_TRANSFORMATION(#11)
SHAPE_REPRESENTATION_RELATIONSHIP()
);
#13=CONTEXT_DEPENDENT_SHAPE_REPRESENTATION(#12,#386);
#14=NEXT_ASSEMBLY_USAGE_OCCURRENCE('Tube:1','Tube:1','Tube:1',#390,#391,
'Tube:1');
#15=SHAPE_REPRESENTATION_RELATIONSHIP('SRR','None',#388,#16);
#16=ADVANCED_BREP_SHAPE_REPRESENTATION('',(#18),#376);
#17=STYLED_ITEM('',(#403),#18);
#18=MANIFOLD_SOLID_BREP('End',#204);
#19=CYLINDRICAL_SURFACE('',#226,13.5);
#20=CYLINDRICAL_SURFACE('',#228,1.625);
#21=CYLINDRICAL_SURFACE('',#231,1.625);
#22=CYLINDRICAL_SURFACE('',#234,2.875);
#23=CYLINDRICAL_SURFACE('',#237,2.875);
#24=CYLINDRICAL_SURFACE('',#240,3.6);
#25=CYLINDRICAL_SURFACE('',#244,1.1291);
#26=FACE_BOUND('',#55,.T.);
#27=FACE_BOUND('',#56,.T.);
#28=FACE_BOUND('',#57,.T.);
#29=FACE_BOUND('',#63,.T.);
#30=FACE_BOUND('',#66,.T.);
#31=FACE_BOUND('',#69,.T.);
#32=FACE_BOUND('',#70,.T.);
#33=FACE_BOUND('',#71,.T.);
#34=FACE_BOUND('',#74,.T.);
#35=PLANE('',#222);
#36=PLANE('',#236);
#37=PLANE('',#239);
#38=PLANE('',#243);
#39=PLANE('',#246);
#40=FACE_OUTER_BOUND('',#53,.T.);
#41=FACE_OUTER_BOUND('',#54,.T.);
#42=FACE_OUTER_BOUND('',#58,.T.);
#43=FACE_OUTER_BOUND('',#59,.T.);
#44=FACE_OUTER_BOUND('',#60,.T.);
#45=FACE_OUTER_BOUND('',#61,.T.);
#46=FACE_OUTER_BOUND('',#62,.T.);
#47=FACE_OUTER_BOUND('',#64,.T.);
#48=FACE_OUTER_BOUND('',#65,.T.);
#49=FACE_OUTER_BOUND('',#67,.T.);
#50=FACE_OUTER_BOUND('',#68,.T.);
#51=FACE_OUTER_BOUND('',#72,.T.);
#52=FACE_OUTER_BOUND('',#73,.T.);
#53=EDGE_LOOP('',(#144,#145,#146,#147));
#54=EDGE_LOOP('',(#148));
#55=EDGE_LOOP('',(#149));
#56=EDGE_LOOP('',(#150));
#57=EDGE_LOOP('',(#151));
#58=EDGE_LOOP('',(#152,#153,#154,#155));
#59=EDGE_LOOP('',(#156,#157,#158,#159));
#60=EDGE_LOOP('',(#160,#161,#162,#163));
#61=EDGE_LOOP('',(#164,#165,#166,#167));
#62=EDGE_LOOP('',(#168));
#63=EDGE_LOOP('',(#169));
#64=EDGE_LOOP('',(#170,#171,#172,#173));
#65=EDGE_LOOP('',(#174));
#66=EDGE_LOOP('',(#175));
#67=EDGE_LOOP('',(#176,#177,#178,#179));
#68=EDGE_LOOP('',(#180));
#69=EDGE_LOOP('',(#181));
#70=EDGE_LOOP('',(#182));
#71=EDGE_LOOP('',(#183));
#72=EDGE_LOOP('',(#184,#185,#186,#187));
#73=EDGE_LOOP('',(#188));
#74=EDGE_LOOP('',(#189));
#75=LINE('',#324,#83);
#76=LINE('',#335,#84);
#77=LINE('',#341,#85);
#78=LINE('',#347,#86);
#79=LINE('',#351,#87);
#80=LINE('',#356,#88);
#81=LINE('',#363,#89);
#82=LINE('',#368,#90);
#83=VECTOR('',#256,12.75);
#84=VECTOR('',#269,13.5);
#85=VECTOR('',#276,1.625);
#86=VECTOR('',#283,1.625);
#87=VECTOR('',#288,2.875);
#88=VECTOR('',#295,2.875);
#89=VECTOR('',#304,3.75);
#90=VECTOR('',#311,1.1291);
#91=CIRCLE('',#220,12.);
#92=CIRCLE('',#221,13.5);
#93=CIRCLE('',#223,1.1291);
#94=CIRCLE('',#224,2.875);
#95=CIRCLE('',#225,2.875);
#96=CIRCLE('',#227,13.5);
#97=CIRCLE('',#229,1.625);
#98=CIRCLE('',#230,1.625);
#99=CIRCLE('',#232,1.625);
#100=CIRCLE('',#233,1.625);
#101=CIRCLE('',#235,2.875);
#102=CIRCLE('',#238,2.875);
#103=CIRCLE('',#241,3.6);
#104=CIRCLE('',#242,3.6);
#105=CIRCLE('',#245,1.1291);
#106=VERTEX_POINT('',#321);
#107=VERTEX_POINT('',#323);
#108=VERTEX_POINT('',#327);
#109=VERTEX_POINT('',#329);
#110=VERTEX_POINT('',#331);
#111=VERTEX_POINT('',#334);
#112=VERTEX_POINT('',#338);
#113=VERTEX_POINT('',#340);
#114=VERTEX_POINT('',#344);
#115=VERTEX_POINT('',#346);
#116=VERTEX_POINT('',#350);
#117=VERTEX_POINT('',#355);
#118=VERTEX_POINT('',#360);
#119=VERTEX_POINT('',#362);
#120=VERTEX_POINT('',#367);
#121=EDGE_CURVE('',#106,#106,#91,.T.);
#122=EDGE_CURVE('',#106,#107,#75,.T.);
#123=EDGE_CURVE('',#107,#107,#92,.T.);
#124=EDGE_CURVE('',#108,#108,#93,.T.);
#125=EDGE_CURVE('',#109,#109,#94,.T.);
#126=EDGE_CURVE('',#110,#110,#95,.T.);
#127=EDGE_CURVE('',#107,#111,#76,.T.);
#128=EDGE_CURVE('',#111,#111,#96,.T.);
#129=EDGE_CURVE('',#112,#112,#97,.T.);
#130=EDGE_CURVE('',#112,#113,#77,.T.);
#131=EDGE_CURVE('',#113,#113,#98,.T.);
#132=EDGE_CURVE('',#114,#114,#99,.T.);
#133=EDGE_CURVE('',#114,#115,#78,.T.);
#134=EDGE_CURVE('',#115,#115,#100,.T.);
#135=EDGE_CURVE('',#110,#116,#79,.T.);
#136=EDGE_CURVE('',#116,#116,#101,.T.);
#137=EDGE_CURVE('',#109,#117,#80,.T.);
#138=EDGE_CURVE('',#117,#117,#102,.T.);
#139=EDGE_CURVE('',#118,#118,#103,.F.);
#140=EDGE_CURVE('',#118,#119,#81,.T.);
#141=EDGE_CURVE('',#119,#119,#104,.F.);
#142=EDGE_CURVE('',#108,#120,#82,.T.);
#143=EDGE_CURVE('',#120,#120,#105,.T.);
#144=ORIENTED_EDGE('',*,*,#121,.T.);
#145=ORIENTED_EDGE('',*,*,#122,.T.);
#146=ORIENTED_EDGE('',*,*,#123,.T.);
#147=ORIENTED_EDGE('',*,*,#122,.F.);
#148=ORIENTED_EDGE('',*,*,#121,.F.);
#149=ORIENTED_EDGE('',*,*,#124,.T.);
#150=ORIENTED_EDGE('',*,*,#125,.T.);
#151=ORIENTED_EDGE('',*,*,#126,.T.);
#152=ORIENTED_EDGE('',*,*,#123,.F.);
#153=ORIENTED_EDGE('',*,*,#127,.T.);
#154=ORIENTED_EDGE('',*,*,#128,.T.);
#155=ORIENTED_EDGE('',*,*,#127,.F.);
#156=ORIENTED_EDGE('',*,*,#129,.F.);
#157=ORIENTED_EDGE('',*,*,#130,.T.);
#158=ORIENTED_EDGE('',*,*,#131,.F.);
#159=ORIENTED_EDGE('',*,*,#130,.F.);
#160=ORIENTED_EDGE('',*,*,#132,.F.);
#161=ORIENTED_EDGE('',*,*,#133,.T.);
#162=ORIENTED_EDGE('',*,*,#134,.F.);
#163=ORIENTED_EDGE('',*,*,#133,.F.);
#164=ORIENTED_EDGE('',*,*,#126,.F.);
#165=ORIENTED_EDGE('',*,*,#135,.T.);
#166=ORIENTED_EDGE('',*,*,#136,.T.);
#167=ORIENTED_EDGE('',*,*,#135,.F.);
#168=ORIENTED_EDGE('',*,*,#136,.F.);
#169=ORIENTED_EDGE('',*,*,#129,.T.);
#170=ORIENTED_EDGE('',*,*,#125,.F.);
#171=ORIENTED_EDGE('',*,*,#137,.T.);
#172=ORIENTED_EDGE('',*,*,#138,.T.);
#173=ORIENTED_EDGE('',*,*,#137,.F.);
#174=ORIENTED_EDGE('',*,*,#138,.F.);
#175=ORIENTED_EDGE('',*,*,#132,.T.);
#176=ORIENTED_EDGE('',*,*,#139,.F.);
#177=ORIENTED_EDGE('',*,*,#140,.T.);
#178=ORIENTED_EDGE('',*,*,#141,.T.);
#179=ORIENTED_EDGE('',*,*,#140,.F.);
#180=ORIENTED_EDGE('',*,*,#128,.F.);
#181=ORIENTED_EDGE('',*,*,#131,.T.);
#182=ORIENTED_EDGE('',*,*,#134,.T.);
#183=ORIENTED_EDGE('',*,*,#141,.F.);
#184=ORIENTED_EDGE('',*,*,#124,.F.);
#185=ORIENTED_EDGE('',*,*,#142,.T.);
#186=ORIENTED_EDGE('',*,*,#143,.F.);
#187=ORIENTED_EDGE('',*,*,#142,.F.);
#188=ORIENTED_EDGE('',*,*,#139,.T.);
#189=ORIENTED_EDGE('',*,*,#143,.T.);
#190=CONICAL_SURFACE('',#219,12.75,0.785398163397448);
#191=ADVANCED_FACE('',(#40),#190,.T.);
#192=ADVANCED_FACE('',(#41,#26,#27,#28),#35,.F.);
#193=ADVANCED_FACE('',(#42),#19,.T.);
#194=ADVANCED_FACE('',(#43),#20,.F.);
#195=ADVANCED_FACE('',(#44),#21,.F.);
#196=ADVANCED_FACE('',(#45),#22,.F.);
#197=ADVANCED_FACE('',(#46,#29),#36,.T.);
#198=ADVANCED_FACE('',(#47),#23,.F.);
#199=ADVANCED_FACE('',(#48,#30),#37,.T.);
#200=ADVANCED_FACE('',(#49),#24,.T.);
#201=ADVANCED_FACE('',(#50,#31,#32,#33),#38,.F.);
#202=ADVANCED_FACE('',(#51),#25,.F.);
#203=ADVANCED_FACE('',(#52,#34),#39,.F.);
#204=CLOSED_SHELL('',(#191,#192,#193,#194,#195,#196,#197,#198,#199,#200,
#201,#202,#203));
#205=DERIVED_UNIT_ELEMENT(#207,1.);
#206=DERIVED_UNIT_ELEMENT(#379,-3.);
#207=(
MASS_UNIT()
NAMED_UNIT(*)
SI_UNIT(.KILO.,.GRAM.)
);
#208=DERIVED_UNIT((#205,#206));
#209=MEASURE_REPRESENTATION_ITEM('density measure',
POSITIVE_RATIO_MEASURE(7850.),#208);
#210=PROPERTY_DEFINITION_REPRESENTATION(#215,#212);
#211=PROPERTY_DEFINITION_REPRESENTATION(#216,#213);
#212=REPRESENTATION('material name',(#214),#376);
#213=REPRESENTATION('density',(#209),#376);
#214=DESCRIPTIVE_REPRESENTATION_ITEM('Steel','Steel');
#215=PROPERTY_DEFINITION('material property','material name',#391);
#216=PROPERTY_DEFINITION('material property','density of part',#391);
#217=AXIS2_PLACEMENT_3D('',#318,#248,#249);
#218=AXIS2_PLACEMENT_3D('',#319,#250,#251);
#219=AXIS2_PLACEMENT_3D('',#320,#252,#253);
#220=AXIS2_PLACEMENT_3D('',#322,#254,#255);
#221=AXIS2_PLACEMENT_3D('',#325,#257,#258);
#222=AXIS2_PLACEMENT_3D('',#326,#259,#260);
#223=AXIS2_PLACEMENT_3D('',#328,#261,#262);
#224=AXIS2_PLACEMENT_3D('',#330,#263,#264);
#225=AXIS2_PLACEMENT_3D('',#332,#265,#266);
#226=AXIS2_PLACEMENT_3D('',#333,#267,#268);
#227=AXIS2_PLACEMENT_3D('',#336,#270,#271);
#228=AXIS2_PLACEMENT_3D('',#337,#272,#273);
#229=AXIS2_PLACEMENT_3D('',#339,#274,#275);
#230=AXIS2_PLACEMENT_3D('',#342,#277,#278);
#231=AXIS2_PLACEMENT_3D('',#343,#279,#280);
#232=AXIS2_PLACEMENT_3D('',#345,#281,#282);
#233=AXIS2_PLACEMENT_3D('',#348,#284,#285);
#234=AXIS2_PLACEMENT_3D('',#349,#286,#287);
#235=AXIS2_PLACEMENT_3D('',#352,#289,#290);
#236=AXIS2_PLACEMENT_3D('',#353,#291,#292);
#237=AXIS2_PLACEMENT_3D('',#354,#293,#294);
#238=AXIS2_PLACEMENT_3D('',#357,#296,#297);
#239=AXIS2_PLACEMENT_3D('',#358,#298,#299);
#240=AXIS2_PLACEMENT_3D('',#359,#300,#301);
#241=AXIS2_PLACEMENT_3D('',#361,#302,#303);
#242=AXIS2_PLACEMENT_3D('',#364,#305,#306);
#243=AXIS2_PLACEMENT_3D('',#365,#307,#308);
#244=AXIS2_PLACEMENT_3D('',#366,#309,#310);
#245=AXIS2_PLACEMENT_3D('',#369,#312,#313);
#246=AXIS2_PLACEMENT_3D('',#370,#314,#315);
#247=AXIS2_PLACEMENT_3D('',#371,#316,#317);
#248=DIRECTION('axis',(0.,0.,1.));
#249=DIRECTION('refdir',(1.,0.,0.));
#250=DIRECTION('axis',(0.,0.,1.));
#251=DIRECTION('refdir',(1.,0.,0.));
#252=DIRECTION('center_axis',(0.,0.,1.));
#253=DIRECTION('ref_axis',(-1.,0.,0.));
#254=DIRECTION('center_axis',(0.,0.,1.));
#255=DIRECTION('ref_axis',(-1.,0.,0.));
#256=DIRECTION('',(0.707106781186547,-8.65956056235493E-17,0.707106781186548));
#257=DIRECTION('center_axis',(0.,0.,-1.));
#258=DIRECTION('ref_axis',(-1.,0.,0.));
#259=DIRECTION('center_axis',(0.,0.,1.));
#260=DIRECTION('ref_axis',(-1.,0.,0.));
#261=DIRECTION('center_axis',(0.,0.,1.));
#262=DIRECTION('ref_axis',(-1.,0.,0.));
#263=DIRECTION('center_axis',(0.,0.,1.));
#264=DIRECTION('ref_axis',(1.,0.,0.));
#265=DIRECTION('center_axis',(0.,0.,1.));
#266=DIRECTION('ref_axis',(1.,0.,0.));
#267=DIRECTION('center_axis',(0.,0.,-1.));
#268=DIRECTION('ref_axis',(-1.,0.,0.));
#269=DIRECTION('',(0.,0.,1.));
#270=DIRECTION('center_axis',(0.,0.,-1.));
#271=DIRECTION('ref_axis',(-1.,0.,0.));
#272=DIRECTION('center_axis',(0.,0.,1.));
#273=DIRECTION('ref_axis',(1.,0.,0.));
#274=DIRECTION('center_axis',(0.,0.,1.));
#275=DIRECTION('ref_axis',(1.,0.,0.));
#276=DIRECTION('',(0.,0.,1.));
#277=DIRECTION('center_axis',(0.,0.,-1.));
#278=DIRECTION('ref_axis',(1.,0.,0.));
#279=DIRECTION('center_axis',(0.,0.,1.));
#280=DIRECTION('ref_axis',(1.,0.,0.));
#281=DIRECTION('center_axis',(0.,0.,1.));
#282=DIRECTION('ref_axis',(1.,0.,0.));
#283=DIRECTION('',(0.,0.,1.));
#284=DIRECTION('center_axis',(0.,0.,-1.));
#285=DIRECTION('ref_axis',(1.,0.,0.));
#286=DIRECTION('center_axis',(0.,0.,1.));
#287=DIRECTION('ref_axis',(1.,0.,0.));
#288=DIRECTION('',(0.,0.,1.));
#289=DIRECTION('center_axis',(0.,0.,1.));
#290=DIRECTION('ref_axis',(1.,0.,0.));
#291=DIRECTION('center_axis',(0.,0.,-1.));
#292=DIRECTION('ref_axis',(1.,0.,0.));
#293=DIRECTION('center_axis',(0.,0.,1.));
#294=DIRECTION('ref_axis',(1.,0.,0.));
#295=DIRECTION('',(0.,0.,1.));
#296=DIRECTION('center_axis',(0.,0.,1.));
#297=DIRECTION('ref_axis',(1.,0.,0.));
#298=DIRECTION('center_axis',(0.,0.,-1.));
#299=DIRECTION('ref_axis',(1.,0.,0.));
#300=DIRECTION('center_axis',(0.,0.,-1.));
#301=DIRECTION('ref_axis',(1.,0.,0.));
#302=DIRECTION('center_axis',(0.,0.,-1.));
#303=DIRECTION('ref_axis',(1.,0.,0.));
#304=DIRECTION('',(0.,0.,-1.));
#305=DIRECTION('center_axis',(0.,0.,-1.));
#306=DIRECTION('ref_axis',(1.,0.,0.));
#307=DIRECTION('center_axis',(0.,0.,-1.));
#308=DIRECTION('ref_axis',(1.,0.,0.));
#309=DIRECTION('center_axis',(0.,0.,-1.));
#310=DIRECTION('ref_axis',(-1.,0.,0.));
#311=DIRECTION('',(0.,0.,1.));
#312=DIRECTION('center_axis',(0.,0.,-1.));
#313=DIRECTION('ref_axis',(-1.,0.,0.));
#314=DIRECTION('center_axis',(0.,0.,-1.));
#315=DIRECTION('ref_axis',(1.,0.,0.));
#316=DIRECTION('',(0.,0.,1.));
#317=DIRECTION('',(1.,0.,0.));
#318=CARTESIAN_POINT('',(0.,0.,0.));
#319=CARTESIAN_POINT('',(0.,0.,0.));
#320=CARTESIAN_POINT('Origin',(0.,0.,5.25));
#321=CARTESIAN_POINT('',(12.,1.46957615897682E-15,4.5));
#322=CARTESIAN_POINT('Origin',(0.,0.,4.5));
#323=CARTESIAN_POINT('',(13.5,-1.65327317884893E-15,6.));
#324=CARTESIAN_POINT('',(12.75,-1.56142466891288E-15,5.25));
#325=CARTESIAN_POINT('Origin',(0.,0.,6.));
#326=CARTESIAN_POINT('Origin',(0.,0.,4.5));
#327=CARTESIAN_POINT('',(1.1291,1.38274870091728E-16,4.5));
#328=CARTESIAN_POINT('Origin',(0.,0.,4.5));
#329=CARTESIAN_POINT('',(5.125,3.52085954754864E-16,4.5));
#330=CARTESIAN_POINT('Origin',(8.,0.,4.5));
#331=CARTESIAN_POINT('',(-10.875,3.52085954754864E-16,4.5));
#332=CARTESIAN_POINT('Origin',(-8.,0.,4.5));
#333=CARTESIAN_POINT('Origin',(0.,0.,12.));
#334=CARTESIAN_POINT('',(13.5,-1.65327317884893E-15,9.5));
#335=CARTESIAN_POINT('',(13.5,-1.65327317884893E-15,12.));
#336=CARTESIAN_POINT('Origin',(0.,0.,9.5));
#337=CARTESIAN_POINT('Origin',(-8.,0.,4.5));
#338=CARTESIAN_POINT('',(-9.625,-1.99005104861445E-16,7.5));
#339=CARTESIAN_POINT('Origin',(-8.,0.,7.5));
#340=CARTESIAN_POINT('',(-9.625,1.99005104861445E-16,9.5));
#341=CARTESIAN_POINT('',(-9.625,-1.99005104861445E-16,4.5));
#342=CARTESIAN_POINT('Origin',(-8.,0.,9.5));
#343=CARTESIAN_POINT('Origin',(8.,0.,4.5));
#344=CARTESIAN_POINT('',(6.375,-1.99005104861445E-16,7.5));
#345=CARTESIAN_POINT('Origin',(8.,0.,7.5));
#346=CARTESIAN_POINT('',(6.375,1.99005104861445E-16,9.5));
#347=CARTESIAN_POINT('',(6.375,-1.99005104861445E-16,4.5));
#348=CARTESIAN_POINT('Origin',(8.,0.,9.5));
#349=CARTESIAN_POINT('Origin',(-8.,0.,4.5));
#350=CARTESIAN_POINT('',(-10.875,3.52085954754864E-16,7.5));
#351=CARTESIAN_POINT('',(-10.875,-3.52085954754864E-16,4.5));
#352=CARTESIAN_POINT('Origin',(-8.,0.,7.5));
#353=CARTESIAN_POINT('Origin',(-8.,0.,7.5));
#354=CARTESIAN_POINT('Origin',(8.,0.,4.5));
#355=CARTESIAN_POINT('',(5.125,3.52085954754864E-16,7.5));
#356=CARTESIAN_POINT('',(5.125,-3.52085954754864E-16,4.5));
#357=CARTESIAN_POINT('Origin',(8.,0.,7.5));
#358=CARTESIAN_POINT('Origin',(8.,0.,7.5));
#359=CARTESIAN_POINT('Origin',(0.,0.,12.));
#360=CARTESIAN_POINT('',(-3.6,4.40872847693047E-16,12.));
#361=CARTESIAN_POINT('Origin',(0.,0.,12.));
#362=CARTESIAN_POINT('',(-3.6,4.40872847693047E-16,9.5));
#363=CARTESIAN_POINT('',(-3.6,4.40872847693047E-16,12.));
#364=CARTESIAN_POINT('Origin',(0.,0.,9.5));
#365=CARTESIAN_POINT('Origin',(0.,0.,9.5));
#366=CARTESIAN_POINT('Origin',(0.,0.,12.));
#367=CARTESIAN_POINT('',(1.1291,1.38274870091728E-16,12.));
#368=CARTESIAN_POINT('',(1.1291,-1.38274870091728E-16,12.));
#369=CARTESIAN_POINT('Origin',(0.,0.,12.));
#370=CARTESIAN_POINT('Origin',(0.,0.,12.));
#371=CARTESIAN_POINT('',(0.,0.,0.));
#372=UNCERTAINTY_MEASURE_WITH_UNIT(LENGTH_MEASURE(0.01),#378,
'DISTANCE_ACCURACY_VALUE',
'Maximum model space distance between geometric entities at asserted c
onnectivities');
#373=UNCERTAINTY_MEASURE_WITH_UNIT(LENGTH_MEASURE(0.01),#378,
'DISTANCE_ACCURACY_VALUE',
'Maximum model space distance between geometric entities at asserted c
onnectivities');
#374=UNCERTAINTY_MEASURE_WITH_UNIT(LENGTH_MEASURE(0.01),#378,
'DISTANCE_ACCURACY_VALUE',
'Maximum model space distance between geometric entities at asserted c
onnectivities');
#375=(
GEOMETRIC_REPRESENTATION_CONTEXT(3)
GLOBAL_UNCERTAINTY_ASSIGNED_CONTEXT((#372))
GLOBAL_UNIT_ASSIGNED_CONTEXT((#378,#380,#381))
REPRESENTATION_CONTEXT('','3D')
);
#376=(
GEOMETRIC_REPRESENTATION_CONTEXT(3)
GLOBAL_UNCERTAINTY_ASSIGNED_CONTEXT((#373))
GLOBAL_UNIT_ASSIGNED_CONTEXT((#378,#380,#381))
REPRESENTATION_CONTEXT('','3D')
);
#377=(
GEOMETRIC_REPRESENTATION_CONTEXT(3)
GLOBAL_UNCERTAINTY_ASSIGNED_CONTEXT((#374))
GLOBAL_UNIT_ASSIGNED_CONTEXT((#378,#380,#381))
REPRESENTATION_CONTEXT('','3D')
);
#378=(
LENGTH_UNIT()
NAMED_UNIT(*)
SI_UNIT(.MILLI.,.METRE.)
);
#379=(
LENGTH_UNIT()
NAMED_UNIT(*)
SI_UNIT($,.METRE.)
);
#380=(
NAMED_UNIT(*)
PLANE_ANGLE_UNIT()
SI_UNIT($,.RADIAN.)
);
#381=(
NAMED_UNIT(*)
SI_UNIT($,.STERADIAN.)
SOLID_ANGLE_UNIT()
);
#382=SHAPE_DEFINITION_REPRESENTATION(#384,#387);
#383=SHAPE_DEFINITION_REPRESENTATION(#385,#388);
#384=PRODUCT_DEFINITION_SHAPE('',$,#390);
#385=PRODUCT_DEFINITION_SHAPE('',$,#391);
#386=PRODUCT_DEFINITION_SHAPE($,$,#14);
#387=SHAPE_REPRESENTATION('',(#217,#247),#375);
#388=SHAPE_REPRESENTATION('',(#218),#376);
#389=PRODUCT_DEFINITION_CONTEXT('part definition',#397,'design');
#390=PRODUCT_DEFINITION('Particle Launcher V6',
'Particle Launcher V6 v11',#392,#389);
#391=PRODUCT_DEFINITION('Tube','Tube',#393,#389);
#392=PRODUCT_DEFINITION_FORMATION('',$,#399);
#393=PRODUCT_DEFINITION_FORMATION('',$,#400);
#394=PRODUCT_RELATED_PRODUCT_CATEGORY('Particle Launcher V6 v11',
'Particle Launcher V6 v11',(#399));
#395=PRODUCT_RELATED_PRODUCT_CATEGORY('Tube','Tube',(#400));
#396=APPLICATION_PROTOCOL_DEFINITION('international standard',
'automotive_design',2009,#397);
#397=APPLICATION_CONTEXT(
'Core Data for Automotive Mechanical Design Process');
#398=PRODUCT_CONTEXT('part definition',#397,'mechanical');
#399=PRODUCT('Particle Launcher V6','Particle Launcher V6 v11',$,(#398));
#400=PRODUCT('Tube','Tube',$,(#398));
#401=PRESENTATION_STYLE_ASSIGNMENT((#404));
#402=PRESENTATION_STYLE_ASSIGNMENT((#405));
#403=PRESENTATION_STYLE_ASSIGNMENT((#406));
#404=SURFACE_STYLE_USAGE(.BOTH.,#407);
#405=SURFACE_STYLE_USAGE(.BOTH.,#408);
#406=SURFACE_STYLE_USAGE(.BOTH.,#409);
#407=SURFACE_SIDE_STYLE('',(#410));
#408=SURFACE_SIDE_STYLE('',(#411));
#409=SURFACE_SIDE_STYLE('',(#412));
#410=SURFACE_STYLE_FILL_AREA(#413);
#411=SURFACE_STYLE_FILL_AREA(#414);
#412=SURFACE_STYLE_FILL_AREA(#415);
#413=FILL_AREA_STYLE('Steel - Satin',(#416));
#414=FILL_AREA_STYLE('Steel - Satin (1) (4)',(#417));
#415=FILL_AREA_STYLE('Steel - Satin',(#418));
#416=FILL_AREA_STYLE_COLOUR('Steel - Satin',#419);
#417=FILL_AREA_STYLE_COLOUR('Steel - Satin (1) (4)',#420);
#418=FILL_AREA_STYLE_COLOUR('Steel - Satin',#421);
#419=COLOUR_RGB('Steel - Satin',0.627450980392157,0.627450980392157,0.627450980392157);
#420=COLOUR_RGB('Steel - Satin (1) (4)',0.427450980392157,0.517647058823529,
0.913725490196078);
#421=COLOUR_RGB('Steel - Satin',0.0196078431372549,0.529411764705882,0.12156862745098);
ENDSEC;
END-ISO-10303-21;
