ISO-10303-21;
HEADER;
/* Generated by software containing ST-Developer
 * from STEP Tools, Inc. (www.steptools.com) 
 */

FILE_DESCRIPTION(
/* description */ (''),
/* implementation_level */ '2;1');

FILE_NAME(
/* name */ 'V6_Latch.step',
/* time_stamp */ '2026-04-16T22:26:15-04:00',
/* author */ (''),
/* organization */ (''),
/* preprocessor_version */ 'ST-DEVELOPER v20.1',
/* originating_system */ 'Autodesk Translation Framework v14.24.0.0',
/* authorisation */ '');

FILE_SCHEMA (('AUTOMOTIVE_DESIGN { 1 0 10303 214 3 1 1 }'));
ENDSEC;

DATA;
#10=MECHANICAL_DESIGN_GEOMETRIC_PRESENTATION_REPRESENTATION('',(#17),#1020);
#11=ITEM_DEFINED_TRANSFORMATION($,$,#528,#574);
#12=(
REPRESENTATION_RELATIONSHIP($,$,#1031,#1030)
REPRESENTATION_RELATIONSHIP_WITH_TRANSFORMATION(#11)
SHAPE_REPRESENTATION_RELATIONSHIP()
);
#13=CONTEXT_DEPENDENT_SHAPE_REPRESENTATION(#12,#1029);
#14=NEXT_ASSEMBLY_USAGE_OCCURRENCE('Latch:1','Latch:1','Latch:1',#1033,
#1034,'Latch:1');
#15=SHAPE_REPRESENTATION_RELATIONSHIP('SRR','None',#1031,#16);
#16=ADVANCED_BREP_SHAPE_REPRESENTATION('',(#18),#1019);
#17=STYLED_ITEM('',(#1046),#18);
#18=MANIFOLD_SOLID_BREP('Body1',#514);
#19=B_SPLINE_SURFACE_WITH_KNOTS('',3,3,((#896,#897,#898,#899,#900),(#901,
#902,#903,#904,#905),(#906,#907,#908,#909,#910),(#911,#912,#913,#914,#915)),
 .UNSPECIFIED.,.F.,.F.,.F.,(4,4),(4,1,4),(0.,1.),(-3.30031433684488,-2.9741765880496,
-2.72957327645314),.UNSPECIFIED.);
#20=FACE_BOUND('',#71,.T.);
#21=FACE_BOUND('',#80,.T.);
#22=FACE_BOUND('',#89,.T.);
#23=ELLIPSE('',#535,5.30330085889941,3.75);
#24=PLANE('',#532);
#25=PLANE('',#544);
#26=PLANE('',#551);
#27=PLANE('',#555);
#28=PLANE('',#559);
#29=PLANE('',#560);
#30=PLANE('',#561);
#31=PLANE('',#562);
#32=PLANE('',#563);
#33=PLANE('',#566);
#34=PLANE('',#569);
#35=PLANE('',#570);
#36=PLANE('',#571);
#37=PLANE('',#572);
#38=PLANE('',#573);
#39=FACE_OUTER_BOUND('',#66,.T.);
#40=FACE_OUTER_BOUND('',#67,.T.);
#41=FACE_OUTER_BOUND('',#68,.T.);
#42=FACE_OUTER_BOUND('',#69,.T.);
#43=FACE_OUTER_BOUND('',#70,.T.);
#44=FACE_OUTER_BOUND('',#72,.T.);
#45=FACE_OUTER_BOUND('',#73,.T.);
#46=FACE_OUTER_BOUND('',#74,.T.);
#47=FACE_OUTER_BOUND('',#75,.T.);
#48=FACE_OUTER_BOUND('',#76,.T.);
#49=FACE_OUTER_BOUND('',#77,.T.);
#50=FACE_OUTER_BOUND('',#78,.T.);
#51=FACE_OUTER_BOUND('',#79,.T.);
#52=FACE_OUTER_BOUND('',#81,.T.);
#53=FACE_OUTER_BOUND('',#82,.T.);
#54=FACE_OUTER_BOUND('',#83,.T.);
#55=FACE_OUTER_BOUND('',#84,.T.);
#56=FACE_OUTER_BOUND('',#85,.T.);
#57=FACE_OUTER_BOUND('',#86,.T.);
#58=FACE_OUTER_BOUND('',#87,.T.);
#59=FACE_OUTER_BOUND('',#88,.T.);
#60=FACE_OUTER_BOUND('',#90,.T.);
#61=FACE_OUTER_BOUND('',#91,.T.);
#62=FACE_OUTER_BOUND('',#92,.T.);
#63=FACE_OUTER_BOUND('',#93,.T.);
#64=FACE_OUTER_BOUND('',#94,.T.);
#65=FACE_OUTER_BOUND('',#95,.T.);
#66=EDGE_LOOP('',(#330,#331,#332,#333,#334,#335,#336,#337));
#67=EDGE_LOOP('',(#338,#339,#340,#341,#342,#343,#344));
#68=EDGE_LOOP('',(#345,#346,#347,#348,#349,#350,#351,#352,#353,#354,#355,
#356));
#69=EDGE_LOOP('',(#357,#358,#359,#360));
#70=EDGE_LOOP('',(#361,#362,#363,#364,#365,#366,#367));
#71=EDGE_LOOP('',(#368));
#72=EDGE_LOOP('',(#369,#370,#371,#372));
#73=EDGE_LOOP('',(#373,#374,#375,#376));
#74=EDGE_LOOP('',(#377,#378,#379,#380));
#75=EDGE_LOOP('',(#381,#382,#383,#384));
#76=EDGE_LOOP('',(#385,#386,#387,#388));
#77=EDGE_LOOP('',(#389,#390,#391,#392,#393,#394,#395,#396));
#78=EDGE_LOOP('',(#397,#398,#399,#400));
#79=EDGE_LOOP('',(#401,#402,#403,#404,#405,#406));
#80=EDGE_LOOP('',(#407));
#81=EDGE_LOOP('',(#408,#409,#410,#411,#412));
#82=EDGE_LOOP('',(#413,#414,#415,#416));
#83=EDGE_LOOP('',(#417,#418,#419,#420,#421,#422,#423));
#84=EDGE_LOOP('',(#424,#425,#426,#427));
#85=EDGE_LOOP('',(#428,#429,#430,#431,#432,#433,#434,#435));
#86=EDGE_LOOP('',(#436,#437,#438,#439,#440,#441,#442,#443));
#87=EDGE_LOOP('',(#444,#445,#446,#447));
#88=EDGE_LOOP('',(#448));
#89=EDGE_LOOP('',(#449));
#90=EDGE_LOOP('',(#450,#451,#452,#453));
#91=EDGE_LOOP('',(#454,#455,#456,#457,#458,#459));
#92=EDGE_LOOP('',(#460,#461,#462,#463));
#93=EDGE_LOOP('',(#464,#465));
#94=EDGE_LOOP('',(#466,#467,#468,#469,#470,#471));
#95=EDGE_LOOP('',(#472,#473,#474,#475));
#96=LINE('',#746,#138);
#97=LINE('',#777,#139);
#98=LINE('',#779,#140);
#99=LINE('',#781,#141);
#100=LINE('',#783,#142);
#101=LINE('',#785,#143);
#102=LINE('',#786,#144);
#103=LINE('',#789,#145);
#104=LINE('',#797,#146);
#105=LINE('',#803,#147);
#106=LINE('',#815,#148);
#107=LINE('',#818,#149);
#108=LINE('',#842,#150);
#109=LINE('',#892,#151);
#110=LINE('',#895,#152);
#111=LINE('',#941,#153);
#112=LINE('',#943,#154);
#113=LINE('',#944,#155);
#114=LINE('',#949,#156);
#115=LINE('',#951,#157);
#116=LINE('',#957,#158);
#117=LINE('',#960,#159);
#118=LINE('',#963,#160);
#119=LINE('',#965,#161);
#120=LINE('',#967,#162);
#121=LINE('',#968,#163);
#122=LINE('',#969,#164);
#123=LINE('',#971,#165);
#124=LINE('',#972,#166);
#125=LINE('',#978,#167);
#126=LINE('',#981,#168);
#127=LINE('',#985,#169);
#128=LINE('',#986,#170);
#129=LINE('',#989,#171);
#130=LINE('',#991,#172);
#131=LINE('',#992,#173);
#132=LINE('',#995,#174);
#133=LINE('',#997,#175);
#134=LINE('',#1001,#176);
#135=LINE('',#1006,#177);
#136=LINE('',#1008,#178);
#137=LINE('',#1011,#179);
#138=VECTOR('',#583,1.75);
#139=VECTOR('',#588,10.);
#140=VECTOR('',#589,10.);
#141=VECTOR('',#590,10.);
#142=VECTOR('',#591,10.);
#143=VECTOR('',#592,10.);
#144=VECTOR('',#593,10.);
#145=VECTOR('',#596,10.);
#146=VECTOR('',#605,10.);
#147=VECTOR('',#610,2.);
#148=VECTOR('',#611,10.);
#149=VECTOR('',#614,10.);
#150=VECTOR('',#615,10.);
#151=VECTOR('',#620,2.);
#152=VECTOR('',#623,10.);
#153=VECTOR('',#626,10.);
#154=VECTOR('',#627,10.);
#155=VECTOR('',#628,10.);
#156=VECTOR('',#633,3.);
#157=VECTOR('',#636,10.);
#158=VECTOR('',#641,3.);
#159=VECTOR('',#644,10.);
#160=VECTOR('',#647,10.);
#161=VECTOR('',#648,10.);
#162=VECTOR('',#649,10.);
#163=VECTOR('',#650,10.);
#164=VECTOR('',#651,10.);
#165=VECTOR('',#652,10.);
#166=VECTOR('',#653,10.);
#167=VECTOR('',#662,10.);
#168=VECTOR('',#665,10.);
#169=VECTOR('',#670,10.);
#170=VECTOR('',#671,10.);
#171=VECTOR('',#676,10.);
#172=VECTOR('',#677,10.);
#173=VECTOR('',#678,10.);
#174=VECTOR('',#683,10.);
#175=VECTOR('',#686,10.);
#176=VECTOR('',#691,2.75);
#177=VECTOR('',#698,1.7);
#178=VECTOR('',#701,10.);
#179=VECTOR('',#706,10.);
#180=CIRCLE('',#530,1.75);
#181=CIRCLE('',#531,1.75);
#182=CIRCLE('',#534,3.75);
#183=CIRCLE('',#536,3.75);
#184=CIRCLE('',#537,3.75);
#185=CIRCLE('',#539,2.);
#186=CIRCLE('',#541,13.5);
#187=CIRCLE('',#543,2.);
#188=CIRCLE('',#546,3.);
#189=CIRCLE('',#547,3.);
#190=CIRCLE('',#549,3.);
#191=CIRCLE('',#550,3.);
#192=CIRCLE('',#553,3.);
#193=CIRCLE('',#554,3.);
#194=CIRCLE('',#556,3.75);
#195=CIRCLE('',#557,1.7);
#196=CIRCLE('',#565,2.75);
#197=CIRCLE('',#567,1.7);
#198=B_SPLINE_CURVE_WITH_KNOTS('',3,(#718,#719,#720,#721,#722,#723,#724,
#725,#726,#727,#728,#729,#730,#731,#732,#733,#734,#735,#736,#737,#738),
 .UNSPECIFIED.,.F.,.F.,(4,2,2,2,2,3,2,2,2,4),(-0.32371652386334,-0.274475985161018,
-0.20488914427218,-0.135302303383342,-0.0676511516916709,0.,0.0676511516916707,
0.135302303383341,0.20488914427218,0.274475985161018),.UNSPECIFIED.);
#199=B_SPLINE_CURVE_WITH_KNOTS('',3,(#741,#742,#743,#744),.UNSPECIFIED.,
 .F.,.F.,(4,4),(0.274475985161018,0.323716523840611),.UNSPECIFIED.);
#200=B_SPLINE_CURVE_WITH_KNOTS('',3,(#748,#749,#750,#751),.UNSPECIFIED.,
 .F.,.F.,(4,4),(-0.323716523863341,-0.274475985161018),.UNSPECIFIED.);
#201=B_SPLINE_CURVE_WITH_KNOTS('',3,(#754,#755,#756,#757,#758,#759,#760,
#761,#762,#763,#764,#765,#766,#767,#768,#769,#770,#771,#772,#773,#774),
 .UNSPECIFIED.,.F.,.F.,(4,2,2,2,3,2,2,2,2,4),(-0.274475985161018,-0.20488914427218,
-0.135302303383341,-0.0676511516916707,0.,0.0676511516916709,0.135302303383342,
0.20488914427218,0.274475985161018,0.323716523840611),.UNSPECIFIED.);
#202=B_SPLINE_CURVE_WITH_KNOTS('',3,(#805,#806,#807,#808,#809,#810,#811,
#812,#813,#814),.UNSPECIFIED.,.F.,.F.,(4,2,2,2,4),(1.2126098450228,1.28810667698139,
1.36360350893998,1.44033050884254,1.44237767260196),.UNSPECIFIED.);
#203=B_SPLINE_CURVE_WITH_KNOTS('',3,(#820,#821,#822,#823,#824,#825,#826,
#827,#828,#829),.UNSPECIFIED.,.F.,.F.,(4,2,2,2,4),(0.56826730061193,0.710318766978353,
0.852370233344777,0.994452417284319,1.13653460122386),.UNSPECIFIED.);
#204=B_SPLINE_CURVE_WITH_KNOTS('',3,(#831,#832,#833,#834,#835,#836,#837,
#838,#839,#840),.UNSPECIFIED.,.F.,.F.,(4,2,2,2,4),(1.13653460122386,1.2786167851634,
1.42069896910294,1.56275043546937,1.70480190183579),.UNSPECIFIED.);
#205=B_SPLINE_CURVE_WITH_KNOTS('',3,(#844,#845,#846,#847,#848,#849,#850,
#851,#852,#853),.UNSPECIFIED.,.F.,.F.,(4,2,2,2,4),(0.982842927349986,0.984890091493118,
1.06161709139567,1.13711392335426,1.21261075531286),.UNSPECIFIED.);
#206=B_SPLINE_CURVE_WITH_KNOTS('',3,(#856,#857,#858,#859,#860,#861,#862,
#863,#864,#865,#866,#867,#868,#869,#870,#871,#872,#873,#874,#875,#876,#877,
#878,#879,#880,#881,#882,#883,#884,#885,#886,#887,#888,#889),
 .UNSPECIFIED.,.T.,.F.,(4,2,2,2,2,2,2,2,2,2,2,2,2,2,2,2,4),(0.,0.103905441582363,
0.207810883164727,0.311710050020564,0.4156092168764,0.519508383732237,0.623407550588073,
0.727312992170437,0.8312184337528,0.935123875335164,1.03902931691753,1.14292848377336,
1.2468276506292,1.35072681748504,1.45462598434087,1.55853142592324,1.6624368675056),
 .UNSPECIFIED.);
#207=B_SPLINE_CURVE_WITH_KNOTS('',3,(#917,#918,#919,#920,#921,#922,#923,
#924),.UNSPECIFIED.,.F.,.F.,(4,2,2,4),(0.,0.117851190724809,0.195371023879697,
0.271726319717324),.UNSPECIFIED.);
#208=B_SPLINE_CURVE_WITH_KNOTS('',3,(#926,#927,#928,#929,#930,#931,#932,
#933),.UNSPECIFIED.,.F.,.F.,(4,2,2,4),(0.,0.11887324937128,0.194726943662203,
0.271687709938732),.UNSPECIFIED.);
#209=B_SPLINE_CURVE_WITH_KNOTS('',3,(#934,#935,#936,#937,#938),
 .UNSPECIFIED.,.F.,.F.,(4,1,4),(-3.26479409856634,-2.9741765880496,-2.76515881608259),
 .UNSPECIFIED.);
#210=VERTEX_POINT('',#716);
#211=VERTEX_POINT('',#717);
#212=VERTEX_POINT('',#739);
#213=VERTEX_POINT('',#745);
#214=VERTEX_POINT('',#747);
#215=VERTEX_POINT('',#752);
#216=VERTEX_POINT('',#776);
#217=VERTEX_POINT('',#778);
#218=VERTEX_POINT('',#780);
#219=VERTEX_POINT('',#782);
#220=VERTEX_POINT('',#784);
#221=VERTEX_POINT('',#788);
#222=VERTEX_POINT('',#790);
#223=VERTEX_POINT('',#792);
#224=VERTEX_POINT('',#795);
#225=VERTEX_POINT('',#799);
#226=VERTEX_POINT('',#800);
#227=VERTEX_POINT('',#802);
#228=VERTEX_POINT('',#804);
#229=VERTEX_POINT('',#817);
#230=VERTEX_POINT('',#819);
#231=VERTEX_POINT('',#830);
#232=VERTEX_POINT('',#841);
#233=VERTEX_POINT('',#843);
#234=VERTEX_POINT('',#855);
#235=VERTEX_POINT('',#891);
#236=VERTEX_POINT('',#893);
#237=VERTEX_POINT('',#916);
#238=VERTEX_POINT('',#925);
#239=VERTEX_POINT('',#940);
#240=VERTEX_POINT('',#942);
#241=VERTEX_POINT('',#946);
#242=VERTEX_POINT('',#948);
#243=VERTEX_POINT('',#953);
#244=VERTEX_POINT('',#954);
#245=VERTEX_POINT('',#956);
#246=VERTEX_POINT('',#958);
#247=VERTEX_POINT('',#962);
#248=VERTEX_POINT('',#964);
#249=VERTEX_POINT('',#966);
#250=VERTEX_POINT('',#970);
#251=VERTEX_POINT('',#977);
#252=VERTEX_POINT('',#979);
#253=VERTEX_POINT('',#982);
#254=VERTEX_POINT('',#990);
#255=VERTEX_POINT('',#999);
#256=VERTEX_POINT('',#1003);
#257=EDGE_CURVE('',#210,#211,#198,.T.);
#258=EDGE_CURVE('',#212,#210,#180,.T.);
#259=EDGE_CURVE('',#211,#212,#199,.T.);
#260=EDGE_CURVE('',#211,#213,#96,.T.);
#261=EDGE_CURVE('',#214,#213,#200,.T.);
#262=EDGE_CURVE('',#215,#214,#181,.T.);
#263=EDGE_CURVE('',#213,#215,#201,.T.);
#264=EDGE_CURVE('',#216,#210,#97,.T.);
#265=EDGE_CURVE('',#216,#217,#98,.T.);
#266=EDGE_CURVE('',#218,#217,#99,.T.);
#267=EDGE_CURVE('',#218,#219,#100,.T.);
#268=EDGE_CURVE('',#220,#219,#101,.T.);
#269=EDGE_CURVE('',#212,#220,#102,.T.);
#270=EDGE_CURVE('',#215,#221,#103,.T.);
#271=EDGE_CURVE('',#221,#222,#182,.T.);
#272=EDGE_CURVE('',#222,#223,#23,.T.);
#273=EDGE_CURVE('',#223,#216,#183,.T.);
#274=EDGE_CURVE('',#220,#224,#184,.T.);
#275=EDGE_CURVE('',#224,#214,#104,.T.);
#276=EDGE_CURVE('',#225,#226,#185,.T.);
#277=EDGE_CURVE('',#226,#227,#105,.T.);
#278=EDGE_CURVE('',#227,#228,#202,.T.);
#279=EDGE_CURVE('',#228,#225,#106,.T.);
#280=EDGE_CURVE('',#227,#229,#107,.T.);
#281=EDGE_CURVE('',#230,#229,#203,.T.);
#282=EDGE_CURVE('',#231,#230,#204,.T.);
#283=EDGE_CURVE('',#232,#231,#108,.T.);
#284=EDGE_CURVE('',#233,#232,#205,.T.);
#285=EDGE_CURVE('',#233,#228,#186,.T.);
#286=EDGE_CURVE('',#234,#234,#206,.T.);
#287=EDGE_CURVE('',#232,#235,#109,.T.);
#288=EDGE_CURVE('',#235,#236,#187,.T.);
#289=EDGE_CURVE('',#236,#233,#110,.T.);
#290=EDGE_CURVE('',#228,#237,#207,.F.);
#291=EDGE_CURVE('',#233,#238,#208,.T.);
#292=EDGE_CURVE('',#238,#237,#209,.T.);
#293=EDGE_CURVE('',#238,#239,#111,.T.);
#294=EDGE_CURVE('',#240,#239,#112,.T.);
#295=EDGE_CURVE('',#240,#237,#113,.T.);
#296=EDGE_CURVE('',#225,#241,#188,.T.);
#297=EDGE_CURVE('',#241,#242,#114,.T.);
#298=EDGE_CURVE('',#236,#242,#189,.F.);
#299=EDGE_CURVE('',#236,#225,#115,.T.);
#300=EDGE_CURVE('',#243,#244,#190,.T.);
#301=EDGE_CURVE('',#244,#245,#116,.T.);
#302=EDGE_CURVE('',#246,#245,#191,.F.);
#303=EDGE_CURVE('',#246,#243,#117,.T.);
#304=EDGE_CURVE('',#247,#243,#118,.T.);
#305=EDGE_CURVE('',#243,#248,#119,.T.);
#306=EDGE_CURVE('',#249,#248,#120,.T.);
#307=EDGE_CURVE('',#219,#249,#121,.T.);
#308=EDGE_CURVE('',#218,#246,#122,.T.);
#309=EDGE_CURVE('',#246,#250,#123,.T.);
#310=EDGE_CURVE('',#247,#250,#124,.T.);
#311=EDGE_CURVE('',#250,#240,#192,.T.);
#312=EDGE_CURVE('',#239,#247,#193,.T.);
#313=EDGE_CURVE('',#235,#251,#125,.T.);
#314=EDGE_CURVE('',#252,#251,#194,.T.);
#315=EDGE_CURVE('',#226,#252,#126,.T.);
#316=EDGE_CURVE('',#253,#253,#195,.T.);
#317=EDGE_CURVE('',#251,#231,#127,.T.);
#318=EDGE_CURVE('',#229,#252,#128,.T.);
#319=EDGE_CURVE('',#249,#224,#129,.T.);
#320=EDGE_CURVE('',#254,#248,#130,.T.);
#321=EDGE_CURVE('',#221,#254,#131,.T.);
#322=EDGE_CURVE('',#241,#245,#132,.T.);
#323=EDGE_CURVE('',#244,#242,#133,.T.);
#324=EDGE_CURVE('',#255,#255,#196,.T.);
#325=EDGE_CURVE('',#255,#234,#134,.T.);
#326=EDGE_CURVE('',#256,#256,#197,.T.);
#327=EDGE_CURVE('',#253,#256,#135,.T.);
#328=EDGE_CURVE('',#217,#254,#136,.T.);
#329=EDGE_CURVE('',#223,#222,#137,.T.);
#330=ORIENTED_EDGE('',*,*,#257,.F.);
#331=ORIENTED_EDGE('',*,*,#258,.F.);
#332=ORIENTED_EDGE('',*,*,#259,.F.);
#333=ORIENTED_EDGE('',*,*,#260,.T.);
#334=ORIENTED_EDGE('',*,*,#261,.F.);
#335=ORIENTED_EDGE('',*,*,#262,.F.);
#336=ORIENTED_EDGE('',*,*,#263,.F.);
#337=ORIENTED_EDGE('',*,*,#260,.F.);
#338=ORIENTED_EDGE('',*,*,#258,.T.);
#339=ORIENTED_EDGE('',*,*,#264,.F.);
#340=ORIENTED_EDGE('',*,*,#265,.T.);
#341=ORIENTED_EDGE('',*,*,#266,.F.);
#342=ORIENTED_EDGE('',*,*,#267,.T.);
#343=ORIENTED_EDGE('',*,*,#268,.F.);
#344=ORIENTED_EDGE('',*,*,#269,.F.);
#345=ORIENTED_EDGE('',*,*,#261,.T.);
#346=ORIENTED_EDGE('',*,*,#263,.T.);
#347=ORIENTED_EDGE('',*,*,#270,.T.);
#348=ORIENTED_EDGE('',*,*,#271,.T.);
#349=ORIENTED_EDGE('',*,*,#272,.T.);
#350=ORIENTED_EDGE('',*,*,#273,.T.);
#351=ORIENTED_EDGE('',*,*,#264,.T.);
#352=ORIENTED_EDGE('',*,*,#257,.T.);
#353=ORIENTED_EDGE('',*,*,#259,.T.);
#354=ORIENTED_EDGE('',*,*,#269,.T.);
#355=ORIENTED_EDGE('',*,*,#274,.T.);
#356=ORIENTED_EDGE('',*,*,#275,.T.);
#357=ORIENTED_EDGE('',*,*,#276,.T.);
#358=ORIENTED_EDGE('',*,*,#277,.T.);
#359=ORIENTED_EDGE('',*,*,#278,.T.);
#360=ORIENTED_EDGE('',*,*,#279,.T.);
#361=ORIENTED_EDGE('',*,*,#278,.F.);
#362=ORIENTED_EDGE('',*,*,#280,.T.);
#363=ORIENTED_EDGE('',*,*,#281,.F.);
#364=ORIENTED_EDGE('',*,*,#282,.F.);
#365=ORIENTED_EDGE('',*,*,#283,.F.);
#366=ORIENTED_EDGE('',*,*,#284,.F.);
#367=ORIENTED_EDGE('',*,*,#285,.T.);
#368=ORIENTED_EDGE('',*,*,#286,.T.);
#369=ORIENTED_EDGE('',*,*,#284,.T.);
#370=ORIENTED_EDGE('',*,*,#287,.T.);
#371=ORIENTED_EDGE('',*,*,#288,.T.);
#372=ORIENTED_EDGE('',*,*,#289,.T.);
#373=ORIENTED_EDGE('',*,*,#290,.F.);
#374=ORIENTED_EDGE('',*,*,#285,.F.);
#375=ORIENTED_EDGE('',*,*,#291,.T.);
#376=ORIENTED_EDGE('',*,*,#292,.T.);
#377=ORIENTED_EDGE('',*,*,#292,.F.);
#378=ORIENTED_EDGE('',*,*,#293,.T.);
#379=ORIENTED_EDGE('',*,*,#294,.F.);
#380=ORIENTED_EDGE('',*,*,#295,.T.);
#381=ORIENTED_EDGE('',*,*,#296,.T.);
#382=ORIENTED_EDGE('',*,*,#297,.T.);
#383=ORIENTED_EDGE('',*,*,#298,.F.);
#384=ORIENTED_EDGE('',*,*,#299,.T.);
#385=ORIENTED_EDGE('',*,*,#300,.T.);
#386=ORIENTED_EDGE('',*,*,#301,.T.);
#387=ORIENTED_EDGE('',*,*,#302,.F.);
#388=ORIENTED_EDGE('',*,*,#303,.T.);
#389=ORIENTED_EDGE('',*,*,#304,.T.);
#390=ORIENTED_EDGE('',*,*,#305,.T.);
#391=ORIENTED_EDGE('',*,*,#306,.F.);
#392=ORIENTED_EDGE('',*,*,#307,.F.);
#393=ORIENTED_EDGE('',*,*,#267,.F.);
#394=ORIENTED_EDGE('',*,*,#308,.T.);
#395=ORIENTED_EDGE('',*,*,#309,.T.);
#396=ORIENTED_EDGE('',*,*,#310,.F.);
#397=ORIENTED_EDGE('',*,*,#311,.T.);
#398=ORIENTED_EDGE('',*,*,#294,.T.);
#399=ORIENTED_EDGE('',*,*,#312,.T.);
#400=ORIENTED_EDGE('',*,*,#310,.T.);
#401=ORIENTED_EDGE('',*,*,#276,.F.);
#402=ORIENTED_EDGE('',*,*,#299,.F.);
#403=ORIENTED_EDGE('',*,*,#288,.F.);
#404=ORIENTED_EDGE('',*,*,#313,.T.);
#405=ORIENTED_EDGE('',*,*,#314,.F.);
#406=ORIENTED_EDGE('',*,*,#315,.F.);
#407=ORIENTED_EDGE('',*,*,#316,.T.);
#408=ORIENTED_EDGE('',*,*,#314,.T.);
#409=ORIENTED_EDGE('',*,*,#317,.T.);
#410=ORIENTED_EDGE('',*,*,#282,.T.);
#411=ORIENTED_EDGE('',*,*,#281,.T.);
#412=ORIENTED_EDGE('',*,*,#318,.T.);
#413=ORIENTED_EDGE('',*,*,#277,.F.);
#414=ORIENTED_EDGE('',*,*,#315,.T.);
#415=ORIENTED_EDGE('',*,*,#318,.F.);
#416=ORIENTED_EDGE('',*,*,#280,.F.);
#417=ORIENTED_EDGE('',*,*,#262,.T.);
#418=ORIENTED_EDGE('',*,*,#275,.F.);
#419=ORIENTED_EDGE('',*,*,#319,.F.);
#420=ORIENTED_EDGE('',*,*,#306,.T.);
#421=ORIENTED_EDGE('',*,*,#320,.F.);
#422=ORIENTED_EDGE('',*,*,#321,.F.);
#423=ORIENTED_EDGE('',*,*,#270,.F.);
#424=ORIENTED_EDGE('',*,*,#274,.F.);
#425=ORIENTED_EDGE('',*,*,#268,.T.);
#426=ORIENTED_EDGE('',*,*,#307,.T.);
#427=ORIENTED_EDGE('',*,*,#319,.T.);
#428=ORIENTED_EDGE('',*,*,#309,.F.);
#429=ORIENTED_EDGE('',*,*,#302,.T.);
#430=ORIENTED_EDGE('',*,*,#322,.F.);
#431=ORIENTED_EDGE('',*,*,#296,.F.);
#432=ORIENTED_EDGE('',*,*,#279,.F.);
#433=ORIENTED_EDGE('',*,*,#290,.T.);
#434=ORIENTED_EDGE('',*,*,#295,.F.);
#435=ORIENTED_EDGE('',*,*,#311,.F.);
#436=ORIENTED_EDGE('',*,*,#289,.F.);
#437=ORIENTED_EDGE('',*,*,#298,.T.);
#438=ORIENTED_EDGE('',*,*,#323,.F.);
#439=ORIENTED_EDGE('',*,*,#300,.F.);
#440=ORIENTED_EDGE('',*,*,#304,.F.);
#441=ORIENTED_EDGE('',*,*,#312,.F.);
#442=ORIENTED_EDGE('',*,*,#293,.F.);
#443=ORIENTED_EDGE('',*,*,#291,.F.);
#444=ORIENTED_EDGE('',*,*,#324,.T.);
#445=ORIENTED_EDGE('',*,*,#325,.T.);
#446=ORIENTED_EDGE('',*,*,#286,.F.);
#447=ORIENTED_EDGE('',*,*,#325,.F.);
#448=ORIENTED_EDGE('',*,*,#324,.F.);
#449=ORIENTED_EDGE('',*,*,#326,.F.);
#450=ORIENTED_EDGE('',*,*,#316,.F.);
#451=ORIENTED_EDGE('',*,*,#327,.T.);
#452=ORIENTED_EDGE('',*,*,#326,.T.);
#453=ORIENTED_EDGE('',*,*,#327,.F.);
#454=ORIENTED_EDGE('',*,*,#320,.T.);
#455=ORIENTED_EDGE('',*,*,#305,.F.);
#456=ORIENTED_EDGE('',*,*,#303,.F.);
#457=ORIENTED_EDGE('',*,*,#308,.F.);
#458=ORIENTED_EDGE('',*,*,#266,.T.);
#459=ORIENTED_EDGE('',*,*,#328,.T.);
#460=ORIENTED_EDGE('',*,*,#297,.F.);
#461=ORIENTED_EDGE('',*,*,#322,.T.);
#462=ORIENTED_EDGE('',*,*,#301,.F.);
#463=ORIENTED_EDGE('',*,*,#323,.T.);
#464=ORIENTED_EDGE('',*,*,#272,.F.);
#465=ORIENTED_EDGE('',*,*,#329,.F.);
#466=ORIENTED_EDGE('',*,*,#271,.F.);
#467=ORIENTED_EDGE('',*,*,#321,.T.);
#468=ORIENTED_EDGE('',*,*,#328,.F.);
#469=ORIENTED_EDGE('',*,*,#265,.F.);
#470=ORIENTED_EDGE('',*,*,#273,.F.);
#471=ORIENTED_EDGE('',*,*,#329,.T.);
#472=ORIENTED_EDGE('',*,*,#287,.F.);
#473=ORIENTED_EDGE('',*,*,#283,.T.);
#474=ORIENTED_EDGE('',*,*,#317,.F.);
#475=ORIENTED_EDGE('',*,*,#313,.F.);
#476=CYLINDRICAL_SURFACE('',#529,1.75);
#477=CYLINDRICAL_SURFACE('',#533,3.75);
#478=CYLINDRICAL_SURFACE('',#538,2.);
#479=CYLINDRICAL_SURFACE('',#540,13.5);
#480=CYLINDRICAL_SURFACE('',#542,2.);
#481=CYLINDRICAL_SURFACE('',#545,3.);
#482=CYLINDRICAL_SURFACE('',#548,3.);
#483=CYLINDRICAL_SURFACE('',#552,3.);
#484=CYLINDRICAL_SURFACE('',#558,3.75);
#485=CYLINDRICAL_SURFACE('',#564,2.75);
#486=CYLINDRICAL_SURFACE('',#568,1.7);
#487=ADVANCED_FACE('',(#39),#476,.F.);
#488=ADVANCED_FACE('',(#40),#24,.T.);
#489=ADVANCED_FACE('',(#41),#477,.T.);
#490=ADVANCED_FACE('',(#42),#478,.T.);
#491=ADVANCED_FACE('',(#43,#20),#479,.T.);
#492=ADVANCED_FACE('',(#44),#480,.T.);
#493=ADVANCED_FACE('',(#45),#19,.T.);
#494=ADVANCED_FACE('',(#46),#25,.T.);
#495=ADVANCED_FACE('',(#47),#481,.F.);
#496=ADVANCED_FACE('',(#48),#482,.F.);
#497=ADVANCED_FACE('',(#49),#26,.T.);
#498=ADVANCED_FACE('',(#50),#483,.F.);
#499=ADVANCED_FACE('',(#51,#21),#27,.T.);
#500=ADVANCED_FACE('',(#52),#484,.T.);
#501=ADVANCED_FACE('',(#53),#28,.T.);
#502=ADVANCED_FACE('',(#54),#29,.T.);
#503=ADVANCED_FACE('',(#55),#30,.T.);
#504=ADVANCED_FACE('',(#56),#31,.F.);
#505=ADVANCED_FACE('',(#57),#32,.F.);
#506=ADVANCED_FACE('',(#58),#485,.F.);
#507=ADVANCED_FACE('',(#59,#22),#33,.F.);
#508=ADVANCED_FACE('',(#60),#486,.F.);
#509=ADVANCED_FACE('',(#61),#34,.T.);
#510=ADVANCED_FACE('',(#62),#35,.T.);
#511=ADVANCED_FACE('',(#63),#36,.T.);
#512=ADVANCED_FACE('',(#64),#37,.T.);
#513=ADVANCED_FACE('',(#65),#38,.T.);
#514=CLOSED_SHELL('',(#487,#488,#489,#490,#491,#492,#493,#494,#495,#496,
#497,#498,#499,#500,#501,#502,#503,#504,#505,#506,#507,#508,#509,#510,#511,
#512,#513));
#515=DERIVED_UNIT_ELEMENT(#517,1.);
#516=DERIVED_UNIT_ELEMENT(#1022,-3.);
#517=(
MASS_UNIT()
NAMED_UNIT(*)
SI_UNIT(.KILO.,.GRAM.)
);
#518=DERIVED_UNIT((#515,#516));
#519=MEASURE_REPRESENTATION_ITEM('density measure',
POSITIVE_RATIO_MEASURE(7850.),#518);
#520=PROPERTY_DEFINITION_REPRESENTATION(#525,#522);
#521=PROPERTY_DEFINITION_REPRESENTATION(#526,#523);
#522=REPRESENTATION('material name',(#524),#1019);
#523=REPRESENTATION('density',(#519),#1019);
#524=DESCRIPTIVE_REPRESENTATION_ITEM('Steel','Steel');
#525=PROPERTY_DEFINITION('material property','material name',#1034);
#526=PROPERTY_DEFINITION('material property','density of part',#1034);
#527=AXIS2_PLACEMENT_3D('',#713,#575,#576);
#528=AXIS2_PLACEMENT_3D('',#714,#577,#578);
#529=AXIS2_PLACEMENT_3D('',#715,#579,#580);
#530=AXIS2_PLACEMENT_3D('',#740,#581,#582);
#531=AXIS2_PLACEMENT_3D('',#753,#584,#585);
#532=AXIS2_PLACEMENT_3D('',#775,#586,#587);
#533=AXIS2_PLACEMENT_3D('',#787,#594,#595);
#534=AXIS2_PLACEMENT_3D('',#791,#597,#598);
#535=AXIS2_PLACEMENT_3D('',#793,#599,#600);
#536=AXIS2_PLACEMENT_3D('',#794,#601,#602);
#537=AXIS2_PLACEMENT_3D('',#796,#603,#604);
#538=AXIS2_PLACEMENT_3D('',#798,#606,#607);
#539=AXIS2_PLACEMENT_3D('',#801,#608,#609);
#540=AXIS2_PLACEMENT_3D('',#816,#612,#613);
#541=AXIS2_PLACEMENT_3D('',#854,#616,#617);
#542=AXIS2_PLACEMENT_3D('',#890,#618,#619);
#543=AXIS2_PLACEMENT_3D('',#894,#621,#622);
#544=AXIS2_PLACEMENT_3D('',#939,#624,#625);
#545=AXIS2_PLACEMENT_3D('',#945,#629,#630);
#546=AXIS2_PLACEMENT_3D('',#947,#631,#632);
#547=AXIS2_PLACEMENT_3D('',#950,#634,#635);
#548=AXIS2_PLACEMENT_3D('',#952,#637,#638);
#549=AXIS2_PLACEMENT_3D('',#955,#639,#640);
#550=AXIS2_PLACEMENT_3D('',#959,#642,#643);
#551=AXIS2_PLACEMENT_3D('',#961,#645,#646);
#552=AXIS2_PLACEMENT_3D('',#973,#654,#655);
#553=AXIS2_PLACEMENT_3D('',#974,#656,#657);
#554=AXIS2_PLACEMENT_3D('',#975,#658,#659);
#555=AXIS2_PLACEMENT_3D('',#976,#660,#661);
#556=AXIS2_PLACEMENT_3D('',#980,#663,#664);
#557=AXIS2_PLACEMENT_3D('',#983,#666,#667);
#558=AXIS2_PLACEMENT_3D('',#984,#668,#669);
#559=AXIS2_PLACEMENT_3D('',#987,#672,#673);
#560=AXIS2_PLACEMENT_3D('',#988,#674,#675);
#561=AXIS2_PLACEMENT_3D('',#993,#679,#680);
#562=AXIS2_PLACEMENT_3D('',#994,#681,#682);
#563=AXIS2_PLACEMENT_3D('',#996,#684,#685);
#564=AXIS2_PLACEMENT_3D('',#998,#687,#688);
#565=AXIS2_PLACEMENT_3D('',#1000,#689,#690);
#566=AXIS2_PLACEMENT_3D('',#1002,#692,#693);
#567=AXIS2_PLACEMENT_3D('',#1004,#694,#695);
#568=AXIS2_PLACEMENT_3D('',#1005,#696,#697);
#569=AXIS2_PLACEMENT_3D('',#1007,#699,#700);
#570=AXIS2_PLACEMENT_3D('',#1009,#702,#703);
#571=AXIS2_PLACEMENT_3D('',#1010,#704,#705);
#572=AXIS2_PLACEMENT_3D('',#1012,#707,#708);
#573=AXIS2_PLACEMENT_3D('',#1013,#709,#710);
#574=AXIS2_PLACEMENT_3D('',#1014,#711,#712);
#575=DIRECTION('axis',(0.,0.,1.));
#576=DIRECTION('refdir',(1.,0.,0.));
#577=DIRECTION('axis',(0.,0.,1.));
#578=DIRECTION('refdir',(1.,0.,0.));
#579=DIRECTION('center_axis',(1.,0.,0.));
#580=DIRECTION('ref_axis',(0.,-1.,0.));
#581=DIRECTION('center_axis',(1.,0.,0.));
#582=DIRECTION('ref_axis',(0.,-1.,0.));
#583=DIRECTION('',(1.,0.,0.));
#584=DIRECTION('center_axis',(-1.,0.,0.));
#585=DIRECTION('ref_axis',(0.,-1.,0.));
#586=DIRECTION('center_axis',(-1.,0.,0.));
#587=DIRECTION('ref_axis',(0.,0.,1.));
#588=DIRECTION('',(0.,1.,3.03975501929429E-14));
#589=DIRECTION('',(0.,-7.40148683083436E-16,1.));
#590=DIRECTION('',(0.,-0.965925826289069,0.25881904510252));
#591=DIRECTION('',(0.,1.,0.));
#592=DIRECTION('',(0.,-3.04340857100083E-14,1.));
#593=DIRECTION('',(0.,1.,3.03975501929429E-14));
#594=DIRECTION('center_axis',(0.,1.,3.03975501929429E-14));
#595=DIRECTION('ref_axis',(-0.707106781186547,2.13532574380993E-14,-0.707106781186547));
#596=DIRECTION('',(0.,-1.,-3.03975501929429E-14));
#597=DIRECTION('center_axis',(0.,1.,7.40148683083436E-16));
#598=DIRECTION('ref_axis',(0.707106781186547,2.13532574380993E-14,-0.707106781186547));
#599=DIRECTION('center_axis',(0.,0.707106781186486,0.70710678118661));
#600=DIRECTION('ref_axis',(5.23364152894562E-17,0.707106781186609,-0.707106781186486));
#601=DIRECTION('center_axis',(0.,1.,7.40148683083436E-16));
#602=DIRECTION('ref_axis',(-0.707106781186547,2.13532574380993E-14,-0.707106781186547));
#603=DIRECTION('center_axis',(0.,-1.,-3.01980662698043E-14));
#604=DIRECTION('ref_axis',(-0.707106781186547,2.13532574380993E-14,-0.707106781186547));
#605=DIRECTION('',(0.,-1.,-3.03975501929429E-14));
#606=DIRECTION('center_axis',(0.,1.,0.));
#607=DIRECTION('ref_axis',(-0.375000000000002,0.,-0.927024810886957));
#608=DIRECTION('center_axis',(2.96059473233391E-15,1.,0.));
#609=DIRECTION('ref_axis',(-0.375000000000002,0.,-0.927024810886957));
#610=DIRECTION('',(0.,1.,0.));
#611=DIRECTION('',(0.,-1.,0.));
#612=DIRECTION('center_axis',(0.,0.,1.));
#613=DIRECTION('ref_axis',(-1.,0.,0.));
#614=DIRECTION('',(0.,0.,1.));
#615=DIRECTION('',(0.,0.,1.));
#616=DIRECTION('center_axis',(0.,0.,1.));
#617=DIRECTION('ref_axis',(-1.,0.,0.));
#618=DIRECTION('center_axis',(0.,-1.,0.));
#619=DIRECTION('ref_axis',(0.374999999999998,0.,-0.927024810886959));
#620=DIRECTION('',(0.,-1.,0.));
#621=DIRECTION('center_axis',(2.96059473233391E-15,1.,0.));
#622=DIRECTION('ref_axis',(0.374999999999998,0.,-0.927024810886959));
#623=DIRECTION('',(0.,1.,0.));
#624=DIRECTION('center_axis',(0.,1.,0.));
#625=DIRECTION('ref_axis',(0.,0.,1.));
#626=DIRECTION('',(1.25347760844776E-16,0.,-1.));
#627=DIRECTION('',(1.,0.,0.));
#628=DIRECTION('',(-2.14881875733901E-16,0.,1.));
#629=DIRECTION('center_axis',(-1.,7.08669150532673E-43,-4.58048267547709E-29));
#630=DIRECTION('ref_axis',(0.,0.977070783114022,0.21291473595069));
#631=DIRECTION('center_axis',(-1.,0.,-2.14881875733901E-16));
#632=DIRECTION('ref_axis',(0.,0.977070783114022,0.21291473595069));
#633=DIRECTION('',(1.,-7.08669150532673E-43,4.58048267547709E-29));
#634=DIRECTION('center_axis',(1.,0.,1.25347760844776E-16));
#635=DIRECTION('ref_axis',(0.,0.977070783114022,0.21291473595069));
#636=DIRECTION('',(-1.,2.96059473233391E-15,0.));
#637=DIRECTION('center_axis',(1.,0.,0.));
#638=DIRECTION('ref_axis',(0.,0.154166666666668,-0.98804485671901));
#639=DIRECTION('center_axis',(1.,0.,1.25347760844776E-16));
#640=DIRECTION('ref_axis',(0.,0.154166666666668,-0.98804485671901));
#641=DIRECTION('',(-1.,0.,0.));
#642=DIRECTION('center_axis',(-1.,0.,-2.14881875733901E-16));
#643=DIRECTION('ref_axis',(0.,0.154166666666668,-0.98804485671901));
#644=DIRECTION('',(1.,0.,0.));
#645=DIRECTION('center_axis',(0.,0.,1.));
#646=DIRECTION('ref_axis',(1.,0.,0.));
#647=DIRECTION('',(0.,-1.,0.));
#648=DIRECTION('',(1.,0.,0.));
#649=DIRECTION('',(0.,-1.,0.));
#650=DIRECTION('',(1.,0.,0.));
#651=DIRECTION('',(1.,0.,0.));
#652=DIRECTION('',(0.,1.,0.));
#653=DIRECTION('',(-1.,0.,0.));
#654=DIRECTION('center_axis',(1.,0.,0.));
#655=DIRECTION('ref_axis',(0.,-0.707106781186549,-0.707106781186546));
#656=DIRECTION('center_axis',(-1.,0.,-2.14881875733901E-16));
#657=DIRECTION('ref_axis',(0.,-0.707106781186549,-0.707106781186546));
#658=DIRECTION('center_axis',(1.,0.,1.25347760844776E-16));
#659=DIRECTION('ref_axis',(0.,-0.707106781186549,-0.707106781186546));
#660=DIRECTION('center_axis',(-2.96059473233391E-15,-1.,0.));
#661=DIRECTION('ref_axis',(1.,-2.96059473233391E-15,0.));
#662=DIRECTION('',(0.,0.,1.));
#663=DIRECTION('center_axis',(2.96059473233391E-15,1.,0.));
#664=DIRECTION('ref_axis',(0.707106781186547,0.,0.707106781186547));
#665=DIRECTION('',(0.,0.,1.));
#666=DIRECTION('center_axis',(2.96059473233391E-15,1.,0.));
#667=DIRECTION('ref_axis',(0.,0.,-1.));
#668=DIRECTION('center_axis',(0.,-1.,0.));
#669=DIRECTION('ref_axis',(-0.707106781186547,0.,0.707106781186547));
#670=DIRECTION('',(0.,1.,0.));
#671=DIRECTION('',(0.,-1.,0.));
#672=DIRECTION('center_axis',(-1.,0.,0.));
#673=DIRECTION('ref_axis',(0.,0.,1.));
#674=DIRECTION('center_axis',(1.,0.,0.));
#675=DIRECTION('ref_axis',(0.,0.,-1.));
#676=DIRECTION('',(0.,3.04340857100083E-14,-1.));
#677=DIRECTION('',(0.,0.965925826289069,-0.25881904510252));
#678=DIRECTION('',(0.,0.,1.));
#679=DIRECTION('center_axis',(0.,1.,3.01980662698043E-14));
#680=DIRECTION('ref_axis',(0.,-3.01980662698043E-14,1.));
#681=DIRECTION('center_axis',(1.,0.,2.14881875733901E-16));
#682=DIRECTION('ref_axis',(2.14881875733901E-16,0.,-1.));
#683=DIRECTION('',(2.14881875733901E-16,1.54714950528409E-14,-1.));
#684=DIRECTION('center_axis',(-1.,0.,-1.25347760844776E-16));
#685=DIRECTION('ref_axis',(-1.25347760844776E-16,0.,1.));
#686=DIRECTION('',(-1.25347760844776E-16,-1.54714950528409E-14,1.));
#687=DIRECTION('center_axis',(8.89139651756156E-16,1.,0.));
#688=DIRECTION('ref_axis',(1.,-8.89139651756156E-16,0.));
#689=DIRECTION('center_axis',(-8.8817841970015E-16,-1.,0.));
#690=DIRECTION('ref_axis',(1.,-8.8817841970015E-16,0.));
#691=DIRECTION('',(8.89139651756156E-16,1.,0.));
#692=DIRECTION('center_axis',(-8.8817841970015E-16,-1.,0.));
#693=DIRECTION('ref_axis',(1.,-8.8817841970015E-16,0.));
#694=DIRECTION('center_axis',(8.8817841970015E-16,1.,0.));
#695=DIRECTION('ref_axis',(0.,0.,-1.));
#696=DIRECTION('center_axis',(2.96059473233391E-15,1.,0.));
#697=DIRECTION('ref_axis',(0.,0.,-1.));
#698=DIRECTION('',(2.96059473233391E-15,1.,0.));
#699=DIRECTION('center_axis',(0.,0.25881904510252,0.965925826289069));
#700=DIRECTION('ref_axis',(0.,-0.965925826289069,0.25881904510252));
#701=DIRECTION('',(1.,0.,0.));
#702=DIRECTION('center_axis',(0.,-1.,-1.54714950528409E-14));
#703=DIRECTION('ref_axis',(0.,1.54714950528409E-14,-1.));
#704=DIRECTION('center_axis',(0.,-0.707106781186486,-0.70710678118661));
#705=DIRECTION('ref_axis',(0.,0.70710678118661,-0.707106781186486));
#706=DIRECTION('',(1.,0.,0.));
#707=DIRECTION('center_axis',(0.,-1.,-7.40148683083436E-16));
#708=DIRECTION('ref_axis',(0.,7.40148683083436E-16,-1.));
#709=DIRECTION('center_axis',(1.,0.,0.));
#710=DIRECTION('ref_axis',(0.,0.,-1.));
#711=DIRECTION('',(0.,0.,1.));
#712=DIRECTION('',(1.,0.,0.));
#713=CARTESIAN_POINT('',(0.,0.,0.));
#714=CARTESIAN_POINT('',(0.,0.,0.));
#715=CARTESIAN_POINT('Origin',(-3.75,24.9687123493406,41.7500000000005));
#716=CARTESIAN_POINT('',(-3.75,23.2916613662159,42.250000000001));
#717=CARTESIAN_POINT('',(-3.71651718682955,26.7187123493406,41.7500000000005));
#718=CARTESIAN_POINT('Ctrl Pts',(-3.75,23.2916613662159,42.250000000001));
#719=CARTESIAN_POINT('Ctrl Pts',(-3.75,23.2422537829857,42.0842819279409));
#720=CARTESIAN_POINT('Ctrl Pts',(-3.73840187069727,23.2187123493406,41.9126696074457));
#721=CARTESIAN_POINT('Ctrl Pts',(-3.68558970199003,23.2187123493406,41.5201149420978));
#722=CARTESIAN_POINT('Ctrl Pts',(-3.6297600337723,23.2664685207869,41.2808094830137));
#723=CARTESIAN_POINT('Ctrl Pts',(-3.48559679269502,23.4506570482337,40.8481786587209));
#724=CARTESIAN_POINT('Ctrl Pts',(-3.3980194483482,23.5868010857611,40.6544790101163));
#725=CARTESIAN_POINT('Ctrl Pts',(-3.23952328049415,23.8928407519803,40.3536662503328));
#726=CARTESIAN_POINT('Ctrl Pts',(-3.15671048040118,24.0836142621033,40.2228953390967));
#727=CARTESIAN_POINT('Ctrl Pts',(-3.035846236153,24.5084603900718,40.0460006309515));
#728=CARTESIAN_POINT('Ctrl Pts',(-2.99999999999957,24.7432085103684,40.0000000000005));
#729=CARTESIAN_POINT('Ctrl Pts',(-2.99999999999957,24.9687123493407,40.0000000000005));
#730=CARTESIAN_POINT('Ctrl Pts',(-2.99999999999957,25.1942161883129,40.0000000000005));
#731=CARTESIAN_POINT('Ctrl Pts',(-3.035846236153,25.4289643086095,40.0460006309515));
#732=CARTESIAN_POINT('Ctrl Pts',(-3.15671048040118,25.853810436578,40.2228953390967));
#733=CARTESIAN_POINT('Ctrl Pts',(-3.23952328049415,26.044583946701,40.3536662503328));
#734=CARTESIAN_POINT('Ctrl Pts',(-3.3980194483482,26.3506236129202,40.6544790101164));
#735=CARTESIAN_POINT('Ctrl Pts',(-3.48559679269502,26.4867676504476,40.848178658721));
#736=CARTESIAN_POINT('Ctrl Pts',(-3.6297600337723,26.6709561778943,41.2808094830138));
#737=CARTESIAN_POINT('Ctrl Pts',(-3.68558970199003,26.7187123493406,41.5201149420979));
#738=CARTESIAN_POINT('Ctrl Pts',(-3.71651718682955,26.7187123493406,41.7500000000006));
#739=CARTESIAN_POINT('',(-3.75,26.6457633324653,42.2500000000012));
#740=CARTESIAN_POINT('Origin',(-3.75,24.9687123493406,41.7500000000005));
#741=CARTESIAN_POINT('Ctrl Pts',(-3.71651718682955,26.7187123493406,41.7500000000006));
#742=CARTESIAN_POINT('Ctrl Pts',(-3.73840187068717,26.7187123493406,41.9126696073708));
#743=CARTESIAN_POINT('Ctrl Pts',(-3.75,26.6951709156509,42.0842819280909));
#744=CARTESIAN_POINT('Ctrl Pts',(-3.75,26.6457633324653,42.2500000000011));
#745=CARTESIAN_POINT('',(3.71651718682955,26.7187123493406,41.7500000000005));
#746=CARTESIAN_POINT('',(-3.75,26.7187123493406,41.7500000000005));
#747=CARTESIAN_POINT('',(3.75,26.6457633324653,42.2500000000012));
#748=CARTESIAN_POINT('Ctrl Pts',(3.75,26.6457633324653,42.2500000000011));
#749=CARTESIAN_POINT('Ctrl Pts',(3.75,26.6951709156955,42.084281927941));
#750=CARTESIAN_POINT('Ctrl Pts',(3.73840187069727,26.7187123493406,41.9126696074458));
#751=CARTESIAN_POINT('Ctrl Pts',(3.71651718682955,26.7187123493406,41.7500000000006));
#752=CARTESIAN_POINT('',(3.75,23.2916613662159,42.250000000001));
#753=CARTESIAN_POINT('Origin',(3.75,24.9687123493406,41.7500000000005));
#754=CARTESIAN_POINT('Ctrl Pts',(3.71651718682955,26.7187123493406,41.7500000000006));
#755=CARTESIAN_POINT('Ctrl Pts',(3.68558970199003,26.7187123493406,41.5201149420979));
#756=CARTESIAN_POINT('Ctrl Pts',(3.6297600337723,26.6709561778943,41.2808094830138));
#757=CARTESIAN_POINT('Ctrl Pts',(3.48559679269502,26.4867676504476,40.848178658721));
#758=CARTESIAN_POINT('Ctrl Pts',(3.3980194483482,26.3506236129202,40.6544790101164));
#759=CARTESIAN_POINT('Ctrl Pts',(3.23952328049415,26.044583946701,40.3536662503328));
#760=CARTESIAN_POINT('Ctrl Pts',(3.15671048040118,25.853810436578,40.2228953390967));
#761=CARTESIAN_POINT('Ctrl Pts',(3.035846236153,25.4289643086095,40.0460006309515));
#762=CARTESIAN_POINT('Ctrl Pts',(2.99999999999957,25.1942161883129,40.0000000000005));
#763=CARTESIAN_POINT('Ctrl Pts',(2.99999999999957,24.9687123493407,40.0000000000005));
#764=CARTESIAN_POINT('Ctrl Pts',(2.99999999999957,24.7432085103684,40.0000000000005));
#765=CARTESIAN_POINT('Ctrl Pts',(3.035846236153,24.5084603900718,40.0460006309515));
#766=CARTESIAN_POINT('Ctrl Pts',(3.15671048040118,24.0836142621033,40.2228953390967));
#767=CARTESIAN_POINT('Ctrl Pts',(3.23952328049415,23.8928407519803,40.3536662503328));
#768=CARTESIAN_POINT('Ctrl Pts',(3.3980194483482,23.5868010857611,40.6544790101163));
#769=CARTESIAN_POINT('Ctrl Pts',(3.48559679269502,23.4506570482337,40.8481786587209));
#770=CARTESIAN_POINT('Ctrl Pts',(3.6297600337723,23.2664685207869,41.2808094830137));
#771=CARTESIAN_POINT('Ctrl Pts',(3.68558970199003,23.2187123493406,41.5201149420978));
#772=CARTESIAN_POINT('Ctrl Pts',(3.73840187068717,23.2187123493406,41.9126696073706));
#773=CARTESIAN_POINT('Ctrl Pts',(3.75,23.2422537830303,42.0842819280908));
#774=CARTESIAN_POINT('Ctrl Pts',(3.75,23.2916613662159,42.250000000001));
#775=CARTESIAN_POINT('Origin',(-3.75,8.4187500000001,49.5000000000003));
#776=CARTESIAN_POINT('',(-3.75,5.5,42.2500000000005));
#777=CARTESIAN_POINT('',(-3.75,8.7093750000001,42.2500000000006));
#778=CARTESIAN_POINT('',(-3.75,5.5,45.6698729810778));
#779=CARTESIAN_POINT('',(-3.75,5.5,45.));
#780=CARTESIAN_POINT('',(-3.75,8.,45.));
#781=CARTESIAN_POINT('',(-3.75,8.,45.));
#782=CARTESIAN_POINT('',(-3.75,27.9687123493405,45.0000000000001));
#783=CARTESIAN_POINT('',(-3.75,10.5375,45.));
#784=CARTESIAN_POINT('',(-3.75,27.9687123493406,42.2500000000012));
#785=CARTESIAN_POINT('',(-3.75,27.9687123493407,38.5000000000012));
#786=CARTESIAN_POINT('',(-3.75,8.7093750000001,42.2500000000006));
#787=CARTESIAN_POINT('Origin',(0.,8.7093750000001,42.2500000000006));
#788=CARTESIAN_POINT('',(3.75,5.5,42.2500000000005));
#789=CARTESIAN_POINT('',(3.75,8.7093750000001,42.2500000000006));
#790=CARTESIAN_POINT('',(3.74165738677391,5.5,42.));
#791=CARTESIAN_POINT('Origin',(0.,5.50000000000009,42.2500000000005));
#792=CARTESIAN_POINT('',(-3.74165738677391,5.5,42.));
#793=CARTESIAN_POINT('Origin',(0.,5.24999999999946,42.2500000000005));
#794=CARTESIAN_POINT('Origin',(0.,5.50000000000009,42.2500000000005));
#795=CARTESIAN_POINT('',(3.75,27.9687123493406,42.2500000000012));
#796=CARTESIAN_POINT('Origin',(0.,27.9687123493406,42.2500000000012));
#797=CARTESIAN_POINT('',(3.75,8.7093750000001,42.2500000000006));
#798=CARTESIAN_POINT('Origin',(-1.75,11.2609280873352,62.3540496217739));
#799=CARTESIAN_POINT('',(-2.5,10.4687123493419,60.5));
#800=CARTESIAN_POINT('',(-3.75,10.4687123493419,62.3540496217739));
#801=CARTESIAN_POINT('Origin',(-1.75,10.4687123493419,62.3540496217739));
#802=CARTESIAN_POINT('',(-3.75,12.9687123493419,62.3540496217739));
#803=CARTESIAN_POINT('',(-3.75,11.2609280873352,62.3540496217739));
#804=CARTESIAN_POINT('',(-2.4999999998972,13.2664991614399,60.5));
#805=CARTESIAN_POINT('Ctrl Pts',(-3.75,12.9687123493419,62.3540496217739));
#806=CARTESIAN_POINT('Ctrl Pts',(-3.75,12.9687123493419,62.1023935152453));
#807=CARTESIAN_POINT('Ctrl Pts',(-3.69958612419486,12.9836108350441,61.8348219442181));
#808=CARTESIAN_POINT('Ctrl Pts',(-3.49660754441169,13.0397401537082,61.3441754831797));
#809=CARTESIAN_POINT('Ctrl Pts',(-3.34410890387122,13.080491944328,61.1210185837312));
#810=CARTESIAN_POINT('Ctrl Pts',(-2.99167929645708,13.1656086510985,60.7660309218067));
#811=CARTESIAN_POINT('Ctrl Pts',(-2.76681217302631,13.2158223432384,60.6111465581245));
#812=CARTESIAN_POINT('Ctrl Pts',(-2.51322480195637,13.2640018882962,60.5053909496015));
#813=CARTESIAN_POINT('Ctrl Pts',(-2.50661961157014,13.2652517314299,60.5026777647257));
#814=CARTESIAN_POINT('Ctrl Pts',(-2.49999999991123,13.2664991614373,60.4999999999641));
#815=CARTESIAN_POINT('',(-2.5,11.2609280873352,60.5));
#816=CARTESIAN_POINT('Origin',(0.,-1.0627775962223E-12,60.5));
#817=CARTESIAN_POINT('',(-3.75,12.9687123493419,64.25));
#818=CARTESIAN_POINT('',(-3.75,12.9687123493419,60.5));
#819=CARTESIAN_POINT('',(0.,13.4999999999989,68.));
#820=CARTESIAN_POINT('Ctrl Pts',(-5.55111512312578E-16,13.4999999999989,
68.));
#821=CARTESIAN_POINT('Ctrl Pts',(-0.473504887888079,13.4999999999989,68.));
#822=CARTESIAN_POINT('Ctrl Pts',(-0.976899134455142,13.4726092237725,67.9048622170133));
#823=CARTESIAN_POINT('Ctrl Pts',(-1.90011964927832,13.3736710198279,67.5213750672591));
#824=CARTESIAN_POINT('Ctrl Pts',(-2.32014113086507,13.3034301440135,67.233159728034));
#825=CARTESIAN_POINT('Ctrl Pts',(-2.98323141445432,13.1705993877897,66.5700694444448));
#826=CARTESIAN_POINT('Ctrl Pts',(-3.27139105793502,13.0991353496028,66.1500774343774));
#827=CARTESIAN_POINT('Ctrl Pts',(-3.65483731485195,12.9973655753853,65.2269628030894));
#828=CARTESIAN_POINT('Ctrl Pts',(-3.75,12.9687123493419,64.7236072797985));
#829=CARTESIAN_POINT('Ctrl Pts',(-3.75,12.9687123493419,64.25));
#830=CARTESIAN_POINT('',(3.74999999999967,12.968712349342,64.25));
#831=CARTESIAN_POINT('Ctrl Pts',(3.75,12.9687123493419,64.25));
#832=CARTESIAN_POINT('Ctrl Pts',(3.75,12.9687123493419,64.7236072797985));
#833=CARTESIAN_POINT('Ctrl Pts',(3.65483731485195,12.9973655753853,65.2269628030894));
#834=CARTESIAN_POINT('Ctrl Pts',(3.27139105793502,13.0991353496028,66.1500774343774));
#835=CARTESIAN_POINT('Ctrl Pts',(2.98323141445432,13.1705993877897,66.5700694444448));
#836=CARTESIAN_POINT('Ctrl Pts',(2.32014113086507,13.3034301440135,67.233159728034));
#837=CARTESIAN_POINT('Ctrl Pts',(1.90011964927832,13.3736710198279,67.5213750672591));
#838=CARTESIAN_POINT('Ctrl Pts',(0.976899134455144,13.4726092237725,67.9048622170133));
#839=CARTESIAN_POINT('Ctrl Pts',(0.473504887888083,13.4999999999989,68.));
#840=CARTESIAN_POINT('Ctrl Pts',(5.41233724504764E-15,13.4999999999989,
68.));
#841=CARTESIAN_POINT('',(3.74999999999967,12.968712349342,62.3540496217739));
#842=CARTESIAN_POINT('',(3.74999999999967,12.968712349342,60.5));
#843=CARTESIAN_POINT('',(2.49999999558681,13.2664991622522,60.5));
#844=CARTESIAN_POINT('Ctrl Pts',(2.49999999618904,13.2664991621387,60.4999999984584));
#845=CARTESIAN_POINT('Ctrl Pts',(2.50661960909409,13.2652517318984,60.5026777637086));
#846=CARTESIAN_POINT('Ctrl Pts',(2.51322480072117,13.2640018885309,60.5053909490864));
#847=CARTESIAN_POINT('Ctrl Pts',(2.76681217302631,13.2158223432384,60.6111465581245));
#848=CARTESIAN_POINT('Ctrl Pts',(2.99167929645709,13.1656086510985,60.7660309218067));
#849=CARTESIAN_POINT('Ctrl Pts',(3.34410890387122,13.080491944328,61.1210185837312));
#850=CARTESIAN_POINT('Ctrl Pts',(3.4966075444117,13.0397401537082,61.3441754831797));
#851=CARTESIAN_POINT('Ctrl Pts',(3.69958612419486,12.9836108350441,61.8348219442182));
#852=CARTESIAN_POINT('Ctrl Pts',(3.75,12.9687123493419,62.1023935152453));
#853=CARTESIAN_POINT('Ctrl Pts',(3.75,12.9687123493419,62.3540496217739));
#854=CARTESIAN_POINT('Origin',(0.,-1.0627775962223E-12,60.5));
#855=CARTESIAN_POINT('',(-2.75000000000022,13.2169398878852,64.25));
#856=CARTESIAN_POINT('Ctrl Pts',(-2.75000000000022,13.2169398878852,64.25));
#857=CARTESIAN_POINT('Ctrl Pts',(-2.75000000000022,13.2169398878852,63.9036485280588));
#858=CARTESIAN_POINT('Ctrl Pts',(-2.68058257362636,13.2319663604891,63.5348961440202));
#859=CARTESIAN_POINT('Ctrl Pts',(-2.39963919387903,13.2857889516193,62.8576535498114));
#860=CARTESIAN_POINT('Ctrl Pts',(-2.18816411444981,13.3237587121194,62.5490768179236));
#861=CARTESIAN_POINT('Ctrl Pts',(-1.70093789402799,13.3946784721128,62.0618505975018));
#862=CARTESIAN_POINT('Ctrl Pts',(-1.3923549224044,13.4323014562982,61.8503639979622));
#863=CARTESIAN_POINT('Ctrl Pts',(-0.715090612929259,13.4853261010384,61.5694122554293));
#864=CARTESIAN_POINT('Ctrl Pts',(-0.346330556186343,13.4999999999989,61.5));
#865=CARTESIAN_POINT('Ctrl Pts',(0.3463305561859,13.4999999999989,61.5));
#866=CARTESIAN_POINT('Ctrl Pts',(0.715090612928816,13.4853261010384,61.5694122554293));
#867=CARTESIAN_POINT('Ctrl Pts',(1.39235492240395,13.4323014562983,61.8503639979622));
#868=CARTESIAN_POINT('Ctrl Pts',(1.70093789402755,13.3946784721129,62.0618505975017));
#869=CARTESIAN_POINT('Ctrl Pts',(2.18816411444937,13.3237587121194,62.5490768179236));
#870=CARTESIAN_POINT('Ctrl Pts',(2.39963919387858,13.2857889516193,62.8576535498114));
#871=CARTESIAN_POINT('Ctrl Pts',(2.68058257362591,13.2319663604892,63.5348961440202));
#872=CARTESIAN_POINT('Ctrl Pts',(2.74999999999978,13.2169398878853,63.9036485280588));
#873=CARTESIAN_POINT('Ctrl Pts',(2.74999999999978,13.2169398878853,64.5963514719412));
#874=CARTESIAN_POINT('Ctrl Pts',(2.68058257362591,13.2319663604892,64.9651038559798));
#875=CARTESIAN_POINT('Ctrl Pts',(2.39963919387858,13.2857889516193,65.6423464501886));
#876=CARTESIAN_POINT('Ctrl Pts',(2.18816411444937,13.3237587121194,65.9509231820764));
#877=CARTESIAN_POINT('Ctrl Pts',(1.70093789402755,13.3946784721129,66.4381494024982));
#878=CARTESIAN_POINT('Ctrl Pts',(1.39235492240395,13.4323014562983,66.6496360020377));
#879=CARTESIAN_POINT('Ctrl Pts',(0.715090612928815,13.4853261010384,66.9305877445707));
#880=CARTESIAN_POINT('Ctrl Pts',(0.3463305561859,13.4999999999989,67.));
#881=CARTESIAN_POINT('Ctrl Pts',(-0.346330556186342,13.4999999999989,67.));
#882=CARTESIAN_POINT('Ctrl Pts',(-0.715090612929258,13.4853261010384,66.9305877445707));
#883=CARTESIAN_POINT('Ctrl Pts',(-1.3923549224044,13.4323014562982,66.6496360020377));
#884=CARTESIAN_POINT('Ctrl Pts',(-1.70093789402799,13.3946784721128,66.4381494024982));
#885=CARTESIAN_POINT('Ctrl Pts',(-2.18816411444981,13.3237587121194,65.9509231820764));
#886=CARTESIAN_POINT('Ctrl Pts',(-2.39963919387903,13.2857889516193,65.6423464501886));
#887=CARTESIAN_POINT('Ctrl Pts',(-2.68058257362636,13.2319663604891,64.9651038559798));
#888=CARTESIAN_POINT('Ctrl Pts',(-2.75000000000022,13.2169398878852,64.5963514719412));
#889=CARTESIAN_POINT('Ctrl Pts',(-2.75000000000022,13.2169398878852,64.25));
#890=CARTESIAN_POINT('Origin',(1.75,11.2609280873352,62.3540496217739));
#891=CARTESIAN_POINT('',(3.74999999999959,10.4687123493419,62.3540496217739));
#892=CARTESIAN_POINT('',(3.75,11.2609280873352,62.3540496217739));
#893=CARTESIAN_POINT('',(2.5,10.4687123493419,60.5));
#894=CARTESIAN_POINT('Origin',(1.75,10.4687123493419,62.3540496217739));
#895=CARTESIAN_POINT('',(2.5,11.2609280873352,60.5));
#896=CARTESIAN_POINT('Ctrl Pts',(2.5,13.2664991614205,60.5));
#897=CARTESIAN_POINT('Ctrl Pts',(1.58853525780381,13.4382597613923,60.5));
#898=CARTESIAN_POINT('Ctrl Pts',(-0.133444115186312,13.5828469719242,60.5));
#899=CARTESIAN_POINT('Ctrl Pts',(-1.81742887755431,13.3951259969821,60.5));
#900=CARTESIAN_POINT('Ctrl Pts',(-2.50000000000001,13.2664991614205,60.5));
#901=CARTESIAN_POINT('Ctrl Pts',(2.58414467751582,12.5650328233642,59.9467008875336));
#902=CARTESIAN_POINT('Ctrl Pts',(1.6274702263174,12.6370399862456,59.946756069879));
#903=CARTESIAN_POINT('Ctrl Pts',(-0.134326005787618,12.7027318175174,59.9717058730379));
#904=CARTESIAN_POINT('Ctrl Pts',(-1.86771723524721,12.6189570265909,59.9467422120893));
#905=CARTESIAN_POINT('Ctrl Pts',(-2.58414467751582,12.5650328233642,59.9467008875336));
#906=CARTESIAN_POINT('Ctrl Pts',(2.71766073517126,12.1374999999997,59.0687568703748));
#907=CARTESIAN_POINT('Ctrl Pts',(1.70095259092169,12.1358131525339,58.9890881204043));
#908=CARTESIAN_POINT('Ctrl Pts',(-0.138492960189501,12.1341707345672,58.9621869426508));
#909=CARTESIAN_POINT('Ctrl Pts',(-1.95627569514439,12.1362367658725,59.0090951132342));
#910=CARTESIAN_POINT('Ctrl Pts',(-2.71766073517127,12.1374999999997,59.0687568703748));
#911=CARTESIAN_POINT('Ctrl Pts',(2.85257998659134,12.1374999999997,58.1815860561385));
#912=CARTESIAN_POINT('Ctrl Pts',(1.77563736509658,12.1374999999997,58.0178066689193));
#913=CARTESIAN_POINT('Ctrl Pts',(-0.142785351683612,12.1374999999997,57.9332722819812));
#914=CARTESIAN_POINT('Ctrl Pts',(-2.04608698699148,12.1374999999997,58.0589361334456));
#915=CARTESIAN_POINT('Ctrl Pts',(-2.85257998659135,12.1374999999997,58.1815860561386));
#916=CARTESIAN_POINT('',(-2.49999999986415,12.1374999999997,58.1325115413654));
#917=CARTESIAN_POINT('Ctrl Pts',(-2.5,12.1374999999998,58.1325115413998));
#918=CARTESIAN_POINT('Ctrl Pts',(-2.5,12.1374999999998,58.5253488438158));
#919=CARTESIAN_POINT('Ctrl Pts',(-2.50000000005805,12.2134427695251,58.9146953279033));
#920=CARTESIAN_POINT('Ctrl Pts',(-2.50000000005805,12.4581399683602,59.5181872315997));
#921=CARTESIAN_POINT('Ctrl Pts',(-2.5000000000055,12.5853023120607,59.7443839280965));
#922=CARTESIAN_POINT('Ctrl Pts',(-2.5000000000055,12.8914417590773,60.1558741648864));
#923=CARTESIAN_POINT('Ctrl Pts',(-2.5,13.0684573310143,60.3401767588808));
#924=CARTESIAN_POINT('Ctrl Pts',(-2.5,13.2664991614205,60.5));
#925=CARTESIAN_POINT('',(2.49999999754513,12.1374999999997,58.1325115407772));
#926=CARTESIAN_POINT('Ctrl Pts',(2.5,13.2664991614205,60.5));
#927=CARTESIAN_POINT('Ctrl Pts',(2.5,12.9581428359523,60.2511510206968));
#928=CARTESIAN_POINT('Ctrl Pts',(2.4999999995843,12.7017839571883,59.9437961855184));
#929=CARTESIAN_POINT('Ctrl Pts',(2.4999999995843,12.3902153227393,59.3742553651416));
#930=CARTESIAN_POINT('Ctrl Pts',(2.49999999999682,12.2969383658171,59.1380860802511));
#931=CARTESIAN_POINT('Ctrl Pts',(2.49999999999682,12.1698968725437,58.644704116971));
#932=CARTESIAN_POINT('Ctrl Pts',(2.5,12.1374999999997,58.3890957368424));
#933=CARTESIAN_POINT('Ctrl Pts',(2.5,12.1374999999997,58.1325115413998));
#934=CARTESIAN_POINT('Ctrl Pts',(2.50004936936878,12.1374999999997,58.1321222197894));
#935=CARTESIAN_POINT('Ctrl Pts',(1.53690872501484,12.1374999999997,58.0080987704292));
#936=CARTESIAN_POINT('Ctrl Pts',(-0.141683465467738,12.1374999999997,57.9455480600855));
#937=CARTESIAN_POINT('Ctrl Pts',(-1.8086875937929,12.1374999999997,58.0440830668215));
#938=CARTESIAN_POINT('Ctrl Pts',(-2.50002290537179,12.1374999999997,58.1323309141837));
#939=CARTESIAN_POINT('Origin',(0.,12.1374999999997,38.5000000000007));
#940=CARTESIAN_POINT('',(2.5,12.1374999999997,48.));
#941=CARTESIAN_POINT('',(2.5,12.1374999999997,41.7500000000003));
#942=CARTESIAN_POINT('',(-2.5,12.1374999999997,48.));
#943=CARTESIAN_POINT('',(5.55111512312578E-16,12.1374999999997,48.));
#944=CARTESIAN_POINT('',(-2.5,12.1374999999997,49.5000000000003));
#945=CARTESIAN_POINT('Origin',(3.74999999999959,7.53749999999981,59.8612557921479));
#946=CARTESIAN_POINT('',(-2.5,10.5374999999998,59.861255792148));
#947=CARTESIAN_POINT('Origin',(-2.5,7.53749999999981,59.8612557921479));
#948=CARTESIAN_POINT('',(2.5,10.5374999999998,59.861255792148));
#949=CARTESIAN_POINT('',(3.74999999999959,10.5374999999998,59.861255792148));
#950=CARTESIAN_POINT('Origin',(2.5,7.53749999999981,59.8612557921479));
#951=CARTESIAN_POINT('',(3.74999999999959,10.4687123493419,60.5));
#952=CARTESIAN_POINT('Origin',(-1.875,7.53749999999999,47.964134570157));
#953=CARTESIAN_POINT('',(2.5,7.99999999999999,45.));
#954=CARTESIAN_POINT('',(2.5,10.5375,47.9641345701571));
#955=CARTESIAN_POINT('Origin',(2.5,7.53749999999999,47.964134570157));
#956=CARTESIAN_POINT('',(-2.5,10.5375,47.9641345701571));
#957=CARTESIAN_POINT('',(-1.875,10.5375,47.9641345701571));
#958=CARTESIAN_POINT('',(-2.5,7.99999999999999,45.));
#959=CARTESIAN_POINT('Origin',(-2.5,7.53749999999999,47.964134570157));
#960=CARTESIAN_POINT('',(-1.875,7.99999999999999,45.));
#961=CARTESIAN_POINT('Origin',(1.11022302462516E-15,17.1531061746701,45.));
#962=CARTESIAN_POINT('',(2.5,15.1374999999997,45.));
#963=CARTESIAN_POINT('',(2.5,13.8453030873351,45.));
#964=CARTESIAN_POINT('',(3.75,8.,45.));
#965=CARTESIAN_POINT('',(-1.875,7.99999999999999,45.));
#966=CARTESIAN_POINT('',(3.75,27.9687123493405,45.0000000000001));
#967=CARTESIAN_POINT('',(3.75,9.47812500000007,44.9999999999998));
#968=CARTESIAN_POINT('',(1.875,27.9687123493405,45.0000000000001));
#969=CARTESIAN_POINT('',(-1.875,7.99999999999999,45.));
#970=CARTESIAN_POINT('',(-2.5,15.1374999999997,45.));
#971=CARTESIAN_POINT('',(-2.5,13.8453030873351,45.));
#972=CARTESIAN_POINT('',(5.55111512312578E-16,15.1374999999997,45.));
#973=CARTESIAN_POINT('Origin',(5.55111512312578E-16,15.1374999999997,48.));
#974=CARTESIAN_POINT('Origin',(-2.5,15.1374999999997,48.));
#975=CARTESIAN_POINT('Origin',(2.5,15.1374999999997,48.));
#976=CARTESIAN_POINT('Origin',(-3.75,10.4687123493419,60.5));
#977=CARTESIAN_POINT('',(3.74999999999959,10.4687123493419,64.25));
#978=CARTESIAN_POINT('',(3.74999999999959,10.4687123493419,60.5));
#979=CARTESIAN_POINT('',(-3.75,10.4687123493419,64.25));
#980=CARTESIAN_POINT('Origin',(0.,10.4687123493419,64.25));
#981=CARTESIAN_POINT('',(-3.75,10.4687123493419,60.5));
#982=CARTESIAN_POINT('',(-2.03517735062861E-13,10.4687123493419,65.95));
#983=CARTESIAN_POINT('Origin',(-2.03725925018716E-13,10.4687123493419,64.25));
#984=CARTESIAN_POINT('Origin',(0.,10.2015530873353,64.25));
#985=CARTESIAN_POINT('',(3.75,10.2015530873353,64.25));
#986=CARTESIAN_POINT('',(-3.75,10.2015530873353,64.25));
#987=CARTESIAN_POINT('Origin',(-3.75,8.4187500000001,49.5000000000003));
#988=CARTESIAN_POINT('Origin',(3.75,8.4187500000001,49.5000000000003));
#989=CARTESIAN_POINT('',(3.75,27.9687123493407,38.5000000000012));
#990=CARTESIAN_POINT('',(3.75,5.5,45.6698729810778));
#991=CARTESIAN_POINT('',(3.75,7.375,45.1674682452694));
#992=CARTESIAN_POINT('',(3.75,5.5,45.5024047358084));
#993=CARTESIAN_POINT('Origin',(3.75,27.9687123493407,38.5000000000012));
#994=CARTESIAN_POINT('Origin',(-2.5,10.5375,60.4999999999998));
#995=CARTESIAN_POINT('',(-2.5,10.5374999999998,60.4999999999999));
#996=CARTESIAN_POINT('Origin',(2.5,10.5375,44.9999999999998));
#997=CARTESIAN_POINT('',(2.5,10.5374999999999,52.7499999999999));
#998=CARTESIAN_POINT('Origin',(-2.21480516926196E-13,12.4687123493419,64.25));
#999=CARTESIAN_POINT('',(-2.75000000000022,12.4687123493419,64.25));
#1000=CARTESIAN_POINT('Origin',(-2.21480516926196E-13,12.4687123493419,
64.25));
#1001=CARTESIAN_POINT('',(-2.75000000000022,12.4687123493419,64.25));
#1002=CARTESIAN_POINT('Origin',(-2.21573146979919E-13,12.4687123493419,
64.25));
#1003=CARTESIAN_POINT('',(-1.97596545598193E-13,12.4687123493419,65.95));
#1004=CARTESIAN_POINT('Origin',(-1.97804735554048E-13,12.4687123493419,
64.25));
#1005=CARTESIAN_POINT('Origin',(-1.83371836233922E-13,17.3437123493414,
64.25));
#1006=CARTESIAN_POINT('',(-1.83163646278067E-13,17.3437123493414,65.95));
#1007=CARTESIAN_POINT('Origin',(-3.75,8.,45.));
#1008=CARTESIAN_POINT('',(-3.75,5.5,45.6698729810778));
#1009=CARTESIAN_POINT('Origin',(0.,10.5374999999998,60.5));
#1010=CARTESIAN_POINT('Origin',(0.,5.5,42.));
#1011=CARTESIAN_POINT('',(0.,5.5,42.));
#1012=CARTESIAN_POINT('Origin',(0.,5.5,45.));
#1013=CARTESIAN_POINT('Origin',(3.75,8.4187500000001,49.5000000000003));
#1014=CARTESIAN_POINT('',(0.,0.,0.));
#1015=UNCERTAINTY_MEASURE_WITH_UNIT(LENGTH_MEASURE(0.01),#1021,
'DISTANCE_ACCURACY_VALUE',
'Maximum model space distance between geometric entities at asserted c
onnectivities');
#1016=UNCERTAINTY_MEASURE_WITH_UNIT(LENGTH_MEASURE(0.01),#1021,
'DISTANCE_ACCURACY_VALUE',
'Maximum model space distance between geometric entities at asserted c
onnectivities');
#1017=UNCERTAINTY_MEASURE_WITH_UNIT(LENGTH_MEASURE(0.01),#1021,
'DISTANCE_ACCURACY_VALUE',
'Maximum model space distance between geometric entities at asserted c
onnectivities');
#1018=(
GEOMETRIC_REPRESENTATION_CONTEXT(3)
GLOBAL_UNCERTAINTY_ASSIGNED_CONTEXT((#1015))
GLOBAL_UNIT_ASSIGNED_CONTEXT((#1021,#1023,#1024))
REPRESENTATION_CONTEXT('','3D')
);
#1019=(
GEOMETRIC_REPRESENTATION_CONTEXT(3)
GLOBAL_UNCERTAINTY_ASSIGNED_CONTEXT((#1016))
GLOBAL_UNIT_ASSIGNED_CONTEXT((#1021,#1023,#1024))
REPRESENTATION_CONTEXT('','3D')
);
#1020=(
GEOMETRIC_REPRESENTATION_CONTEXT(3)
GLOBAL_UNCERTAINTY_ASSIGNED_CONTEXT((#1017))
GLOBAL_UNIT_ASSIGNED_CONTEXT((#1021,#1023,#1024))
REPRESENTATION_CONTEXT('','3D')
);
#1021=(
LENGTH_UNIT()
NAMED_UNIT(*)
SI_UNIT(.MILLI.,.METRE.)
);
#1022=(
LENGTH_UNIT()
NAMED_UNIT(*)
SI_UNIT($,.METRE.)
);
#1023=(
NAMED_UNIT(*)
PLANE_ANGLE_UNIT()
SI_UNIT($,.RADIAN.)
);
#1024=(
NAMED_UNIT(*)
SI_UNIT($,.STERADIAN.)
SOLID_ANGLE_UNIT()
);
#1025=SHAPE_DEFINITION_REPRESENTATION(#1027,#1030);
#1026=SHAPE_DEFINITION_REPRESENTATION(#1028,#1031);
#1027=PRODUCT_DEFINITION_SHAPE('',$,#1033);
#1028=PRODUCT_DEFINITION_SHAPE('',$,#1034);
#1029=PRODUCT_DEFINITION_SHAPE($,$,#14);
#1030=SHAPE_REPRESENTATION('',(#527,#574),#1018);
#1031=SHAPE_REPRESENTATION('',(#528),#1019);
#1032=PRODUCT_DEFINITION_CONTEXT('part definition',#1040,'design');
#1033=PRODUCT_DEFINITION('Particle Launcher V6',
'Particle Launcher V6 v11',#1035,#1032);
#1034=PRODUCT_DEFINITION('Latch','Latch',#1036,#1032);
#1035=PRODUCT_DEFINITION_FORMATION('',$,#1042);
#1036=PRODUCT_DEFINITION_FORMATION('',$,#1043);
#1037=PRODUCT_RELATED_PRODUCT_CATEGORY('Particle Launcher V6 v11',
'Particle Launcher V6 v11',(#1042));
#1038=PRODUCT_RELATED_PRODUCT_CATEGORY('Latch','Latch',(#1043));
#1039=APPLICATION_PROTOCOL_DEFINITION('international standard',
'automotive_design',2009,#1040);
#1040=APPLICATION_CONTEXT(
'Core Data for Automotive Mechanical Design Process');
#1041=PRODUCT_CONTEXT('part definition',#1040,'mechanical');
#1042=PRODUCT('Particle Launcher V6','Particle Launcher V6 v11',$,(#1041));
#1043=PRODUCT('Latch','Latch',$,(#1041));
#1044=PRESENTATION_STYLE_ASSIGNMENT((#1047));
#1045=PRESENTATION_STYLE_ASSIGNMENT((#1048));
#1046=PRESENTATION_STYLE_ASSIGNMENT((#1049));
#1047=SURFACE_STYLE_USAGE(.BOTH.,#1050);
#1048=SURFACE_STYLE_USAGE(.BOTH.,#1051);
#1049=SURFACE_STYLE_USAGE(.BOTH.,#1052);
#1050=SURFACE_SIDE_STYLE('',(#1053));
#1051=SURFACE_SIDE_STYLE('',(#1054));
#1052=SURFACE_SIDE_STYLE('',(#1055));
#1053=SURFACE_STYLE_FILL_AREA(#1056);
#1054=SURFACE_STYLE_FILL_AREA(#1057);
#1055=SURFACE_STYLE_FILL_AREA(#1058);
#1056=FILL_AREA_STYLE('Steel - Satin',(#1059));
#1057=FILL_AREA_STYLE('Steel - Satin (1) (4)',(#1060));
#1058=FILL_AREA_STYLE('Steel - Satin (1)',(#1061));
#1059=FILL_AREA_STYLE_COLOUR('Steel - Satin',#1062);
#1060=FILL_AREA_STYLE_COLOUR('Steel - Satin (1) (4)',#1063);
#1061=FILL_AREA_STYLE_COLOUR('Steel - Satin (1)',#1064);
#1062=COLOUR_RGB('Steel - Satin',0.627450980392157,0.627450980392157,0.627450980392157);
#1063=COLOUR_RGB('Steel - Satin (1) (4)',0.427450980392157,0.517647058823529,
0.913725490196078);
#1064=COLOUR_RGB('Steel - Satin (1)',0.803921568627451,0.149019607843137,
0.149019607843137);
ENDSEC;
END-ISO-10303-21;
