ISO-10303-21;
HEADER;
/* Generated by software containing ST-Developer
 * from STEP Tools, Inc. (www.steptools.com) 
 */

FILE_DESCRIPTION(
/* description */ (''),
/* implementation_level */ '2;1');

FILE_NAME(
/* name */ 'V6_Middle-Tube-Section.step',
/* time_stamp */ '2026-04-16T22:25:34-04:00',
/* author */ (''),
/* organization */ (''),
/* preprocessor_version */ 'ST-DEVELOPER v20.1',
/* originating_system */ 'Autodesk Translation Framework v14.24.0.0',
/* authorisation */ '');

FILE_SCHEMA (('AUTOMOTIVE_DESIGN { 1 0 10303 214 3 1 1 }'));
ENDSEC;

DATA;
#10=MECHANICAL_DESIGN_GEOMETRIC_PRESENTATION_REPRESENTATION('',(#17),#591);
#11=ITEM_DEFINED_TRANSFORMATION($,$,#302,#342);
#12=(
REPRESENTATION_RELATIONSHIP($,$,#602,#601)
REPRESENTATION_RELATIONSHIP_WITH_TRANSFORMATION(#11)
SHAPE_REPRESENTATION_RELATIONSHIP()
);
#13=CONTEXT_DEPENDENT_SHAPE_REPRESENTATION(#12,#600);
#14=NEXT_ASSEMBLY_USAGE_OCCURRENCE('Tube:1','Tube:1','Tube:1',#604,#605,
'Tube:1');
#15=SHAPE_REPRESENTATION_RELATIONSHIP('SRR','None',#602,#16);
#16=ADVANCED_BREP_SHAPE_REPRESENTATION('',(#18),#590);
#17=STYLED_ITEM('',(#617),#18);
#18=MANIFOLD_SOLID_BREP('Middle',#288);
#19=FACE_BOUND('',#67,.T.);
#20=FACE_BOUND('',#68,.T.);
#21=FACE_BOUND('',#69,.T.);
#22=FACE_BOUND('',#71,.T.);
#23=FACE_BOUND('',#73,.T.);
#24=FACE_BOUND('',#76,.T.);
#25=FACE_BOUND('',#79,.T.);
#26=FACE_BOUND('',#80,.T.);
#27=FACE_BOUND('',#81,.T.);
#28=FACE_BOUND('',#83,.T.);
#29=FACE_BOUND('',#85,.T.);
#30=B_SPLINE_CURVE_WITH_KNOTS('',3,(#449,#450,#451,#452,#453,#454,#455,
#456,#457,#458,#459,#460,#461,#462,#463,#464,#465,#466,#467,#468,#469,#470,
#471,#472,#473,#474,#475,#476,#477,#478,#479,#480,#481,#482),
 .UNSPECIFIED.,.T.,.F.,(4,2,2,2,2,2,2,2,2,2,2,2,2,2,2,2,4),(0.,0.0673738642767269,
0.134747728553454,0.177467591179723,0.220187453805992,0.262907316432261,
0.30562717905853,0.373001043335257,0.440374907611984,0.587032234313488,
0.654125757701332,0.674581127874444,0.695036498047555,0.715491868220667,
0.735947238393779,0.803040761781622,0.949698088483127),.UNSPECIFIED.);
#31=B_SPLINE_CURVE_WITH_KNOTS('',3,(#487,#488,#489,#490,#491,#492,#493,
#494),.UNSPECIFIED.,.F.,.F.,(4,2,2,4),(0.657111353508937,0.670297398768712,
0.683483444028487,0.705698157654395),.UNSPECIFIED.);
#32=B_SPLINE_CURVE_WITH_KNOTS('',3,(#496,#497,#498,#499,#500,#501,#502,
#503,#504,#505,#506,#507,#508,#509,#510,#511,#512,#513,#514,#515,#516,#517,
#518,#519,#520,#521,#522,#523,#524),.UNSPECIFIED.,.F.,.F.,(4,2,2,3,2,2,
2,2,2,2,2,2,2,4),(-0.0485868041454587,-0.0263720905195506,-0.0131860452597753,
0.,0.0779992681571858,0.183454987346125,0.286624727353729,0.307590202054099,
0.328555676754468,0.349521151454838,0.370486626155208,0.473656366162812,
0.579112085351751,0.657111353508937),.UNSPECIFIED.);
#33=CYLINDRICAL_SURFACE('',#306,1.175);
#34=CYLINDRICAL_SURFACE('',#312,1.1291);
#35=CYLINDRICAL_SURFACE('',#315,1.625);
#36=CYLINDRICAL_SURFACE('',#318,1.625);
#37=CYLINDRICAL_SURFACE('',#321,3.7);
#38=CYLINDRICAL_SURFACE('',#330,1.725);
#39=CYLINDRICAL_SURFACE('',#333,13.5);
#40=CYLINDRICAL_SURFACE('',#340,3.65);
#41=CYLINDRICAL_SURFACE('',#341,0.865);
#42=FACE_OUTER_BOUND('',#59,.T.);
#43=FACE_OUTER_BOUND('',#60,.T.);
#44=FACE_OUTER_BOUND('',#61,.T.);
#45=FACE_OUTER_BOUND('',#62,.T.);
#46=FACE_OUTER_BOUND('',#63,.T.);
#47=FACE_OUTER_BOUND('',#64,.T.);
#48=FACE_OUTER_BOUND('',#65,.T.);
#49=FACE_OUTER_BOUND('',#66,.T.);
#50=FACE_OUTER_BOUND('',#70,.T.);
#51=FACE_OUTER_BOUND('',#72,.T.);
#52=FACE_OUTER_BOUND('',#74,.T.);
#53=FACE_OUTER_BOUND('',#75,.T.);
#54=FACE_OUTER_BOUND('',#77,.T.);
#55=FACE_OUTER_BOUND('',#78,.T.);
#56=FACE_OUTER_BOUND('',#82,.T.);
#57=FACE_OUTER_BOUND('',#84,.T.);
#58=FACE_OUTER_BOUND('',#86,.T.);
#59=EDGE_LOOP('',(#191,#192,#193));
#60=EDGE_LOOP('',(#194,#195,#196,#197,#198,#199,#200,#201,#202));
#61=EDGE_LOOP('',(#203,#204,#205));
#62=EDGE_LOOP('',(#206,#207,#208,#209,#210,#211,#212,#213));
#63=EDGE_LOOP('',(#214,#215,#216,#217));
#64=EDGE_LOOP('',(#218,#219,#220,#221));
#65=EDGE_LOOP('',(#222,#223,#224,#225));
#66=EDGE_LOOP('',(#226));
#67=EDGE_LOOP('',(#227));
#68=EDGE_LOOP('',(#228));
#69=EDGE_LOOP('',(#229));
#70=EDGE_LOOP('',(#230));
#71=EDGE_LOOP('',(#231));
#72=EDGE_LOOP('',(#232));
#73=EDGE_LOOP('',(#233));
#74=EDGE_LOOP('',(#234,#235,#236,#237));
#75=EDGE_LOOP('',(#238));
#76=EDGE_LOOP('',(#239,#240,#241,#242,#243));
#77=EDGE_LOOP('',(#244,#245,#246,#247));
#78=EDGE_LOOP('',(#248));
#79=EDGE_LOOP('',(#249));
#80=EDGE_LOOP('',(#250));
#81=EDGE_LOOP('',(#251));
#82=EDGE_LOOP('',(#252));
#83=EDGE_LOOP('',(#253));
#84=EDGE_LOOP('',(#254,#255,#256,#257));
#85=EDGE_LOOP('',(#258));
#86=EDGE_LOOP('',(#259,#260,#261,#262));
#87=LINE('',#446,#98);
#88=LINE('',#484,#99);
#89=LINE('',#531,#100);
#90=LINE('',#534,#101);
#91=LINE('',#541,#102);
#92=LINE('',#547,#103);
#93=LINE('',#553,#104);
#94=LINE('',#566,#105);
#95=LINE('',#571,#106);
#96=LINE('',#582,#107);
#97=LINE('',#584,#108);
#98=VECTOR('',#353,10.);
#99=VECTOR('',#356,1.175);
#100=VECTOR('',#367,10.);
#101=VECTOR('',#370,1.1291);
#102=VECTOR('',#379,1.625);
#103=VECTOR('',#386,1.625);
#104=VECTOR('',#393,3.75);
#105=VECTOR('',#410,1.725);
#106=VECTOR('',#417,13.5);
#107=VECTOR('',#432,3.75);
#108=VECTOR('',#435,0.865);
#109=CIRCLE('',#305,1.175);
#110=CIRCLE('',#308,1.175);
#111=CIRCLE('',#313,1.1291);
#112=CIRCLE('',#314,1.1291);
#113=CIRCLE('',#316,1.625);
#114=CIRCLE('',#317,1.625);
#115=CIRCLE('',#319,1.625);
#116=CIRCLE('',#320,1.625);
#117=CIRCLE('',#322,3.7);
#118=CIRCLE('',#323,3.7);
#119=CIRCLE('',#325,13.5);
#120=CIRCLE('',#327,1.725);
#121=CIRCLE('',#329,0.865);
#122=CIRCLE('',#331,1.725);
#123=CIRCLE('',#334,13.5);
#124=CIRCLE('',#336,3.65);
#125=CIRCLE('',#338,3.65);
#126=CIRCLE('',#339,0.865);
#127=ELLIPSE('',#304,1.42319940265899,1.1291);
#128=ELLIPSE('',#307,1.48105508646206,1.175);
#129=ELLIPSE('',#309,1.48105508646206,1.175);
#130=ELLIPSE('',#311,1.42319940265899,1.1291);
#131=VERTEX_POINT('',#441);
#132=VERTEX_POINT('',#442);
#133=VERTEX_POINT('',#444);
#134=VERTEX_POINT('',#448);
#135=VERTEX_POINT('',#483);
#136=VERTEX_POINT('',#486);
#137=VERTEX_POINT('',#495);
#138=VERTEX_POINT('',#525);
#139=VERTEX_POINT('',#529);
#140=VERTEX_POINT('',#533);
#141=VERTEX_POINT('',#538);
#142=VERTEX_POINT('',#540);
#143=VERTEX_POINT('',#544);
#144=VERTEX_POINT('',#546);
#145=VERTEX_POINT('',#550);
#146=VERTEX_POINT('',#552);
#147=VERTEX_POINT('',#556);
#148=VERTEX_POINT('',#559);
#149=VERTEX_POINT('',#562);
#150=VERTEX_POINT('',#565);
#151=VERTEX_POINT('',#570);
#152=VERTEX_POINT('',#574);
#153=VERTEX_POINT('',#577);
#154=VERTEX_POINT('',#579);
#155=EDGE_CURVE('',#131,#132,#127,.T.);
#156=EDGE_CURVE('',#133,#131,#109,.T.);
#157=EDGE_CURVE('',#132,#133,#87,.T.);
#158=EDGE_CURVE('',#134,#134,#30,.T.);
#159=EDGE_CURVE('',#134,#135,#88,.T.);
#160=EDGE_CURVE('',#133,#135,#128,.T.);
#161=EDGE_CURVE('',#136,#131,#31,.T.);
#162=EDGE_CURVE('',#137,#136,#32,.T.);
#163=EDGE_CURVE('',#137,#138,#110,.T.);
#164=EDGE_CURVE('',#135,#138,#129,.T.);
#165=EDGE_CURVE('',#139,#137,#130,.T.);
#166=EDGE_CURVE('',#138,#139,#89,.T.);
#167=EDGE_CURVE('',#136,#140,#90,.T.);
#168=EDGE_CURVE('',#140,#140,#111,.T.);
#169=EDGE_CURVE('',#139,#132,#112,.T.);
#170=EDGE_CURVE('',#141,#141,#113,.T.);
#171=EDGE_CURVE('',#141,#142,#91,.T.);
#172=EDGE_CURVE('',#142,#142,#114,.T.);
#173=EDGE_CURVE('',#143,#143,#115,.T.);
#174=EDGE_CURVE('',#143,#144,#92,.T.);
#175=EDGE_CURVE('',#144,#144,#116,.T.);
#176=EDGE_CURVE('',#145,#145,#117,.F.);
#177=EDGE_CURVE('',#145,#146,#93,.T.);
#178=EDGE_CURVE('',#146,#146,#118,.F.);
#179=EDGE_CURVE('',#147,#147,#119,.T.);
#180=EDGE_CURVE('',#148,#148,#120,.T.);
#181=EDGE_CURVE('',#149,#149,#121,.T.);
#182=EDGE_CURVE('',#148,#150,#94,.T.);
#183=EDGE_CURVE('',#150,#150,#122,.T.);
#184=EDGE_CURVE('',#147,#151,#95,.T.);
#185=EDGE_CURVE('',#151,#151,#123,.T.);
#186=EDGE_CURVE('',#152,#152,#124,.F.);
#187=EDGE_CURVE('',#153,#153,#125,.T.);
#188=EDGE_CURVE('',#154,#154,#126,.T.);
#189=EDGE_CURVE('',#152,#153,#96,.T.);
#190=EDGE_CURVE('',#154,#149,#97,.T.);
#191=ORIENTED_EDGE('',*,*,#155,.F.);
#192=ORIENTED_EDGE('',*,*,#156,.F.);
#193=ORIENTED_EDGE('',*,*,#157,.F.);
#194=ORIENTED_EDGE('',*,*,#158,.F.);
#195=ORIENTED_EDGE('',*,*,#159,.T.);
#196=ORIENTED_EDGE('',*,*,#160,.F.);
#197=ORIENTED_EDGE('',*,*,#156,.T.);
#198=ORIENTED_EDGE('',*,*,#161,.F.);
#199=ORIENTED_EDGE('',*,*,#162,.F.);
#200=ORIENTED_EDGE('',*,*,#163,.T.);
#201=ORIENTED_EDGE('',*,*,#164,.F.);
#202=ORIENTED_EDGE('',*,*,#159,.F.);
#203=ORIENTED_EDGE('',*,*,#165,.F.);
#204=ORIENTED_EDGE('',*,*,#166,.F.);
#205=ORIENTED_EDGE('',*,*,#163,.F.);
#206=ORIENTED_EDGE('',*,*,#165,.T.);
#207=ORIENTED_EDGE('',*,*,#162,.T.);
#208=ORIENTED_EDGE('',*,*,#167,.T.);
#209=ORIENTED_EDGE('',*,*,#168,.F.);
#210=ORIENTED_EDGE('',*,*,#167,.F.);
#211=ORIENTED_EDGE('',*,*,#161,.T.);
#212=ORIENTED_EDGE('',*,*,#155,.T.);
#213=ORIENTED_EDGE('',*,*,#169,.F.);
#214=ORIENTED_EDGE('',*,*,#170,.F.);
#215=ORIENTED_EDGE('',*,*,#171,.T.);
#216=ORIENTED_EDGE('',*,*,#172,.F.);
#217=ORIENTED_EDGE('',*,*,#171,.F.);
#218=ORIENTED_EDGE('',*,*,#173,.F.);
#219=ORIENTED_EDGE('',*,*,#174,.T.);
#220=ORIENTED_EDGE('',*,*,#175,.F.);
#221=ORIENTED_EDGE('',*,*,#174,.F.);
#222=ORIENTED_EDGE('',*,*,#176,.F.);
#223=ORIENTED_EDGE('',*,*,#177,.T.);
#224=ORIENTED_EDGE('',*,*,#178,.F.);
#225=ORIENTED_EDGE('',*,*,#177,.F.);
#226=ORIENTED_EDGE('',*,*,#179,.T.);
#227=ORIENTED_EDGE('',*,*,#170,.T.);
#228=ORIENTED_EDGE('',*,*,#173,.T.);
#229=ORIENTED_EDGE('',*,*,#176,.T.);
#230=ORIENTED_EDGE('',*,*,#178,.T.);
#231=ORIENTED_EDGE('',*,*,#180,.F.);
#232=ORIENTED_EDGE('',*,*,#168,.T.);
#233=ORIENTED_EDGE('',*,*,#181,.F.);
#234=ORIENTED_EDGE('',*,*,#180,.T.);
#235=ORIENTED_EDGE('',*,*,#182,.T.);
#236=ORIENTED_EDGE('',*,*,#183,.F.);
#237=ORIENTED_EDGE('',*,*,#182,.F.);
#238=ORIENTED_EDGE('',*,*,#183,.T.);
#239=ORIENTED_EDGE('',*,*,#166,.T.);
#240=ORIENTED_EDGE('',*,*,#169,.T.);
#241=ORIENTED_EDGE('',*,*,#157,.T.);
#242=ORIENTED_EDGE('',*,*,#160,.T.);
#243=ORIENTED_EDGE('',*,*,#164,.T.);
#244=ORIENTED_EDGE('',*,*,#179,.F.);
#245=ORIENTED_EDGE('',*,*,#184,.T.);
#246=ORIENTED_EDGE('',*,*,#185,.F.);
#247=ORIENTED_EDGE('',*,*,#184,.F.);
#248=ORIENTED_EDGE('',*,*,#185,.T.);
#249=ORIENTED_EDGE('',*,*,#172,.T.);
#250=ORIENTED_EDGE('',*,*,#175,.T.);
#251=ORIENTED_EDGE('',*,*,#186,.F.);
#252=ORIENTED_EDGE('',*,*,#187,.F.);
#253=ORIENTED_EDGE('',*,*,#188,.T.);
#254=ORIENTED_EDGE('',*,*,#186,.T.);
#255=ORIENTED_EDGE('',*,*,#189,.T.);
#256=ORIENTED_EDGE('',*,*,#187,.T.);
#257=ORIENTED_EDGE('',*,*,#189,.F.);
#258=ORIENTED_EDGE('',*,*,#158,.T.);
#259=ORIENTED_EDGE('',*,*,#188,.F.);
#260=ORIENTED_EDGE('',*,*,#190,.T.);
#261=ORIENTED_EDGE('',*,*,#181,.T.);
#262=ORIENTED_EDGE('',*,*,#190,.F.);
#263=PLANE('',#303);
#264=PLANE('',#310);
#265=PLANE('',#324);
#266=PLANE('',#326);
#267=PLANE('',#328);
#268=PLANE('',#332);
#269=PLANE('',#335);
#270=PLANE('',#337);
#271=ADVANCED_FACE('',(#42),#263,.F.);
#272=ADVANCED_FACE('',(#43),#33,.F.);
#273=ADVANCED_FACE('',(#44),#264,.F.);
#274=ADVANCED_FACE('',(#45),#34,.F.);
#275=ADVANCED_FACE('',(#46),#35,.F.);
#276=ADVANCED_FACE('',(#47),#36,.F.);
#277=ADVANCED_FACE('',(#48),#37,.F.);
#278=ADVANCED_FACE('',(#49,#19,#20,#21),#265,.T.);
#279=ADVANCED_FACE('',(#50,#22),#266,.F.);
#280=ADVANCED_FACE('',(#51,#23),#267,.F.);
#281=ADVANCED_FACE('',(#52),#38,.F.);
#282=ADVANCED_FACE('',(#53,#24),#268,.F.);
#283=ADVANCED_FACE('',(#54),#39,.T.);
#284=ADVANCED_FACE('',(#55,#25,#26,#27),#269,.T.);
#285=ADVANCED_FACE('',(#56,#28),#270,.T.);
#286=ADVANCED_FACE('',(#57,#29),#40,.T.);
#287=ADVANCED_FACE('',(#58),#41,.F.);
#288=CLOSED_SHELL('',(#271,#272,#273,#274,#275,#276,#277,#278,#279,#280,
#281,#282,#283,#284,#285,#286,#287));
#289=DERIVED_UNIT_ELEMENT(#291,1.);
#290=DERIVED_UNIT_ELEMENT(#593,-3.);
#291=(
MASS_UNIT()
NAMED_UNIT(*)
SI_UNIT(.KILO.,.GRAM.)
);
#292=DERIVED_UNIT((#289,#290));
#293=MEASURE_REPRESENTATION_ITEM('density measure',
POSITIVE_RATIO_MEASURE(7850.),#292);
#294=PROPERTY_DEFINITION_REPRESENTATION(#299,#296);
#295=PROPERTY_DEFINITION_REPRESENTATION(#300,#297);
#296=REPRESENTATION('material name',(#298),#590);
#297=REPRESENTATION('density',(#293),#590);
#298=DESCRIPTIVE_REPRESENTATION_ITEM('Steel','Steel');
#299=PROPERTY_DEFINITION('material property','material name',#605);
#300=PROPERTY_DEFINITION('material property','density of part',#605);
#301=AXIS2_PLACEMENT_3D('',#438,#343,#344);
#302=AXIS2_PLACEMENT_3D('',#439,#345,#346);
#303=AXIS2_PLACEMENT_3D('',#440,#347,#348);
#304=AXIS2_PLACEMENT_3D('',#443,#349,#350);
#305=AXIS2_PLACEMENT_3D('',#445,#351,#352);
#306=AXIS2_PLACEMENT_3D('',#447,#354,#355);
#307=AXIS2_PLACEMENT_3D('',#485,#357,#358);
#308=AXIS2_PLACEMENT_3D('',#526,#359,#360);
#309=AXIS2_PLACEMENT_3D('',#527,#361,#362);
#310=AXIS2_PLACEMENT_3D('',#528,#363,#364);
#311=AXIS2_PLACEMENT_3D('',#530,#365,#366);
#312=AXIS2_PLACEMENT_3D('',#532,#368,#369);
#313=AXIS2_PLACEMENT_3D('',#535,#371,#372);
#314=AXIS2_PLACEMENT_3D('',#536,#373,#374);
#315=AXIS2_PLACEMENT_3D('',#537,#375,#376);
#316=AXIS2_PLACEMENT_3D('',#539,#377,#378);
#317=AXIS2_PLACEMENT_3D('',#542,#380,#381);
#318=AXIS2_PLACEMENT_3D('',#543,#382,#383);
#319=AXIS2_PLACEMENT_3D('',#545,#384,#385);
#320=AXIS2_PLACEMENT_3D('',#548,#387,#388);
#321=AXIS2_PLACEMENT_3D('',#549,#389,#390);
#322=AXIS2_PLACEMENT_3D('',#551,#391,#392);
#323=AXIS2_PLACEMENT_3D('',#554,#394,#395);
#324=AXIS2_PLACEMENT_3D('',#555,#396,#397);
#325=AXIS2_PLACEMENT_3D('',#557,#398,#399);
#326=AXIS2_PLACEMENT_3D('',#558,#400,#401);
#327=AXIS2_PLACEMENT_3D('',#560,#402,#403);
#328=AXIS2_PLACEMENT_3D('',#561,#404,#405);
#329=AXIS2_PLACEMENT_3D('',#563,#406,#407);
#330=AXIS2_PLACEMENT_3D('',#564,#408,#409);
#331=AXIS2_PLACEMENT_3D('',#567,#411,#412);
#332=AXIS2_PLACEMENT_3D('',#568,#413,#414);
#333=AXIS2_PLACEMENT_3D('',#569,#415,#416);
#334=AXIS2_PLACEMENT_3D('',#572,#418,#419);
#335=AXIS2_PLACEMENT_3D('',#573,#420,#421);
#336=AXIS2_PLACEMENT_3D('',#575,#422,#423);
#337=AXIS2_PLACEMENT_3D('',#576,#424,#425);
#338=AXIS2_PLACEMENT_3D('',#578,#426,#427);
#339=AXIS2_PLACEMENT_3D('',#580,#428,#429);
#340=AXIS2_PLACEMENT_3D('',#581,#430,#431);
#341=AXIS2_PLACEMENT_3D('',#583,#433,#434);
#342=AXIS2_PLACEMENT_3D('',#585,#436,#437);
#343=DIRECTION('axis',(0.,0.,1.));
#344=DIRECTION('refdir',(1.,0.,0.));
#345=DIRECTION('axis',(0.,0.,1.));
#346=DIRECTION('refdir',(1.,0.,0.));
#347=DIRECTION('center_axis',(0.,0.608761429008721,-0.793353340291235));
#348=DIRECTION('ref_axis',(-1.,0.,0.));
#349=DIRECTION('center_axis',(0.,-0.608761429008721,0.793353340291235));
#350=DIRECTION('ref_axis',(0.,0.793353340291235,0.608761429008721));
#351=DIRECTION('center_axis',(0.,0.608761429008721,-0.793353340291235));
#352=DIRECTION('ref_axis',(-1.,0.,0.));
#353=DIRECTION('',(-1.,0.,0.));
#354=DIRECTION('center_axis',(0.,0.608761429008719,-0.793353340291236));
#355=DIRECTION('ref_axis',(-1.,0.,0.));
#356=DIRECTION('',(0.,0.608761429008719,-0.793353340291236));
#357=DIRECTION('center_axis',(0.,0.,1.));
#358=DIRECTION('ref_axis',(0.,1.,0.));
#359=DIRECTION('center_axis',(0.,0.608761429008721,-0.793353340291235));
#360=DIRECTION('ref_axis',(-1.,0.,0.));
#361=DIRECTION('center_axis',(0.,0.,1.));
#362=DIRECTION('ref_axis',(0.,1.,0.));
#363=DIRECTION('center_axis',(0.,0.608761429008721,-0.793353340291235));
#364=DIRECTION('ref_axis',(-1.,0.,0.));
#365=DIRECTION('center_axis',(0.,-0.608761429008721,0.793353340291235));
#366=DIRECTION('ref_axis',(0.,0.793353340291235,0.608761429008721));
#367=DIRECTION('',(-1.,0.,0.));
#368=DIRECTION('center_axis',(0.,0.,1.));
#369=DIRECTION('ref_axis',(1.,0.,0.));
#370=DIRECTION('',(0.,0.,1.));
#371=DIRECTION('center_axis',(0.,0.,-1.));
#372=DIRECTION('ref_axis',(1.,0.,0.));
#373=DIRECTION('center_axis',(0.,0.,1.));
#374=DIRECTION('ref_axis',(1.,0.,0.));
#375=DIRECTION('center_axis',(0.,0.,1.));
#376=DIRECTION('ref_axis',(1.,0.,0.));
#377=DIRECTION('center_axis',(0.,0.,1.));
#378=DIRECTION('ref_axis',(1.,0.,0.));
#379=DIRECTION('',(0.,0.,1.));
#380=DIRECTION('center_axis',(0.,0.,-1.));
#381=DIRECTION('ref_axis',(1.,0.,0.));
#382=DIRECTION('center_axis',(0.,0.,1.));
#383=DIRECTION('ref_axis',(1.,0.,0.));
#384=DIRECTION('center_axis',(0.,0.,1.));
#385=DIRECTION('ref_axis',(1.,0.,0.));
#386=DIRECTION('',(0.,0.,1.));
#387=DIRECTION('center_axis',(0.,0.,-1.));
#388=DIRECTION('ref_axis',(1.,0.,0.));
#389=DIRECTION('center_axis',(0.,0.,-1.));
#390=DIRECTION('ref_axis',(1.,0.,0.));
#391=DIRECTION('center_axis',(0.,0.,-1.));
#392=DIRECTION('ref_axis',(1.,0.,0.));
#393=DIRECTION('',(0.,0.,1.));
#394=DIRECTION('center_axis',(0.,0.,1.));
#395=DIRECTION('ref_axis',(1.,0.,0.));
#396=DIRECTION('center_axis',(0.,0.,-1.));
#397=DIRECTION('ref_axis',(1.,0.,0.));
#398=DIRECTION('center_axis',(0.,0.,-1.));
#399=DIRECTION('ref_axis',(1.,0.,0.));
#400=DIRECTION('center_axis',(0.,0.,1.));
#401=DIRECTION('ref_axis',(1.,0.,0.));
#402=DIRECTION('center_axis',(0.,0.,-1.));
#403=DIRECTION('ref_axis',(1.,0.,0.));
#404=DIRECTION('center_axis',(0.,0.,1.));
#405=DIRECTION('ref_axis',(1.,0.,0.));
#406=DIRECTION('center_axis',(0.,0.,-1.));
#407=DIRECTION('ref_axis',(-1.,0.,0.));
#408=DIRECTION('center_axis',(0.,0.,1.));
#409=DIRECTION('ref_axis',(1.,0.,0.));
#410=DIRECTION('',(0.,0.,1.));
#411=DIRECTION('center_axis',(0.,0.,-1.));
#412=DIRECTION('ref_axis',(1.,0.,0.));
#413=DIRECTION('center_axis',(0.,0.,1.));
#414=DIRECTION('ref_axis',(1.,0.,0.));
#415=DIRECTION('center_axis',(0.,0.,-1.));
#416=DIRECTION('ref_axis',(-1.,0.,0.));
#417=DIRECTION('',(0.,0.,1.));
#418=DIRECTION('center_axis',(0.,0.,1.));
#419=DIRECTION('ref_axis',(-1.,0.,0.));
#420=DIRECTION('center_axis',(0.,0.,1.));
#421=DIRECTION('ref_axis',(1.,0.,0.));
#422=DIRECTION('center_axis',(0.,0.,-1.));
#423=DIRECTION('ref_axis',(-1.,0.,0.));
#424=DIRECTION('center_axis',(0.,0.,1.));
#425=DIRECTION('ref_axis',(-1.,0.,0.));
#426=DIRECTION('center_axis',(0.,0.,-1.));
#427=DIRECTION('ref_axis',(-1.,0.,0.));
#428=DIRECTION('center_axis',(0.,0.,-1.));
#429=DIRECTION('ref_axis',(-1.,0.,0.));
#430=DIRECTION('center_axis',(0.,0.,-1.));
#431=DIRECTION('ref_axis',(-1.,0.,0.));
#432=DIRECTION('',(0.,0.,1.));
#433=DIRECTION('center_axis',(0.,0.,1.));
#434=DIRECTION('ref_axis',(-1.,0.,0.));
#435=DIRECTION('',(0.,0.,-1.));
#436=DIRECTION('',(0.,0.,1.));
#437=DIRECTION('',(1.,0.,0.));
#438=CARTESIAN_POINT('',(0.,0.,0.));
#439=CARTESIAN_POINT('',(0.,0.,0.));
#440=CARTESIAN_POINT('Origin',(1.38777878078145E-16,-1.11022302462516E-15,
14.9036585540623));
#441=CARTESIAN_POINT('',(-1.04654072245212,0.423815202947458,15.2288633971996));
#442=CARTESIAN_POINT('',(-1.12209752169749,0.125554616802253,15.));
#443=CARTESIAN_POINT('Origin',(0.,0.,14.9036585540623));
#444=CARTESIAN_POINT('',(-1.1642935042309,0.125554616802257,15.));
#445=CARTESIAN_POINT('Origin',(1.38777878078145E-16,-1.11022302462516E-15,
14.9036585540623));
#446=CARTESIAN_POINT('',(6.93889390390723E-17,0.125554616802257,15.));
#447=CARTESIAN_POINT('Origin',(1.38777878078145E-16,-1.129,16.375));
#448=CARTESIAN_POINT('',(1.175,-3.45570181005248,19.407216833896));
#449=CARTESIAN_POINT('Ctrl Pts',(1.175,-3.45570181005248,19.407216833896));
#450=CARTESIAN_POINT('Ctrl Pts',(1.175,-3.45570181005248,19.1826372863069));
#451=CARTESIAN_POINT('Ctrl Pts',(1.15030430634525,-3.46465309313719,18.9379029985233));
#452=CARTESIAN_POINT('Ctrl Pts',(1.02191300432745,-3.50467054371922,18.479113301872));
#453=CARTESIAN_POINT('Ctrl Pts',(0.917754000517952,-3.53589210856196,18.2652012689581));
#454=CARTESIAN_POINT('Ctrl Pts',(0.679223521348168,-3.58749539788151,17.9911320016217));
#455=CARTESIAN_POINT('Ctrl Pts',(0.560091421697071,-3.60930137297218,17.8942281761776));
#456=CARTESIAN_POINT('Ctrl Pts',(0.291687499590456,-3.6408346719066,17.7638545168783));
#457=CARTESIAN_POINT('Ctrl Pts',(0.142399542087563,-3.65,17.7302825976798));
#458=CARTESIAN_POINT('Ctrl Pts',(-0.142399542087563,-3.65,17.7302825976798));
#459=CARTESIAN_POINT('Ctrl Pts',(-0.291687499590456,-3.6408346719066,17.7638545168783));
#460=CARTESIAN_POINT('Ctrl Pts',(-0.56009142169707,-3.60930137297218,17.8942281761776));
#461=CARTESIAN_POINT('Ctrl Pts',(-0.679223521348168,-3.58749539788151,17.9911320016217));
#462=CARTESIAN_POINT('Ctrl Pts',(-0.917754000517951,-3.53589210856196,18.2652012689581));
#463=CARTESIAN_POINT('Ctrl Pts',(-1.02191300432745,-3.50467054371922,18.479113301872));
#464=CARTESIAN_POINT('Ctrl Pts',(-1.15030430634525,-3.46465309313719,18.9379029985233));
#465=CARTESIAN_POINT('Ctrl Pts',(-1.175,-3.45570181005248,19.1826372863069));
#466=CARTESIAN_POINT('Ctrl Pts',(-1.175,-3.45570181005248,19.8960745895676));
#467=CARTESIAN_POINT('Ctrl Pts',(-1.05290386447533,-3.50227007622967,20.4679643288347));
#468=CARTESIAN_POINT('Ctrl Pts',(-0.729264375388981,-3.5779263755136,21.0981975344142));
#469=CARTESIAN_POINT('Ctrl Pts',(-0.576931870845258,-3.6086462859023,21.3170028114407));
#470=CARTESIAN_POINT('Ctrl Pts',(-0.342447898958051,-3.63431794460027,21.4888247387001));
#471=CARTESIAN_POINT('Ctrl Pts',(-0.277990904036062,-3.64004575710686,21.5262968404435));
#472=CARTESIAN_POINT('Ctrl Pts',(-0.140928069948403,-3.64792425471645,21.5773537102873));
#473=CARTESIAN_POINT('Ctrl Pts',(-0.0681845672437056,-3.65,21.5905797321856));
#474=CARTESIAN_POINT('Ctrl Pts',(0.0681845672437058,-3.65,21.5905797321856));
#475=CARTESIAN_POINT('Ctrl Pts',(0.140928069948404,-3.64792425471645,21.5773537102873));
#476=CARTESIAN_POINT('Ctrl Pts',(0.277990904036062,-3.64004575710686,21.5262968404435));
#477=CARTESIAN_POINT('Ctrl Pts',(0.342447898958051,-3.63431794460027,21.4888247387001));
#478=CARTESIAN_POINT('Ctrl Pts',(0.576931870845258,-3.6086462859023,21.3170028114407));
#479=CARTESIAN_POINT('Ctrl Pts',(0.729264375388981,-3.5779263755136,21.0981975344142));
#480=CARTESIAN_POINT('Ctrl Pts',(1.05290386447533,-3.50227007622967,20.4679643288347));
#481=CARTESIAN_POINT('Ctrl Pts',(1.175,-3.45570181005248,19.8960745895676));
#482=CARTESIAN_POINT('Ctrl Pts',(1.175,-3.45570181005248,19.407216833896));
#483=CARTESIAN_POINT('',(1.175,-0.0739253915289351,15.));
#484=CARTESIAN_POINT('',(1.175,-1.129,16.375));
#485=CARTESIAN_POINT('Origin',(1.38777878078145E-16,-0.0739253915289351,
15.));
#486=CARTESIAN_POINT('',(-1.1291,-5.82954133210088E-17,15.4378659260157));
#487=CARTESIAN_POINT('Ctrl Pts',(-1.1291,2.16840434497101E-17,15.4378659260157));
#488=CARTESIAN_POINT('Ctrl Pts',(-1.1291,0.0267571858510485,15.4029952825088));
#489=CARTESIAN_POINT('Ctrl Pts',(-1.12819203489223,0.0573957635389975,15.3684983619326));
#490=CARTESIAN_POINT('Ctrl Pts',(-1.12248553239452,0.126774342644793,15.3092263514339));
#491=CARTESIAN_POINT('Ctrl Pts',(-1.11767866930445,0.165622405278124,15.2845786680038));
#492=CARTESIAN_POINT('Ctrl Pts',(-1.09701273721353,0.276449346428529,15.237863480072));
#493=CARTESIAN_POINT('Ctrl Pts',(-1.07501776749871,0.353495905552992,15.2288633971996));
#494=CARTESIAN_POINT('Ctrl Pts',(-1.04654072245212,0.423815202947458,15.2288633971996));
#495=CARTESIAN_POINT('',(1.04654072245212,0.423815202947459,15.2288633971996));
#496=CARTESIAN_POINT('Ctrl Pts',(1.04654072245212,0.423815202947459,15.2288633971996));
#497=CARTESIAN_POINT('Ctrl Pts',(1.07501776749871,0.353495905552993,15.2288633971996));
#498=CARTESIAN_POINT('Ctrl Pts',(1.09701273721353,0.276449346428531,15.237863480072));
#499=CARTESIAN_POINT('Ctrl Pts',(1.11767866930445,0.165622405278125,15.2845786680038));
#500=CARTESIAN_POINT('Ctrl Pts',(1.12248553239452,0.126774342644794,15.3092263514339));
#501=CARTESIAN_POINT('Ctrl Pts',(1.12819203489223,0.0573957635389972,15.3684983619326));
#502=CARTESIAN_POINT('Ctrl Pts',(1.1291,0.0267571858510482,15.4029952825088));
#503=CARTESIAN_POINT('Ctrl Pts',(1.1291,0.,15.4378659260157));
#504=CARTESIAN_POINT('Ctrl Pts',(1.1291,-0.158276486483342,15.644135859125));
#505=CARTESIAN_POINT('Ctrl Pts',(1.10161714417909,-0.267139149342305,15.9352299789558));
#506=CARTESIAN_POINT('Ctrl Pts',(1.02596931227251,-0.490547631772322,16.4994273181291));
#507=CARTESIAN_POINT('Ctrl Pts',(0.948366206987389,-0.63094469076609,16.8895567366949));
#508=CARTESIAN_POINT('Ctrl Pts',(0.752276573856414,-0.854751106634823,17.5180995062507));
#509=CARTESIAN_POINT('Ctrl Pts',(0.609506895976884,-0.982485190858073,17.8836193372553));
#510=CARTESIAN_POINT('Ctrl Pts',(0.327104299559705,-1.08186235813223,18.1692593053799));
#511=CARTESIAN_POINT('Ctrl Pts',(0.269336309710628,-1.09844827768369,18.2169923571686));
#512=CARTESIAN_POINT('Ctrl Pts',(0.140912166114651,-1.12217402880697,18.28531483865));
#513=CARTESIAN_POINT('Ctrl Pts',(0.0698849156678993,-1.1291,18.3052788897902));
#514=CARTESIAN_POINT('Ctrl Pts',(-0.0698849156678998,-1.1291,18.3052788897902));
#515=CARTESIAN_POINT('Ctrl Pts',(-0.140912166114652,-1.12217402880697,18.28531483865));
#516=CARTESIAN_POINT('Ctrl Pts',(-0.269336309710628,-1.09844827768369,18.2169923571686));
#517=CARTESIAN_POINT('Ctrl Pts',(-0.327104299559705,-1.08186235813223,18.1692593053799));
#518=CARTESIAN_POINT('Ctrl Pts',(-0.609506895976885,-0.982485190858072,
17.8836193372553));
#519=CARTESIAN_POINT('Ctrl Pts',(-0.752276573856414,-0.854751106634823,
17.5180995062507));
#520=CARTESIAN_POINT('Ctrl Pts',(-0.948366206987389,-0.63094469076609,16.8895567366949));
#521=CARTESIAN_POINT('Ctrl Pts',(-1.02596931227251,-0.490547631772321,16.4994273181291));
#522=CARTESIAN_POINT('Ctrl Pts',(-1.10161714417909,-0.267139149342304,15.9352299789558));
#523=CARTESIAN_POINT('Ctrl Pts',(-1.1291,-0.158276486483343,15.644135859125));
#524=CARTESIAN_POINT('Ctrl Pts',(-1.1291,2.16840434497101E-17,15.4378659260157));
#525=CARTESIAN_POINT('',(1.1642935042309,0.125554616802257,15.));
#526=CARTESIAN_POINT('Origin',(1.38777878078145E-16,-1.11022302462516E-15,
14.9036585540623));
#527=CARTESIAN_POINT('Origin',(1.38777878078145E-16,-0.0739253915289351,
15.));
#528=CARTESIAN_POINT('Origin',(1.38777878078145E-16,-1.11022302462516E-15,
14.9036585540623));
#529=CARTESIAN_POINT('',(1.12209752169749,0.125554616802253,15.));
#530=CARTESIAN_POINT('Origin',(0.,0.,14.9036585540623));
#531=CARTESIAN_POINT('',(6.93889390390723E-17,0.125554616802257,15.));
#532=CARTESIAN_POINT('Origin',(0.,0.,15.));
#533=CARTESIAN_POINT('',(-1.1291,1.38274870091728E-16,20.));
#534=CARTESIAN_POINT('',(-1.1291,-1.38274870091728E-16,15.));
#535=CARTESIAN_POINT('Origin',(0.,0.,20.));
#536=CARTESIAN_POINT('Origin',(0.,0.,15.));
#537=CARTESIAN_POINT('Origin',(-8.,0.,4.5));
#538=CARTESIAN_POINT('',(-9.625,-1.99005104861445E-16,9.5));
#539=CARTESIAN_POINT('Origin',(-8.,0.,9.5));
#540=CARTESIAN_POINT('',(-9.625,1.99005104861445E-16,17.5));
#541=CARTESIAN_POINT('',(-9.625,-1.99005104861445E-16,4.5));
#542=CARTESIAN_POINT('Origin',(-8.,0.,17.5));
#543=CARTESIAN_POINT('Origin',(8.,0.,4.5));
#544=CARTESIAN_POINT('',(6.375,-1.99005104861445E-16,9.5));
#545=CARTESIAN_POINT('Origin',(8.,0.,9.5));
#546=CARTESIAN_POINT('',(6.375,1.99005104861445E-16,17.5));
#547=CARTESIAN_POINT('',(6.375,-1.99005104861445E-16,4.5));
#548=CARTESIAN_POINT('Origin',(8.,0.,17.5));
#549=CARTESIAN_POINT('Origin',(0.,0.,12.));
#550=CARTESIAN_POINT('',(-3.7,4.53119315684521E-16,9.5));
#551=CARTESIAN_POINT('Origin',(0.,0.,9.5));
#552=CARTESIAN_POINT('',(-3.7,-4.53119315684521E-16,12.));
#553=CARTESIAN_POINT('',(-3.7,4.53119315684521E-16,12.));
#554=CARTESIAN_POINT('Origin',(0.,0.,12.));
#555=CARTESIAN_POINT('Origin',(0.,0.,9.5));
#556=CARTESIAN_POINT('',(13.5,-1.65327317884893E-15,9.5));
#557=CARTESIAN_POINT('Origin',(0.,0.,9.5));
#558=CARTESIAN_POINT('Origin',(0.,0.,12.));
#559=CARTESIAN_POINT('',(-1.725,2.11251572852918E-16,12.));
#560=CARTESIAN_POINT('Origin',(0.,0.,12.));
#561=CARTESIAN_POINT('Origin',(0.,0.,20.));
#562=CARTESIAN_POINT('',(0.865,-1.05931948126246E-16,20.));
#563=CARTESIAN_POINT('Origin',(0.,0.,20.));
#564=CARTESIAN_POINT('Origin',(0.,0.,12.));
#565=CARTESIAN_POINT('',(-1.725,2.11251572852918E-16,15.));
#566=CARTESIAN_POINT('',(-1.725,-2.11251572852918E-16,12.));
#567=CARTESIAN_POINT('Origin',(0.,0.,15.));
#568=CARTESIAN_POINT('Origin',(0.,0.,15.));
#569=CARTESIAN_POINT('Origin',(0.,0.,12.));
#570=CARTESIAN_POINT('',(13.5,1.65327317884893E-15,17.5));
#571=CARTESIAN_POINT('',(13.5,-1.65327317884893E-15,12.));
#572=CARTESIAN_POINT('Origin',(0.,0.,17.5));
#573=CARTESIAN_POINT('Origin',(-0.69180806569805,-1.19445578755586,17.5));
#574=CARTESIAN_POINT('',(3.65,-4.46996081688784E-16,17.5));
#575=CARTESIAN_POINT('Origin',(0.,0.,17.5));
#576=CARTESIAN_POINT('Origin',(0.,0.,32.));
#577=CARTESIAN_POINT('',(3.65,-4.46996081688784E-16,32.));
#578=CARTESIAN_POINT('Origin',(0.,0.,32.));
#579=CARTESIAN_POINT('',(0.865,1.05931948126246E-16,32.));
#580=CARTESIAN_POINT('Origin',(0.,0.,32.));
#581=CARTESIAN_POINT('Origin',(0.,0.,32.));
#582=CARTESIAN_POINT('',(3.65,-4.46996081688784E-16,32.));
#583=CARTESIAN_POINT('Origin',(0.,0.,12.));
#584=CARTESIAN_POINT('',(0.865,1.05931948126246E-16,12.));
#585=CARTESIAN_POINT('',(0.,0.,0.));
#586=UNCERTAINTY_MEASURE_WITH_UNIT(LENGTH_MEASURE(0.01),#592,
'DISTANCE_ACCURACY_VALUE',
'Maximum model space distance between geometric entities at asserted c
onnectivities');
#587=UNCERTAINTY_MEASURE_WITH_UNIT(LENGTH_MEASURE(0.01),#592,
'DISTANCE_ACCURACY_VALUE',
'Maximum model space distance between geometric entities at asserted c
onnectivities');
#588=UNCERTAINTY_MEASURE_WITH_UNIT(LENGTH_MEASURE(0.01),#592,
'DISTANCE_ACCURACY_VALUE',
'Maximum model space distance between geometric entities at asserted c
onnectivities');
#589=(
GEOMETRIC_REPRESENTATION_CONTEXT(3)
GLOBAL_UNCERTAINTY_ASSIGNED_CONTEXT((#586))
GLOBAL_UNIT_ASSIGNED_CONTEXT((#592,#594,#595))
REPRESENTATION_CONTEXT('','3D')
);
#590=(
GEOMETRIC_REPRESENTATION_CONTEXT(3)
GLOBAL_UNCERTAINTY_ASSIGNED_CONTEXT((#587))
GLOBAL_UNIT_ASSIGNED_CONTEXT((#592,#594,#595))
REPRESENTATION_CONTEXT('','3D')
);
#591=(
GEOMETRIC_REPRESENTATION_CONTEXT(3)
GLOBAL_UNCERTAINTY_ASSIGNED_CONTEXT((#588))
GLOBAL_UNIT_ASSIGNED_CONTEXT((#592,#594,#595))
REPRESENTATION_CONTEXT('','3D')
);
#592=(
LENGTH_UNIT()
NAMED_UNIT(*)
SI_UNIT(.MILLI.,.METRE.)
);
#593=(
LENGTH_UNIT()
NAMED_UNIT(*)
SI_UNIT($,.METRE.)
);
#594=(
NAMED_UNIT(*)
PLANE_ANGLE_UNIT()
SI_UNIT($,.RADIAN.)
);
#595=(
NAMED_UNIT(*)
SI_UNIT($,.STERADIAN.)
SOLID_ANGLE_UNIT()
);
#596=SHAPE_DEFINITION_REPRESENTATION(#598,#601);
#597=SHAPE_DEFINITION_REPRESENTATION(#599,#602);
#598=PRODUCT_DEFINITION_SHAPE('',$,#604);
#599=PRODUCT_DEFINITION_SHAPE('',$,#605);
#600=PRODUCT_DEFINITION_SHAPE($,$,#14);
#601=SHAPE_REPRESENTATION('',(#301,#342),#589);
#602=SHAPE_REPRESENTATION('',(#302),#590);
#603=PRODUCT_DEFINITION_CONTEXT('part definition',#611,'design');
#604=PRODUCT_DEFINITION('Particle Launcher V6',
'Particle Launcher V6 v11',#606,#603);
#605=PRODUCT_DEFINITION('Tube','Tube',#607,#603);
#606=PRODUCT_DEFINITION_FORMATION('',$,#613);
#607=PRODUCT_DEFINITION_FORMATION('',$,#614);
#608=PRODUCT_RELATED_PRODUCT_CATEGORY('Particle Launcher V6 v11',
'Particle Launcher V6 v11',(#613));
#609=PRODUCT_RELATED_PRODUCT_CATEGORY('Tube','Tube',(#614));
#610=APPLICATION_PROTOCOL_DEFINITION('international standard',
'automotive_design',2009,#611);
#611=APPLICATION_CONTEXT(
'Core Data for Automotive Mechanical Design Process');
#612=PRODUCT_CONTEXT('part definition',#611,'mechanical');
#613=PRODUCT('Particle Launcher V6','Particle Launcher V6 v11',$,(#612));
#614=PRODUCT('Tube','Tube',$,(#612));
#615=PRESENTATION_STYLE_ASSIGNMENT((#618));
#616=PRESENTATION_STYLE_ASSIGNMENT((#619));
#617=PRESENTATION_STYLE_ASSIGNMENT((#620));
#618=SURFACE_STYLE_USAGE(.BOTH.,#621);
#619=SURFACE_STYLE_USAGE(.BOTH.,#622);
#620=SURFACE_STYLE_USAGE(.BOTH.,#623);
#621=SURFACE_SIDE_STYLE('',(#624));
#622=SURFACE_SIDE_STYLE('',(#625));
#623=SURFACE_SIDE_STYLE('',(#626));
#624=SURFACE_STYLE_FILL_AREA(#627);
#625=SURFACE_STYLE_FILL_AREA(#628);
#626=SURFACE_STYLE_FILL_AREA(#629);
#627=FILL_AREA_STYLE('Steel - Satin',(#630));
#628=FILL_AREA_STYLE('Steel - Satin (1) (4)',(#631));
#629=FILL_AREA_STYLE('Steel - Satin',(#632));
#630=FILL_AREA_STYLE_COLOUR('Steel - Satin',#633);
#631=FILL_AREA_STYLE_COLOUR('Steel - Satin (1) (4)',#634);
#632=FILL_AREA_STYLE_COLOUR('Steel - Satin',#635);
#633=COLOUR_RGB('Steel - Satin',0.627450980392157,0.627450980392157,0.627450980392157);
#634=COLOUR_RGB('Steel - Satin (1) (4)',0.427450980392157,0.517647058823529,
0.913725490196078);
#635=COLOUR_RGB('Steel - Satin',0.0196078431372549,0.529411764705882,0.12156862745098);
ENDSEC;
END-ISO-10303-21;
