ISO-10303-21;
HEADER;
/* Generated by software containing ST-Developer
 * from STEP Tools, Inc. (www.steptools.com) 
 */

FILE_DESCRIPTION(
/* description */ (''),
/* implementation_level */ '2;1');

FILE_NAME(
/* name */ 'V6_Plunger.step',
/* time_stamp */ '2026-04-16T22:26:07-04:00',
/* author */ (''),
/* organization */ (''),
/* preprocessor_version */ 'ST-DEVELOPER v20.1',
/* originating_system */ 'Autodesk Translation Framework v14.24.0.0',
/* authorisation */ '');

FILE_SCHEMA (('AUTOMOTIVE_DESIGN { 1 0 10303 214 3 1 1 }'));
ENDSEC;

DATA;
#10=MECHANICAL_DESIGN_GEOMETRIC_PRESENTATION_REPRESENTATION('',(#17),#468);
#11=ITEM_DEFINED_TRANSFORMATION($,$,#257,#298);
#12=(
REPRESENTATION_RELATIONSHIP($,$,#479,#478)
REPRESENTATION_RELATIONSHIP_WITH_TRANSFORMATION(#11)
SHAPE_REPRESENTATION_RELATIONSHIP()
);
#13=CONTEXT_DEPENDENT_SHAPE_REPRESENTATION(#12,#477);
#14=NEXT_ASSEMBLY_USAGE_OCCURRENCE('Plunger:1','Plunger:1','Plunger:1',
#481,#482,'Plunger:1');
#15=SHAPE_REPRESENTATION_RELATIONSHIP('SRR','None',#479,#16);
#16=ADVANCED_BREP_SHAPE_REPRESENTATION('',(#18),#467);
#17=STYLED_ITEM('',(#494),#18);
#18=MANIFOLD_SOLID_BREP('Body1',#243);
#19=CYLINDRICAL_SURFACE('',#279,2.5);
#20=CYLINDRICAL_SURFACE('',#284,5.175);
#21=CYLINDRICAL_SURFACE('',#294,8.);
#22=CYLINDRICAL_SURFACE('',#295,0.85);
#23=CYLINDRICAL_SURFACE('',#296,0.3429);
#24=CYLINDRICAL_SURFACE('',#297,0.55);
#25=TOROIDAL_SURFACE('',#272,3.,0.5);
#26=TOROIDAL_SURFACE('',#280,4.175,1.);
#27=TOROIDAL_SURFACE('',#286,6.175,1.);
#28=TOROIDAL_SURFACE('',#290,5.,3.);
#29=LINE('',#405,#36);
#30=LINE('',#431,#37);
#31=LINE('',#440,#38);
#32=LINE('',#455,#39);
#33=LINE('',#457,#40);
#34=LINE('',#459,#41);
#35=LINE('',#461,#42);
#36=VECTOR('',#315,4.);
#37=VECTOR('',#348,2.5);
#38=VECTOR('',#359,5.175);
#39=VECTOR('',#380,8.);
#40=VECTOR('',#383,0.85);
#41=VECTOR('',#386,0.3429);
#42=VECTOR('',#389,0.55);
#43=CONICAL_SURFACE('',#261,4.,1.30899693899575);
#44=FACE_BOUND('',#64,.T.);
#45=FACE_BOUND('',#67,.T.);
#46=FACE_BOUND('',#69,.T.);
#47=FACE_BOUND('',#72,.T.);
#48=FACE_OUTER_BOUND('',#63,.T.);
#49=FACE_OUTER_BOUND('',#65,.T.);
#50=FACE_OUTER_BOUND('',#66,.T.);
#51=FACE_OUTER_BOUND('',#68,.T.);
#52=FACE_OUTER_BOUND('',#70,.T.);
#53=FACE_OUTER_BOUND('',#71,.T.);
#54=FACE_OUTER_BOUND('',#73,.T.);
#55=FACE_OUTER_BOUND('',#74,.T.);
#56=FACE_OUTER_BOUND('',#75,.T.);
#57=FACE_OUTER_BOUND('',#76,.T.);
#58=FACE_OUTER_BOUND('',#77,.T.);
#59=FACE_OUTER_BOUND('',#78,.T.);
#60=FACE_OUTER_BOUND('',#79,.T.);
#61=FACE_OUTER_BOUND('',#80,.T.);
#62=FACE_OUTER_BOUND('',#81,.T.);
#63=EDGE_LOOP('',(#160));
#64=EDGE_LOOP('',(#161));
#65=EDGE_LOOP('',(#162,#163,#164,#165,#166,#167));
#66=EDGE_LOOP('',(#168));
#67=EDGE_LOOP('',(#169));
#68=EDGE_LOOP('',(#170));
#69=EDGE_LOOP('',(#171));
#70=EDGE_LOOP('',(#172,#173,#174,#175,#176));
#71=EDGE_LOOP('',(#177));
#72=EDGE_LOOP('',(#178));
#73=EDGE_LOOP('',(#179,#180,#181,#182,#183));
#74=EDGE_LOOP('',(#184,#185,#186,#187,#188));
#75=EDGE_LOOP('',(#189,#190,#191,#192,#193));
#76=EDGE_LOOP('',(#194,#195,#196,#197,#198));
#77=EDGE_LOOP('',(#199,#200,#201,#202,#203,#204));
#78=EDGE_LOOP('',(#205,#206,#207,#208,#209,#210));
#79=EDGE_LOOP('',(#211,#212,#213,#214));
#80=EDGE_LOOP('',(#215,#216,#217,#218));
#81=EDGE_LOOP('',(#219,#220,#221,#222,#223));
#82=CIRCLE('',#259,2.5);
#83=CIRCLE('',#260,0.85);
#84=CIRCLE('',#262,0.55);
#85=CIRCLE('',#263,0.55);
#86=CIRCLE('',#264,8.);
#87=CIRCLE('',#265,8.);
#88=CIRCLE('',#267,0.55);
#89=CIRCLE('',#268,0.3429);
#90=CIRCLE('',#270,0.85);
#91=CIRCLE('',#271,0.3429);
#92=CIRCLE('',#273,3.);
#93=CIRCLE('',#274,0.5);
#94=CIRCLE('',#275,2.5);
#95=CIRCLE('',#276,2.5);
#96=CIRCLE('',#278,4.175);
#97=CIRCLE('',#281,1.);
#98=CIRCLE('',#282,5.175);
#99=CIRCLE('',#283,5.175);
#100=CIRCLE('',#285,5.175);
#101=CIRCLE('',#287,1.);
#102=CIRCLE('',#288,5.88125);
#103=CIRCLE('',#289,5.88125);
#104=CIRCLE('',#291,8.);
#105=CIRCLE('',#292,8.);
#106=CIRCLE('',#293,3.);
#107=VERTEX_POINT('',#395);
#108=VERTEX_POINT('',#397);
#109=VERTEX_POINT('',#400);
#110=VERTEX_POINT('',#401);
#111=VERTEX_POINT('',#404);
#112=VERTEX_POINT('',#406);
#113=VERTEX_POINT('',#410);
#114=VERTEX_POINT('',#412);
#115=VERTEX_POINT('',#415);
#116=VERTEX_POINT('',#417);
#117=VERTEX_POINT('',#420);
#118=VERTEX_POINT('',#422);
#119=VERTEX_POINT('',#424);
#120=VERTEX_POINT('',#428);
#121=VERTEX_POINT('',#433);
#122=VERTEX_POINT('',#435);
#123=VERTEX_POINT('',#439);
#124=VERTEX_POINT('',#443);
#125=VERTEX_POINT('',#445);
#126=VERTEX_POINT('',#449);
#127=VERTEX_POINT('',#450);
#128=EDGE_CURVE('',#107,#107,#82,.T.);
#129=EDGE_CURVE('',#108,#108,#83,.T.);
#130=EDGE_CURVE('',#109,#110,#84,.T.);
#131=EDGE_CURVE('',#110,#109,#85,.T.);
#132=EDGE_CURVE('',#110,#111,#29,.T.);
#133=EDGE_CURVE('',#111,#112,#86,.T.);
#134=EDGE_CURVE('',#112,#111,#87,.T.);
#135=EDGE_CURVE('',#113,#113,#88,.T.);
#136=EDGE_CURVE('',#114,#114,#89,.T.);
#137=EDGE_CURVE('',#115,#115,#90,.T.);
#138=EDGE_CURVE('',#116,#116,#91,.T.);
#139=EDGE_CURVE('',#117,#117,#92,.T.);
#140=EDGE_CURVE('',#117,#118,#93,.T.);
#141=EDGE_CURVE('',#118,#119,#94,.T.);
#142=EDGE_CURVE('',#119,#118,#95,.T.);
#143=EDGE_CURVE('',#120,#120,#96,.T.);
#144=EDGE_CURVE('',#107,#119,#30,.T.);
#145=EDGE_CURVE('',#120,#121,#97,.T.);
#146=EDGE_CURVE('',#121,#122,#98,.T.);
#147=EDGE_CURVE('',#122,#121,#99,.T.);
#148=EDGE_CURVE('',#122,#123,#31,.T.);
#149=EDGE_CURVE('',#123,#123,#100,.T.);
#150=EDGE_CURVE('',#123,#124,#101,.T.);
#151=EDGE_CURVE('',#124,#125,#102,.T.);
#152=EDGE_CURVE('',#125,#124,#103,.T.);
#153=EDGE_CURVE('',#126,#127,#104,.T.);
#154=EDGE_CURVE('',#127,#126,#105,.T.);
#155=EDGE_CURVE('',#126,#125,#106,.T.);
#156=EDGE_CURVE('',#112,#127,#32,.T.);
#157=EDGE_CURVE('',#108,#115,#33,.T.);
#158=EDGE_CURVE('',#116,#114,#34,.T.);
#159=EDGE_CURVE('',#109,#113,#35,.T.);
#160=ORIENTED_EDGE('',*,*,#128,.T.);
#161=ORIENTED_EDGE('',*,*,#129,.T.);
#162=ORIENTED_EDGE('',*,*,#130,.F.);
#163=ORIENTED_EDGE('',*,*,#131,.F.);
#164=ORIENTED_EDGE('',*,*,#132,.T.);
#165=ORIENTED_EDGE('',*,*,#133,.T.);
#166=ORIENTED_EDGE('',*,*,#134,.T.);
#167=ORIENTED_EDGE('',*,*,#132,.F.);
#168=ORIENTED_EDGE('',*,*,#135,.F.);
#169=ORIENTED_EDGE('',*,*,#136,.F.);
#170=ORIENTED_EDGE('',*,*,#137,.F.);
#171=ORIENTED_EDGE('',*,*,#138,.T.);
#172=ORIENTED_EDGE('',*,*,#139,.T.);
#173=ORIENTED_EDGE('',*,*,#140,.T.);
#174=ORIENTED_EDGE('',*,*,#141,.T.);
#175=ORIENTED_EDGE('',*,*,#142,.T.);
#176=ORIENTED_EDGE('',*,*,#140,.F.);
#177=ORIENTED_EDGE('',*,*,#143,.F.);
#178=ORIENTED_EDGE('',*,*,#139,.F.);
#179=ORIENTED_EDGE('',*,*,#128,.F.);
#180=ORIENTED_EDGE('',*,*,#144,.T.);
#181=ORIENTED_EDGE('',*,*,#141,.F.);
#182=ORIENTED_EDGE('',*,*,#142,.F.);
#183=ORIENTED_EDGE('',*,*,#144,.F.);
#184=ORIENTED_EDGE('',*,*,#143,.T.);
#185=ORIENTED_EDGE('',*,*,#145,.T.);
#186=ORIENTED_EDGE('',*,*,#146,.T.);
#187=ORIENTED_EDGE('',*,*,#147,.T.);
#188=ORIENTED_EDGE('',*,*,#145,.F.);
#189=ORIENTED_EDGE('',*,*,#147,.F.);
#190=ORIENTED_EDGE('',*,*,#148,.T.);
#191=ORIENTED_EDGE('',*,*,#149,.F.);
#192=ORIENTED_EDGE('',*,*,#148,.F.);
#193=ORIENTED_EDGE('',*,*,#146,.F.);
#194=ORIENTED_EDGE('',*,*,#149,.T.);
#195=ORIENTED_EDGE('',*,*,#150,.T.);
#196=ORIENTED_EDGE('',*,*,#151,.T.);
#197=ORIENTED_EDGE('',*,*,#152,.T.);
#198=ORIENTED_EDGE('',*,*,#150,.F.);
#199=ORIENTED_EDGE('',*,*,#153,.T.);
#200=ORIENTED_EDGE('',*,*,#154,.T.);
#201=ORIENTED_EDGE('',*,*,#155,.T.);
#202=ORIENTED_EDGE('',*,*,#151,.F.);
#203=ORIENTED_EDGE('',*,*,#152,.F.);
#204=ORIENTED_EDGE('',*,*,#155,.F.);
#205=ORIENTED_EDGE('',*,*,#134,.F.);
#206=ORIENTED_EDGE('',*,*,#156,.T.);
#207=ORIENTED_EDGE('',*,*,#153,.F.);
#208=ORIENTED_EDGE('',*,*,#154,.F.);
#209=ORIENTED_EDGE('',*,*,#156,.F.);
#210=ORIENTED_EDGE('',*,*,#133,.F.);
#211=ORIENTED_EDGE('',*,*,#129,.F.);
#212=ORIENTED_EDGE('',*,*,#157,.T.);
#213=ORIENTED_EDGE('',*,*,#137,.T.);
#214=ORIENTED_EDGE('',*,*,#157,.F.);
#215=ORIENTED_EDGE('',*,*,#138,.F.);
#216=ORIENTED_EDGE('',*,*,#158,.T.);
#217=ORIENTED_EDGE('',*,*,#136,.T.);
#218=ORIENTED_EDGE('',*,*,#158,.F.);
#219=ORIENTED_EDGE('',*,*,#130,.T.);
#220=ORIENTED_EDGE('',*,*,#131,.T.);
#221=ORIENTED_EDGE('',*,*,#159,.T.);
#222=ORIENTED_EDGE('',*,*,#135,.T.);
#223=ORIENTED_EDGE('',*,*,#159,.F.);
#224=PLANE('',#258);
#225=PLANE('',#266);
#226=PLANE('',#269);
#227=PLANE('',#277);
#228=ADVANCED_FACE('',(#48,#44),#224,.T.);
#229=ADVANCED_FACE('',(#49),#43,.F.);
#230=ADVANCED_FACE('',(#50,#45),#225,.F.);
#231=ADVANCED_FACE('',(#51,#46),#226,.T.);
#232=ADVANCED_FACE('',(#52),#25,.F.);
#233=ADVANCED_FACE('',(#53,#47),#227,.T.);
#234=ADVANCED_FACE('',(#54),#19,.T.);
#235=ADVANCED_FACE('',(#55),#26,.T.);
#236=ADVANCED_FACE('',(#56),#20,.T.);
#237=ADVANCED_FACE('',(#57),#27,.F.);
#238=ADVANCED_FACE('',(#58),#28,.T.);
#239=ADVANCED_FACE('',(#59),#21,.T.);
#240=ADVANCED_FACE('',(#60),#22,.F.);
#241=ADVANCED_FACE('',(#61),#23,.F.);
#242=ADVANCED_FACE('',(#62),#24,.F.);
#243=CLOSED_SHELL('',(#228,#229,#230,#231,#232,#233,#234,#235,#236,#237,
#238,#239,#240,#241,#242));
#244=DERIVED_UNIT_ELEMENT(#246,1.);
#245=DERIVED_UNIT_ELEMENT(#470,-3.);
#246=(
MASS_UNIT()
NAMED_UNIT(*)
SI_UNIT(.KILO.,.GRAM.)
);
#247=DERIVED_UNIT((#244,#245));
#248=MEASURE_REPRESENTATION_ITEM('density measure',
POSITIVE_RATIO_MEASURE(7850.),#247);
#249=PROPERTY_DEFINITION_REPRESENTATION(#254,#251);
#250=PROPERTY_DEFINITION_REPRESENTATION(#255,#252);
#251=REPRESENTATION('material name',(#253),#467);
#252=REPRESENTATION('density',(#248),#467);
#253=DESCRIPTIVE_REPRESENTATION_ITEM('Steel','Steel');
#254=PROPERTY_DEFINITION('material property','material name',#482);
#255=PROPERTY_DEFINITION('material property','density of part',#482);
#256=AXIS2_PLACEMENT_3D('',#392,#299,#300);
#257=AXIS2_PLACEMENT_3D('',#393,#301,#302);
#258=AXIS2_PLACEMENT_3D('',#394,#303,#304);
#259=AXIS2_PLACEMENT_3D('',#396,#305,#306);
#260=AXIS2_PLACEMENT_3D('',#398,#307,#308);
#261=AXIS2_PLACEMENT_3D('',#399,#309,#310);
#262=AXIS2_PLACEMENT_3D('',#402,#311,#312);
#263=AXIS2_PLACEMENT_3D('',#403,#313,#314);
#264=AXIS2_PLACEMENT_3D('',#407,#316,#317);
#265=AXIS2_PLACEMENT_3D('',#408,#318,#319);
#266=AXIS2_PLACEMENT_3D('',#409,#320,#321);
#267=AXIS2_PLACEMENT_3D('',#411,#322,#323);
#268=AXIS2_PLACEMENT_3D('',#413,#324,#325);
#269=AXIS2_PLACEMENT_3D('',#414,#326,#327);
#270=AXIS2_PLACEMENT_3D('',#416,#328,#329);
#271=AXIS2_PLACEMENT_3D('',#418,#330,#331);
#272=AXIS2_PLACEMENT_3D('',#419,#332,#333);
#273=AXIS2_PLACEMENT_3D('',#421,#334,#335);
#274=AXIS2_PLACEMENT_3D('',#423,#336,#337);
#275=AXIS2_PLACEMENT_3D('',#425,#338,#339);
#276=AXIS2_PLACEMENT_3D('',#426,#340,#341);
#277=AXIS2_PLACEMENT_3D('',#427,#342,#343);
#278=AXIS2_PLACEMENT_3D('',#429,#344,#345);
#279=AXIS2_PLACEMENT_3D('',#430,#346,#347);
#280=AXIS2_PLACEMENT_3D('',#432,#349,#350);
#281=AXIS2_PLACEMENT_3D('',#434,#351,#352);
#282=AXIS2_PLACEMENT_3D('',#436,#353,#354);
#283=AXIS2_PLACEMENT_3D('',#437,#355,#356);
#284=AXIS2_PLACEMENT_3D('',#438,#357,#358);
#285=AXIS2_PLACEMENT_3D('',#441,#360,#361);
#286=AXIS2_PLACEMENT_3D('',#442,#362,#363);
#287=AXIS2_PLACEMENT_3D('',#444,#364,#365);
#288=AXIS2_PLACEMENT_3D('',#446,#366,#367);
#289=AXIS2_PLACEMENT_3D('',#447,#368,#369);
#290=AXIS2_PLACEMENT_3D('',#448,#370,#371);
#291=AXIS2_PLACEMENT_3D('',#451,#372,#373);
#292=AXIS2_PLACEMENT_3D('',#452,#374,#375);
#293=AXIS2_PLACEMENT_3D('',#453,#376,#377);
#294=AXIS2_PLACEMENT_3D('',#454,#378,#379);
#295=AXIS2_PLACEMENT_3D('',#456,#381,#382);
#296=AXIS2_PLACEMENT_3D('',#458,#384,#385);
#297=AXIS2_PLACEMENT_3D('',#460,#387,#388);
#298=AXIS2_PLACEMENT_3D('',#462,#390,#391);
#299=DIRECTION('axis',(0.,0.,1.));
#300=DIRECTION('refdir',(1.,0.,0.));
#301=DIRECTION('axis',(0.,0.,1.));
#302=DIRECTION('refdir',(1.,0.,0.));
#303=DIRECTION('center_axis',(0.,0.,1.));
#304=DIRECTION('ref_axis',(-1.,0.,0.));
#305=DIRECTION('center_axis',(0.,0.,1.));
#306=DIRECTION('ref_axis',(-1.,0.,0.));
#307=DIRECTION('center_axis',(0.,0.,-1.));
#308=DIRECTION('ref_axis',(-1.,0.,0.));
#309=DIRECTION('center_axis',(0.,0.,-1.));
#310=DIRECTION('ref_axis',(0.,1.,0.));
#311=DIRECTION('center_axis',(0.,0.,-1.));
#312=DIRECTION('ref_axis',(-1.,0.,0.));
#313=DIRECTION('center_axis',(0.,0.,-1.));
#314=DIRECTION('ref_axis',(-1.,0.,0.));
#315=DIRECTION('',(-1.18291797137867E-16,-0.965925826289068,-0.258819045102521));
#316=DIRECTION('center_axis',(0.,0.,-1.));
#317=DIRECTION('ref_axis',(-1.,0.,0.));
#318=DIRECTION('center_axis',(0.,0.,-1.));
#319=DIRECTION('ref_axis',(-1.,0.,0.));
#320=DIRECTION('center_axis',(0.,0.,1.));
#321=DIRECTION('ref_axis',(-1.,0.,0.));
#322=DIRECTION('center_axis',(0.,0.,1.));
#323=DIRECTION('ref_axis',(-1.,0.,0.));
#324=DIRECTION('center_axis',(0.,0.,-1.));
#325=DIRECTION('ref_axis',(-1.,0.,0.));
#326=DIRECTION('center_axis',(0.,0.,1.));
#327=DIRECTION('ref_axis',(-1.,0.,0.));
#328=DIRECTION('center_axis',(0.,0.,-1.));
#329=DIRECTION('ref_axis',(-1.,0.,0.));
#330=DIRECTION('center_axis',(0.,0.,-1.));
#331=DIRECTION('ref_axis',(-1.,0.,0.));
#332=DIRECTION('center_axis',(0.,0.,1.));
#333=DIRECTION('ref_axis',(1.,0.,0.));
#334=DIRECTION('center_axis',(0.,0.,1.));
#335=DIRECTION('ref_axis',(-1.,0.,0.));
#336=DIRECTION('center_axis',(1.22464679914735E-16,-1.,0.));
#337=DIRECTION('ref_axis',(-1.,-1.22464679914735E-16,0.));
#338=DIRECTION('center_axis',(0.,0.,-1.));
#339=DIRECTION('ref_axis',(-1.,0.,0.));
#340=DIRECTION('center_axis',(0.,0.,-1.));
#341=DIRECTION('ref_axis',(-1.,0.,0.));
#342=DIRECTION('center_axis',(0.,0.,1.));
#343=DIRECTION('ref_axis',(-1.,0.,0.));
#344=DIRECTION('center_axis',(0.,0.,-1.));
#345=DIRECTION('ref_axis',(-1.,0.,0.));
#346=DIRECTION('center_axis',(0.,0.,1.));
#347=DIRECTION('ref_axis',(-1.,0.,0.));
#348=DIRECTION('',(0.,0.,-1.));
#349=DIRECTION('center_axis',(0.,0.,1.));
#350=DIRECTION('ref_axis',(1.,0.,0.));
#351=DIRECTION('center_axis',(1.22464679914735E-16,-1.,0.));
#352=DIRECTION('ref_axis',(-1.,-1.22464679914735E-16,0.));
#353=DIRECTION('center_axis',(0.,0.,1.));
#354=DIRECTION('ref_axis',(-1.,0.,0.));
#355=DIRECTION('center_axis',(0.,0.,1.));
#356=DIRECTION('ref_axis',(-1.,0.,0.));
#357=DIRECTION('center_axis',(0.,0.,1.));
#358=DIRECTION('ref_axis',(-1.,0.,0.));
#359=DIRECTION('',(0.,0.,-1.));
#360=DIRECTION('center_axis',(0.,0.,-1.));
#361=DIRECTION('ref_axis',(1.,-1.22464679914735E-16,0.));
#362=DIRECTION('center_axis',(0.,0.,-1.));
#363=DIRECTION('ref_axis',(-1.,0.,0.));
#364=DIRECTION('center_axis',(-1.22464679914735E-16,-1.,0.));
#365=DIRECTION('ref_axis',(1.,-1.22464679914735E-16,0.));
#366=DIRECTION('center_axis',(0.,0.,1.));
#367=DIRECTION('ref_axis',(1.,-1.22464679914735E-16,0.));
#368=DIRECTION('center_axis',(0.,0.,1.));
#369=DIRECTION('ref_axis',(1.,-1.22464679914735E-16,0.));
#370=DIRECTION('center_axis',(0.,0.,-1.));
#371=DIRECTION('ref_axis',(1.,4.98266928286947E-17,0.));
#372=DIRECTION('center_axis',(0.,0.,1.));
#373=DIRECTION('ref_axis',(1.,4.98266928286947E-17,0.));
#374=DIRECTION('center_axis',(0.,0.,1.));
#375=DIRECTION('ref_axis',(1.,4.98266928286947E-17,0.));
#376=DIRECTION('center_axis',(-1.7229137274343E-16,1.,0.));
#377=DIRECTION('ref_axis',(-1.,-1.7229137274343E-16,0.));
#378=DIRECTION('center_axis',(0.,0.,-1.));
#379=DIRECTION('ref_axis',(-1.,0.,0.));
#380=DIRECTION('',(0.,0.,1.));
#381=DIRECTION('center_axis',(0.,0.,1.));
#382=DIRECTION('ref_axis',(-1.,0.,0.));
#383=DIRECTION('',(0.,0.,-1.));
#384=DIRECTION('center_axis',(0.,0.,1.));
#385=DIRECTION('ref_axis',(-1.,0.,0.));
#386=DIRECTION('',(0.,0.,-1.));
#387=DIRECTION('center_axis',(0.,0.,-1.));
#388=DIRECTION('ref_axis',(-1.,0.,0.));
#389=DIRECTION('',(0.,0.,1.));
#390=DIRECTION('',(0.,0.,1.));
#391=DIRECTION('',(1.,0.,0.));
#392=CARTESIAN_POINT('',(0.,0.,0.));
#393=CARTESIAN_POINT('',(0.,0.,0.));
#394=CARTESIAN_POINT('Origin',(0.,0.,172.5));
#395=CARTESIAN_POINT('',(2.5,3.06161699786838E-16,172.5));
#396=CARTESIAN_POINT('Origin',(0.,0.,172.5));
#397=CARTESIAN_POINT('',(0.85,1.04094977927525E-16,172.5));
#398=CARTESIAN_POINT('Origin',(0.,0.,172.5));
#399=CARTESIAN_POINT('Origin',(0.,0.,46.0717967697245));
#400=CARTESIAN_POINT('',(0.55,-6.73555739531044E-17,46.9962214836119));
#401=CARTESIAN_POINT('',(-6.73555739531045E-17,-0.55,46.9962214836119));
#402=CARTESIAN_POINT('Origin',(0.,0.,46.9962214836119));
#403=CARTESIAN_POINT('Origin',(0.,0.,46.9962214836119));
#404=CARTESIAN_POINT('',(-9.79717439317883E-16,-8.,45.));
#405=CARTESIAN_POINT('',(-4.89858719658941E-16,-4.,46.0717967697245));
#406=CARTESIAN_POINT('',(8.,9.79717439317883E-16,45.));
#407=CARTESIAN_POINT('Origin',(0.,0.,45.));
#408=CARTESIAN_POINT('Origin',(0.,0.,45.));
#409=CARTESIAN_POINT('Origin',(0.,0.,70.));
#410=CARTESIAN_POINT('',(0.55,6.73555739531044E-17,70.));
#411=CARTESIAN_POINT('Origin',(0.,0.,70.));
#412=CARTESIAN_POINT('',(0.3429,4.19931387427627E-17,70.));
#413=CARTESIAN_POINT('Origin',(0.,0.,70.));
#414=CARTESIAN_POINT('Origin',(0.,0.,72.5));
#415=CARTESIAN_POINT('',(0.85,1.04094977927525E-16,72.5));
#416=CARTESIAN_POINT('Origin',(0.,0.,72.5));
#417=CARTESIAN_POINT('',(0.3429,4.19931387427627E-17,72.5));
#418=CARTESIAN_POINT('Origin',(0.,0.,72.5));
#419=CARTESIAN_POINT('Origin',(0.,0.,58.1));
#420=CARTESIAN_POINT('',(-3.,-3.67394039744206E-16,57.6));
#421=CARTESIAN_POINT('Origin',(0.,0.,57.6));
#422=CARTESIAN_POINT('',(-2.5,-3.06161699786838E-16,58.1));
#423=CARTESIAN_POINT('Origin',(-3.,-3.67394039744206E-16,58.1));
#424=CARTESIAN_POINT('',(2.5,-3.06161699786838E-16,58.1));
#425=CARTESIAN_POINT('Origin',(0.,0.,58.1));
#426=CARTESIAN_POINT('Origin',(0.,0.,58.1));
#427=CARTESIAN_POINT('Origin',(0.,0.,57.6));
#428=CARTESIAN_POINT('',(-4.175,-2.33734282487731E-16,57.6));
#429=CARTESIAN_POINT('Origin',(5.55111512312578E-16,2.77555756156289E-16,
57.6));
#430=CARTESIAN_POINT('Origin',(0.,0.,52.5));
#431=CARTESIAN_POINT('',(2.5,3.06161699786838E-16,52.5));
#432=CARTESIAN_POINT('Origin',(5.55111512312578E-16,2.77555756156289E-16,
56.6));
#433=CARTESIAN_POINT('',(-5.175,-3.56198962402466E-16,56.6));
#434=CARTESIAN_POINT('Origin',(-4.175,-2.33734282487731E-16,56.6));
#435=CARTESIAN_POINT('',(5.175,9.11310474715045E-16,56.6));
#436=CARTESIAN_POINT('Origin',(5.55111512312578E-16,2.77555756156289E-16,
56.6));
#437=CARTESIAN_POINT('Origin',(5.55111512312578E-16,2.77555756156289E-16,
56.6));
#438=CARTESIAN_POINT('Origin',(5.55111512312578E-16,2.77555756156289E-16,
52.6));
#439=CARTESIAN_POINT('',(5.175,9.11310474715045E-16,53.4286376451155));
#440=CARTESIAN_POINT('',(5.175,9.11310474715045E-16,52.6));
#441=CARTESIAN_POINT('Origin',(5.55111512312578E-16,2.77555756156289E-16,
53.4286376451155));
#442=CARTESIAN_POINT('Origin',(5.55111512312578E-16,2.77555756156289E-16,
53.4286376451155));
#443=CARTESIAN_POINT('',(5.88125,-4.42689642592248E-16,52.4727553628757));
#444=CARTESIAN_POINT('Origin',(6.175,-4.78663642317202E-16,53.4286376451155));
#445=CARTESIAN_POINT('',(-5.88125,2.77555756156289E-16,52.4727553628757));
#446=CARTESIAN_POINT('Origin',(5.55111512312578E-16,2.77555756156289E-16,
52.4727553628757));
#447=CARTESIAN_POINT('Origin',(5.55111512312578E-16,2.77555756156289E-16,
52.4727553628757));
#448=CARTESIAN_POINT('Origin',(5.55111512312578E-16,2.77555756156289E-16,
49.6051085161562));
#449=CARTESIAN_POINT('',(-8.,-1.10077522579115E-15,49.6051085161562));
#450=CARTESIAN_POINT('',(8.,-9.79717439317883E-16,49.6051085161562));
#451=CARTESIAN_POINT('Origin',(5.55111512312578E-16,2.77555756156289E-16,
49.6051085161562));
#452=CARTESIAN_POINT('Origin',(5.55111512312578E-16,2.77555756156289E-16,
49.6051085161562));
#453=CARTESIAN_POINT('Origin',(-5.,-5.83901107560861E-16,49.6051085161562));
#454=CARTESIAN_POINT('Origin',(0.,0.,50.));
#455=CARTESIAN_POINT('',(8.,-9.79717439317883E-16,50.));
#456=CARTESIAN_POINT('Origin',(0.,0.,52.5));
#457=CARTESIAN_POINT('',(0.85,1.04094977927525E-16,52.5));
#458=CARTESIAN_POINT('Origin',(0.,0.,50.));
#459=CARTESIAN_POINT('',(0.3429,4.19931387427627E-17,50.));
#460=CARTESIAN_POINT('Origin',(0.,0.,50.));
#461=CARTESIAN_POINT('',(0.55,-6.73555739531044E-17,50.));
#462=CARTESIAN_POINT('',(0.,0.,0.));
#463=UNCERTAINTY_MEASURE_WITH_UNIT(LENGTH_MEASURE(0.01),#469,
'DISTANCE_ACCURACY_VALUE',
'Maximum model space distance between geometric entities at asserted c
onnectivities');
#464=UNCERTAINTY_MEASURE_WITH_UNIT(LENGTH_MEASURE(0.01),#469,
'DISTANCE_ACCURACY_VALUE',
'Maximum model space distance between geometric entities at asserted c
onnectivities');
#465=UNCERTAINTY_MEASURE_WITH_UNIT(LENGTH_MEASURE(0.01),#469,
'DISTANCE_ACCURACY_VALUE',
'Maximum model space distance between geometric entities at asserted c
onnectivities');
#466=(
GEOMETRIC_REPRESENTATION_CONTEXT(3)
GLOBAL_UNCERTAINTY_ASSIGNED_CONTEXT((#463))
GLOBAL_UNIT_ASSIGNED_CONTEXT((#469,#471,#472))
REPRESENTATION_CONTEXT('','3D')
);
#467=(
GEOMETRIC_REPRESENTATION_CONTEXT(3)
GLOBAL_UNCERTAINTY_ASSIGNED_CONTEXT((#464))
GLOBAL_UNIT_ASSIGNED_CONTEXT((#469,#471,#472))
REPRESENTATION_CONTEXT('','3D')
);
#468=(
GEOMETRIC_REPRESENTATION_CONTEXT(3)
GLOBAL_UNCERTAINTY_ASSIGNED_CONTEXT((#465))
GLOBAL_UNIT_ASSIGNED_CONTEXT((#469,#471,#472))
REPRESENTATION_CONTEXT('','3D')
);
#469=(
LENGTH_UNIT()
NAMED_UNIT(*)
SI_UNIT(.MILLI.,.METRE.)
);
#470=(
LENGTH_UNIT()
NAMED_UNIT(*)
SI_UNIT($,.METRE.)
);
#471=(
NAMED_UNIT(*)
PLANE_ANGLE_UNIT()
SI_UNIT($,.RADIAN.)
);
#472=(
NAMED_UNIT(*)
SI_UNIT($,.STERADIAN.)
SOLID_ANGLE_UNIT()
);
#473=SHAPE_DEFINITION_REPRESENTATION(#475,#478);
#474=SHAPE_DEFINITION_REPRESENTATION(#476,#479);
#475=PRODUCT_DEFINITION_SHAPE('',$,#481);
#476=PRODUCT_DEFINITION_SHAPE('',$,#482);
#477=PRODUCT_DEFINITION_SHAPE($,$,#14);
#478=SHAPE_REPRESENTATION('',(#256,#298),#466);
#479=SHAPE_REPRESENTATION('',(#257),#467);
#480=PRODUCT_DEFINITION_CONTEXT('part definition',#488,'design');
#481=PRODUCT_DEFINITION('Particle Launcher V6',
'Particle Launcher V6 v11',#483,#480);
#482=PRODUCT_DEFINITION('Plunger','Plunger',#484,#480);
#483=PRODUCT_DEFINITION_FORMATION('',$,#490);
#484=PRODUCT_DEFINITION_FORMATION('',$,#491);
#485=PRODUCT_RELATED_PRODUCT_CATEGORY('Particle Launcher V6 v11',
'Particle Launcher V6 v11',(#490));
#486=PRODUCT_RELATED_PRODUCT_CATEGORY('Plunger','Plunger',(#491));
#487=APPLICATION_PROTOCOL_DEFINITION('international standard',
'automotive_design',2009,#488);
#488=APPLICATION_CONTEXT(
'Core Data for Automotive Mechanical Design Process');
#489=PRODUCT_CONTEXT('part definition',#488,'mechanical');
#490=PRODUCT('Particle Launcher V6','Particle Launcher V6 v11',$,(#489));
#491=PRODUCT('Plunger','Plunger',$,(#489));
#492=PRESENTATION_STYLE_ASSIGNMENT((#495));
#493=PRESENTATION_STYLE_ASSIGNMENT((#496));
#494=PRESENTATION_STYLE_ASSIGNMENT((#497));
#495=SURFACE_STYLE_USAGE(.BOTH.,#498);
#496=SURFACE_STYLE_USAGE(.BOTH.,#499);
#497=SURFACE_STYLE_USAGE(.BOTH.,#500);
#498=SURFACE_SIDE_STYLE('',(#501));
#499=SURFACE_SIDE_STYLE('',(#502));
#500=SURFACE_SIDE_STYLE('',(#503));
#501=SURFACE_STYLE_FILL_AREA(#504);
#502=SURFACE_STYLE_FILL_AREA(#505);
#503=SURFACE_STYLE_FILL_AREA(#506);
#504=FILL_AREA_STYLE('Steel - Satin',(#507));
#505=FILL_AREA_STYLE('Steel - Satin (1) (4)',(#508));
#506=FILL_AREA_STYLE('Steel - Satin (1) (1)',(#509));
#507=FILL_AREA_STYLE_COLOUR('Steel - Satin',#510);
#508=FILL_AREA_STYLE_COLOUR('Steel - Satin (1) (4)',#511);
#509=FILL_AREA_STYLE_COLOUR('Steel - Satin (1) (1)',#512);
#510=COLOUR_RGB('Steel - Satin',0.627450980392157,0.627450980392157,0.627450980392157);
#511=COLOUR_RGB('Steel - Satin (1) (4)',0.427450980392157,0.517647058823529,
0.913725490196078);
#512=COLOUR_RGB('Steel - Satin (1) (1)',0.149019607843137,0.345098039215686,
0.803921568627451);
ENDSEC;
END-ISO-10303-21;
