%TF.GenerationSoftware,KiCad,Pcbnew,9.0.7*%
%TF.CreationDate,2026-03-04T21:30:06-05:00*%
%TF.ProjectId,Launcher_PCB,4c61756e-6368-4657-925f-5043422e6b69,rev?*%
%TF.SameCoordinates,PX5f5e100PY5f5e100*%
%TF.FileFunction,Copper,L1,Top*%
%TF.FilePolarity,Positive*%
%FSLAX46Y46*%
G04 Gerber Fmt 4.6, Leading zero omitted, Abs format (unit mm)*
G04 Created by KiCad (PCBNEW 9.0.7) date 2026-03-04 21:30:06*
%MOMM*%
%LPD*%
G01*
G04 APERTURE LIST*
G04 Aperture macros list*
%AMRoundRect*
0 Rectangle with rounded corners*
0 $1 Rounding radius*
0 $2 $3 $4 $5 $6 $7 $8 $9 X,Y pos of 4 corners*
0 Add a 4 corners polygon primitive as box body*
4,1,4,$2,$3,$4,$5,$6,$7,$8,$9,$2,$3,0*
0 Add four circle primitives for the rounded corners*
1,1,$1+$1,$2,$3*
1,1,$1+$1,$4,$5*
1,1,$1+$1,$6,$7*
1,1,$1+$1,$8,$9*
0 Add four rect primitives between the rounded corners*
20,1,$1+$1,$2,$3,$4,$5,0*
20,1,$1+$1,$4,$5,$6,$7,0*
20,1,$1+$1,$6,$7,$8,$9,0*
20,1,$1+$1,$8,$9,$2,$3,0*%
G04 Aperture macros list end*
%ADD10C,0.300000*%
%TA.AperFunction,ComponentPad*%
%ADD11R,1.700000X1.700000*%
%TD*%
%TA.AperFunction,ComponentPad*%
%ADD12C,1.700000*%
%TD*%
%TA.AperFunction,SMDPad,CuDef*%
%ADD13R,2.510000X1.000000*%
%TD*%
%TA.AperFunction,SMDPad,CuDef*%
%ADD14RoundRect,0.250000X0.550000X-1.250000X0.550000X1.250000X-0.550000X1.250000X-0.550000X-1.250000X0*%
%TD*%
%TA.AperFunction,SMDPad,CuDef*%
%ADD15RoundRect,0.237500X0.237500X-0.250000X0.237500X0.250000X-0.237500X0.250000X-0.237500X-0.250000X0*%
%TD*%
%TA.AperFunction,ComponentPad*%
%ADD16C,2.000000*%
%TD*%
%TA.AperFunction,Conductor*%
%ADD17C,0.600000*%
%TD*%
G04 APERTURE END LIST*
D10*
G36*
X49260684Y14777743D02*
G01*
X48962625Y14777743D01*
X49111654Y15224831D01*
X49260684Y14777743D01*
G37*
G36*
X45379943Y15504465D02*
G01*
X45416947Y15467461D01*
X45461653Y15378049D01*
X45461653Y15234582D01*
X45416946Y15145169D01*
X45379941Y15108164D01*
X45290529Y15063458D01*
X44904510Y15063458D01*
X44904510Y15549172D01*
X45290529Y15549172D01*
X45379943Y15504465D01*
G37*
G36*
X51213997Y13882505D02*
G01*
X44437843Y13882505D01*
X44437843Y15699172D01*
X44604510Y15699172D01*
X44604510Y14199172D01*
X44607392Y14169908D01*
X44629790Y14115836D01*
X44671174Y14074452D01*
X44725246Y14052054D01*
X44783774Y14052054D01*
X44837846Y14074452D01*
X44879230Y14115836D01*
X44901628Y14169908D01*
X44904510Y14199172D01*
X44904510Y14763458D01*
X45033555Y14763458D01*
X45488768Y14113153D01*
X45507911Y14090831D01*
X45557268Y14059378D01*
X45614904Y14049207D01*
X45672046Y14061866D01*
X45719994Y14095430D01*
X45751447Y14144787D01*
X45761618Y14202423D01*
X45748959Y14259565D01*
X45734538Y14285191D01*
X45389586Y14777980D01*
X45393021Y14779294D01*
X45535878Y14850722D01*
X45548471Y14858650D01*
X45552131Y14860165D01*
X45556250Y14863547D01*
X45560764Y14866387D01*
X45563360Y14869381D01*
X45574862Y14878820D01*
X45646291Y14950249D01*
X45655732Y14961754D01*
X45658724Y14964348D01*
X45661562Y14968858D01*
X45664946Y14972980D01*
X45666462Y14976642D01*
X45674389Y14989233D01*
X45745817Y15132091D01*
X45756327Y15159554D01*
X45756708Y15164930D01*
X45758771Y15169908D01*
X45761653Y15199172D01*
X45761653Y15413458D01*
X45758771Y15442722D01*
X45756708Y15447701D01*
X45756327Y15453076D01*
X45745817Y15480539D01*
X45674389Y15623397D01*
X45666460Y15635992D01*
X45664945Y15639651D01*
X45661563Y15643772D01*
X45658724Y15648282D01*
X45655732Y15650877D01*
X45646290Y15662382D01*
X45609499Y15699172D01*
X46104510Y15699172D01*
X46104510Y14199172D01*
X46107392Y14169908D01*
X46129790Y14115836D01*
X46171174Y14074452D01*
X46225246Y14052054D01*
X46254510Y14049172D01*
X46968796Y14049172D01*
X46998060Y14052054D01*
X47052132Y14074452D01*
X47093516Y14115836D01*
X47115914Y14169908D01*
X47115914Y14228436D01*
X47093516Y14282508D01*
X47052132Y14323892D01*
X46998060Y14346290D01*
X46968796Y14349172D01*
X46404510Y14349172D01*
X46404510Y14834886D01*
X46754510Y14834886D01*
X46783774Y14837768D01*
X46837846Y14860166D01*
X46879230Y14901550D01*
X46901628Y14955622D01*
X46901628Y15014150D01*
X46879230Y15068222D01*
X46837846Y15109606D01*
X46783774Y15132004D01*
X46754510Y15134886D01*
X46404510Y15134886D01*
X46404510Y15549172D01*
X46968796Y15549172D01*
X46998060Y15552054D01*
X47052132Y15574452D01*
X47093516Y15615836D01*
X47115914Y15669908D01*
X47115914Y15699172D01*
X47461653Y15699172D01*
X47461653Y14199172D01*
X47464535Y14169908D01*
X47486933Y14115836D01*
X47528317Y14074452D01*
X47582389Y14052054D01*
X47611653Y14049172D01*
X48325939Y14049172D01*
X48355203Y14052054D01*
X48409275Y14074452D01*
X48450659Y14115836D01*
X48467957Y14157599D01*
X48493155Y14107205D01*
X48537369Y14068858D01*
X48592893Y14050350D01*
X48651274Y14054499D01*
X48703621Y14080673D01*
X48741968Y14124887D01*
X48753956Y14151738D01*
X48862625Y14477743D01*
X49360684Y14477743D01*
X49469352Y14151738D01*
X49481340Y14124887D01*
X49519687Y14080672D01*
X49572035Y14054499D01*
X49630415Y14050349D01*
X49685939Y14068858D01*
X49730153Y14107205D01*
X49756327Y14159552D01*
X49760477Y14217932D01*
X49753957Y14246606D01*
X49268651Y15702520D01*
X49747405Y15702520D01*
X49757539Y15644877D01*
X49770819Y15618641D01*
X50247368Y14869779D01*
X50247368Y14199172D01*
X50250250Y14169908D01*
X50272648Y14115836D01*
X50314032Y14074452D01*
X50368104Y14052054D01*
X50426632Y14052054D01*
X50480704Y14074452D01*
X50522088Y14115836D01*
X50544486Y14169908D01*
X50547368Y14199172D01*
X50547368Y14869779D01*
X51023917Y15618640D01*
X51037197Y15644877D01*
X51047330Y15702520D01*
X51034634Y15759652D01*
X51001041Y15807578D01*
X50951663Y15839001D01*
X50894020Y15849134D01*
X50836887Y15836438D01*
X50788961Y15802845D01*
X50770819Y15779703D01*
X50397368Y15192853D01*
X50023917Y15779703D01*
X50005775Y15802845D01*
X49957848Y15836438D01*
X49900716Y15849135D01*
X49843073Y15839001D01*
X49793695Y15807579D01*
X49760102Y15759652D01*
X49747405Y15702520D01*
X49268651Y15702520D01*
X49253956Y15746606D01*
X49241968Y15773457D01*
X49234945Y15781554D01*
X49230153Y15791139D01*
X49215944Y15803463D01*
X49203621Y15817671D01*
X49194035Y15822464D01*
X49185939Y15829486D01*
X49168095Y15835435D01*
X49151274Y15843845D01*
X49140585Y15844605D01*
X49130415Y15847995D01*
X49111649Y15846662D01*
X49092893Y15847994D01*
X49082725Y15844605D01*
X49072035Y15843845D01*
X49055211Y15835434D01*
X49037369Y15829486D01*
X49029274Y15822466D01*
X49019687Y15817672D01*
X49007361Y15803461D01*
X48993155Y15791139D01*
X48988362Y15781555D01*
X48981340Y15773457D01*
X48969352Y15746606D01*
X48469352Y14246606D01*
X48467997Y14240650D01*
X48450659Y14282508D01*
X48409275Y14323892D01*
X48355203Y14346290D01*
X48325939Y14349172D01*
X47761653Y14349172D01*
X47761653Y15699172D01*
X47758771Y15728436D01*
X47736373Y15782508D01*
X47694989Y15823892D01*
X47640917Y15846290D01*
X47582389Y15846290D01*
X47528317Y15823892D01*
X47486933Y15782508D01*
X47464535Y15728436D01*
X47461653Y15699172D01*
X47115914Y15699172D01*
X47115914Y15728436D01*
X47093516Y15782508D01*
X47052132Y15823892D01*
X46998060Y15846290D01*
X46968796Y15849172D01*
X46254510Y15849172D01*
X46225246Y15846290D01*
X46171174Y15823892D01*
X46129790Y15782508D01*
X46107392Y15728436D01*
X46104510Y15699172D01*
X45609499Y15699172D01*
X45574861Y15733810D01*
X45563361Y15743248D01*
X45560764Y15746242D01*
X45556247Y15749085D01*
X45552130Y15752464D01*
X45548473Y15753979D01*
X45535878Y15761907D01*
X45393021Y15833336D01*
X45365558Y15843845D01*
X45360183Y15844227D01*
X45355203Y15846290D01*
X45325939Y15849172D01*
X44754510Y15849172D01*
X44725246Y15846290D01*
X44671174Y15823892D01*
X44629790Y15782508D01*
X44607392Y15728436D01*
X44604510Y15699172D01*
X44437843Y15699172D01*
X44437843Y16015839D01*
X51213997Y16015839D01*
X51213997Y13882505D01*
G37*
G36*
X31479943Y33504465D02*
G01*
X31516947Y33467461D01*
X31561653Y33378049D01*
X31561653Y33234582D01*
X31516946Y33145169D01*
X31479941Y33108164D01*
X31390529Y33063458D01*
X31004510Y33063458D01*
X31004510Y33549172D01*
X31390529Y33549172D01*
X31479943Y33504465D01*
G37*
G36*
X34954010Y31882505D02*
G01*
X30537843Y31882505D01*
X30537843Y33699172D01*
X30704510Y33699172D01*
X30704510Y32199172D01*
X30707392Y32169908D01*
X30729790Y32115836D01*
X30771174Y32074452D01*
X30825246Y32052054D01*
X30883774Y32052054D01*
X30937846Y32074452D01*
X30979230Y32115836D01*
X31001628Y32169908D01*
X31004510Y32199172D01*
X31004510Y32763458D01*
X31425939Y32763458D01*
X31455203Y32766340D01*
X31460181Y32768403D01*
X31465557Y32768784D01*
X31493021Y32779294D01*
X31635878Y32850722D01*
X31648471Y32858650D01*
X31652131Y32860165D01*
X31656250Y32863547D01*
X31660764Y32866387D01*
X31663360Y32869381D01*
X31674862Y32878820D01*
X31746291Y32950249D01*
X31755732Y32961754D01*
X31758724Y32964348D01*
X31761562Y32968858D01*
X31764946Y32972980D01*
X31766462Y32976642D01*
X31774389Y32989233D01*
X31807930Y33056315D01*
X32133082Y33056315D01*
X32133082Y32842029D01*
X32133584Y32836926D01*
X32133259Y32834738D01*
X32134878Y32823788D01*
X32135964Y32812765D01*
X32136811Y32810721D01*
X32137561Y32805649D01*
X32208989Y32519935D01*
X32209760Y32517777D01*
X32209837Y32516696D01*
X32214495Y32504522D01*
X32218882Y32492244D01*
X32219526Y32491374D01*
X32220346Y32489233D01*
X32291775Y32346376D01*
X32299702Y32333783D01*
X32301218Y32330123D01*
X32304599Y32326004D01*
X32307440Y32321490D01*
X32310433Y32318894D01*
X32319873Y32307392D01*
X32462730Y32164534D01*
X32485460Y32145879D01*
X32490439Y32143817D01*
X32494511Y32140285D01*
X32521362Y32128297D01*
X32735648Y32056869D01*
X32750160Y32053570D01*
X32753818Y32052054D01*
X32759120Y32051532D01*
X32764322Y32050349D01*
X32768276Y32050631D01*
X32783082Y32049172D01*
X32925939Y32049172D01*
X32940744Y32050631D01*
X32944699Y32050349D01*
X32949900Y32051532D01*
X32955203Y32052054D01*
X32958860Y32053570D01*
X32973373Y32056869D01*
X33187659Y32128297D01*
X33214510Y32140285D01*
X33218583Y32143819D01*
X33223561Y32145880D01*
X33246292Y32164535D01*
X33317720Y32235964D01*
X33336374Y32258694D01*
X33356545Y32307392D01*
X33358771Y32312765D01*
X33361653Y32342029D01*
X33361653Y32842029D01*
X33358771Y32871293D01*
X33336373Y32925365D01*
X33294989Y32966749D01*
X33240917Y32989147D01*
X33211653Y32992029D01*
X32925939Y32992029D01*
X32896675Y32989147D01*
X32842603Y32966749D01*
X32801219Y32925365D01*
X32778821Y32871293D01*
X32778821Y32812765D01*
X32801219Y32758693D01*
X32842603Y32717309D01*
X32896675Y32694911D01*
X32925939Y32692029D01*
X33061653Y32692029D01*
X33061653Y32404161D01*
X33059198Y32401706D01*
X32901596Y32349172D01*
X32807425Y32349172D01*
X32649822Y32401706D01*
X32549217Y32502312D01*
X32496036Y32608672D01*
X32433082Y32860493D01*
X32433082Y33037852D01*
X32495958Y33289361D01*
X33634260Y33289361D01*
X33638409Y33230981D01*
X33664583Y33178632D01*
X33708798Y33140285D01*
X33764321Y33121778D01*
X33822701Y33125927D01*
X33850164Y33136436D01*
X33993021Y33207865D01*
X34005614Y33215793D01*
X34009274Y33217308D01*
X34013393Y33220690D01*
X34017907Y33223530D01*
X34020503Y33226524D01*
X34032005Y33235963D01*
X34061653Y33265611D01*
X34061653Y32349172D01*
X33783082Y32349172D01*
X33753818Y32346290D01*
X33699746Y32323892D01*
X33658362Y32282508D01*
X33635964Y32228436D01*
X33635964Y32169908D01*
X33658362Y32115836D01*
X33699746Y32074452D01*
X33753818Y32052054D01*
X33783082Y32049172D01*
X34640225Y32049172D01*
X34669489Y32052054D01*
X34723561Y32074452D01*
X34764945Y32115836D01*
X34787343Y32169908D01*
X34787343Y32228436D01*
X34764945Y32282508D01*
X34723561Y32323892D01*
X34669489Y32346290D01*
X34640225Y32349172D01*
X34361653Y32349172D01*
X34361653Y33699172D01*
X34361642Y33699278D01*
X34361653Y33699330D01*
X34361622Y33699484D01*
X34358771Y33728436D01*
X34353087Y33742157D01*
X34350175Y33756719D01*
X34341996Y33768932D01*
X34336373Y33782508D01*
X34325874Y33793007D01*
X34317609Y33805349D01*
X34305378Y33813503D01*
X34294989Y33823892D01*
X34281270Y33829575D01*
X34268910Y33837815D01*
X34254491Y33840668D01*
X34240917Y33846290D01*
X34226066Y33846290D01*
X34211496Y33849172D01*
X34197086Y33846290D01*
X34182389Y33846290D01*
X34168667Y33840607D01*
X34154106Y33837694D01*
X34141893Y33829516D01*
X34128317Y33823892D01*
X34117818Y33813394D01*
X34105476Y33805128D01*
X34087044Y33782620D01*
X34086933Y33782508D01*
X34086912Y33782458D01*
X34086846Y33782377D01*
X33952226Y33580449D01*
X33837085Y33465308D01*
X33716000Y33404764D01*
X33691114Y33389099D01*
X33652767Y33344884D01*
X33634260Y33289361D01*
X32495958Y33289361D01*
X32496036Y33289673D01*
X32549217Y33396033D01*
X32649823Y33496639D01*
X32807425Y33549172D01*
X32961958Y33549172D01*
X33073142Y33493579D01*
X33100606Y33483070D01*
X33158986Y33478921D01*
X33214508Y33497428D01*
X33258724Y33535775D01*
X33284898Y33588124D01*
X33289047Y33646504D01*
X33270539Y33702027D01*
X33232193Y33746242D01*
X33207307Y33761907D01*
X33064450Y33833336D01*
X33036987Y33843845D01*
X33031612Y33844227D01*
X33026632Y33846290D01*
X32997368Y33849172D01*
X32783082Y33849172D01*
X32768270Y33847714D01*
X32764321Y33847994D01*
X32759126Y33846813D01*
X32753818Y33846290D01*
X32750156Y33844774D01*
X32735647Y33841474D01*
X32521362Y33770045D01*
X32494511Y33758057D01*
X32490441Y33754528D01*
X32485460Y33752464D01*
X32462730Y33733809D01*
X32319873Y33590952D01*
X32310433Y33579451D01*
X32307440Y33576854D01*
X32304599Y33572341D01*
X32301218Y33568221D01*
X32299702Y33564562D01*
X32291775Y33551968D01*
X32220346Y33409111D01*
X32219526Y33406971D01*
X32218882Y33406100D01*
X32214495Y33393823D01*
X32209837Y33381648D01*
X32209760Y33380568D01*
X32208989Y33378409D01*
X32137561Y33092695D01*
X32136811Y33087624D01*
X32135964Y33085579D01*
X32134878Y33074557D01*
X32133259Y33063606D01*
X32133584Y33061419D01*
X32133082Y33056315D01*
X31807930Y33056315D01*
X31845817Y33132091D01*
X31856327Y33159554D01*
X31856708Y33164930D01*
X31858771Y33169908D01*
X31861653Y33199172D01*
X31861653Y33413458D01*
X31858771Y33442722D01*
X31856708Y33447701D01*
X31856327Y33453076D01*
X31845817Y33480539D01*
X31774389Y33623397D01*
X31766460Y33635992D01*
X31764945Y33639651D01*
X31761563Y33643772D01*
X31758724Y33648282D01*
X31755732Y33650877D01*
X31746290Y33662382D01*
X31674861Y33733810D01*
X31663361Y33743248D01*
X31660764Y33746242D01*
X31656247Y33749085D01*
X31652130Y33752464D01*
X31648473Y33753979D01*
X31635878Y33761907D01*
X31493021Y33833336D01*
X31465558Y33843845D01*
X31460183Y33844227D01*
X31455203Y33846290D01*
X31425939Y33849172D01*
X30854510Y33849172D01*
X30825246Y33846290D01*
X30771174Y33823892D01*
X30729790Y33782508D01*
X30707392Y33728436D01*
X30704510Y33699172D01*
X30537843Y33699172D01*
X30537843Y34015839D01*
X34954010Y34015839D01*
X34954010Y31882505D01*
G37*
G36*
X31479943Y15504465D02*
G01*
X31516947Y15467461D01*
X31561653Y15378049D01*
X31561653Y15234582D01*
X31516946Y15145169D01*
X31479941Y15108164D01*
X31390529Y15063458D01*
X31004510Y15063458D01*
X31004510Y15549172D01*
X31390529Y15549172D01*
X31479943Y15504465D01*
G37*
G36*
X34956892Y13882505D02*
G01*
X30537843Y13882505D01*
X30537843Y15699172D01*
X30704510Y15699172D01*
X30704510Y14199172D01*
X30707392Y14169908D01*
X30729790Y14115836D01*
X30771174Y14074452D01*
X30825246Y14052054D01*
X30883774Y14052054D01*
X30937846Y14074452D01*
X30979230Y14115836D01*
X31001628Y14169908D01*
X31004510Y14199172D01*
X31004510Y14763458D01*
X31425939Y14763458D01*
X31455203Y14766340D01*
X31460181Y14768403D01*
X31465557Y14768784D01*
X31493021Y14779294D01*
X31635878Y14850722D01*
X31648471Y14858650D01*
X31652131Y14860165D01*
X31656250Y14863547D01*
X31660764Y14866387D01*
X31663360Y14869381D01*
X31674862Y14878820D01*
X31746291Y14950249D01*
X31755732Y14961754D01*
X31758724Y14964348D01*
X31761562Y14968858D01*
X31764946Y14972980D01*
X31766462Y14976642D01*
X31774389Y14989233D01*
X31807930Y15056315D01*
X32133082Y15056315D01*
X32133082Y14842029D01*
X32133584Y14836926D01*
X32133259Y14834738D01*
X32134878Y14823788D01*
X32135964Y14812765D01*
X32136811Y14810721D01*
X32137561Y14805649D01*
X32208989Y14519935D01*
X32209760Y14517777D01*
X32209837Y14516696D01*
X32214495Y14504522D01*
X32218882Y14492244D01*
X32219526Y14491374D01*
X32220346Y14489233D01*
X32291775Y14346376D01*
X32299702Y14333783D01*
X32301218Y14330123D01*
X32304599Y14326004D01*
X32307440Y14321490D01*
X32310433Y14318894D01*
X32319873Y14307392D01*
X32462730Y14164534D01*
X32485460Y14145879D01*
X32490439Y14143817D01*
X32494511Y14140285D01*
X32521362Y14128297D01*
X32735648Y14056869D01*
X32750160Y14053570D01*
X32753818Y14052054D01*
X32759120Y14051532D01*
X32764322Y14050349D01*
X32768276Y14050631D01*
X32783082Y14049172D01*
X32925939Y14049172D01*
X32940744Y14050631D01*
X32944699Y14050349D01*
X32949900Y14051532D01*
X32955203Y14052054D01*
X32958860Y14053570D01*
X32973373Y14056869D01*
X33187659Y14128297D01*
X33214510Y14140285D01*
X33218583Y14143819D01*
X33223561Y14145880D01*
X33246292Y14164535D01*
X33310191Y14228435D01*
X33564535Y14228435D01*
X33564535Y14169909D01*
X33586932Y14115837D01*
X33628318Y14074451D01*
X33659992Y14061332D01*
X33682389Y14052054D01*
X33711653Y14049172D01*
X34640225Y14049172D01*
X34669489Y14052054D01*
X34723561Y14074452D01*
X34764945Y14115836D01*
X34787343Y14169908D01*
X34787343Y14228436D01*
X34764945Y14282508D01*
X34723561Y14323892D01*
X34669489Y14346290D01*
X34640225Y14349172D01*
X34073785Y14349172D01*
X34674862Y14950249D01*
X34693517Y14972979D01*
X34695580Y14977961D01*
X34699110Y14982030D01*
X34711098Y15008880D01*
X34782527Y15223165D01*
X34785826Y15237675D01*
X34787343Y15241336D01*
X34787865Y15246645D01*
X34789047Y15251839D01*
X34788766Y15255789D01*
X34790225Y15270600D01*
X34790225Y15413458D01*
X34787343Y15442722D01*
X34785279Y15447703D01*
X34784898Y15453077D01*
X34774389Y15480541D01*
X34702960Y15623397D01*
X34695033Y15635989D01*
X34693517Y15639651D01*
X34690133Y15643774D01*
X34687295Y15648283D01*
X34684302Y15650879D01*
X34674862Y15662381D01*
X34603434Y15733809D01*
X34591932Y15743249D01*
X34589336Y15746242D01*
X34584822Y15749083D01*
X34580703Y15752464D01*
X34577043Y15753980D01*
X34564450Y15761907D01*
X34421592Y15833336D01*
X34394129Y15843846D01*
X34388751Y15844229D01*
X34383774Y15846290D01*
X34354510Y15849172D01*
X33997368Y15849172D01*
X33968104Y15846290D01*
X33963126Y15844229D01*
X33957749Y15843846D01*
X33930286Y15833336D01*
X33787428Y15761907D01*
X33774836Y15753981D01*
X33771174Y15752464D01*
X33767051Y15749081D01*
X33762542Y15746242D01*
X33759946Y15743250D01*
X33748444Y15733809D01*
X33677016Y15662381D01*
X33658361Y15639650D01*
X33635964Y15585578D01*
X33635964Y15527052D01*
X33658361Y15472980D01*
X33699747Y15431594D01*
X33753819Y15409197D01*
X33812345Y15409197D01*
X33866417Y15431594D01*
X33889148Y15450249D01*
X33943364Y15504465D01*
X34032778Y15549172D01*
X34319100Y15549172D01*
X34408514Y15504465D01*
X34445518Y15467461D01*
X34490225Y15378048D01*
X34490225Y15294941D01*
X34437691Y15137343D01*
X33605587Y14305238D01*
X33586932Y14282507D01*
X33577068Y14258693D01*
X33567654Y14235964D01*
X33564535Y14228435D01*
X33310191Y14228435D01*
X33317720Y14235964D01*
X33336374Y14258694D01*
X33353426Y14299862D01*
X33358771Y14312765D01*
X33361653Y14342029D01*
X33361653Y14842029D01*
X33358771Y14871293D01*
X33336373Y14925365D01*
X33294989Y14966749D01*
X33240917Y14989147D01*
X33211653Y14992029D01*
X32925939Y14992029D01*
X32896675Y14989147D01*
X32842603Y14966749D01*
X32801219Y14925365D01*
X32778821Y14871293D01*
X32778821Y14812765D01*
X32801219Y14758693D01*
X32842603Y14717309D01*
X32896675Y14694911D01*
X32925939Y14692029D01*
X33061653Y14692029D01*
X33061653Y14404161D01*
X33059198Y14401706D01*
X32901596Y14349172D01*
X32807425Y14349172D01*
X32649822Y14401706D01*
X32549217Y14502312D01*
X32496036Y14608672D01*
X32433082Y14860493D01*
X32433082Y15037852D01*
X32496036Y15289673D01*
X32549217Y15396033D01*
X32649823Y15496639D01*
X32807425Y15549172D01*
X32961958Y15549172D01*
X33073142Y15493579D01*
X33100606Y15483070D01*
X33158986Y15478921D01*
X33214508Y15497428D01*
X33258724Y15535775D01*
X33284898Y15588124D01*
X33289047Y15646504D01*
X33270539Y15702027D01*
X33232193Y15746242D01*
X33207307Y15761907D01*
X33064450Y15833336D01*
X33036987Y15843845D01*
X33031612Y15844227D01*
X33026632Y15846290D01*
X32997368Y15849172D01*
X32783082Y15849172D01*
X32768270Y15847714D01*
X32764321Y15847994D01*
X32759126Y15846813D01*
X32753818Y15846290D01*
X32750156Y15844774D01*
X32735647Y15841474D01*
X32521362Y15770045D01*
X32494511Y15758057D01*
X32490441Y15754528D01*
X32485460Y15752464D01*
X32462730Y15733809D01*
X32319873Y15590952D01*
X32310433Y15579451D01*
X32307440Y15576854D01*
X32304599Y15572341D01*
X32301218Y15568221D01*
X32299702Y15564562D01*
X32291775Y15551968D01*
X32220346Y15409111D01*
X32219526Y15406971D01*
X32218882Y15406100D01*
X32214495Y15393823D01*
X32209837Y15381648D01*
X32209760Y15380568D01*
X32208989Y15378409D01*
X32137561Y15092695D01*
X32136811Y15087624D01*
X32135964Y15085579D01*
X32134878Y15074557D01*
X32133259Y15063606D01*
X32133584Y15061419D01*
X32133082Y15056315D01*
X31807930Y15056315D01*
X31845817Y15132091D01*
X31856327Y15159554D01*
X31856708Y15164930D01*
X31858771Y15169908D01*
X31861653Y15199172D01*
X31861653Y15413458D01*
X31858771Y15442722D01*
X31856708Y15447701D01*
X31856327Y15453076D01*
X31845817Y15480539D01*
X31774389Y15623397D01*
X31766460Y15635992D01*
X31764945Y15639651D01*
X31761563Y15643772D01*
X31758724Y15648282D01*
X31755732Y15650877D01*
X31746290Y15662382D01*
X31674861Y15733810D01*
X31663361Y15743248D01*
X31660764Y15746242D01*
X31656247Y15749085D01*
X31652130Y15752464D01*
X31648473Y15753979D01*
X31635878Y15761907D01*
X31493021Y15833336D01*
X31465558Y15843845D01*
X31460183Y15844227D01*
X31455203Y15846290D01*
X31425939Y15849172D01*
X30854510Y15849172D01*
X30825246Y15846290D01*
X30771174Y15823892D01*
X30729790Y15782508D01*
X30707392Y15728436D01*
X30704510Y15699172D01*
X30537843Y15699172D01*
X30537843Y16015839D01*
X34956892Y16015839D01*
X34956892Y13882505D01*
G37*
G36*
X50751370Y33504465D02*
G01*
X50847636Y33408199D01*
X50904510Y33180708D01*
X50904510Y32717637D01*
X50847636Y32490146D01*
X50751369Y32393878D01*
X50661957Y32349172D01*
X50447063Y32349172D01*
X50357649Y32393879D01*
X50261382Y32490146D01*
X50204510Y32717636D01*
X50204510Y33180709D01*
X50261382Y33408198D01*
X50357649Y33504466D01*
X50447063Y33549172D01*
X50661957Y33549172D01*
X50751370Y33504465D01*
G37*
G36*
X47965657Y33504465D02*
G01*
X48002661Y33467461D01*
X48047367Y33378049D01*
X48047367Y33234582D01*
X48002660Y33145169D01*
X47965655Y33108164D01*
X47876243Y33063458D01*
X47490224Y33063458D01*
X47490224Y33549172D01*
X47876243Y33549172D01*
X47965657Y33504465D01*
G37*
G36*
X51371177Y31882505D02*
G01*
X44166415Y31882505D01*
X44166415Y33413458D01*
X44333082Y33413458D01*
X44333082Y33270600D01*
X44335964Y33241336D01*
X44338026Y33236358D01*
X44338408Y33230982D01*
X44348918Y33203518D01*
X44420346Y33060661D01*
X44428274Y33048066D01*
X44429790Y33044407D01*
X44433169Y33040290D01*
X44436011Y33035775D01*
X44439005Y33033179D01*
X44448445Y33021676D01*
X44519874Y32950248D01*
X44531374Y32940810D01*
X44533971Y32937816D01*
X44538483Y32934976D01*
X44542604Y32931594D01*
X44546263Y32930079D01*
X44558857Y32922151D01*
X44701713Y32850722D01*
X44703855Y32849903D01*
X44704725Y32849258D01*
X44716996Y32844874D01*
X44729177Y32840213D01*
X44730257Y32840137D01*
X44732416Y32839365D01*
X45002154Y32771931D01*
X45108513Y32718752D01*
X45145517Y32681747D01*
X45190225Y32592333D01*
X45190225Y32520297D01*
X45145517Y32430883D01*
X45108514Y32393879D01*
X45019101Y32349172D01*
X44721711Y32349172D01*
X44530516Y32412903D01*
X44501842Y32419423D01*
X44443462Y32415273D01*
X44391115Y32389099D01*
X44352767Y32344885D01*
X44334259Y32289360D01*
X44338409Y32230980D01*
X44364583Y32178633D01*
X44408797Y32140285D01*
X44435648Y32128297D01*
X44649934Y32056869D01*
X44664446Y32053570D01*
X44668104Y32052054D01*
X44673406Y32051532D01*
X44678608Y32050349D01*
X44682562Y32050631D01*
X44697368Y32049172D01*
X45054510Y32049172D01*
X45083774Y32052054D01*
X45088752Y32054117D01*
X45094128Y32054498D01*
X45121591Y32065008D01*
X45264450Y32136436D01*
X45277044Y32144365D01*
X45280704Y32145880D01*
X45284824Y32149262D01*
X45289335Y32152101D01*
X45291929Y32155093D01*
X45303435Y32164535D01*
X45374863Y32235964D01*
X45384301Y32247465D01*
X45387295Y32250061D01*
X45390135Y32254574D01*
X45393517Y32258694D01*
X45395032Y32262354D01*
X45402960Y32274947D01*
X45474389Y32417803D01*
X45484898Y32445267D01*
X45485279Y32450642D01*
X45487343Y32455622D01*
X45490225Y32484886D01*
X45490225Y32627743D01*
X45487343Y32657007D01*
X45485279Y32661988D01*
X45484898Y32667362D01*
X45474389Y32694826D01*
X45402960Y32837682D01*
X45395032Y32850276D01*
X45393517Y32853935D01*
X45390135Y32858056D01*
X45387295Y32862568D01*
X45384301Y32865165D01*
X45374863Y32876665D01*
X45303435Y32948094D01*
X45291932Y32957534D01*
X45289336Y32960528D01*
X45284821Y32963370D01*
X45280704Y32966749D01*
X45277045Y32968265D01*
X45264450Y32976193D01*
X45121592Y33047622D01*
X45119451Y33048442D01*
X45118581Y33049086D01*
X45106325Y33053465D01*
X45094129Y33058132D01*
X45093045Y33058209D01*
X45090890Y33058979D01*
X44821152Y33126414D01*
X44714792Y33179594D01*
X44677787Y33216599D01*
X44633082Y33306010D01*
X44633082Y33378049D01*
X44677787Y33467460D01*
X44714792Y33504465D01*
X44804206Y33549172D01*
X45101599Y33549172D01*
X45292790Y33485441D01*
X45321464Y33478921D01*
X45379844Y33483070D01*
X45432191Y33509244D01*
X45470539Y33553458D01*
X45489047Y33608982D01*
X45484898Y33667362D01*
X45468993Y33699172D01*
X45833081Y33699172D01*
X45833081Y32199172D01*
X45835963Y32169908D01*
X45858361Y32115836D01*
X45899745Y32074452D01*
X45953817Y32052054D01*
X45983081Y32049172D01*
X46697367Y32049172D01*
X46726631Y32052054D01*
X46780703Y32074452D01*
X46822087Y32115836D01*
X46844485Y32169908D01*
X46844485Y32228436D01*
X46822087Y32282508D01*
X46780703Y32323892D01*
X46726631Y32346290D01*
X46697367Y32349172D01*
X46133081Y32349172D01*
X46133081Y32834886D01*
X46483081Y32834886D01*
X46512345Y32837768D01*
X46566417Y32860166D01*
X46607801Y32901550D01*
X46630199Y32955622D01*
X46630199Y33014150D01*
X46607801Y33068222D01*
X46566417Y33109606D01*
X46512345Y33132004D01*
X46483081Y33134886D01*
X46133081Y33134886D01*
X46133081Y33549172D01*
X46697367Y33549172D01*
X46726631Y33552054D01*
X46780703Y33574452D01*
X46822087Y33615836D01*
X46844485Y33669908D01*
X46844485Y33699172D01*
X47190224Y33699172D01*
X47190224Y32199172D01*
X47193106Y32169908D01*
X47215504Y32115836D01*
X47256888Y32074452D01*
X47310960Y32052054D01*
X47369488Y32052054D01*
X47423560Y32074452D01*
X47464944Y32115836D01*
X47487342Y32169908D01*
X47490224Y32199172D01*
X47490224Y32763458D01*
X47619269Y32763458D01*
X48074482Y32113153D01*
X48093625Y32090831D01*
X48142982Y32059378D01*
X48200618Y32049207D01*
X48257760Y32061866D01*
X48305708Y32095430D01*
X48337161Y32144787D01*
X48347332Y32202423D01*
X48334673Y32259565D01*
X48320252Y32285191D01*
X47975300Y32777980D01*
X47978735Y32779294D01*
X48121592Y32850722D01*
X48134185Y32858650D01*
X48137845Y32860165D01*
X48141964Y32863547D01*
X48146478Y32866387D01*
X48149074Y32869381D01*
X48160576Y32878820D01*
X48232005Y32950249D01*
X48241446Y32961754D01*
X48244438Y32964348D01*
X48247276Y32968858D01*
X48250660Y32972980D01*
X48252176Y32976642D01*
X48260103Y32989233D01*
X48331531Y33132091D01*
X48342041Y33159554D01*
X48342422Y33164930D01*
X48344485Y33169908D01*
X48347367Y33199172D01*
X48347367Y33413458D01*
X48344485Y33442722D01*
X48342422Y33447701D01*
X48342041Y33453076D01*
X48331531Y33480539D01*
X48260103Y33623397D01*
X48252174Y33635992D01*
X48250659Y33639651D01*
X48247277Y33643772D01*
X48244438Y33648282D01*
X48241446Y33650877D01*
X48232004Y33662382D01*
X48213975Y33680411D01*
X48477117Y33680411D01*
X48483637Y33651738D01*
X48983637Y32151738D01*
X48995625Y32124887D01*
X49002647Y32116790D01*
X49007440Y32107205D01*
X49021646Y32094884D01*
X49033972Y32080672D01*
X49043559Y32075879D01*
X49051654Y32068858D01*
X49069496Y32062911D01*
X49086320Y32054499D01*
X49097010Y32053740D01*
X49107178Y32050350D01*
X49125934Y32051683D01*
X49144700Y32050349D01*
X49154870Y32053740D01*
X49165559Y32054499D01*
X49182380Y32062910D01*
X49200224Y32068858D01*
X49208320Y32075881D01*
X49217906Y32080673D01*
X49230229Y32094882D01*
X49244438Y32107205D01*
X49249230Y32116791D01*
X49256253Y32124887D01*
X49268241Y32151738D01*
X49617386Y33199172D01*
X49904510Y33199172D01*
X49904510Y32699172D01*
X49905012Y32694069D01*
X49904687Y32691881D01*
X49906306Y32680931D01*
X49907392Y32669908D01*
X49908239Y32667864D01*
X49908989Y32662792D01*
X49980417Y32377078D01*
X49990310Y32349387D01*
X49996949Y32340427D01*
X50001217Y32330123D01*
X50019872Y32307392D01*
X50162730Y32164534D01*
X50174234Y32155093D01*
X50176829Y32152101D01*
X50181338Y32149263D01*
X50185461Y32145879D01*
X50189122Y32144363D01*
X50201714Y32136436D01*
X50344572Y32065008D01*
X50372035Y32054498D01*
X50377410Y32054117D01*
X50382389Y32052054D01*
X50411653Y32049172D01*
X50697367Y32049172D01*
X50726631Y32052054D01*
X50731609Y32054117D01*
X50736985Y32054498D01*
X50764449Y32065008D01*
X50907306Y32136436D01*
X50919897Y32144363D01*
X50923560Y32145879D01*
X50927682Y32149263D01*
X50932192Y32152101D01*
X50934787Y32155094D01*
X50946290Y32164534D01*
X51089147Y32307392D01*
X51107802Y32330123D01*
X51112068Y32340425D01*
X51118709Y32349386D01*
X51128602Y32377077D01*
X51200031Y32662791D01*
X51200781Y32667864D01*
X51201628Y32669908D01*
X51202713Y32680928D01*
X51204333Y32691880D01*
X51204007Y32694069D01*
X51204510Y32699172D01*
X51204510Y33199172D01*
X51204007Y33204276D01*
X51204333Y33206464D01*
X51202713Y33217417D01*
X51201628Y33228436D01*
X51200781Y33230481D01*
X51200031Y33235553D01*
X51128602Y33521267D01*
X51118709Y33548958D01*
X51112069Y33557919D01*
X51107802Y33568222D01*
X51089147Y33590952D01*
X50946290Y33733809D01*
X50934788Y33743249D01*
X50932192Y33746242D01*
X50927678Y33749083D01*
X50923559Y33752464D01*
X50919899Y33753980D01*
X50907306Y33761907D01*
X50764449Y33833336D01*
X50736986Y33843845D01*
X50731611Y33844227D01*
X50726631Y33846290D01*
X50697367Y33849172D01*
X50411653Y33849172D01*
X50382389Y33846290D01*
X50377408Y33844227D01*
X50372034Y33843845D01*
X50344570Y33833336D01*
X50201714Y33761907D01*
X50189120Y33753980D01*
X50185461Y33752464D01*
X50181341Y33749083D01*
X50176828Y33746242D01*
X50174231Y33743248D01*
X50162730Y33733809D01*
X50019872Y33590952D01*
X50001217Y33568222D01*
X49996948Y33557917D01*
X49990310Y33548957D01*
X49980417Y33521266D01*
X49908989Y33235552D01*
X49908239Y33230481D01*
X49907392Y33228436D01*
X49906306Y33217414D01*
X49904687Y33206463D01*
X49905012Y33204276D01*
X49904510Y33199172D01*
X49617386Y33199172D01*
X49768242Y33651738D01*
X49774762Y33680412D01*
X49770612Y33738792D01*
X49744438Y33791139D01*
X49700224Y33829486D01*
X49644700Y33847995D01*
X49586320Y33843845D01*
X49533972Y33817672D01*
X49495625Y33773457D01*
X49483637Y33746606D01*
X49125939Y32673514D01*
X48768241Y33746606D01*
X48756253Y33773457D01*
X48717906Y33817671D01*
X48665559Y33843845D01*
X48607178Y33847994D01*
X48551654Y33829486D01*
X48507440Y33791139D01*
X48481266Y33738792D01*
X48477117Y33680411D01*
X48213975Y33680411D01*
X48160575Y33733810D01*
X48149075Y33743248D01*
X48146478Y33746242D01*
X48141961Y33749085D01*
X48137844Y33752464D01*
X48134187Y33753979D01*
X48121592Y33761907D01*
X47978735Y33833336D01*
X47951272Y33843845D01*
X47945897Y33844227D01*
X47940917Y33846290D01*
X47911653Y33849172D01*
X47340224Y33849172D01*
X47310960Y33846290D01*
X47256888Y33823892D01*
X47215504Y33782508D01*
X47193106Y33728436D01*
X47190224Y33699172D01*
X46844485Y33699172D01*
X46844485Y33728436D01*
X46822087Y33782508D01*
X46780703Y33823892D01*
X46726631Y33846290D01*
X46697367Y33849172D01*
X45983081Y33849172D01*
X45953817Y33846290D01*
X45899745Y33823892D01*
X45858361Y33782508D01*
X45835963Y33728436D01*
X45833081Y33699172D01*
X45468993Y33699172D01*
X45458724Y33719710D01*
X45414510Y33758057D01*
X45387659Y33770046D01*
X45173373Y33841474D01*
X45158865Y33844773D01*
X45155203Y33846290D01*
X45149894Y33846813D01*
X45144700Y33847994D01*
X45140750Y33847714D01*
X45125939Y33849172D01*
X44768796Y33849172D01*
X44739532Y33846290D01*
X44734551Y33844227D01*
X44729177Y33843845D01*
X44701713Y33833336D01*
X44558857Y33761907D01*
X44546263Y33753980D01*
X44542604Y33752464D01*
X44538483Y33749083D01*
X44533971Y33746242D01*
X44531374Y33743249D01*
X44519874Y33733810D01*
X44448445Y33662382D01*
X44439005Y33650880D01*
X44436011Y33648283D01*
X44433169Y33643769D01*
X44429790Y33639651D01*
X44428274Y33635993D01*
X44420346Y33623397D01*
X44348918Y33480540D01*
X44338408Y33453076D01*
X44338026Y33447701D01*
X44335964Y33442722D01*
X44333082Y33413458D01*
X44166415Y33413458D01*
X44166415Y34015839D01*
X51371177Y34015839D01*
X51371177Y31882505D01*
G37*
D11*
%TO.P,J1,1,Pin_1*%
%TO.N,unconnected-(J1-Pin_1-Pad1)*%
X27940000Y2540000D03*
D12*
%TO.P,J1,2,Pin_2*%
%TO.N,/IOREF*%
X30480000Y2540000D03*
%TO.P,J1,3,Pin_3*%
%TO.N,/~{RESET}*%
X33020000Y2540000D03*
%TO.P,J1,4,Pin_4*%
%TO.N,+3V3*%
X35560000Y2540000D03*
%TO.P,J1,5,Pin_5*%
%TO.N,+5V*%
X38100000Y2540000D03*
%TO.P,J1,6,Pin_6*%
%TO.N,GND*%
X40640000Y2540000D03*
%TO.P,J1,7,Pin_7*%
X43180000Y2540000D03*
%TO.P,J1,8,Pin_8*%
%TO.N,VCC*%
X45720000Y2540000D03*
%TD*%
D11*
%TO.P,J3,1,Pin_1*%
%TO.N,/A0*%
X50800000Y2540000D03*
D12*
%TO.P,J3,2,Pin_2*%
%TO.N,/A1*%
X53340000Y2540000D03*
%TO.P,J3,3,Pin_3*%
%TO.N,/A2*%
X55880000Y2540000D03*
%TO.P,J3,4,Pin_4*%
%TO.N,/A3*%
X58420000Y2540000D03*
%TO.P,J3,5,Pin_5*%
%TO.N,/A4*%
X60960000Y2540000D03*
%TO.P,J3,6,Pin_6*%
%TO.N,/A5*%
X63500000Y2540000D03*
%TO.P,J3,7,Pin_7*%
%TO.N,/A6*%
X66040000Y2540000D03*
%TO.P,J3,8,Pin_8*%
%TO.N,/A7*%
X68580000Y2540000D03*
%TD*%
D11*
%TO.P,J2,1,Pin_1*%
%TO.N,/SCL{slash}21*%
X18796000Y50800000D03*
D12*
%TO.P,J2,2,Pin_2*%
%TO.N,/SDA{slash}20*%
X21336000Y50800000D03*
%TO.P,J2,3,Pin_3*%
%TO.N,/AREF*%
X23876000Y50800000D03*
%TO.P,J2,4,Pin_4*%
%TO.N,GND*%
X26416000Y50800000D03*
%TO.P,J2,5,Pin_5*%
%TO.N,/\u002A13*%
X28956000Y50800000D03*
%TO.P,J2,6,Pin_6*%
%TO.N,/\u002A12*%
X31496000Y50800000D03*
%TO.P,J2,7,Pin_7*%
%TO.N,/\u002A11*%
X34036000Y50800000D03*
%TO.P,J2,8,Pin_8*%
%TO.N,/\u002A10*%
X36576000Y50800000D03*
%TO.P,J2,9,Pin_9*%
%TO.N,/\u002A9*%
X39116000Y50800000D03*
%TO.P,J2,10,Pin_10*%
%TO.N,/\u002A8*%
X41656000Y50800000D03*
%TD*%
D11*
%TO.P,J4,1,Pin_1*%
%TO.N,/\u002A7*%
X45720000Y50800000D03*
D12*
%TO.P,J4,2,Pin_2*%
%TO.N,/\u002A6*%
X48260000Y50800000D03*
%TO.P,J4,3,Pin_3*%
%TO.N,/\u002A5*%
X50800000Y50800000D03*
%TO.P,J4,4,Pin_4*%
%TO.N,/\u002A4*%
X53340000Y50800000D03*
%TO.P,J4,5,Pin_5*%
%TO.N,/\u002A3*%
X55880000Y50800000D03*
%TO.P,J4,6,Pin_6*%
%TO.N,/\u002A2*%
X58420000Y50800000D03*
%TO.P,J4,7,Pin_7*%
%TO.N,/TX0{slash}1*%
X60960000Y50800000D03*
%TO.P,J4,8,Pin_8*%
%TO.N,/RX0{slash}0*%
X63500000Y50800000D03*
%TD*%
D13*
%TO.P,J9,1,Pin_1*%
%TO.N,GND*%
X46000000Y42500000D03*
%TO.P,J9,2,Pin_2*%
%TO.N,+5V*%
X49310000Y39960000D03*
%TO.P,J9,3,Pin_3*%
%TO.N,/\u002A7*%
X46000000Y37420000D03*
%TD*%
D14*
%TO.P,C1,1*%
%TO.N,+5V*%
X57200000Y19700000D03*
%TO.P,C1,2*%
%TO.N,GND*%
X57200000Y24100000D03*
%TD*%
D15*
%TO.P,R1,1*%
%TO.N,+5V*%
X22900000Y7787500D03*
%TO.P,R1,2*%
%TO.N,/A0*%
X22900000Y9612500D03*
%TD*%
D13*
%TO.P,J8,1,Pin_1*%
%TO.N,/\u002A5*%
X46190000Y24540000D03*
%TO.P,J8,2,Pin_2*%
%TO.N,GND*%
X49500000Y22000000D03*
%TO.P,J8,3,Pin_3*%
%TO.N,+5V*%
X46190000Y19460000D03*
%TD*%
%TO.P,J11,1,Pin_1*%
%TO.N,/\u002A10*%
X31345000Y24540000D03*
%TO.P,J11,2,Pin_2*%
%TO.N,GND*%
X34655000Y22000000D03*
%TO.P,J11,3,Pin_3*%
%TO.N,+5V*%
X31345000Y19460000D03*
%TD*%
D16*
%TO.P,SW1,1,1*%
%TO.N,/A0*%
X18300000Y20400000D03*
X24800000Y20400000D03*
%TO.P,SW1,2,2*%
%TO.N,GND*%
X18300000Y15900000D03*
X24800000Y15900000D03*
%TD*%
D13*
%TO.P,J10,1,Pin_1*%
%TO.N,/\u002A8*%
X31345000Y42540000D03*
%TO.P,J10,2,Pin_2*%
%TO.N,GND*%
X34655000Y40000000D03*
%TO.P,J10,3,Pin_3*%
%TO.N,+5V*%
X31345000Y37460000D03*
%TD*%
D17*
%TO.N,+5V*%
X39000000Y34800000D02*
X39950000Y35750000D01*
X39950000Y35750000D02*
X48050000Y35750000D01*
X48050000Y35750000D02*
X49310000Y37010000D01*
X49310000Y37010000D02*
X49310000Y39960000D01*
%TO.N,/\u002A10*%
X27550000Y43750000D02*
X30800000Y47000000D01*
X36576000Y49576000D02*
X36576000Y50800000D01*
X31345000Y27205000D02*
X27550000Y31000000D01*
X27550000Y31000000D02*
X27550000Y43750000D01*
X31345000Y24540000D02*
X31345000Y27205000D01*
X30800000Y47000000D02*
X34000000Y47000000D01*
X34000000Y47000000D02*
X36576000Y49576000D01*
%TO.N,+5V*%
X22937500Y7750000D02*
X35300000Y7750000D01*
X22900000Y7787500D02*
X22937500Y7750000D01*
X38100000Y4950000D02*
X38100000Y2540000D01*
X15100000Y14100000D02*
X21412500Y7787500D01*
X31345000Y20955000D02*
X28300000Y24000000D01*
X39000000Y19460000D02*
X39000000Y32000000D01*
X31345000Y19460000D02*
X31345000Y20955000D01*
X56960000Y19460000D02*
X57200000Y19700000D01*
X39000000Y34800000D02*
X36340000Y37460000D01*
X31345000Y19460000D02*
X39000000Y19460000D01*
X21412500Y7787500D02*
X22900000Y7787500D01*
X39000000Y19460000D02*
X46190000Y19460000D01*
X35300000Y7750000D02*
X38100000Y4950000D01*
X15100000Y22100000D02*
X15100000Y14100000D01*
X28300000Y24000000D02*
X17000000Y24000000D01*
X36340000Y37460000D02*
X31345000Y37460000D01*
X46190000Y19460000D02*
X56960000Y19460000D01*
X39000000Y32000000D02*
X39000000Y34800000D01*
X17000000Y24000000D02*
X15100000Y22100000D01*
%TO.N,/A0*%
X46187500Y9612500D02*
X50800000Y5000000D01*
X22900000Y9612500D02*
X46187500Y9612500D01*
X50800000Y5000000D02*
X50800000Y2540000D01*
X21550000Y17150000D02*
X18300000Y20400000D01*
X21550000Y10962500D02*
X22900000Y9612500D01*
X21550000Y17150000D02*
X24800000Y20400000D01*
X21550000Y17150000D02*
X21550000Y10962500D01*
%TO.N,/\u002A8*%
X41656000Y48106000D02*
X41656000Y50800000D01*
X36090000Y42540000D02*
X41656000Y48106000D01*
X31345000Y42540000D02*
X36090000Y42540000D01*
%TO.N,/\u002A7*%
X46000000Y37420000D02*
X42500000Y40920000D01*
X42500000Y40920000D02*
X42500000Y44900000D01*
X45720000Y48120000D02*
X45720000Y50800000D01*
X42500000Y44900000D02*
X45720000Y48120000D01*
%TO.N,/\u002A5*%
X50800000Y48500000D02*
X53500000Y45800000D01*
X53500000Y31850000D02*
X46190000Y24540000D01*
X50800000Y50800000D02*
X50800000Y48500000D01*
X53500000Y45800000D02*
X53500000Y31850000D01*
%TD*%
%TA.AperFunction,Conductor*%
%TO.N,GND*%
G36*
X70502777Y53424345D02*
G01*
X70821893Y53406423D01*
X70832916Y53405181D01*
X71145291Y53352107D01*
X71156085Y53349644D01*
X71460564Y53261925D01*
X71471035Y53258261D01*
X71505366Y53244040D01*
X71763758Y53137010D01*
X71773760Y53132193D01*
X72051061Y52978935D01*
X72060462Y52973028D01*
X72318860Y52789684D01*
X72327539Y52782763D01*
X72420775Y52699443D01*
X72563796Y52571632D01*
X72571631Y52563797D01*
X72683933Y52438131D01*
X72782762Y52327540D01*
X72789683Y52318861D01*
X72973027Y52060463D01*
X72978934Y52051062D01*
X73132192Y51773761D01*
X73137009Y51763759D01*
X73258258Y51471040D01*
X73261925Y51460561D01*
X73349639Y51156101D01*
X73352109Y51145277D01*
X73405179Y50832922D01*
X73406422Y50821890D01*
X73424344Y50502778D01*
X73424500Y50497227D01*
X73424500Y3002774D01*
X73424344Y2997223D01*
X73406422Y2678111D01*
X73405179Y2667079D01*
X73352109Y2354724D01*
X73349639Y2343900D01*
X73261925Y2039440D01*
X73258258Y2028961D01*
X73137009Y1736242D01*
X73132192Y1726240D01*
X72978934Y1448939D01*
X72973027Y1439538D01*
X72789683Y1181140D01*
X72782762Y1172461D01*
X72571639Y936212D01*
X72563788Y928361D01*
X72327539Y717238D01*
X72318860Y710317D01*
X72060462Y526973D01*
X72051061Y521066D01*
X71773760Y367808D01*
X71763758Y362991D01*
X71471039Y241742D01*
X71460560Y238075D01*
X71156100Y150361D01*
X71145276Y147891D01*
X70832921Y94821D01*
X70821889Y93578D01*
X70502778Y75656D01*
X70497227Y75500D01*
X14324091Y75500D01*
X14318541Y75656D01*
X14295439Y76954D01*
X13999428Y93576D01*
X13988397Y94819D01*
X13676037Y147889D01*
X13665213Y150359D01*
X13360753Y238070D01*
X13350274Y241737D01*
X13057557Y362983D01*
X13047558Y367798D01*
X12929808Y432875D01*
X12770251Y521058D01*
X12760851Y526964D01*
X12502447Y710310D01*
X12493767Y717232D01*
X12493760Y717238D01*
X12257510Y928362D01*
X12249675Y936197D01*
X12038536Y1172461D01*
X12031624Y1181129D01*
X11848276Y1439532D01*
X11842369Y1448933D01*
X11689109Y1726235D01*
X11684292Y1736237D01*
X11679305Y1748277D01*
X11563041Y2028961D01*
X11559376Y2039436D01*
X11559214Y2040000D01*
X11471657Y2343912D01*
X11469194Y2354706D01*
X11416308Y2665966D01*
X12369500Y2665966D01*
X12369500Y2414035D01*
X12408908Y2165220D01*
X12486759Y1925621D01*
X12588348Y1726240D01*
X12601130Y1701155D01*
X12749207Y1497344D01*
X12927344Y1319207D01*
X13131155Y1171130D01*
X13355621Y1056759D01*
X13595215Y978910D01*
X13595216Y978910D01*
X13595219Y978909D01*
X13844035Y939500D01*
X13844038Y939500D01*
X14095965Y939500D01*
X14344780Y978909D01*
X14344781Y978910D01*
X14344785Y978910D01*
X14584379Y1056759D01*
X14808845Y1171130D01*
X15012656Y1319207D01*
X15190793Y1497344D01*
X15338870Y1701155D01*
X15453241Y1925621D01*
X15531090Y2165215D01*
X15537060Y2202906D01*
X15570500Y2414035D01*
X15570500Y2665966D01*
X15531091Y2914781D01*
X15522865Y2940099D01*
X15453241Y3154379D01*
X15338870Y3378845D01*
X15316418Y3409747D01*
X26889500Y3409747D01*
X26889500Y1670254D01*
X26889501Y1670242D01*
X26901132Y1611773D01*
X26901134Y1611767D01*
X26907770Y1601836D01*
X26945448Y1545448D01*
X27011769Y1501133D01*
X27056231Y1492289D01*
X27070241Y1489502D01*
X27070246Y1489502D01*
X27070252Y1489500D01*
X27070253Y1489500D01*
X28809747Y1489500D01*
X28809748Y1489500D01*
X28868231Y1501133D01*
X28934552Y1545448D01*
X28978867Y1611769D01*
X28990500Y1670252D01*
X28990500Y2643468D01*
X29429500Y2643468D01*
X29429500Y2436533D01*
X29469869Y2233582D01*
X29549058Y2042403D01*
X29646666Y1896322D01*
X29664023Y1870345D01*
X29810345Y1724023D01*
X29982402Y1609059D01*
X30173580Y1529870D01*
X30376535Y1489500D01*
X30376536Y1489500D01*
X30583464Y1489500D01*
X30583465Y1489500D01*
X30786420Y1529870D01*
X30977598Y1609059D01*
X31149655Y1724023D01*
X31295977Y1870345D01*
X31410941Y2042402D01*
X31490130Y2233580D01*
X31530500Y2436535D01*
X31530500Y2643465D01*
X31530499Y2643468D01*
X31969500Y2643468D01*
X31969500Y2436533D01*
X32009869Y2233582D01*
X32089058Y2042403D01*
X32186666Y1896322D01*
X32204023Y1870345D01*
X32350345Y1724023D01*
X32522402Y1609059D01*
X32713580Y1529870D01*
X32916535Y1489500D01*
X32916536Y1489500D01*
X33123464Y1489500D01*
X33123465Y1489500D01*
X33326420Y1529870D01*
X33517598Y1609059D01*
X33689655Y1724023D01*
X33835977Y1870345D01*
X33950941Y2042402D01*
X34030130Y2233580D01*
X34070500Y2436535D01*
X34070500Y2643465D01*
X34070499Y2643468D01*
X34509500Y2643468D01*
X34509500Y2436533D01*
X34549869Y2233582D01*
X34629058Y2042403D01*
X34726666Y1896322D01*
X34744023Y1870345D01*
X34890345Y1724023D01*
X35062402Y1609059D01*
X35253580Y1529870D01*
X35456535Y1489500D01*
X35456536Y1489500D01*
X35663464Y1489500D01*
X35663465Y1489500D01*
X35866420Y1529870D01*
X36057598Y1609059D01*
X36229655Y1724023D01*
X36375977Y1870345D01*
X36490941Y2042402D01*
X36570130Y2233580D01*
X36610500Y2436535D01*
X36610500Y2643465D01*
X36570130Y2846420D01*
X36490941Y3037598D01*
X36375977Y3209655D01*
X36229655Y3355977D01*
X36229651Y3355980D01*
X36057597Y3470942D01*
X35866418Y3550131D01*
X35663467Y3590500D01*
X35663465Y3590500D01*
X35456535Y3590500D01*
X35456532Y3590500D01*
X35253581Y3550131D01*
X35062402Y3470942D01*
X34890348Y3355980D01*
X34744020Y3209652D01*
X34629058Y3037598D01*
X34549869Y2846419D01*
X34509500Y2643468D01*
X34070499Y2643468D01*
X34030130Y2846420D01*
X33950941Y3037598D01*
X33835977Y3209655D01*
X33689655Y3355977D01*
X33689651Y3355980D01*
X33517597Y3470942D01*
X33326418Y3550131D01*
X33123467Y3590500D01*
X33123465Y3590500D01*
X32916535Y3590500D01*
X32916532Y3590500D01*
X32713581Y3550131D01*
X32522402Y3470942D01*
X32350348Y3355980D01*
X32204020Y3209652D01*
X32089058Y3037598D01*
X32009869Y2846419D01*
X31969500Y2643468D01*
X31530499Y2643468D01*
X31490130Y2846420D01*
X31410941Y3037598D01*
X31295977Y3209655D01*
X31149655Y3355977D01*
X31149651Y3355980D01*
X30977597Y3470942D01*
X30786418Y3550131D01*
X30583467Y3590500D01*
X30583465Y3590500D01*
X30376535Y3590500D01*
X30376532Y3590500D01*
X30173581Y3550131D01*
X29982402Y3470942D01*
X29810348Y3355980D01*
X29664020Y3209652D01*
X29549058Y3037598D01*
X29469869Y2846419D01*
X29429500Y2643468D01*
X28990500Y2643468D01*
X28990500Y3409748D01*
X28978867Y3468231D01*
X28934552Y3534552D01*
X28934548Y3534555D01*
X28868233Y3578866D01*
X28868231Y3578867D01*
X28868228Y3578868D01*
X28868227Y3578868D01*
X28809758Y3590499D01*
X28809748Y3590500D01*
X27070252Y3590500D01*
X27070251Y3590500D01*
X27070241Y3590499D01*
X27011772Y3578868D01*
X27011766Y3578866D01*
X26945451Y3534555D01*
X26945445Y3534549D01*
X26901134Y3468234D01*
X26901132Y3468228D01*
X26889501Y3409759D01*
X26889500Y3409747D01*
X15316418Y3409747D01*
X15190793Y3582656D01*
X15012656Y3760793D01*
X14808845Y3908870D01*
X14808844Y3908871D01*
X14808842Y3908872D01*
X14584379Y4023241D01*
X14344780Y4101092D01*
X14095965Y4140500D01*
X14095962Y4140500D01*
X13844038Y4140500D01*
X13844035Y4140500D01*
X13595219Y4101092D01*
X13355620Y4023241D01*
X13131157Y3908872D01*
X12927345Y3760794D01*
X12749206Y3582655D01*
X12601128Y3378843D01*
X12486759Y3154380D01*
X12408908Y2914781D01*
X12369500Y2665966D01*
X11416308Y2665966D01*
X11416117Y2667093D01*
X11414877Y2678111D01*
X11410771Y2751218D01*
X11396976Y2996867D01*
X11396820Y3002418D01*
X11396820Y22165892D01*
X14599500Y22165892D01*
X14599500Y14165892D01*
X14599500Y14034108D01*
X14629579Y13921849D01*
X14633609Y13906810D01*
X14699496Y13792691D01*
X14699498Y13792689D01*
X14699500Y13792686D01*
X21105186Y7387000D01*
X21105188Y7386999D01*
X21105190Y7386997D01*
X21219310Y7321110D01*
X21219308Y7321110D01*
X21219312Y7321109D01*
X21219314Y7321108D01*
X21346607Y7287000D01*
X21346608Y7287000D01*
X21890903Y7287000D01*
X21916934Y7283517D01*
X22509643Y7121973D01*
X22526646Y7119296D01*
X22543938Y7114947D01*
X22580151Y7102275D01*
X22607441Y7099716D01*
X22609733Y7099501D01*
X22609738Y7099500D01*
X22609744Y7099500D01*
X23190262Y7099500D01*
X23190265Y7099501D01*
X23219849Y7102275D01*
X23250961Y7113163D01*
X23273879Y7117201D01*
X23273777Y7118124D01*
X23278606Y7118662D01*
X23278613Y7118662D01*
X23503783Y7166449D01*
X23884963Y7247343D01*
X23905515Y7249500D01*
X35051678Y7249500D01*
X35109869Y7230593D01*
X35121682Y7220504D01*
X37570504Y4771682D01*
X37598281Y4717165D01*
X37599500Y4701678D01*
X37599500Y4289859D01*
X37593895Y4257021D01*
X37144093Y2977715D01*
X37142162Y2972668D01*
X37089870Y2846422D01*
X37089868Y2846413D01*
X37080735Y2800507D01*
X37080736Y2800506D01*
X37079365Y2793616D01*
X37076930Y2786687D01*
X37072587Y2772776D01*
X37072157Y2771205D01*
X37071438Y2768510D01*
X37070933Y2751223D01*
X37069315Y2743087D01*
X37049500Y2643470D01*
X37049500Y2436533D01*
X37089869Y2233582D01*
X37169058Y2042403D01*
X37266666Y1896322D01*
X37284023Y1870345D01*
X37430345Y1724023D01*
X37602402Y1609059D01*
X37793580Y1529870D01*
X37996535Y1489500D01*
X37996536Y1489500D01*
X38203464Y1489500D01*
X38203465Y1489500D01*
X38406420Y1529870D01*
X38597598Y1609059D01*
X38769655Y1724023D01*
X38915977Y1870345D01*
X39030941Y2042402D01*
X39110130Y2233580D01*
X39150500Y2436535D01*
X39150500Y2643419D01*
X39590000Y2643419D01*
X39590000Y2436582D01*
X39630349Y2233728D01*
X39709501Y2042640D01*
X39709505Y2042631D01*
X39741377Y1994933D01*
X40157036Y2410593D01*
X40174075Y2347007D01*
X40239901Y2232993D01*
X40332993Y2139901D01*
X40447007Y2074075D01*
X40510590Y2057038D01*
X40094931Y1641379D01*
X40142639Y1609502D01*
X40333727Y1530350D01*
X40536581Y1490001D01*
X40536586Y1490000D01*
X40743414Y1490000D01*
X40743418Y1490001D01*
X40946272Y1530350D01*
X41137359Y1609501D01*
X41185068Y1641379D01*
X40769409Y2057038D01*
X40832993Y2074075D01*
X40947007Y2139901D01*
X41040099Y2232993D01*
X41105925Y2347007D01*
X41122962Y2410591D01*
X41538621Y1994932D01*
X41570499Y2042641D01*
X41649650Y2233728D01*
X41689999Y2436582D01*
X41690000Y2436587D01*
X41690000Y2643414D01*
X41689999Y2643419D01*
X42130000Y2643419D01*
X42130000Y2436582D01*
X42170349Y2233728D01*
X42249501Y2042640D01*
X42249505Y2042631D01*
X42281377Y1994933D01*
X42697036Y2410593D01*
X42714075Y2347007D01*
X42779901Y2232993D01*
X42872993Y2139901D01*
X42987007Y2074075D01*
X43050590Y2057038D01*
X42634931Y1641379D01*
X42682639Y1609502D01*
X42873727Y1530350D01*
X43076581Y1490001D01*
X43076586Y1490000D01*
X43283414Y1490000D01*
X43283418Y1490001D01*
X43486272Y1530350D01*
X43677359Y1609501D01*
X43725068Y1641379D01*
X43309409Y2057038D01*
X43372993Y2074075D01*
X43487007Y2139901D01*
X43580099Y2232993D01*
X43645925Y2347007D01*
X43662962Y2410591D01*
X44078621Y1994932D01*
X44110499Y2042641D01*
X44189650Y2233728D01*
X44229999Y2436582D01*
X44230000Y2436587D01*
X44230000Y2643415D01*
X44229999Y2643418D01*
X44229989Y2643468D01*
X44669500Y2643468D01*
X44669500Y2436533D01*
X44709869Y2233582D01*
X44789058Y2042403D01*
X44886666Y1896322D01*
X44904023Y1870345D01*
X45050345Y1724023D01*
X45222402Y1609059D01*
X45413580Y1529870D01*
X45616535Y1489500D01*
X45616536Y1489500D01*
X45823464Y1489500D01*
X45823465Y1489500D01*
X46026420Y1529870D01*
X46217598Y1609059D01*
X46389655Y1724023D01*
X46535977Y1870345D01*
X46650941Y2042402D01*
X46730130Y2233580D01*
X46770500Y2436535D01*
X46770500Y2643465D01*
X46730130Y2846420D01*
X46650941Y3037598D01*
X46535977Y3209655D01*
X46389655Y3355977D01*
X46389651Y3355980D01*
X46217597Y3470942D01*
X46026418Y3550131D01*
X45823467Y3590500D01*
X45823465Y3590500D01*
X45616535Y3590500D01*
X45616532Y3590500D01*
X45413581Y3550131D01*
X45222402Y3470942D01*
X45050348Y3355980D01*
X44904020Y3209652D01*
X44789058Y3037598D01*
X44709869Y2846419D01*
X44669500Y2643468D01*
X44229989Y2643468D01*
X44189650Y2846273D01*
X44110498Y3037361D01*
X44078621Y3085069D01*
X43662962Y2669410D01*
X43645925Y2732993D01*
X43580099Y2847007D01*
X43487007Y2940099D01*
X43372993Y3005925D01*
X43309407Y3022964D01*
X43725067Y3438623D01*
X43677369Y3470495D01*
X43677360Y3470499D01*
X43486272Y3549651D01*
X43283418Y3590000D01*
X43076581Y3590000D01*
X42873727Y3549651D01*
X42682638Y3470499D01*
X42634931Y3438623D01*
X43050591Y3022963D01*
X42987007Y3005925D01*
X42872993Y2940099D01*
X42779901Y2847007D01*
X42714075Y2732993D01*
X42697037Y2669409D01*
X42281377Y3085069D01*
X42249501Y3037362D01*
X42170349Y2846273D01*
X42130000Y2643419D01*
X41689999Y2643419D01*
X41649650Y2846273D01*
X41570498Y3037361D01*
X41538621Y3085069D01*
X41122962Y2669410D01*
X41105925Y2732993D01*
X41040099Y2847007D01*
X40947007Y2940099D01*
X40832993Y3005925D01*
X40769407Y3022964D01*
X41185067Y3438623D01*
X41137369Y3470495D01*
X41137360Y3470499D01*
X40946272Y3549651D01*
X40743418Y3590000D01*
X40536581Y3590000D01*
X40333727Y3549651D01*
X40142638Y3470499D01*
X40094931Y3438623D01*
X40510591Y3022963D01*
X40447007Y3005925D01*
X40332993Y2940099D01*
X40239901Y2847007D01*
X40174075Y2732993D01*
X40157037Y2669409D01*
X39741377Y3085069D01*
X39709501Y3037362D01*
X39630349Y2846273D01*
X39590000Y2643419D01*
X39150500Y2643419D01*
X39150500Y2643465D01*
X39126215Y2765550D01*
X39126137Y2765958D01*
X39126143Y2766012D01*
X39125358Y2770618D01*
X39125050Y2772776D01*
X39123064Y2786701D01*
X39122967Y2786975D01*
X39119263Y2800504D01*
X39119263Y2800506D01*
X39110130Y2846420D01*
X39057821Y2972701D01*
X39055899Y2977725D01*
X38606105Y4257021D01*
X38600500Y4289858D01*
X38600500Y5015891D01*
X38587103Y5065891D01*
X38566392Y5143186D01*
X38566390Y5143189D01*
X38566390Y5143191D01*
X38500503Y5257310D01*
X38500499Y5257315D01*
X38407314Y5350501D01*
X38407314Y5350500D01*
X35607314Y8150500D01*
X35607311Y8150502D01*
X35607310Y8150503D01*
X35607309Y8150504D01*
X35493189Y8216391D01*
X35493191Y8216391D01*
X35426053Y8234380D01*
X35365892Y8250500D01*
X35365890Y8250500D01*
X23913788Y8250500D01*
X23883041Y8255396D01*
X23311450Y8442152D01*
X23311440Y8442154D01*
X23308113Y8442826D01*
X23295022Y8446421D01*
X23219853Y8472724D01*
X23219844Y8472726D01*
X23190266Y8475500D01*
X23190256Y8475500D01*
X22609744Y8475500D01*
X22609733Y8475500D01*
X22580156Y8472726D01*
X22580153Y8472726D01*
X22580151Y8472725D01*
X22539940Y8458656D01*
X22514152Y8453343D01*
X22509643Y8453028D01*
X22111640Y8344552D01*
X21916931Y8291484D01*
X21890900Y8288000D01*
X21660822Y8288000D01*
X21602631Y8306907D01*
X21590818Y8316996D01*
X15629496Y14278318D01*
X15601719Y14332835D01*
X15600500Y14348322D01*
X15600500Y15994446D01*
X17100000Y15994446D01*
X17100000Y15805555D01*
X17129546Y15619004D01*
X17187914Y15439365D01*
X17273666Y15271066D01*
X17292115Y15245672D01*
X17776211Y15729769D01*
X17787482Y15687708D01*
X17859890Y15562292D01*
X17962292Y15459890D01*
X18087708Y15387482D01*
X18129765Y15376213D01*
X17645670Y14892117D01*
X17671059Y14873670D01*
X17671063Y14873668D01*
X17839364Y14787915D01*
X18019003Y14729547D01*
X18205555Y14700000D01*
X18394445Y14700000D01*
X18580996Y14729547D01*
X18760635Y14787915D01*
X18928939Y14873671D01*
X18954328Y14892117D01*
X18470232Y15376213D01*
X18512292Y15387482D01*
X18637708Y15459890D01*
X18740110Y15562292D01*
X18812518Y15687708D01*
X18823787Y15729768D01*
X19307883Y15245672D01*
X19326329Y15271061D01*
X19412085Y15439365D01*
X19470453Y15619004D01*
X19500000Y15805555D01*
X19500000Y15994446D01*
X19470453Y16180997D01*
X19412085Y16360636D01*
X19326332Y16528937D01*
X19326330Y16528941D01*
X19307883Y16554330D01*
X18823787Y16070235D01*
X18812518Y16112292D01*
X18740110Y16237708D01*
X18637708Y16340110D01*
X18512292Y16412518D01*
X18470231Y16423789D01*
X18954328Y16907885D01*
X18928934Y16926334D01*
X18760635Y17012086D01*
X18580996Y17070454D01*
X18394445Y17100000D01*
X18205555Y17100000D01*
X18019003Y17070454D01*
X17839364Y17012086D01*
X17671063Y16926332D01*
X17645670Y16907885D01*
X18129767Y16423788D01*
X18087708Y16412518D01*
X17962292Y16340110D01*
X17859890Y16237708D01*
X17787482Y16112292D01*
X17776212Y16070233D01*
X17292115Y16554330D01*
X17273668Y16528937D01*
X17187914Y16360636D01*
X17129546Y16180997D01*
X17100000Y15994446D01*
X15600500Y15994446D01*
X15600500Y20494485D01*
X17099500Y20494485D01*
X17099500Y20305516D01*
X17129058Y20118887D01*
X17180499Y19960571D01*
X17187453Y19939168D01*
X17273240Y19770801D01*
X17384310Y19617927D01*
X17517927Y19484310D01*
X17670801Y19373240D01*
X17839168Y19287453D01*
X17943522Y19253547D01*
X17953389Y19249747D01*
X19366111Y18616890D01*
X19395641Y18596545D01*
X21020504Y16971682D01*
X21048281Y16917165D01*
X21049500Y16901679D01*
X21049500Y11028392D01*
X21049500Y10896608D01*
X21079579Y10784349D01*
X21083609Y10769310D01*
X21149496Y10655191D01*
X21149498Y10655189D01*
X21149500Y10655186D01*
X21487983Y10316704D01*
X21760709Y10043978D01*
X21773278Y10028589D01*
X21775416Y10025356D01*
X21775418Y10025352D01*
X22208073Y9371214D01*
X22224500Y9316599D01*
X22224500Y9309734D01*
X22227274Y9280156D01*
X22227276Y9280148D01*
X22270884Y9155524D01*
X22316960Y9093093D01*
X22349289Y9049289D01*
X22349292Y9049287D01*
X22349293Y9049286D01*
X22455523Y8970885D01*
X22455524Y8970885D01*
X22455525Y8970884D01*
X22580151Y8927275D01*
X22607441Y8924716D01*
X22609733Y8924501D01*
X22609738Y8924500D01*
X22609744Y8924500D01*
X23190262Y8924500D01*
X23190265Y8924501D01*
X23219849Y8927275D01*
X23260057Y8941345D01*
X23285852Y8946659D01*
X23290356Y8946973D01*
X23883065Y9108517D01*
X23909097Y9112000D01*
X45939178Y9112000D01*
X45997369Y9093093D01*
X46009182Y9083004D01*
X50270504Y4821682D01*
X50298281Y4767165D01*
X50299500Y4751678D01*
X50299500Y4337652D01*
X50283617Y4283870D01*
X49782604Y3509578D01*
X49782599Y3509569D01*
X49772581Y3487776D01*
X49772535Y3487674D01*
X49769035Y3480058D01*
X49761133Y3468231D01*
X49759251Y3458772D01*
X49758062Y3456184D01*
X49757026Y3452683D01*
X49757022Y3452671D01*
X49756187Y3449842D01*
X49756186Y3449840D01*
X49748087Y3403230D01*
X49748087Y3403229D01*
X49748111Y3403093D01*
X49749500Y3386566D01*
X49749500Y1670254D01*
X49749501Y1670242D01*
X49761132Y1611773D01*
X49761134Y1611767D01*
X49767770Y1601836D01*
X49805448Y1545448D01*
X49871769Y1501133D01*
X49916231Y1492289D01*
X49930241Y1489502D01*
X49930246Y1489502D01*
X49930252Y1489500D01*
X49930253Y1489500D01*
X51669747Y1489500D01*
X51669748Y1489500D01*
X51728231Y1501133D01*
X51794552Y1545448D01*
X51838867Y1611769D01*
X51850500Y1670252D01*
X51850500Y2643468D01*
X52289500Y2643468D01*
X52289500Y2436533D01*
X52329869Y2233582D01*
X52409058Y2042403D01*
X52506666Y1896322D01*
X52524023Y1870345D01*
X52670345Y1724023D01*
X52842402Y1609059D01*
X53033580Y1529870D01*
X53236535Y1489500D01*
X53236536Y1489500D01*
X53443464Y1489500D01*
X53443465Y1489500D01*
X53646420Y1529870D01*
X53837598Y1609059D01*
X54009655Y1724023D01*
X54155977Y1870345D01*
X54270941Y2042402D01*
X54350130Y2233580D01*
X54390500Y2436535D01*
X54390500Y2643465D01*
X54390499Y2643468D01*
X54829500Y2643468D01*
X54829500Y2436533D01*
X54869869Y2233582D01*
X54949058Y2042403D01*
X55046666Y1896322D01*
X55064023Y1870345D01*
X55210345Y1724023D01*
X55382402Y1609059D01*
X55573580Y1529870D01*
X55776535Y1489500D01*
X55776536Y1489500D01*
X55983464Y1489500D01*
X55983465Y1489500D01*
X56186420Y1529870D01*
X56377598Y1609059D01*
X56549655Y1724023D01*
X56695977Y1870345D01*
X56810941Y2042402D01*
X56890130Y2233580D01*
X56930500Y2436535D01*
X56930500Y2643465D01*
X56930499Y2643468D01*
X57369500Y2643468D01*
X57369500Y2436533D01*
X57409869Y2233582D01*
X57489058Y2042403D01*
X57586666Y1896322D01*
X57604023Y1870345D01*
X57750345Y1724023D01*
X57922402Y1609059D01*
X58113580Y1529870D01*
X58316535Y1489500D01*
X58316536Y1489500D01*
X58523464Y1489500D01*
X58523465Y1489500D01*
X58726420Y1529870D01*
X58917598Y1609059D01*
X59089655Y1724023D01*
X59235977Y1870345D01*
X59350941Y2042402D01*
X59430130Y2233580D01*
X59470500Y2436535D01*
X59470500Y2643465D01*
X59470499Y2643468D01*
X59909500Y2643468D01*
X59909500Y2436533D01*
X59949869Y2233582D01*
X60029058Y2042403D01*
X60126666Y1896322D01*
X60144023Y1870345D01*
X60290345Y1724023D01*
X60462402Y1609059D01*
X60653580Y1529870D01*
X60856535Y1489500D01*
X60856536Y1489500D01*
X61063464Y1489500D01*
X61063465Y1489500D01*
X61266420Y1529870D01*
X61457598Y1609059D01*
X61629655Y1724023D01*
X61775977Y1870345D01*
X61890941Y2042402D01*
X61970130Y2233580D01*
X62010500Y2436535D01*
X62010500Y2643465D01*
X62010499Y2643468D01*
X62449500Y2643468D01*
X62449500Y2436533D01*
X62489869Y2233582D01*
X62569058Y2042403D01*
X62666666Y1896322D01*
X62684023Y1870345D01*
X62830345Y1724023D01*
X63002402Y1609059D01*
X63193580Y1529870D01*
X63396535Y1489500D01*
X63396536Y1489500D01*
X63603464Y1489500D01*
X63603465Y1489500D01*
X63806420Y1529870D01*
X63997598Y1609059D01*
X64169655Y1724023D01*
X64315977Y1870345D01*
X64430941Y2042402D01*
X64510130Y2233580D01*
X64550500Y2436535D01*
X64550500Y2643465D01*
X64550499Y2643468D01*
X64989500Y2643468D01*
X64989500Y2436533D01*
X65029869Y2233582D01*
X65109058Y2042403D01*
X65206666Y1896322D01*
X65224023Y1870345D01*
X65370345Y1724023D01*
X65542402Y1609059D01*
X65733580Y1529870D01*
X65936535Y1489500D01*
X65936536Y1489500D01*
X66143464Y1489500D01*
X66143465Y1489500D01*
X66346420Y1529870D01*
X66537598Y1609059D01*
X66709655Y1724023D01*
X66855977Y1870345D01*
X66970941Y2042402D01*
X67050130Y2233580D01*
X67090500Y2436535D01*
X67090500Y2643465D01*
X67090499Y2643468D01*
X67529500Y2643468D01*
X67529500Y2436533D01*
X67569869Y2233582D01*
X67649058Y2042403D01*
X67746666Y1896322D01*
X67764023Y1870345D01*
X67910345Y1724023D01*
X68082402Y1609059D01*
X68273580Y1529870D01*
X68476535Y1489500D01*
X68476536Y1489500D01*
X68683464Y1489500D01*
X68683465Y1489500D01*
X68886420Y1529870D01*
X69077598Y1609059D01*
X69249655Y1724023D01*
X69395977Y1870345D01*
X69510941Y2042402D01*
X69590130Y2233580D01*
X69630500Y2436535D01*
X69630500Y2643465D01*
X69590130Y2846420D01*
X69510941Y3037598D01*
X69395977Y3209655D01*
X69249655Y3355977D01*
X69249651Y3355980D01*
X69077597Y3470942D01*
X68886418Y3550131D01*
X68683467Y3590500D01*
X68683465Y3590500D01*
X68476535Y3590500D01*
X68476532Y3590500D01*
X68273581Y3550131D01*
X68082402Y3470942D01*
X67910348Y3355980D01*
X67764020Y3209652D01*
X67649058Y3037598D01*
X67569869Y2846419D01*
X67529500Y2643468D01*
X67090499Y2643468D01*
X67050130Y2846420D01*
X66970941Y3037598D01*
X66855977Y3209655D01*
X66709655Y3355977D01*
X66709651Y3355980D01*
X66537597Y3470942D01*
X66346418Y3550131D01*
X66143467Y3590500D01*
X66143465Y3590500D01*
X65936535Y3590500D01*
X65936532Y3590500D01*
X65733581Y3550131D01*
X65542402Y3470942D01*
X65370348Y3355980D01*
X65224020Y3209652D01*
X65109058Y3037598D01*
X65029869Y2846419D01*
X64989500Y2643468D01*
X64550499Y2643468D01*
X64510130Y2846420D01*
X64430941Y3037598D01*
X64315977Y3209655D01*
X64169655Y3355977D01*
X64169651Y3355980D01*
X63997597Y3470942D01*
X63806418Y3550131D01*
X63603467Y3590500D01*
X63603465Y3590500D01*
X63396535Y3590500D01*
X63396532Y3590500D01*
X63193581Y3550131D01*
X63002402Y3470942D01*
X62830348Y3355980D01*
X62684020Y3209652D01*
X62569058Y3037598D01*
X62489869Y2846419D01*
X62449500Y2643468D01*
X62010499Y2643468D01*
X61970130Y2846420D01*
X61890941Y3037598D01*
X61775977Y3209655D01*
X61629655Y3355977D01*
X61629651Y3355980D01*
X61457597Y3470942D01*
X61266418Y3550131D01*
X61063467Y3590500D01*
X61063465Y3590500D01*
X60856535Y3590500D01*
X60856532Y3590500D01*
X60653581Y3550131D01*
X60462402Y3470942D01*
X60290348Y3355980D01*
X60144020Y3209652D01*
X60029058Y3037598D01*
X59949869Y2846419D01*
X59909500Y2643468D01*
X59470499Y2643468D01*
X59430130Y2846420D01*
X59350941Y3037598D01*
X59235977Y3209655D01*
X59089655Y3355977D01*
X59089651Y3355980D01*
X58917597Y3470942D01*
X58726418Y3550131D01*
X58523467Y3590500D01*
X58523465Y3590500D01*
X58316535Y3590500D01*
X58316532Y3590500D01*
X58113581Y3550131D01*
X57922402Y3470942D01*
X57750348Y3355980D01*
X57604020Y3209652D01*
X57489058Y3037598D01*
X57409869Y2846419D01*
X57369500Y2643468D01*
X56930499Y2643468D01*
X56890130Y2846420D01*
X56810941Y3037598D01*
X56695977Y3209655D01*
X56549655Y3355977D01*
X56549651Y3355980D01*
X56377597Y3470942D01*
X56186418Y3550131D01*
X55983467Y3590500D01*
X55983465Y3590500D01*
X55776535Y3590500D01*
X55776532Y3590500D01*
X55573581Y3550131D01*
X55382402Y3470942D01*
X55210348Y3355980D01*
X55064020Y3209652D01*
X54949058Y3037598D01*
X54869869Y2846419D01*
X54829500Y2643468D01*
X54390499Y2643468D01*
X54350130Y2846420D01*
X54270941Y3037598D01*
X54155977Y3209655D01*
X54009655Y3355977D01*
X54009651Y3355980D01*
X53837597Y3470942D01*
X53646418Y3550131D01*
X53443467Y3590500D01*
X53443465Y3590500D01*
X53236535Y3590500D01*
X53236532Y3590500D01*
X53033581Y3550131D01*
X52842402Y3470942D01*
X52670348Y3355980D01*
X52524020Y3209652D01*
X52409058Y3037598D01*
X52329869Y2846419D01*
X52289500Y2643468D01*
X51850500Y2643468D01*
X51850500Y3409748D01*
X51848357Y3420522D01*
X51848602Y3426240D01*
X51846985Y3435047D01*
X51843944Y3442706D01*
X51841962Y3452671D01*
X51838868Y3468229D01*
X51838867Y3468230D01*
X51838867Y3468231D01*
X51832232Y3478160D01*
X51822533Y3496634D01*
X51817396Y3509573D01*
X51817396Y3509575D01*
X51817394Y3509578D01*
X51817394Y3509579D01*
X51316383Y4283869D01*
X51300500Y4337651D01*
X51300500Y5065891D01*
X51279789Y5143186D01*
X51266392Y5193186D01*
X51266390Y5193189D01*
X51266390Y5193191D01*
X51200503Y5307310D01*
X51200499Y5307315D01*
X51107314Y5400501D01*
X51107314Y5400500D01*
X48761848Y7745966D01*
X64439500Y7745966D01*
X64439500Y7494035D01*
X64478908Y7245220D01*
X64520204Y7118124D01*
X64556759Y7005621D01*
X64671130Y6781155D01*
X64819207Y6577344D01*
X64997344Y6399207D01*
X65201155Y6251130D01*
X65425621Y6136759D01*
X65665215Y6058910D01*
X65665216Y6058910D01*
X65665219Y6058909D01*
X65914035Y6019500D01*
X65914038Y6019500D01*
X66165965Y6019500D01*
X66414780Y6058909D01*
X66414781Y6058910D01*
X66414785Y6058910D01*
X66654379Y6136759D01*
X66878845Y6251130D01*
X67082656Y6399207D01*
X67260793Y6577344D01*
X67408870Y6781155D01*
X67523241Y7005621D01*
X67601090Y7245215D01*
X67601091Y7245220D01*
X67640500Y7494035D01*
X67640500Y7745966D01*
X67601091Y7994781D01*
X67601090Y7994785D01*
X67523241Y8234379D01*
X67408870Y8458845D01*
X67260793Y8662656D01*
X67082656Y8840793D01*
X66878845Y8988870D01*
X66878844Y8988871D01*
X66878842Y8988872D01*
X66654379Y9103241D01*
X66414780Y9181092D01*
X66165965Y9220500D01*
X66165962Y9220500D01*
X65914038Y9220500D01*
X65914035Y9220500D01*
X65665219Y9181092D01*
X65425620Y9103241D01*
X65201157Y8988872D01*
X64997345Y8840794D01*
X64819206Y8662655D01*
X64671128Y8458843D01*
X64556759Y8234380D01*
X64478908Y7994781D01*
X64439500Y7745966D01*
X48761848Y7745966D01*
X46494814Y10013000D01*
X46494811Y10013002D01*
X46494810Y10013003D01*
X46494809Y10013004D01*
X46380689Y10078891D01*
X46380691Y10078891D01*
X46331299Y10092125D01*
X46253392Y10113000D01*
X46253390Y10113000D01*
X23909098Y10113000D01*
X23883067Y10116484D01*
X23579014Y10199354D01*
X23290354Y10278029D01*
X23273361Y10280704D01*
X23269511Y10281388D01*
X23262658Y10282746D01*
X23219849Y10297725D01*
X23190256Y10300500D01*
X23173068Y10300500D01*
X23163541Y10302388D01*
X23148735Y10310666D01*
X23128511Y10316704D01*
X22484165Y10739086D01*
X22468436Y10751878D01*
X22079496Y11140818D01*
X22051719Y11195335D01*
X22050500Y11210822D01*
X22050500Y14041345D01*
X44599510Y14041345D01*
X44599511Y14041345D01*
X51055191Y14041345D01*
X51055192Y14041345D01*
X51055192Y15856997D01*
X44599510Y15856997D01*
X44599510Y14041345D01*
X22050500Y14041345D01*
X22050500Y14042447D01*
X30699510Y14042447D01*
X30699511Y14042447D01*
X34796949Y14042447D01*
X34796950Y14042447D01*
X34796950Y15855897D01*
X30699510Y15855897D01*
X30699510Y14042447D01*
X22050500Y14042447D01*
X22050500Y15994446D01*
X23600000Y15994446D01*
X23600000Y15805555D01*
X23629546Y15619004D01*
X23687914Y15439365D01*
X23773666Y15271066D01*
X23792115Y15245672D01*
X24276211Y15729769D01*
X24287482Y15687708D01*
X24359890Y15562292D01*
X24462292Y15459890D01*
X24587708Y15387482D01*
X24629765Y15376213D01*
X24145670Y14892117D01*
X24171059Y14873670D01*
X24171063Y14873668D01*
X24339364Y14787915D01*
X24519003Y14729547D01*
X24705555Y14700000D01*
X24894445Y14700000D01*
X25080996Y14729547D01*
X25260635Y14787915D01*
X25428939Y14873671D01*
X25454328Y14892117D01*
X24970232Y15376213D01*
X25012292Y15387482D01*
X25137708Y15459890D01*
X25240110Y15562292D01*
X25312518Y15687708D01*
X25323787Y15729768D01*
X25807883Y15245672D01*
X25826329Y15271061D01*
X25912085Y15439365D01*
X25970453Y15619004D01*
X26000000Y15805555D01*
X26000000Y15994446D01*
X25970453Y16180997D01*
X25912085Y16360636D01*
X25826332Y16528937D01*
X25826330Y16528941D01*
X25807883Y16554330D01*
X25323787Y16070235D01*
X25312518Y16112292D01*
X25240110Y16237708D01*
X25137708Y16340110D01*
X25012292Y16412518D01*
X24970231Y16423789D01*
X25454328Y16907885D01*
X25428934Y16926334D01*
X25260635Y17012086D01*
X25080996Y17070454D01*
X24894445Y17100000D01*
X24705555Y17100000D01*
X24519003Y17070454D01*
X24339364Y17012086D01*
X24171063Y16926332D01*
X24145670Y16907885D01*
X24629767Y16423788D01*
X24587708Y16412518D01*
X24462292Y16340110D01*
X24359890Y16237708D01*
X24287482Y16112292D01*
X24276212Y16070233D01*
X23792115Y16554330D01*
X23773668Y16528937D01*
X23687914Y16360636D01*
X23629546Y16180997D01*
X23600000Y15994446D01*
X22050500Y15994446D01*
X22050500Y16901679D01*
X22069407Y16959870D01*
X22079490Y16971677D01*
X23704362Y18596550D01*
X23733886Y18616890D01*
X25146610Y19249747D01*
X25156462Y19253542D01*
X25260832Y19287453D01*
X25429199Y19373240D01*
X25443628Y19383724D01*
X25443975Y19383915D01*
X25448894Y19386720D01*
X25452714Y19390325D01*
X25582073Y19484310D01*
X25715690Y19617927D01*
X25826760Y19770801D01*
X25912547Y19939168D01*
X25970940Y20118882D01*
X25975689Y20148867D01*
X26000500Y20305516D01*
X26000500Y20494485D01*
X25970941Y20681114D01*
X25970940Y20681118D01*
X25912547Y20860832D01*
X25826760Y21029199D01*
X25715690Y21182073D01*
X25582073Y21315690D01*
X25429199Y21426760D01*
X25429198Y21426761D01*
X25429196Y21426762D01*
X25260832Y21512547D01*
X25081113Y21570942D01*
X24894484Y21600500D01*
X24894481Y21600500D01*
X24705519Y21600500D01*
X24705516Y21600500D01*
X24518886Y21570942D01*
X24339167Y21512547D01*
X24170803Y21426762D01*
X24017928Y21315691D01*
X24017927Y21315690D01*
X23884310Y21182073D01*
X23859690Y21148186D01*
X23773238Y21029198D01*
X23687451Y20860828D01*
X23687451Y20860827D01*
X23653551Y20756497D01*
X23649746Y20746618D01*
X23016887Y19333889D01*
X22996542Y19304358D01*
X21620003Y17927819D01*
X21565486Y17900042D01*
X21505054Y17909613D01*
X21479995Y17927819D01*
X20103455Y19304359D01*
X20083110Y19333889D01*
X19450253Y20746611D01*
X19446450Y20756486D01*
X19446446Y20756497D01*
X19412547Y20860832D01*
X19326760Y21029199D01*
X19316278Y21043626D01*
X19316085Y21043976D01*
X19313280Y21048895D01*
X19309675Y21052714D01*
X19305938Y21057859D01*
X19305937Y21057860D01*
X19215694Y21182068D01*
X19215692Y21182070D01*
X19215690Y21182073D01*
X19082073Y21315690D01*
X18929199Y21426760D01*
X18929198Y21426761D01*
X18929196Y21426762D01*
X18760832Y21512547D01*
X18581113Y21570942D01*
X18394484Y21600500D01*
X18394481Y21600500D01*
X18205519Y21600500D01*
X18205516Y21600500D01*
X18018886Y21570942D01*
X17839167Y21512547D01*
X17670803Y21426762D01*
X17517928Y21315691D01*
X17517927Y21315690D01*
X17384310Y21182073D01*
X17359690Y21148186D01*
X17273238Y21029197D01*
X17187453Y20860833D01*
X17129058Y20681114D01*
X17099500Y20494485D01*
X15600500Y20494485D01*
X15600500Y21851678D01*
X15619407Y21909869D01*
X15629496Y21921682D01*
X17178318Y23470504D01*
X17232835Y23498281D01*
X17248322Y23499500D01*
X28051678Y23499500D01*
X28109869Y23480593D01*
X28121682Y23470504D01*
X30815504Y20776683D01*
X30819130Y20769566D01*
X30825593Y20764870D01*
X30832756Y20742822D01*
X30843281Y20722166D01*
X30844500Y20706679D01*
X30844500Y20531143D01*
X30837419Y20494375D01*
X30824837Y20462920D01*
X30761876Y20305516D01*
X30728762Y20222732D01*
X30689596Y20175726D01*
X30636843Y20160500D01*
X30070252Y20160500D01*
X30070251Y20160500D01*
X30070241Y20160499D01*
X30011772Y20148868D01*
X30011766Y20148866D01*
X29945451Y20104555D01*
X29945445Y20104549D01*
X29901134Y20038234D01*
X29901132Y20038228D01*
X29889501Y19979759D01*
X29889500Y19979747D01*
X29889500Y18940254D01*
X29889501Y18940242D01*
X29901132Y18881773D01*
X29901133Y18881769D01*
X29945448Y18815448D01*
X30011769Y18771133D01*
X30056231Y18762289D01*
X30070241Y18759502D01*
X30070246Y18759502D01*
X30070252Y18759500D01*
X32569334Y18759500D01*
X32587934Y18757737D01*
X32594582Y18756466D01*
X32595828Y18756227D01*
X32595831Y18756228D01*
X32595832Y18756227D01*
X32595859Y18756228D01*
X32604500Y18756234D01*
X32680655Y18770932D01*
X33127156Y18949532D01*
X33134374Y18952419D01*
X33171142Y18959500D01*
X38934108Y18959500D01*
X44363858Y18959500D01*
X44400626Y18952419D01*
X44854338Y18770934D01*
X44854341Y18770933D01*
X44854344Y18770932D01*
X44930499Y18756234D01*
X44939131Y18756228D01*
X44939166Y18756227D01*
X44939166Y18756228D01*
X44939171Y18756227D01*
X44944059Y18757163D01*
X44947065Y18757737D01*
X44965665Y18759500D01*
X47414334Y18759500D01*
X47432934Y18757737D01*
X47439582Y18756466D01*
X47440828Y18756227D01*
X47440831Y18756228D01*
X47440832Y18756227D01*
X47440859Y18756228D01*
X47449500Y18756234D01*
X47525655Y18770932D01*
X47972156Y18949532D01*
X47979374Y18952419D01*
X48016142Y18959500D01*
X55519609Y18959500D01*
X55562902Y18949532D01*
X56143794Y18667064D01*
X56187857Y18624614D01*
X56199500Y18578033D01*
X56199500Y18395726D01*
X56202353Y18365306D01*
X56202355Y18365297D01*
X56247207Y18237117D01*
X56327845Y18127856D01*
X56327847Y18127854D01*
X56327850Y18127850D01*
X56327853Y18127848D01*
X56327855Y18127846D01*
X56437116Y18047208D01*
X56437117Y18047208D01*
X56437118Y18047207D01*
X56565301Y18002354D01*
X56595725Y17999501D01*
X56595727Y17999500D01*
X56595734Y17999500D01*
X57804273Y17999500D01*
X57804273Y17999501D01*
X57834699Y18002354D01*
X57962882Y18047207D01*
X58072150Y18127850D01*
X58152793Y18237118D01*
X58197646Y18365301D01*
X58200499Y18395727D01*
X58200500Y18395727D01*
X58200500Y21004273D01*
X58200499Y21004275D01*
X58197646Y21034699D01*
X58197644Y21034704D01*
X58194400Y21043976D01*
X58152793Y21162882D01*
X58138633Y21182068D01*
X58072154Y21272145D01*
X58072152Y21272147D01*
X58072150Y21272150D01*
X58072146Y21272153D01*
X58072144Y21272155D01*
X57962883Y21352793D01*
X57834703Y21397645D01*
X57834694Y21397647D01*
X57804274Y21400500D01*
X57804266Y21400500D01*
X56595734Y21400500D01*
X56595725Y21400500D01*
X56565305Y21397647D01*
X56565296Y21397645D01*
X56437116Y21352793D01*
X56327855Y21272155D01*
X56327845Y21272145D01*
X56247207Y21162884D01*
X56202355Y21034704D01*
X56202354Y21034699D01*
X56199500Y21004275D01*
X56199500Y20540752D01*
X56180593Y20482561D01*
X56161682Y20462920D01*
X55549466Y19981668D01*
X55492033Y19960571D01*
X55488284Y19960500D01*
X48016142Y19960500D01*
X47979374Y19967581D01*
X47525656Y20149069D01*
X47525654Y20149070D01*
X47525653Y20149070D01*
X47525650Y20149071D01*
X47525645Y20149072D01*
X47449474Y20163768D01*
X47449472Y20163769D01*
X47440811Y20163774D01*
X47440806Y20163774D01*
X47440805Y20163774D01*
X47432915Y20162264D01*
X47414309Y20160500D01*
X44965690Y20160500D01*
X44947084Y20162264D01*
X44939193Y20163774D01*
X44930526Y20163769D01*
X44930524Y20163768D01*
X44854345Y20149071D01*
X44400626Y19967581D01*
X44363858Y19960500D01*
X39599500Y19960500D01*
X39541309Y19979407D01*
X39505345Y20028907D01*
X39500500Y20059500D01*
X39500500Y21749999D01*
X48045000Y21749999D01*
X48045000Y21480300D01*
X48056603Y21421964D01*
X48100806Y21355811D01*
X48100810Y21355807D01*
X48166963Y21311604D01*
X48225299Y21300001D01*
X48225303Y21300000D01*
X49249999Y21300000D01*
X49250000Y21300001D01*
X49250000Y21749999D01*
X49750000Y21749999D01*
X49750000Y21300001D01*
X49750001Y21300000D01*
X50774697Y21300000D01*
X50774700Y21300001D01*
X50833036Y21311604D01*
X50899189Y21355807D01*
X50899193Y21355811D01*
X50943396Y21421964D01*
X50954999Y21480300D01*
X50955000Y21480303D01*
X50955000Y21749999D01*
X50954999Y21750000D01*
X49750001Y21750000D01*
X49750000Y21749999D01*
X49250000Y21749999D01*
X49249999Y21750000D01*
X48045001Y21750000D01*
X48045000Y21749999D01*
X39500500Y21749999D01*
X39500500Y22519701D01*
X48045000Y22519701D01*
X48045000Y22250001D01*
X48045001Y22250000D01*
X49249999Y22250000D01*
X49250000Y22250001D01*
X49250000Y22699999D01*
X49750000Y22699999D01*
X49750000Y22250001D01*
X49750001Y22250000D01*
X50954999Y22250000D01*
X50955000Y22250001D01*
X50955000Y22519698D01*
X50954999Y22519701D01*
X50943396Y22578037D01*
X50899193Y22644190D01*
X50899189Y22644194D01*
X50833036Y22688397D01*
X50774700Y22700000D01*
X49750001Y22700000D01*
X49750000Y22699999D01*
X49250000Y22699999D01*
X49249999Y22700000D01*
X48225299Y22700000D01*
X48166963Y22688397D01*
X48100810Y22644194D01*
X48100806Y22644190D01*
X48056603Y22578037D01*
X48045000Y22519701D01*
X39500500Y22519701D01*
X39500500Y25059747D01*
X44734500Y25059747D01*
X44734500Y24020254D01*
X44734501Y24020242D01*
X44746132Y23961773D01*
X44746134Y23961767D01*
X44790445Y23895452D01*
X44790448Y23895448D01*
X44856769Y23851133D01*
X44901231Y23842289D01*
X44915241Y23839502D01*
X44915246Y23839502D01*
X44915252Y23839500D01*
X44915253Y23839500D01*
X47464747Y23839500D01*
X47464748Y23839500D01*
X47517530Y23849999D01*
X56200001Y23849999D01*
X56200001Y22795797D01*
X56202850Y22765400D01*
X56202850Y22765398D01*
X56247654Y22637353D01*
X56328207Y22528210D01*
X56328209Y22528208D01*
X56437352Y22447655D01*
X56565398Y22402851D01*
X56595789Y22400001D01*
X56949998Y22400001D01*
X56950000Y22400002D01*
X56950000Y23849999D01*
X57450000Y23849999D01*
X57450000Y22400002D01*
X57450001Y22400001D01*
X57804203Y22400001D01*
X57834600Y22402851D01*
X57834602Y22402851D01*
X57962647Y22447655D01*
X58071790Y22528208D01*
X58071792Y22528210D01*
X58152345Y22637353D01*
X58197149Y22765399D01*
X58199999Y22795789D01*
X58200000Y22795790D01*
X58200000Y23849999D01*
X58199999Y23850000D01*
X57450001Y23850000D01*
X57450000Y23849999D01*
X56950000Y23849999D01*
X56949999Y23850000D01*
X56200002Y23850000D01*
X56200001Y23849999D01*
X47517530Y23849999D01*
X47523231Y23851133D01*
X47589552Y23895448D01*
X47633867Y23961769D01*
X47645500Y24020252D01*
X47645500Y25059748D01*
X47633867Y25118231D01*
X47615790Y25145285D01*
X47599182Y25204173D01*
X47620360Y25261577D01*
X47628093Y25270281D01*
X47762024Y25404212D01*
X56200000Y25404212D01*
X56200000Y24350001D01*
X56200001Y24350000D01*
X56949999Y24350000D01*
X56950000Y24350001D01*
X56950000Y25799999D01*
X57450000Y25799999D01*
X57450000Y24350001D01*
X57450001Y24350000D01*
X58199998Y24350000D01*
X58199999Y24350001D01*
X58199999Y25404204D01*
X58197149Y25434601D01*
X58197149Y25434603D01*
X58152345Y25562648D01*
X58071792Y25671791D01*
X58071790Y25671793D01*
X57962647Y25752346D01*
X57834601Y25797150D01*
X57804211Y25800000D01*
X57450001Y25800000D01*
X57450000Y25799999D01*
X56950000Y25799999D01*
X56949999Y25800000D01*
X56595796Y25800000D01*
X56565399Y25797150D01*
X56565397Y25797150D01*
X56437352Y25752346D01*
X56328209Y25671793D01*
X56328207Y25671791D01*
X56247654Y25562648D01*
X56202850Y25434602D01*
X56200000Y25404212D01*
X47762024Y25404212D01*
X53900500Y31542686D01*
X53966392Y31656814D01*
X54000500Y31784107D01*
X54000500Y31915892D01*
X54000500Y35685966D01*
X64439500Y35685966D01*
X64439500Y35434035D01*
X64478908Y35185220D01*
X64478910Y35185215D01*
X64556759Y34945621D01*
X64671130Y34721155D01*
X64819207Y34517344D01*
X64997344Y34339207D01*
X65201155Y34191130D01*
X65425621Y34076759D01*
X65665215Y33998910D01*
X65665216Y33998910D01*
X65665219Y33998909D01*
X65914035Y33959500D01*
X65914038Y33959500D01*
X66165965Y33959500D01*
X66414780Y33998909D01*
X66414781Y33998910D01*
X66414785Y33998910D01*
X66654379Y34076759D01*
X66878845Y34191130D01*
X67082656Y34339207D01*
X67260793Y34517344D01*
X67408870Y34721155D01*
X67523241Y34945621D01*
X67601090Y35185215D01*
X67601091Y35185220D01*
X67640500Y35434035D01*
X67640500Y35685966D01*
X67601091Y35934781D01*
X67601090Y35934785D01*
X67523241Y36174379D01*
X67408870Y36398845D01*
X67260793Y36602656D01*
X67082656Y36780793D01*
X66878845Y36928870D01*
X66878844Y36928871D01*
X66878842Y36928872D01*
X66654379Y37043241D01*
X66414780Y37121092D01*
X66165965Y37160500D01*
X66165962Y37160500D01*
X65914038Y37160500D01*
X65914035Y37160500D01*
X65665219Y37121092D01*
X65425620Y37043241D01*
X65201157Y36928872D01*
X64997345Y36780794D01*
X64819206Y36602655D01*
X64671128Y36398843D01*
X64556759Y36174380D01*
X64478908Y35934781D01*
X64439500Y35685966D01*
X54000500Y35685966D01*
X54000500Y45865892D01*
X53966392Y45993186D01*
X53966390Y45993189D01*
X53966390Y45993191D01*
X53900503Y46107310D01*
X53900499Y46107315D01*
X53807314Y46200501D01*
X53807314Y46200500D01*
X51329496Y48678318D01*
X51301719Y48732835D01*
X51300500Y48748322D01*
X51300500Y49050144D01*
X51306105Y49082981D01*
X51388301Y49316760D01*
X51755898Y50362272D01*
X51757809Y50367272D01*
X51810130Y50493580D01*
X51820634Y50546391D01*
X51823064Y50553300D01*
X51827370Y50567075D01*
X51827805Y50568660D01*
X51828561Y50571491D01*
X51829065Y50588777D01*
X51850500Y50696535D01*
X51850500Y50903465D01*
X51850499Y50903468D01*
X52289500Y50903468D01*
X52289500Y50696533D01*
X52329869Y50493582D01*
X52409058Y50302403D01*
X52440777Y50254932D01*
X52524023Y50130345D01*
X52670345Y49984023D01*
X52842402Y49869059D01*
X53033580Y49789870D01*
X53236535Y49749500D01*
X53236536Y49749500D01*
X53443464Y49749500D01*
X53443465Y49749500D01*
X53646420Y49789870D01*
X53837598Y49869059D01*
X54009655Y49984023D01*
X54155977Y50130345D01*
X54270941Y50302402D01*
X54350130Y50493580D01*
X54390500Y50696535D01*
X54390500Y50903465D01*
X54390499Y50903468D01*
X54829500Y50903468D01*
X54829500Y50696533D01*
X54869869Y50493582D01*
X54949058Y50302403D01*
X54980777Y50254932D01*
X55064023Y50130345D01*
X55210345Y49984023D01*
X55382402Y49869059D01*
X55573580Y49789870D01*
X55776535Y49749500D01*
X55776536Y49749500D01*
X55983464Y49749500D01*
X55983465Y49749500D01*
X56186420Y49789870D01*
X56377598Y49869059D01*
X56549655Y49984023D01*
X56695977Y50130345D01*
X56810941Y50302402D01*
X56890130Y50493580D01*
X56930500Y50696535D01*
X56930500Y50903465D01*
X56930499Y50903468D01*
X57369500Y50903468D01*
X57369500Y50696533D01*
X57409869Y50493582D01*
X57489058Y50302403D01*
X57520777Y50254932D01*
X57604023Y50130345D01*
X57750345Y49984023D01*
X57922402Y49869059D01*
X58113580Y49789870D01*
X58316535Y49749500D01*
X58316536Y49749500D01*
X58523464Y49749500D01*
X58523465Y49749500D01*
X58726420Y49789870D01*
X58917598Y49869059D01*
X59089655Y49984023D01*
X59235977Y50130345D01*
X59350941Y50302402D01*
X59430130Y50493580D01*
X59470500Y50696535D01*
X59470500Y50903465D01*
X59470499Y50903468D01*
X59909500Y50903468D01*
X59909500Y50696533D01*
X59949869Y50493582D01*
X60029058Y50302403D01*
X60060777Y50254932D01*
X60144023Y50130345D01*
X60290345Y49984023D01*
X60462402Y49869059D01*
X60653580Y49789870D01*
X60856535Y49749500D01*
X60856536Y49749500D01*
X61063464Y49749500D01*
X61063465Y49749500D01*
X61266420Y49789870D01*
X61457598Y49869059D01*
X61629655Y49984023D01*
X61775977Y50130345D01*
X61890941Y50302402D01*
X61970130Y50493580D01*
X62010500Y50696535D01*
X62010500Y50903465D01*
X62010499Y50903468D01*
X62449500Y50903468D01*
X62449500Y50696533D01*
X62489869Y50493582D01*
X62569058Y50302403D01*
X62600777Y50254932D01*
X62684023Y50130345D01*
X62830345Y49984023D01*
X63002402Y49869059D01*
X63193580Y49789870D01*
X63396535Y49749500D01*
X63396536Y49749500D01*
X63603464Y49749500D01*
X63603465Y49749500D01*
X63806420Y49789870D01*
X63997598Y49869059D01*
X64169655Y49984023D01*
X64315977Y50130345D01*
X64430941Y50302402D01*
X64510130Y50493580D01*
X64550500Y50696535D01*
X64550500Y50903465D01*
X64510130Y51106420D01*
X64430941Y51297598D01*
X64315977Y51469655D01*
X64169655Y51615977D01*
X64169651Y51615980D01*
X63997597Y51730942D01*
X63806418Y51810131D01*
X63603467Y51850500D01*
X63603465Y51850500D01*
X63396535Y51850500D01*
X63396532Y51850500D01*
X63193581Y51810131D01*
X63002402Y51730942D01*
X62830348Y51615980D01*
X62684020Y51469652D01*
X62569058Y51297598D01*
X62489869Y51106419D01*
X62449500Y50903468D01*
X62010499Y50903468D01*
X61970130Y51106420D01*
X61890941Y51297598D01*
X61775977Y51469655D01*
X61629655Y51615977D01*
X61629651Y51615980D01*
X61457597Y51730942D01*
X61266418Y51810131D01*
X61063467Y51850500D01*
X61063465Y51850500D01*
X60856535Y51850500D01*
X60856532Y51850500D01*
X60653581Y51810131D01*
X60462402Y51730942D01*
X60290348Y51615980D01*
X60144020Y51469652D01*
X60029058Y51297598D01*
X59949869Y51106419D01*
X59909500Y50903468D01*
X59470499Y50903468D01*
X59430130Y51106420D01*
X59350941Y51297598D01*
X59235977Y51469655D01*
X59089655Y51615977D01*
X59089651Y51615980D01*
X58917597Y51730942D01*
X58726418Y51810131D01*
X58523467Y51850500D01*
X58523465Y51850500D01*
X58316535Y51850500D01*
X58316532Y51850500D01*
X58113581Y51810131D01*
X57922402Y51730942D01*
X57750348Y51615980D01*
X57604020Y51469652D01*
X57489058Y51297598D01*
X57409869Y51106419D01*
X57369500Y50903468D01*
X56930499Y50903468D01*
X56890130Y51106420D01*
X56810941Y51297598D01*
X56695977Y51469655D01*
X56549655Y51615977D01*
X56549651Y51615980D01*
X56377597Y51730942D01*
X56186418Y51810131D01*
X55983467Y51850500D01*
X55983465Y51850500D01*
X55776535Y51850500D01*
X55776532Y51850500D01*
X55573581Y51810131D01*
X55382402Y51730942D01*
X55210348Y51615980D01*
X55064020Y51469652D01*
X54949058Y51297598D01*
X54869869Y51106419D01*
X54829500Y50903468D01*
X54390499Y50903468D01*
X54350130Y51106420D01*
X54270941Y51297598D01*
X54155977Y51469655D01*
X54009655Y51615977D01*
X54009651Y51615980D01*
X53837597Y51730942D01*
X53646418Y51810131D01*
X53443467Y51850500D01*
X53443465Y51850500D01*
X53236535Y51850500D01*
X53236532Y51850500D01*
X53033581Y51810131D01*
X52842402Y51730942D01*
X52670348Y51615980D01*
X52524020Y51469652D01*
X52409058Y51297598D01*
X52329869Y51106419D01*
X52289500Y50903468D01*
X51850499Y50903468D01*
X51810130Y51106420D01*
X51730941Y51297598D01*
X51615977Y51469655D01*
X51469655Y51615977D01*
X51469651Y51615980D01*
X51297597Y51730942D01*
X51106418Y51810131D01*
X50903467Y51850500D01*
X50903465Y51850500D01*
X50696535Y51850500D01*
X50696532Y51850500D01*
X50493581Y51810131D01*
X50302402Y51730942D01*
X50130348Y51615980D01*
X49984020Y51469652D01*
X49869058Y51297598D01*
X49789869Y51106419D01*
X49749500Y50903468D01*
X49749500Y50696533D01*
X49773730Y50574719D01*
X49773730Y50574717D01*
X49774257Y50572063D01*
X49776935Y50553302D01*
X49779362Y50546397D01*
X49780733Y50539505D01*
X49789868Y50493587D01*
X49789869Y50493582D01*
X49842172Y50367312D01*
X49844102Y50362265D01*
X50039878Y49805446D01*
X50293895Y49082981D01*
X50299500Y49050144D01*
X50299500Y48565892D01*
X50299500Y48434108D01*
X50328115Y48327314D01*
X50333609Y48306810D01*
X50399496Y48192691D01*
X50399498Y48192689D01*
X50399500Y48192686D01*
X52970505Y45621681D01*
X52998281Y45567166D01*
X52999500Y45551679D01*
X52999500Y32098323D01*
X52980593Y32040132D01*
X52970504Y32028319D01*
X46728624Y25786440D01*
X46713037Y25774736D01*
X46713495Y25774049D01*
X45938113Y25257127D01*
X45883198Y25240500D01*
X44915252Y25240500D01*
X44915251Y25240500D01*
X44915241Y25240499D01*
X44856772Y25228868D01*
X44856766Y25228866D01*
X44790451Y25184555D01*
X44790445Y25184549D01*
X44746134Y25118234D01*
X44746132Y25118228D01*
X44734501Y25059759D01*
X44734500Y25059747D01*
X39500500Y25059747D01*
X39500500Y32041345D01*
X44326357Y32041345D01*
X44326358Y32041345D01*
X51212213Y32041345D01*
X51212214Y32041345D01*
X51212214Y33855897D01*
X44326357Y33855897D01*
X44326357Y32041345D01*
X39500500Y32041345D01*
X39500500Y34551678D01*
X39519407Y34609869D01*
X39529496Y34621682D01*
X40128318Y35220504D01*
X40182835Y35248281D01*
X40198322Y35249500D01*
X48115890Y35249500D01*
X48115892Y35249500D01*
X48243186Y35283608D01*
X48243188Y35283610D01*
X48243190Y35283610D01*
X48357309Y35349497D01*
X48357309Y35349498D01*
X48357314Y35349500D01*
X49710500Y36702686D01*
X49752508Y36775446D01*
X49776390Y36816810D01*
X49776390Y36816812D01*
X49776392Y36816814D01*
X49810500Y36944107D01*
X49810500Y37075892D01*
X49810500Y38888861D01*
X49817581Y38925629D01*
X49926236Y39197268D01*
X49965402Y39244274D01*
X50018155Y39259500D01*
X50584747Y39259500D01*
X50584748Y39259500D01*
X50643231Y39271133D01*
X50709552Y39315448D01*
X50753867Y39381769D01*
X50765500Y39440252D01*
X50765500Y40479748D01*
X50753867Y40538231D01*
X50709552Y40604552D01*
X50697373Y40612690D01*
X50643233Y40648866D01*
X50643231Y40648867D01*
X50643228Y40648868D01*
X50643227Y40648868D01*
X50584758Y40660499D01*
X50584748Y40660500D01*
X48035252Y40660500D01*
X48035251Y40660500D01*
X48035241Y40660499D01*
X47976772Y40648868D01*
X47976766Y40648866D01*
X47910451Y40604555D01*
X47910445Y40604549D01*
X47866134Y40538234D01*
X47866132Y40538228D01*
X47854501Y40479759D01*
X47854500Y40479747D01*
X47854500Y39440254D01*
X47854501Y39440242D01*
X47866132Y39381773D01*
X47866134Y39381767D01*
X47910445Y39315452D01*
X47910448Y39315448D01*
X47976769Y39271133D01*
X48021231Y39262289D01*
X48035241Y39259502D01*
X48035246Y39259502D01*
X48035252Y39259500D01*
X48601844Y39259500D01*
X48660035Y39240593D01*
X48693763Y39197268D01*
X48802419Y38925627D01*
X48809500Y38888859D01*
X48809500Y37258322D01*
X48790593Y37200131D01*
X48780504Y37188318D01*
X47871682Y36279496D01*
X47817165Y36251719D01*
X47801678Y36250500D01*
X40015893Y36250500D01*
X39884108Y36250500D01*
X39806200Y36229625D01*
X39756809Y36216391D01*
X39642690Y36150504D01*
X39070004Y35577818D01*
X39015487Y35550041D01*
X38955055Y35559612D01*
X38929996Y35577818D01*
X37805123Y36702691D01*
X36647314Y37860500D01*
X36647311Y37860502D01*
X36647310Y37860503D01*
X36647309Y37860504D01*
X36533189Y37926391D01*
X36533191Y37926391D01*
X36483299Y37939759D01*
X36405892Y37960500D01*
X36405890Y37960500D01*
X33171142Y37960500D01*
X33134374Y37967581D01*
X32680656Y38149069D01*
X32680654Y38149070D01*
X32680653Y38149070D01*
X32680650Y38149071D01*
X32680645Y38149072D01*
X32604474Y38163768D01*
X32604472Y38163769D01*
X32595811Y38163774D01*
X32595806Y38163774D01*
X32595805Y38163774D01*
X32587915Y38162264D01*
X32569309Y38160500D01*
X30070252Y38160500D01*
X30070251Y38160500D01*
X30070241Y38160499D01*
X30011772Y38148868D01*
X30011766Y38148866D01*
X29945451Y38104555D01*
X29945445Y38104549D01*
X29901134Y38038234D01*
X29901132Y38038228D01*
X29889501Y37979759D01*
X29889500Y37979747D01*
X29889500Y36940254D01*
X29889501Y36940242D01*
X29901132Y36881773D01*
X29901134Y36881767D01*
X29927862Y36841767D01*
X29945448Y36815448D01*
X30011769Y36771133D01*
X30056231Y36762289D01*
X30070241Y36759502D01*
X30070246Y36759502D01*
X30070252Y36759500D01*
X32569334Y36759500D01*
X32587934Y36757737D01*
X32594582Y36756466D01*
X32595828Y36756227D01*
X32595831Y36756228D01*
X32595832Y36756227D01*
X32595859Y36756228D01*
X32604500Y36756234D01*
X32680655Y36770932D01*
X33103961Y36940254D01*
X33134374Y36952419D01*
X33171142Y36959500D01*
X36091678Y36959500D01*
X36149869Y36940593D01*
X36161682Y36930504D01*
X38470504Y34621682D01*
X38498281Y34567165D01*
X38499500Y34551678D01*
X38499500Y20059500D01*
X38480593Y20001309D01*
X38431093Y19965345D01*
X38400500Y19960500D01*
X33171142Y19960500D01*
X33134374Y19967581D01*
X32680656Y20149069D01*
X32680654Y20149070D01*
X32680653Y20149070D01*
X32680650Y20149071D01*
X32680645Y20149072D01*
X32604474Y20163768D01*
X32604472Y20163769D01*
X32595811Y20163774D01*
X32595806Y20163774D01*
X32595805Y20163774D01*
X32587915Y20162264D01*
X32569309Y20160500D01*
X32053156Y20160500D01*
X31994965Y20179407D01*
X31961237Y20222733D01*
X31852581Y20494375D01*
X31845500Y20531142D01*
X31845500Y21020893D01*
X31843274Y21029198D01*
X31841800Y21034699D01*
X31811392Y21148186D01*
X31791827Y21182073D01*
X31745500Y21262314D01*
X31652314Y21355500D01*
X31652311Y21355502D01*
X31257814Y21749999D01*
X33200000Y21749999D01*
X33200000Y21480300D01*
X33211603Y21421964D01*
X33255806Y21355811D01*
X33255810Y21355807D01*
X33321963Y21311604D01*
X33380299Y21300001D01*
X33380303Y21300000D01*
X34404999Y21300000D01*
X34405000Y21300001D01*
X34405000Y21749999D01*
X34905000Y21749999D01*
X34905000Y21300001D01*
X34905001Y21300000D01*
X35929697Y21300000D01*
X35929700Y21300001D01*
X35988036Y21311604D01*
X36054189Y21355807D01*
X36054193Y21355811D01*
X36098396Y21421964D01*
X36109999Y21480300D01*
X36110000Y21480303D01*
X36110000Y21749999D01*
X36109999Y21750000D01*
X34905001Y21750000D01*
X34905000Y21749999D01*
X34405000Y21749999D01*
X34404999Y21750000D01*
X33200001Y21750000D01*
X33200000Y21749999D01*
X31257814Y21749999D01*
X30488112Y22519701D01*
X33200000Y22519701D01*
X33200000Y22250001D01*
X33200001Y22250000D01*
X34404999Y22250000D01*
X34405000Y22250001D01*
X34405000Y22699999D01*
X34905000Y22699999D01*
X34905000Y22250001D01*
X34905001Y22250000D01*
X36109999Y22250000D01*
X36110000Y22250001D01*
X36110000Y22519698D01*
X36109999Y22519701D01*
X36098396Y22578037D01*
X36054193Y22644190D01*
X36054189Y22644194D01*
X35988036Y22688397D01*
X35929700Y22700000D01*
X34905001Y22700000D01*
X34905000Y22699999D01*
X34405000Y22699999D01*
X34404999Y22700000D01*
X33380299Y22700000D01*
X33321963Y22688397D01*
X33255810Y22644194D01*
X33255806Y22644190D01*
X33211603Y22578037D01*
X33200000Y22519701D01*
X30488112Y22519701D01*
X28607314Y24400500D01*
X28607311Y24400502D01*
X28607309Y24400504D01*
X28493189Y24466391D01*
X28493191Y24466391D01*
X28443799Y24479625D01*
X28365892Y24500500D01*
X17065893Y24500500D01*
X16934108Y24500500D01*
X16856200Y24479625D01*
X16806809Y24466391D01*
X16692690Y24400504D01*
X14792686Y22500500D01*
X14792685Y22500501D01*
X14699500Y22407315D01*
X14699496Y22407310D01*
X14633609Y22293191D01*
X14633608Y22293186D01*
X14599500Y22165892D01*
X11396820Y22165892D01*
X11396820Y43815892D01*
X27049500Y43815892D01*
X27049500Y31065892D01*
X27049500Y30934108D01*
X27079579Y30821849D01*
X27083609Y30806810D01*
X27149496Y30692691D01*
X27149498Y30692689D01*
X27149500Y30692686D01*
X30815505Y27026681D01*
X30843281Y26972166D01*
X30844500Y26956679D01*
X30844500Y25611143D01*
X30837419Y25574375D01*
X30728762Y25302732D01*
X30689596Y25255726D01*
X30636843Y25240500D01*
X30070252Y25240500D01*
X30070251Y25240500D01*
X30070241Y25240499D01*
X30011772Y25228868D01*
X30011766Y25228866D01*
X29945451Y25184555D01*
X29945445Y25184549D01*
X29901134Y25118234D01*
X29901132Y25118228D01*
X29889501Y25059759D01*
X29889500Y25059747D01*
X29889500Y24020254D01*
X29889501Y24020242D01*
X29901132Y23961773D01*
X29901134Y23961767D01*
X29945445Y23895452D01*
X29945448Y23895448D01*
X30011769Y23851133D01*
X30056231Y23842289D01*
X30070241Y23839502D01*
X30070246Y23839502D01*
X30070252Y23839500D01*
X30070253Y23839500D01*
X32619747Y23839500D01*
X32619748Y23839500D01*
X32678231Y23851133D01*
X32744552Y23895448D01*
X32788867Y23961769D01*
X32800500Y24020252D01*
X32800500Y25059748D01*
X32788867Y25118231D01*
X32744552Y25184552D01*
X32744548Y25184555D01*
X32678233Y25228866D01*
X32678231Y25228867D01*
X32678228Y25228868D01*
X32678227Y25228868D01*
X32619758Y25240499D01*
X32619748Y25240500D01*
X32619747Y25240500D01*
X32053156Y25240500D01*
X31994965Y25259407D01*
X31961237Y25302733D01*
X31852581Y25574375D01*
X31845500Y25611142D01*
X31845500Y27270891D01*
X31845500Y27270892D01*
X31811392Y27398186D01*
X31811390Y27398189D01*
X31811390Y27398191D01*
X31745503Y27512310D01*
X31745499Y27512315D01*
X31652314Y27605501D01*
X31652314Y27605500D01*
X28079496Y31178318D01*
X28051719Y31232835D01*
X28050500Y31248322D01*
X28050500Y32042447D01*
X30699510Y32042447D01*
X30699511Y32042447D01*
X34795224Y32042447D01*
X34795225Y32042447D01*
X34795225Y33857016D01*
X30699510Y33857016D01*
X30699510Y32042447D01*
X28050500Y32042447D01*
X28050500Y39749999D01*
X33200000Y39749999D01*
X33200000Y39480300D01*
X33211603Y39421964D01*
X33255806Y39355811D01*
X33255810Y39355807D01*
X33321963Y39311604D01*
X33380299Y39300001D01*
X33380303Y39300000D01*
X34404999Y39300000D01*
X34405000Y39300001D01*
X34405000Y39749999D01*
X34905000Y39749999D01*
X34905000Y39300001D01*
X34905001Y39300000D01*
X35929697Y39300000D01*
X35929700Y39300001D01*
X35988036Y39311604D01*
X36054189Y39355807D01*
X36054193Y39355811D01*
X36098396Y39421964D01*
X36109999Y39480300D01*
X36110000Y39480303D01*
X36110000Y39749999D01*
X36109999Y39750000D01*
X34905001Y39750000D01*
X34905000Y39749999D01*
X34405000Y39749999D01*
X34404999Y39750000D01*
X33200001Y39750000D01*
X33200000Y39749999D01*
X28050500Y39749999D01*
X28050500Y40519701D01*
X33200000Y40519701D01*
X33200000Y40250001D01*
X33200001Y40250000D01*
X34404999Y40250000D01*
X34405000Y40250001D01*
X34405000Y40699999D01*
X34905000Y40699999D01*
X34905000Y40250001D01*
X34905001Y40250000D01*
X36109999Y40250000D01*
X36110000Y40250001D01*
X36110000Y40519698D01*
X36109999Y40519701D01*
X36098396Y40578037D01*
X36054193Y40644190D01*
X36054189Y40644194D01*
X35988036Y40688397D01*
X35929700Y40700000D01*
X34905001Y40700000D01*
X34905000Y40699999D01*
X34405000Y40699999D01*
X34404999Y40700000D01*
X33380299Y40700000D01*
X33321963Y40688397D01*
X33255810Y40644194D01*
X33255806Y40644190D01*
X33211603Y40578037D01*
X33200000Y40519701D01*
X28050500Y40519701D01*
X28050500Y43059747D01*
X29889500Y43059747D01*
X29889500Y42020254D01*
X29889501Y42020242D01*
X29901132Y41961773D01*
X29901133Y41961769D01*
X29945448Y41895448D01*
X30011769Y41851133D01*
X30056231Y41842289D01*
X30070241Y41839502D01*
X30070246Y41839502D01*
X30070252Y41839500D01*
X32569334Y41839500D01*
X32587934Y41837737D01*
X32594582Y41836466D01*
X32595828Y41836227D01*
X32595831Y41836228D01*
X32595832Y41836227D01*
X32595859Y41836228D01*
X32604500Y41836234D01*
X32680655Y41850932D01*
X32791955Y41895452D01*
X33134374Y42032419D01*
X33171142Y42039500D01*
X36155890Y42039500D01*
X36155892Y42039500D01*
X36283186Y42073608D01*
X36283188Y42073610D01*
X36283190Y42073610D01*
X36397309Y42139497D01*
X36397309Y42139498D01*
X36397314Y42139500D01*
X39223706Y44965892D01*
X41999500Y44965892D01*
X41999500Y40985892D01*
X41999500Y40854108D01*
X42029579Y40741849D01*
X42033609Y40726810D01*
X42099496Y40612691D01*
X42099497Y40612690D01*
X42099498Y40612689D01*
X42099500Y40612686D01*
X43356375Y39355811D01*
X44561897Y38150289D01*
X44589674Y38095772D01*
X44580103Y38035340D01*
X44574209Y38025284D01*
X44556134Y37998234D01*
X44556132Y37998228D01*
X44544501Y37939759D01*
X44544500Y37939747D01*
X44544500Y36900254D01*
X44544501Y36900242D01*
X44556132Y36841773D01*
X44556134Y36841767D01*
X44600445Y36775452D01*
X44600448Y36775448D01*
X44666769Y36731133D01*
X44711231Y36722289D01*
X44725241Y36719502D01*
X44725246Y36719502D01*
X44725252Y36719500D01*
X44725253Y36719500D01*
X47274747Y36719500D01*
X47274748Y36719500D01*
X47333231Y36731133D01*
X47399552Y36775448D01*
X47443867Y36841769D01*
X47455500Y36900252D01*
X47455500Y37939748D01*
X47443867Y37998231D01*
X47399552Y38064552D01*
X47399548Y38064555D01*
X47333233Y38108866D01*
X47333231Y38108867D01*
X47333228Y38108868D01*
X47333227Y38108868D01*
X47274758Y38120499D01*
X47274748Y38120500D01*
X47274747Y38120500D01*
X46306801Y38120500D01*
X46251886Y38137127D01*
X45480549Y38651352D01*
X45480547Y38651353D01*
X45477520Y38653371D01*
X45477845Y38653860D01*
X45461609Y38666205D01*
X43029496Y41098318D01*
X43001719Y41152835D01*
X43000500Y41168322D01*
X43000500Y42249999D01*
X44545000Y42249999D01*
X44545000Y41980300D01*
X44556603Y41921964D01*
X44600806Y41855811D01*
X44600810Y41855807D01*
X44666963Y41811604D01*
X44725299Y41800001D01*
X44725303Y41800000D01*
X45749999Y41800000D01*
X45750000Y41800001D01*
X45750000Y42249999D01*
X46250000Y42249999D01*
X46250000Y41800001D01*
X46250001Y41800000D01*
X47274697Y41800000D01*
X47274700Y41800001D01*
X47333036Y41811604D01*
X47399189Y41855807D01*
X47399193Y41855811D01*
X47443396Y41921964D01*
X47454999Y41980300D01*
X47455000Y41980303D01*
X47455000Y42249999D01*
X47454999Y42250000D01*
X46250001Y42250000D01*
X46250000Y42249999D01*
X45750000Y42249999D01*
X45749999Y42250000D01*
X44545001Y42250000D01*
X44545000Y42249999D01*
X43000500Y42249999D01*
X43000500Y43019701D01*
X44545000Y43019701D01*
X44545000Y42750001D01*
X44545001Y42750000D01*
X45749999Y42750000D01*
X45750000Y42750001D01*
X45750000Y43199999D01*
X46250000Y43199999D01*
X46250000Y42750001D01*
X46250001Y42750000D01*
X47454999Y42750000D01*
X47455000Y42750001D01*
X47455000Y43019698D01*
X47454999Y43019701D01*
X47443396Y43078037D01*
X47399193Y43144190D01*
X47399189Y43144194D01*
X47333036Y43188397D01*
X47274700Y43200000D01*
X46250001Y43200000D01*
X46250000Y43199999D01*
X45750000Y43199999D01*
X45749999Y43200000D01*
X44725299Y43200000D01*
X44666963Y43188397D01*
X44600810Y43144194D01*
X44600806Y43144190D01*
X44556603Y43078037D01*
X44545000Y43019701D01*
X43000500Y43019701D01*
X43000500Y44651679D01*
X43019407Y44709870D01*
X43029490Y44721677D01*
X46120500Y47812686D01*
X46186392Y47926814D01*
X46220500Y48054108D01*
X46220500Y48185893D01*
X46220500Y49002351D01*
X46236383Y49056133D01*
X46253756Y49082981D01*
X46737396Y49830426D01*
X46750962Y49859940D01*
X46758867Y49871769D01*
X46760748Y49881229D01*
X46761932Y49883803D01*
X46763809Y49890152D01*
X46771911Y49936772D01*
X46771910Y49936778D01*
X46771889Y49936905D01*
X46770500Y49953428D01*
X46770500Y50903468D01*
X47209500Y50903468D01*
X47209500Y50696533D01*
X47249869Y50493582D01*
X47329058Y50302403D01*
X47360777Y50254932D01*
X47444023Y50130345D01*
X47590345Y49984023D01*
X47762402Y49869059D01*
X47953580Y49789870D01*
X48156535Y49749500D01*
X48156536Y49749500D01*
X48363464Y49749500D01*
X48363465Y49749500D01*
X48566420Y49789870D01*
X48757598Y49869059D01*
X48929655Y49984023D01*
X49075977Y50130345D01*
X49190941Y50302402D01*
X49270130Y50493580D01*
X49310500Y50696535D01*
X49310500Y50903465D01*
X49270130Y51106420D01*
X49190941Y51297598D01*
X49075977Y51469655D01*
X48929655Y51615977D01*
X48929651Y51615980D01*
X48757597Y51730942D01*
X48566418Y51810131D01*
X48363467Y51850500D01*
X48363465Y51850500D01*
X48156535Y51850500D01*
X48156532Y51850500D01*
X47953581Y51810131D01*
X47762402Y51730942D01*
X47590348Y51615980D01*
X47444020Y51469652D01*
X47329058Y51297598D01*
X47249869Y51106419D01*
X47209500Y50903468D01*
X46770500Y50903468D01*
X46770500Y51669747D01*
X46770498Y51669759D01*
X46764756Y51698623D01*
X46758867Y51728231D01*
X46714552Y51794552D01*
X46714548Y51794555D01*
X46648233Y51838866D01*
X46648231Y51838867D01*
X46648228Y51838868D01*
X46648227Y51838868D01*
X46589758Y51850499D01*
X46589748Y51850500D01*
X44850252Y51850500D01*
X44850251Y51850500D01*
X44850241Y51850499D01*
X44791772Y51838868D01*
X44791766Y51838866D01*
X44725451Y51794555D01*
X44725445Y51794549D01*
X44681134Y51728234D01*
X44681132Y51728228D01*
X44669501Y51669759D01*
X44669500Y51669749D01*
X44669500Y51669748D01*
X44669500Y49930252D01*
X44671642Y49919483D01*
X44671397Y49913761D01*
X44673014Y49904954D01*
X44676056Y49897291D01*
X44677814Y49888451D01*
X44677814Y49888449D01*
X44681132Y49871772D01*
X44681134Y49871767D01*
X44687763Y49861846D01*
X44697460Y49843378D01*
X44702601Y49830428D01*
X44702606Y49830419D01*
X44992237Y49382810D01*
X45186244Y49082981D01*
X45203617Y49056133D01*
X45219500Y49002351D01*
X45219500Y48368322D01*
X45200593Y48310131D01*
X45190504Y48298318D01*
X42192686Y45300500D01*
X42192685Y45300501D01*
X42099500Y45207315D01*
X42099496Y45207310D01*
X42033609Y45093191D01*
X42033608Y45093186D01*
X41999500Y44965892D01*
X39223706Y44965892D01*
X42056500Y47798686D01*
X42122392Y47912814D01*
X42156500Y48040108D01*
X42156500Y48171893D01*
X42156500Y49050144D01*
X42162105Y49082981D01*
X42244301Y49316760D01*
X42611898Y50362272D01*
X42613809Y50367272D01*
X42666130Y50493580D01*
X42676634Y50546391D01*
X42679064Y50553300D01*
X42683370Y50567075D01*
X42683805Y50568660D01*
X42684561Y50571491D01*
X42685065Y50588777D01*
X42706500Y50696535D01*
X42706500Y50903465D01*
X42666130Y51106420D01*
X42586941Y51297598D01*
X42471977Y51469655D01*
X42325655Y51615977D01*
X42325651Y51615980D01*
X42153597Y51730942D01*
X41962418Y51810131D01*
X41759467Y51850500D01*
X41759465Y51850500D01*
X41552535Y51850500D01*
X41552532Y51850500D01*
X41349581Y51810131D01*
X41158402Y51730942D01*
X40986348Y51615980D01*
X40840020Y51469652D01*
X40725058Y51297598D01*
X40645869Y51106419D01*
X40605500Y50903468D01*
X40605500Y50696533D01*
X40629730Y50574719D01*
X40629730Y50574717D01*
X40630257Y50572063D01*
X40632935Y50553302D01*
X40635362Y50546397D01*
X40636733Y50539505D01*
X40645868Y50493587D01*
X40645869Y50493582D01*
X40698172Y50367312D01*
X40700102Y50362265D01*
X40895878Y49805446D01*
X41149895Y49082981D01*
X41155500Y49050143D01*
X41155500Y48354322D01*
X41136593Y48296131D01*
X41126504Y48284318D01*
X35911682Y43069496D01*
X35857165Y43041719D01*
X35841678Y43040500D01*
X33171142Y43040500D01*
X33134374Y43047581D01*
X32680656Y43229069D01*
X32680654Y43229070D01*
X32680653Y43229070D01*
X32680650Y43229071D01*
X32680645Y43229072D01*
X32604474Y43243768D01*
X32604472Y43243769D01*
X32595811Y43243774D01*
X32595806Y43243774D01*
X32595805Y43243774D01*
X32587915Y43242264D01*
X32569309Y43240500D01*
X30070252Y43240500D01*
X30070251Y43240500D01*
X30070241Y43240499D01*
X30011772Y43228868D01*
X30011766Y43228866D01*
X29945451Y43184555D01*
X29945445Y43184549D01*
X29901134Y43118234D01*
X29901132Y43118228D01*
X29889501Y43059759D01*
X29889500Y43059747D01*
X28050500Y43059747D01*
X28050500Y43501678D01*
X28069407Y43559869D01*
X28079496Y43571682D01*
X30978318Y46470504D01*
X31032835Y46498281D01*
X31048322Y46499500D01*
X34065890Y46499500D01*
X34065892Y46499500D01*
X34193186Y46533608D01*
X34193188Y46533610D01*
X34193190Y46533610D01*
X34307309Y46599497D01*
X34307309Y46599498D01*
X34307314Y46599500D01*
X36976500Y49268686D01*
X37042392Y49382814D01*
X37076500Y49510107D01*
X37076500Y49591658D01*
X37091961Y49644782D01*
X37165950Y49761133D01*
X37450026Y50207852D01*
X37455181Y50220913D01*
X37464948Y50239556D01*
X37475223Y50254933D01*
X37506941Y50302402D01*
X37586130Y50493580D01*
X37626500Y50696535D01*
X37626500Y50903465D01*
X37626499Y50903468D01*
X38065500Y50903468D01*
X38065500Y50696533D01*
X38105869Y50493582D01*
X38185058Y50302403D01*
X38216777Y50254932D01*
X38300023Y50130345D01*
X38446345Y49984023D01*
X38618402Y49869059D01*
X38809580Y49789870D01*
X39012535Y49749500D01*
X39012536Y49749500D01*
X39219464Y49749500D01*
X39219465Y49749500D01*
X39422420Y49789870D01*
X39613598Y49869059D01*
X39785655Y49984023D01*
X39931977Y50130345D01*
X40046941Y50302402D01*
X40126130Y50493580D01*
X40166500Y50696535D01*
X40166500Y50903465D01*
X40126130Y51106420D01*
X40046941Y51297598D01*
X39931977Y51469655D01*
X39785655Y51615977D01*
X39785651Y51615980D01*
X39613597Y51730942D01*
X39422418Y51810131D01*
X39219467Y51850500D01*
X39219465Y51850500D01*
X39012535Y51850500D01*
X39012532Y51850500D01*
X38809581Y51810131D01*
X38618402Y51730942D01*
X38446348Y51615980D01*
X38300020Y51469652D01*
X38185058Y51297598D01*
X38105869Y51106419D01*
X38065500Y50903468D01*
X37626499Y50903468D01*
X37586130Y51106420D01*
X37506941Y51297598D01*
X37391977Y51469655D01*
X37245655Y51615977D01*
X37245651Y51615980D01*
X37073597Y51730942D01*
X36882418Y51810131D01*
X36679467Y51850500D01*
X36679465Y51850500D01*
X36472535Y51850500D01*
X36472532Y51850500D01*
X36269581Y51810131D01*
X36078402Y51730942D01*
X35906348Y51615980D01*
X35760020Y51469652D01*
X35645058Y51297598D01*
X35565869Y51106419D01*
X35525500Y50903468D01*
X35525500Y50696531D01*
X35529975Y50674035D01*
X35544676Y50600127D01*
X35546141Y50571799D01*
X35565594Y50494964D01*
X35565870Y50493580D01*
X35565871Y50493576D01*
X35565921Y50493328D01*
X35566890Y50489847D01*
X35798584Y49574735D01*
X35794537Y49513683D01*
X35772616Y49480432D01*
X33821682Y47529496D01*
X33767165Y47501719D01*
X33751678Y47500500D01*
X30865892Y47500500D01*
X30734107Y47500500D01*
X30656200Y47479626D01*
X30606809Y47466391D01*
X30492690Y47400504D01*
X27242686Y44150500D01*
X27242685Y44150501D01*
X27149500Y44057315D01*
X27149496Y44057310D01*
X27083609Y43943191D01*
X27083608Y43943186D01*
X27049500Y43815892D01*
X11396820Y43815892D01*
X11396820Y50497227D01*
X11396976Y50502778D01*
X11402443Y50600127D01*
X11414897Y50821895D01*
X11416140Y50832920D01*
X11431949Y50925966D01*
X13639500Y50925966D01*
X13639500Y50674035D01*
X13678908Y50425220D01*
X13749536Y50207852D01*
X13756759Y50185621D01*
X13871130Y49961155D01*
X14019207Y49757344D01*
X14197344Y49579207D01*
X14401155Y49431130D01*
X14625621Y49316759D01*
X14865215Y49238910D01*
X14865216Y49238910D01*
X14865219Y49238909D01*
X15114035Y49199500D01*
X15114038Y49199500D01*
X15365965Y49199500D01*
X15614780Y49238909D01*
X15614781Y49238910D01*
X15614785Y49238910D01*
X15854379Y49316759D01*
X16078845Y49431130D01*
X16282656Y49579207D01*
X16460793Y49757344D01*
X16608870Y49961155D01*
X16723241Y50185621D01*
X16801090Y50425215D01*
X16811825Y50492993D01*
X16840500Y50674035D01*
X16840500Y50925966D01*
X16801091Y51174781D01*
X16792865Y51200099D01*
X16723241Y51414379D01*
X16608870Y51638845D01*
X16586418Y51669747D01*
X17745500Y51669747D01*
X17745500Y49930254D01*
X17745501Y49930242D01*
X17757132Y49871773D01*
X17757134Y49871767D01*
X17801445Y49805452D01*
X17801448Y49805448D01*
X17867769Y49761133D01*
X17912231Y49752289D01*
X17926241Y49749502D01*
X17926246Y49749502D01*
X17926252Y49749500D01*
X17926253Y49749500D01*
X19665747Y49749500D01*
X19665748Y49749500D01*
X19724231Y49761133D01*
X19790552Y49805448D01*
X19834867Y49871769D01*
X19846500Y49930252D01*
X19846500Y50903468D01*
X20285500Y50903468D01*
X20285500Y50696533D01*
X20325869Y50493582D01*
X20405058Y50302403D01*
X20436777Y50254932D01*
X20520023Y50130345D01*
X20666345Y49984023D01*
X20838402Y49869059D01*
X21029580Y49789870D01*
X21232535Y49749500D01*
X21232536Y49749500D01*
X21439464Y49749500D01*
X21439465Y49749500D01*
X21642420Y49789870D01*
X21833598Y49869059D01*
X22005655Y49984023D01*
X22151977Y50130345D01*
X22266941Y50302402D01*
X22346130Y50493580D01*
X22386500Y50696535D01*
X22386500Y50903465D01*
X22386499Y50903468D01*
X22825500Y50903468D01*
X22825500Y50696533D01*
X22865869Y50493582D01*
X22945058Y50302403D01*
X22976777Y50254932D01*
X23060023Y50130345D01*
X23206345Y49984023D01*
X23378402Y49869059D01*
X23569580Y49789870D01*
X23772535Y49749500D01*
X23772536Y49749500D01*
X23979464Y49749500D01*
X23979465Y49749500D01*
X24182420Y49789870D01*
X24373598Y49869059D01*
X24545655Y49984023D01*
X24691977Y50130345D01*
X24806941Y50302402D01*
X24886130Y50493580D01*
X24926500Y50696535D01*
X24926500Y50903419D01*
X25366000Y50903419D01*
X25366000Y50696582D01*
X25406349Y50493728D01*
X25485501Y50302640D01*
X25485505Y50302631D01*
X25517377Y50254933D01*
X25933036Y50670593D01*
X25950075Y50607007D01*
X26015901Y50492993D01*
X26108993Y50399901D01*
X26223007Y50334075D01*
X26286590Y50317038D01*
X25870931Y49901379D01*
X25918639Y49869502D01*
X26109727Y49790350D01*
X26312581Y49750001D01*
X26312586Y49750000D01*
X26519414Y49750000D01*
X26519418Y49750001D01*
X26722272Y49790350D01*
X26913359Y49869501D01*
X26961068Y49901379D01*
X26545409Y50317038D01*
X26608993Y50334075D01*
X26723007Y50399901D01*
X26816099Y50492993D01*
X26881925Y50607007D01*
X26898962Y50670591D01*
X27314621Y50254932D01*
X27346499Y50302641D01*
X27425650Y50493728D01*
X27465999Y50696582D01*
X27466000Y50696587D01*
X27466000Y50903415D01*
X27465999Y50903418D01*
X27465989Y50903468D01*
X27905500Y50903468D01*
X27905500Y50696533D01*
X27945869Y50493582D01*
X28025058Y50302403D01*
X28056777Y50254932D01*
X28140023Y50130345D01*
X28286345Y49984023D01*
X28458402Y49869059D01*
X28649580Y49789870D01*
X28852535Y49749500D01*
X28852536Y49749500D01*
X29059464Y49749500D01*
X29059465Y49749500D01*
X29262420Y49789870D01*
X29453598Y49869059D01*
X29625655Y49984023D01*
X29771977Y50130345D01*
X29886941Y50302402D01*
X29966130Y50493580D01*
X30006500Y50696535D01*
X30006500Y50903465D01*
X30006499Y50903468D01*
X30445500Y50903468D01*
X30445500Y50696533D01*
X30485869Y50493582D01*
X30565058Y50302403D01*
X30596777Y50254932D01*
X30680023Y50130345D01*
X30826345Y49984023D01*
X30998402Y49869059D01*
X31189580Y49789870D01*
X31392535Y49749500D01*
X31392536Y49749500D01*
X31599464Y49749500D01*
X31599465Y49749500D01*
X31802420Y49789870D01*
X31993598Y49869059D01*
X32165655Y49984023D01*
X32311977Y50130345D01*
X32426941Y50302402D01*
X32506130Y50493580D01*
X32546500Y50696535D01*
X32546500Y50903465D01*
X32546499Y50903468D01*
X32985500Y50903468D01*
X32985500Y50696533D01*
X33025869Y50493582D01*
X33105058Y50302403D01*
X33136777Y50254932D01*
X33220023Y50130345D01*
X33366345Y49984023D01*
X33538402Y49869059D01*
X33729580Y49789870D01*
X33932535Y49749500D01*
X33932536Y49749500D01*
X34139464Y49749500D01*
X34139465Y49749500D01*
X34342420Y49789870D01*
X34533598Y49869059D01*
X34705655Y49984023D01*
X34851977Y50130345D01*
X34966941Y50302402D01*
X35046130Y50493580D01*
X35086500Y50696535D01*
X35086500Y50903465D01*
X35046130Y51106420D01*
X34966941Y51297598D01*
X34851977Y51469655D01*
X34705655Y51615977D01*
X34705651Y51615980D01*
X34533597Y51730942D01*
X34342418Y51810131D01*
X34139467Y51850500D01*
X34139465Y51850500D01*
X33932535Y51850500D01*
X33932532Y51850500D01*
X33729581Y51810131D01*
X33538402Y51730942D01*
X33366348Y51615980D01*
X33220020Y51469652D01*
X33105058Y51297598D01*
X33025869Y51106419D01*
X32985500Y50903468D01*
X32546499Y50903468D01*
X32506130Y51106420D01*
X32426941Y51297598D01*
X32311977Y51469655D01*
X32165655Y51615977D01*
X32165651Y51615980D01*
X31993597Y51730942D01*
X31802418Y51810131D01*
X31599467Y51850500D01*
X31599465Y51850500D01*
X31392535Y51850500D01*
X31392532Y51850500D01*
X31189581Y51810131D01*
X30998402Y51730942D01*
X30826348Y51615980D01*
X30680020Y51469652D01*
X30565058Y51297598D01*
X30485869Y51106419D01*
X30445500Y50903468D01*
X30006499Y50903468D01*
X29966130Y51106420D01*
X29886941Y51297598D01*
X29771977Y51469655D01*
X29625655Y51615977D01*
X29625651Y51615980D01*
X29453597Y51730942D01*
X29262418Y51810131D01*
X29059467Y51850500D01*
X29059465Y51850500D01*
X28852535Y51850500D01*
X28852532Y51850500D01*
X28649581Y51810131D01*
X28458402Y51730942D01*
X28286348Y51615980D01*
X28140020Y51469652D01*
X28025058Y51297598D01*
X27945869Y51106419D01*
X27905500Y50903468D01*
X27465989Y50903468D01*
X27425650Y51106273D01*
X27346498Y51297361D01*
X27314621Y51345069D01*
X26898962Y50929410D01*
X26881925Y50992993D01*
X26816099Y51107007D01*
X26723007Y51200099D01*
X26608993Y51265925D01*
X26545407Y51282964D01*
X26961067Y51698623D01*
X26913369Y51730495D01*
X26913360Y51730499D01*
X26722272Y51809651D01*
X26519418Y51850000D01*
X26312581Y51850000D01*
X26109727Y51809651D01*
X25918638Y51730499D01*
X25870931Y51698623D01*
X26286591Y51282963D01*
X26223007Y51265925D01*
X26108993Y51200099D01*
X26015901Y51107007D01*
X25950075Y50992993D01*
X25933037Y50929409D01*
X25517377Y51345069D01*
X25485501Y51297362D01*
X25406349Y51106273D01*
X25366000Y50903419D01*
X24926500Y50903419D01*
X24926500Y50903465D01*
X24886130Y51106420D01*
X24806941Y51297598D01*
X24691977Y51469655D01*
X24545655Y51615977D01*
X24545651Y51615980D01*
X24373597Y51730942D01*
X24182418Y51810131D01*
X23979467Y51850500D01*
X23979465Y51850500D01*
X23772535Y51850500D01*
X23772532Y51850500D01*
X23569581Y51810131D01*
X23378402Y51730942D01*
X23206348Y51615980D01*
X23060020Y51469652D01*
X22945058Y51297598D01*
X22865869Y51106419D01*
X22825500Y50903468D01*
X22386499Y50903468D01*
X22346130Y51106420D01*
X22266941Y51297598D01*
X22151977Y51469655D01*
X22005655Y51615977D01*
X22005651Y51615980D01*
X21833597Y51730942D01*
X21642418Y51810131D01*
X21439467Y51850500D01*
X21439465Y51850500D01*
X21232535Y51850500D01*
X21232532Y51850500D01*
X21029581Y51810131D01*
X20838402Y51730942D01*
X20666348Y51615980D01*
X20520020Y51469652D01*
X20405058Y51297598D01*
X20325869Y51106419D01*
X20285500Y50903468D01*
X19846500Y50903468D01*
X19846500Y51669748D01*
X19834867Y51728231D01*
X19790552Y51794552D01*
X19790548Y51794555D01*
X19724233Y51838866D01*
X19724231Y51838867D01*
X19724228Y51838868D01*
X19724227Y51838868D01*
X19665758Y51850499D01*
X19665748Y51850500D01*
X17926252Y51850500D01*
X17926251Y51850500D01*
X17926241Y51850499D01*
X17867772Y51838868D01*
X17867766Y51838866D01*
X17801451Y51794555D01*
X17801445Y51794549D01*
X17757134Y51728234D01*
X17757132Y51728228D01*
X17745501Y51669759D01*
X17745500Y51669747D01*
X16586418Y51669747D01*
X16460793Y51842656D01*
X16282656Y52020793D01*
X16078845Y52168870D01*
X16078844Y52168871D01*
X16078842Y52168872D01*
X15854379Y52283241D01*
X15614780Y52361092D01*
X15365965Y52400500D01*
X15365962Y52400500D01*
X15114038Y52400500D01*
X15114035Y52400500D01*
X14865219Y52361092D01*
X14625620Y52283241D01*
X14401157Y52168872D01*
X14197345Y52020794D01*
X14019206Y51842655D01*
X13871128Y51638843D01*
X13756759Y51414380D01*
X13678908Y51174781D01*
X13639500Y50925966D01*
X11431949Y50925966D01*
X11469214Y51145295D01*
X11471675Y51156081D01*
X11559397Y51460568D01*
X11563057Y51471027D01*
X11684312Y51763762D01*
X11689127Y51773757D01*
X11842391Y52051066D01*
X11848287Y52060449D01*
X12031647Y52318869D01*
X12038558Y52327534D01*
X12038564Y52327540D01*
X12249682Y52563781D01*
X12257524Y52571625D01*
X12493789Y52782762D01*
X12502448Y52789667D01*
X12760868Y52973025D01*
X12770253Y52978922D01*
X13047580Y53132192D01*
X13057547Y53136992D01*
X13350290Y53258249D01*
X13360750Y53261909D01*
X13665228Y53349626D01*
X13676029Y53352091D01*
X13988405Y53405164D01*
X13999425Y53406406D01*
X14165406Y53415726D01*
X14318902Y53424344D01*
X14324452Y53424500D01*
X14345851Y53424500D01*
X70475469Y53424500D01*
X70497227Y53424500D01*
X70502777Y53424345D01*
G37*
%TD.AperFunction*%
%TD*%
%TA.AperFunction,Conductor*%
%TO.N,+5V*%
G36*
X49318264Y39952720D02*
G01*
X49506494Y39764113D01*
X49804555Y39465455D01*
X49807974Y39457178D01*
X49807137Y39452845D01*
X49612942Y38967355D01*
X49606688Y38960946D01*
X49602079Y38960000D01*
X49017921Y38960000D01*
X49009648Y38963427D01*
X49007058Y38967355D01*
X48812862Y39452845D01*
X48812971Y39461799D01*
X48815444Y39465455D01*
X49301719Y39952704D01*
X49309988Y39956138D01*
X49318264Y39952720D01*
G37*
%TD.AperFunction*%
%TD*%
%TA.AperFunction,Conductor*%
%TO.N,/\u002A10*%
G36*
X36580725Y50798016D02*
G01*
X36829912Y50631098D01*
X37273256Y50334124D01*
X37278223Y50326672D01*
X37276618Y50318125D01*
X36470928Y49051147D01*
X36463597Y49046004D01*
X36454777Y49047552D01*
X36452782Y49049152D01*
X36041113Y49460821D01*
X36038044Y49466222D01*
X35822352Y50318125D01*
X35745355Y50622238D01*
X35746646Y50631098D01*
X35753825Y50636451D01*
X35754402Y50636582D01*
X36571944Y50799757D01*
X36580725Y50798016D01*
G37*
%TD.AperFunction*%
%TD*%
%TA.AperFunction,Conductor*%
%TO.N,/\u002A10*%
G36*
X31645352Y25536573D02*
G01*
X31647942Y25532645D01*
X31842137Y25047156D01*
X31842028Y25038202D01*
X31839555Y25034546D01*
X31353281Y24547298D01*
X31345012Y24543863D01*
X31336735Y24547282D01*
X31336719Y24547298D01*
X30850444Y25034546D01*
X30847025Y25042823D01*
X30847862Y25047156D01*
X31042058Y25532645D01*
X31048312Y25539054D01*
X31052921Y25540000D01*
X31637079Y25540000D01*
X31645352Y25536573D01*
G37*
%TD.AperFunction*%
%TD*%
%TA.AperFunction,Conductor*%
%TO.N,+5V*%
G36*
X23247617Y8246816D02*
G01*
X23841935Y8052636D01*
X23848733Y8046810D01*
X23850000Y8041515D01*
X23850000Y7459478D01*
X23846573Y7451205D01*
X23840729Y7448033D01*
X23235951Y7319685D01*
X23227147Y7321320D01*
X23223945Y7324410D01*
X22903834Y7780611D01*
X22901887Y7789351D01*
X22903994Y7794274D01*
X23092539Y8050000D01*
X23234568Y8242638D01*
X23242236Y8247262D01*
X23247617Y8246816D01*
G37*
%TD.AperFunction*%
%TD*%
%TA.AperFunction,Conductor*%
%TO.N,+5V*%
G36*
X38399984Y4220240D02*
G01*
X38402749Y4215848D01*
X38929198Y2718538D01*
X38928709Y2709596D01*
X38922041Y2703619D01*
X38920456Y2703184D01*
X38102296Y2539460D01*
X38097704Y2539460D01*
X37279543Y2703184D01*
X37272103Y2708168D01*
X37270366Y2716953D01*
X37270796Y2718524D01*
X37797251Y4215848D01*
X37803228Y4222516D01*
X37808289Y4223667D01*
X38391711Y4223667D01*
X38399984Y4220240D01*
G37*
%TD.AperFunction*%
%TD*%
%TA.AperFunction,Conductor*%
%TO.N,+5V*%
G36*
X31645352Y20456573D02*
G01*
X31647942Y20452645D01*
X31842137Y19967156D01*
X31842028Y19958202D01*
X31839555Y19954546D01*
X31353281Y19467298D01*
X31345012Y19463863D01*
X31336735Y19467282D01*
X31336719Y19467298D01*
X30850444Y19954546D01*
X30847025Y19962823D01*
X30847862Y19967156D01*
X31042058Y20452645D01*
X31048312Y20459054D01*
X31052921Y20460000D01*
X31637079Y20460000D01*
X31645352Y20456573D01*
G37*
%TD.AperFunction*%
%TD*%
%TA.AperFunction,Conductor*%
%TO.N,+5V*%
G36*
X32604332Y19958268D02*
G01*
X33092645Y19762942D01*
X33099054Y19756688D01*
X33100000Y19752079D01*
X33100000Y19167921D01*
X33096573Y19159648D01*
X33092645Y19157058D01*
X32604334Y18961734D01*
X32595662Y18961727D01*
X31371304Y19449131D01*
X31364886Y19455373D01*
X31364762Y19464327D01*
X31371005Y19470746D01*
X31371305Y19470870D01*
X32595664Y19958274D01*
X32604332Y19958268D01*
G37*
%TD.AperFunction*%
%TD*%
%TA.AperFunction,Conductor*%
%TO.N,+5V*%
G36*
X22572564Y8253629D02*
G01*
X22576335Y8250192D01*
X22896284Y7794220D01*
X22898231Y7785480D01*
X22896284Y7780780D01*
X22576335Y7324809D01*
X22568778Y7320005D01*
X22563681Y7320241D01*
X21958623Y7485150D01*
X21951543Y7490632D01*
X21950000Y7496438D01*
X21950000Y8078563D01*
X21953427Y8086836D01*
X21958620Y8089850D01*
X22563683Y8254760D01*
X22572564Y8253629D01*
G37*
%TD.AperFunction*%
%TD*%
%TA.AperFunction,Conductor*%
%TO.N,+5V*%
G36*
X45457298Y19752079D02*
G01*
X46163694Y19470870D01*
X46170113Y19464627D01*
X46170237Y19455673D01*
X46163994Y19449254D01*
X46163694Y19449130D01*
X44939337Y18961727D01*
X44930665Y18961734D01*
X44442355Y19157058D01*
X44435946Y19163312D01*
X44435000Y19167921D01*
X44435000Y19752079D01*
X44438427Y19760352D01*
X44442355Y19762942D01*
X44930667Y19958268D01*
X44939335Y19958274D01*
X45457298Y19752079D01*
G37*
%TD.AperFunction*%
%TD*%
%TA.AperFunction,Conductor*%
%TO.N,+5V*%
G36*
X32604332Y37958268D02*
G01*
X33092645Y37762942D01*
X33099054Y37756688D01*
X33100000Y37752079D01*
X33100000Y37167921D01*
X33096573Y37159648D01*
X33092645Y37157058D01*
X32604334Y36961734D01*
X32595662Y36961727D01*
X31371304Y37449131D01*
X31364886Y37455373D01*
X31364762Y37464327D01*
X31371005Y37470746D01*
X31371305Y37470870D01*
X32595664Y37958274D01*
X32604332Y37958268D01*
G37*
%TD.AperFunction*%
%TD*%
%TA.AperFunction,Conductor*%
%TO.N,+5V*%
G36*
X56407294Y20382591D02*
G01*
X57192118Y19707639D01*
X57196156Y19699646D01*
X57193360Y19691139D01*
X57193350Y19691128D01*
X56405879Y18777807D01*
X56397881Y18773779D01*
X56391902Y18774925D01*
X55606584Y19156799D01*
X55600642Y19163499D01*
X55600000Y19167321D01*
X55600000Y19754315D01*
X55603427Y19762588D01*
X55604469Y19763513D01*
X56392436Y20382919D01*
X56401056Y20385337D01*
X56407294Y20382591D01*
G37*
%TD.AperFunction*%
%TD*%
%TA.AperFunction,Conductor*%
%TO.N,+5V*%
G36*
X47449332Y19958268D02*
G01*
X47937645Y19762942D01*
X47944054Y19756688D01*
X47945000Y19752079D01*
X47945000Y19167921D01*
X47941573Y19159648D01*
X47937645Y19157058D01*
X47449334Y18961734D01*
X47440662Y18961727D01*
X46216304Y19449131D01*
X46209886Y19455373D01*
X46209762Y19464327D01*
X46216005Y19470746D01*
X46216305Y19470870D01*
X47440664Y19958274D01*
X47449332Y19958268D01*
G37*
%TD.AperFunction*%
%TD*%
%TA.AperFunction,Conductor*%
%TO.N,/A0*%
G36*
X23236315Y10079761D02*
G01*
X23841378Y9914850D01*
X23848457Y9909369D01*
X23850000Y9903563D01*
X23850000Y9321438D01*
X23846573Y9313165D01*
X23841377Y9310150D01*
X23236318Y9145241D01*
X23227435Y9146372D01*
X23223665Y9149808D01*
X22903714Y9605781D01*
X22901768Y9614520D01*
X22903715Y9619220D01*
X23223666Y10075194D01*
X23231221Y10079996D01*
X23236315Y10079761D01*
G37*
%TD.AperFunction*%
%TD*%
%TA.AperFunction,Conductor*%
%TO.N,/A0*%
G36*
X51101908Y4236573D02*
G01*
X51103458Y4234656D01*
X51644864Y3397937D01*
X51646481Y3389130D01*
X51643319Y3383313D01*
X50808278Y2547288D01*
X50800007Y2543856D01*
X50791732Y2547278D01*
X50791722Y2547288D01*
X49956680Y3383313D01*
X49953258Y3391588D01*
X49955134Y3397935D01*
X50496542Y4234657D01*
X50503914Y4239740D01*
X50506365Y4240000D01*
X51093635Y4240000D01*
X51101908Y4236573D01*
G37*
%TD.AperFunction*%
%TD*%
%TA.AperFunction,Conductor*%
%TO.N,/A0*%
G36*
X19136183Y20944651D02*
G01*
X19137126Y20942943D01*
X19909462Y19218862D01*
X19909716Y19209911D01*
X19907057Y19205806D01*
X19494194Y18792943D01*
X19485921Y18789516D01*
X19481138Y18790538D01*
X17757057Y19562874D01*
X17750908Y19569384D01*
X17751162Y19578335D01*
X17752098Y19580031D01*
X18297996Y20398763D01*
X18301237Y20402004D01*
X19119960Y20947896D01*
X19128742Y20949633D01*
X19136183Y20944651D01*
G37*
%TD.AperFunction*%
%TD*%
%TA.AperFunction,Conductor*%
%TO.N,/A0*%
G36*
X22373768Y10565737D02*
G01*
X23076418Y10105135D01*
X23081459Y10097734D01*
X23080956Y10091234D01*
X22902497Y9616555D01*
X22896378Y9610017D01*
X22896003Y9609855D01*
X22433904Y9419418D01*
X22424949Y9419434D01*
X22419687Y9423781D01*
X21946819Y10138719D01*
X21945114Y10147509D01*
X21948303Y10153444D01*
X22359084Y10564225D01*
X22367356Y10567651D01*
X22373768Y10565737D01*
G37*
%TD.AperFunction*%
%TD*%
%TA.AperFunction,Conductor*%
%TO.N,/A0*%
G36*
X23978334Y20948838D02*
G01*
X23980035Y20947899D01*
X24638034Y20509171D01*
X24798760Y20402005D01*
X24802004Y20398761D01*
X25347894Y19580043D01*
X25349632Y19571258D01*
X25344650Y19563817D01*
X25342942Y19562874D01*
X23618861Y18790538D01*
X23609910Y18790284D01*
X23605805Y18792943D01*
X23192942Y19205806D01*
X23189515Y19214079D01*
X23190537Y19218862D01*
X23344644Y19562874D01*
X23962873Y20942944D01*
X23969383Y20949092D01*
X23978334Y20948838D01*
G37*
%TD.AperFunction*%
%TD*%
%TA.AperFunction,Conductor*%
%TO.N,/\u002A8*%
G36*
X42476456Y50636817D02*
G01*
X42483896Y50631833D01*
X42485633Y50623048D01*
X42485198Y50621463D01*
X41958749Y49124152D01*
X41952772Y49117484D01*
X41947711Y49116333D01*
X41364289Y49116333D01*
X41356016Y49119760D01*
X41353251Y49124152D01*
X41277924Y49338395D01*
X40826801Y50621465D01*
X40827290Y50630405D01*
X40833958Y50636382D01*
X40835536Y50636816D01*
X41653706Y50800541D01*
X41658294Y50800541D01*
X42476456Y50636817D01*
G37*
%TD.AperFunction*%
%TD*%
%TA.AperFunction,Conductor*%
%TO.N,/\u002A8*%
G36*
X32604332Y43038268D02*
G01*
X33092645Y42842942D01*
X33099054Y42836688D01*
X33100000Y42832079D01*
X33100000Y42247921D01*
X33096573Y42239648D01*
X33092645Y42237058D01*
X32604334Y42041734D01*
X32595662Y42041727D01*
X31371304Y42529131D01*
X31364886Y42535373D01*
X31364762Y42544327D01*
X31371005Y42550746D01*
X31371305Y42550870D01*
X32595664Y43038274D01*
X32604332Y43038268D01*
G37*
%TD.AperFunction*%
%TD*%
%TA.AperFunction,Conductor*%
%TO.N,/\u002A7*%
G36*
X45366558Y38480366D02*
G01*
X46194227Y37928586D01*
X46199122Y37925323D01*
X46204105Y37917883D01*
X46203449Y37911129D01*
X46005174Y37430132D01*
X45998853Y37423789D01*
X45989898Y37423774D01*
X44809062Y37913298D01*
X44802733Y37919631D01*
X44802736Y37928586D01*
X44805268Y37932375D01*
X44934315Y38061421D01*
X45351797Y38478904D01*
X45360069Y38482330D01*
X45366558Y38480366D01*
G37*
%TD.AperFunction*%
%TD*%
%TA.AperFunction,Conductor*%
%TO.N,/\u002A7*%
G36*
X45728266Y50792724D02*
G01*
X46114154Y50406383D01*
X46563319Y49956688D01*
X46566741Y49948413D01*
X46564864Y49942064D01*
X46023458Y49105344D01*
X46016087Y49100260D01*
X46013635Y49100000D01*
X45426365Y49100000D01*
X45418092Y49103427D01*
X45416542Y49105344D01*
X44875135Y49942064D01*
X44873518Y49950871D01*
X44876680Y49956688D01*
X45711723Y50792714D01*
X45719993Y50796145D01*
X45728266Y50792724D01*
G37*
%TD.AperFunction*%
%TD*%
%TA.AperFunction,Conductor*%
%TO.N,/\u002A5*%
G36*
X46838203Y25598903D02*
G01*
X47384728Y25052378D01*
X47388155Y25044105D01*
X47384728Y25035832D01*
X47380936Y25033297D01*
X46200123Y24543783D01*
X46191168Y24543780D01*
X46184834Y24550110D01*
X46184825Y24550132D01*
X45986550Y25031131D01*
X45986565Y25040084D01*
X45990875Y25045321D01*
X46823441Y25600366D01*
X46832225Y25602103D01*
X46838203Y25598903D01*
G37*
%TD.AperFunction*%
%TD*%
%TA.AperFunction,Conductor*%
%TO.N,/\u002A5*%
G36*
X51620456Y50636817D02*
G01*
X51627896Y50631833D01*
X51629633Y50623048D01*
X51629198Y50621463D01*
X51102749Y49124152D01*
X51096772Y49117484D01*
X51091711Y49116333D01*
X50508289Y49116333D01*
X50500016Y49119760D01*
X50497251Y49124152D01*
X50421924Y49338395D01*
X49970801Y50621465D01*
X49971290Y50630405D01*
X49977958Y50636382D01*
X49979536Y50636816D01*
X50797706Y50800541D01*
X50802294Y50800541D01*
X51620456Y50636817D01*
G37*
%TD.AperFunction*%
%TD*%
M02*
